%TF.GenerationSoftware,KiCad,Pcbnew,(5.0.0)*%
%TF.CreationDate,2018-12-09T22:39:23+01:00*%
%TF.ProjectId,formant_vco,666F726D616E745F76636F2E6B696361,rev?*%
%TF.SameCoordinates,Original*%
%TF.FileFunction,Soldermask,Top*%
%TF.FilePolarity,Negative*%
%FSLAX46Y46*%
G04 Gerber Fmt 4.6, Leading zero omitted, Abs format (unit mm)*
G04 Created by KiCad (PCBNEW (5.0.0)) date 12/09/18 22:39:23*
%MOMM*%
%LPD*%
G01*
G04 APERTURE LIST*
%ADD10C,0.100000*%
%ADD11R,1.727200X1.727200*%
%ADD12O,1.727200X1.727200*%
%ADD13C,1.620000*%
%ADD14O,3.000000X1.000000*%
%ADD15O,1.500000X3.000000*%
%ADD16O,1.500000X2.100000*%
%ADD17C,2.000000*%
%ADD18R,0.600000X1.550000*%
%ADD19R,1.500000X0.600000*%
%ADD20R,0.900000X0.800000*%
%ADD21R,0.800000X0.900000*%
%ADD22R,1.700000X1.700000*%
%ADD23O,1.700000X1.700000*%
%ADD24R,0.600000X1.500000*%
%ADD25R,1.800000X1.800000*%
%ADD26C,1.800000*%
%ADD27C,0.150000*%
%ADD28C,0.975000*%
%ADD29C,1.400000*%
G04 APERTURE END LIST*
D10*
X55000000Y-155000000D02*
X95000000Y-155000000D01*
X95000000Y-55000000D02*
X95000000Y-155000000D01*
X55000000Y-55000000D02*
X95000000Y-55000000D01*
X55000000Y-155000000D02*
X55000000Y-55000000D01*
X57551666Y-175260000D02*
G75*
G03X57551666Y-175260000I-1666666J0D01*
G01*
X53385000Y-175260000D02*
X58385000Y-175260000D01*
X55885000Y-172760000D02*
X55885000Y-177760000D01*
D11*
X91135000Y-149010000D03*
D12*
X88595000Y-149010000D03*
X91135000Y-146470000D03*
X88595000Y-146470000D03*
X91135000Y-143930000D03*
X88595000Y-143930000D03*
X91135000Y-141390000D03*
X88595000Y-141390000D03*
X91135000Y-138850000D03*
X88595000Y-138850000D03*
X91135000Y-136310000D03*
X88595000Y-136310000D03*
X91135000Y-133770000D03*
X88595000Y-133770000D03*
X91135000Y-131230000D03*
X88595000Y-131230000D03*
D13*
X74635000Y-119010000D03*
X79635000Y-116510000D03*
X74635000Y-114010000D03*
X58135000Y-95010000D03*
X63135000Y-92510000D03*
X58135000Y-90010000D03*
D14*
X86635000Y-104760000D03*
X86635000Y-96660000D03*
D15*
X81935000Y-102460000D03*
D16*
X91335000Y-102460000D03*
D17*
X63385000Y-120510000D03*
X65885000Y-120510000D03*
X68385000Y-120510000D03*
X70685000Y-113010000D03*
X61085000Y-113010000D03*
D18*
X79040000Y-62960000D03*
X77770000Y-62960000D03*
X76500000Y-62960000D03*
X75230000Y-62960000D03*
X75230000Y-57560000D03*
X76500000Y-57560000D03*
X77770000Y-57560000D03*
X79040000Y-57560000D03*
X79040000Y-66560000D03*
X77770000Y-66560000D03*
X76500000Y-66560000D03*
X75230000Y-66560000D03*
X75230000Y-71960000D03*
X76500000Y-71960000D03*
X77770000Y-71960000D03*
X79040000Y-71960000D03*
X79540000Y-130210000D03*
X78270000Y-130210000D03*
X77000000Y-130210000D03*
X75730000Y-130210000D03*
X75730000Y-124810000D03*
X77000000Y-124810000D03*
X78270000Y-124810000D03*
X79540000Y-124810000D03*
D19*
X62085000Y-134070000D03*
X62085000Y-132800000D03*
X62085000Y-131530000D03*
X62085000Y-130260000D03*
X62085000Y-128990000D03*
X62085000Y-127720000D03*
X62085000Y-126450000D03*
X56685000Y-126450000D03*
X56685000Y-127720000D03*
X56685000Y-128990000D03*
X56685000Y-130260000D03*
X56685000Y-131530000D03*
X56685000Y-132800000D03*
X56685000Y-134070000D03*
D18*
X87290000Y-71960000D03*
X86020000Y-71960000D03*
X84750000Y-71960000D03*
X83480000Y-71960000D03*
X83480000Y-66560000D03*
X84750000Y-66560000D03*
X86020000Y-66560000D03*
X87290000Y-66560000D03*
X78790000Y-111210000D03*
X77520000Y-111210000D03*
X76250000Y-111210000D03*
X74980000Y-111210000D03*
X74980000Y-105810000D03*
X76250000Y-105810000D03*
X77520000Y-105810000D03*
X78790000Y-105810000D03*
D20*
X70385000Y-125710000D03*
X70385000Y-127810000D03*
X70385000Y-129460000D03*
X70385000Y-131560000D03*
X93135000Y-123210000D03*
X93135000Y-121310000D03*
X91135000Y-122260000D03*
D21*
X68585000Y-127760000D03*
X66685000Y-127760000D03*
X67635000Y-129760000D03*
X64585000Y-122760000D03*
X62685000Y-122760000D03*
X63635000Y-124760000D03*
X66435000Y-125694308D03*
X68335000Y-125694308D03*
X67385000Y-123694308D03*
D20*
X75635000Y-134560000D03*
X75635000Y-136460000D03*
X77635000Y-135510000D03*
D22*
X83885000Y-63460000D03*
D23*
X83885000Y-60920000D03*
D22*
X90260000Y-63510000D03*
D23*
X90260000Y-60970000D03*
D24*
X74825000Y-144210000D03*
X76095000Y-144210000D03*
X77365000Y-144210000D03*
X78635000Y-144210000D03*
X79905000Y-144210000D03*
X81175000Y-144210000D03*
X82445000Y-144210000D03*
X82445000Y-138810000D03*
X81175000Y-138810000D03*
X79905000Y-138810000D03*
X78635000Y-138810000D03*
X77365000Y-138810000D03*
X76095000Y-138810000D03*
X74825000Y-138810000D03*
D25*
X67885000Y-149510000D03*
D26*
X70425000Y-149510000D03*
D25*
X61385000Y-149510000D03*
D26*
X63925000Y-149510000D03*
D17*
X84385000Y-87510000D03*
X86885000Y-87510000D03*
X89385000Y-87510000D03*
X91685000Y-80010000D03*
X82085000Y-80010000D03*
X63385000Y-87510000D03*
X65885000Y-87510000D03*
X68385000Y-87510000D03*
X70685000Y-80010000D03*
X61085000Y-80010000D03*
X84135000Y-120760000D03*
X86635000Y-120760000D03*
X89135000Y-120760000D03*
X91435000Y-113260000D03*
X81835000Y-113260000D03*
D14*
X65885000Y-64760000D03*
X65885000Y-56660000D03*
D15*
X61185000Y-62460000D03*
D16*
X70585000Y-62460000D03*
D14*
X65885000Y-104760000D03*
X65885000Y-96660000D03*
D15*
X61185000Y-102460000D03*
D16*
X70585000Y-102460000D03*
D13*
X83635000Y-146760000D03*
X81135000Y-151760000D03*
X78635000Y-146760000D03*
X74385000Y-90010000D03*
X79385000Y-87510000D03*
X74385000Y-85010000D03*
X79385000Y-98510000D03*
X76885000Y-103510000D03*
X74385000Y-98510000D03*
D27*
G36*
X92090142Y-69661174D02*
X92113803Y-69664684D01*
X92137007Y-69670496D01*
X92159529Y-69678554D01*
X92181153Y-69688782D01*
X92201670Y-69701079D01*
X92220883Y-69715329D01*
X92238607Y-69731393D01*
X92254671Y-69749117D01*
X92268921Y-69768330D01*
X92281218Y-69788847D01*
X92291446Y-69810471D01*
X92299504Y-69832993D01*
X92305316Y-69856197D01*
X92308826Y-69879858D01*
X92310000Y-69903750D01*
X92310000Y-70816250D01*
X92308826Y-70840142D01*
X92305316Y-70863803D01*
X92299504Y-70887007D01*
X92291446Y-70909529D01*
X92281218Y-70931153D01*
X92268921Y-70951670D01*
X92254671Y-70970883D01*
X92238607Y-70988607D01*
X92220883Y-71004671D01*
X92201670Y-71018921D01*
X92181153Y-71031218D01*
X92159529Y-71041446D01*
X92137007Y-71049504D01*
X92113803Y-71055316D01*
X92090142Y-71058826D01*
X92066250Y-71060000D01*
X91578750Y-71060000D01*
X91554858Y-71058826D01*
X91531197Y-71055316D01*
X91507993Y-71049504D01*
X91485471Y-71041446D01*
X91463847Y-71031218D01*
X91443330Y-71018921D01*
X91424117Y-71004671D01*
X91406393Y-70988607D01*
X91390329Y-70970883D01*
X91376079Y-70951670D01*
X91363782Y-70931153D01*
X91353554Y-70909529D01*
X91345496Y-70887007D01*
X91339684Y-70863803D01*
X91336174Y-70840142D01*
X91335000Y-70816250D01*
X91335000Y-69903750D01*
X91336174Y-69879858D01*
X91339684Y-69856197D01*
X91345496Y-69832993D01*
X91353554Y-69810471D01*
X91363782Y-69788847D01*
X91376079Y-69768330D01*
X91390329Y-69749117D01*
X91406393Y-69731393D01*
X91424117Y-69715329D01*
X91443330Y-69701079D01*
X91463847Y-69688782D01*
X91485471Y-69678554D01*
X91507993Y-69670496D01*
X91531197Y-69664684D01*
X91554858Y-69661174D01*
X91578750Y-69660000D01*
X92066250Y-69660000D01*
X92090142Y-69661174D01*
X92090142Y-69661174D01*
G37*
D28*
X91822500Y-70360000D03*
D27*
G36*
X90215142Y-69661174D02*
X90238803Y-69664684D01*
X90262007Y-69670496D01*
X90284529Y-69678554D01*
X90306153Y-69688782D01*
X90326670Y-69701079D01*
X90345883Y-69715329D01*
X90363607Y-69731393D01*
X90379671Y-69749117D01*
X90393921Y-69768330D01*
X90406218Y-69788847D01*
X90416446Y-69810471D01*
X90424504Y-69832993D01*
X90430316Y-69856197D01*
X90433826Y-69879858D01*
X90435000Y-69903750D01*
X90435000Y-70816250D01*
X90433826Y-70840142D01*
X90430316Y-70863803D01*
X90424504Y-70887007D01*
X90416446Y-70909529D01*
X90406218Y-70931153D01*
X90393921Y-70951670D01*
X90379671Y-70970883D01*
X90363607Y-70988607D01*
X90345883Y-71004671D01*
X90326670Y-71018921D01*
X90306153Y-71031218D01*
X90284529Y-71041446D01*
X90262007Y-71049504D01*
X90238803Y-71055316D01*
X90215142Y-71058826D01*
X90191250Y-71060000D01*
X89703750Y-71060000D01*
X89679858Y-71058826D01*
X89656197Y-71055316D01*
X89632993Y-71049504D01*
X89610471Y-71041446D01*
X89588847Y-71031218D01*
X89568330Y-71018921D01*
X89549117Y-71004671D01*
X89531393Y-70988607D01*
X89515329Y-70970883D01*
X89501079Y-70951670D01*
X89488782Y-70931153D01*
X89478554Y-70909529D01*
X89470496Y-70887007D01*
X89464684Y-70863803D01*
X89461174Y-70840142D01*
X89460000Y-70816250D01*
X89460000Y-69903750D01*
X89461174Y-69879858D01*
X89464684Y-69856197D01*
X89470496Y-69832993D01*
X89478554Y-69810471D01*
X89488782Y-69788847D01*
X89501079Y-69768330D01*
X89515329Y-69749117D01*
X89531393Y-69731393D01*
X89549117Y-69715329D01*
X89568330Y-69701079D01*
X89588847Y-69688782D01*
X89610471Y-69678554D01*
X89632993Y-69670496D01*
X89656197Y-69664684D01*
X89679858Y-69661174D01*
X89703750Y-69660000D01*
X90191250Y-69660000D01*
X90215142Y-69661174D01*
X90215142Y-69661174D01*
G37*
D28*
X89947500Y-70360000D03*
D27*
G36*
X81865142Y-73648674D02*
X81888803Y-73652184D01*
X81912007Y-73657996D01*
X81934529Y-73666054D01*
X81956153Y-73676282D01*
X81976670Y-73688579D01*
X81995883Y-73702829D01*
X82013607Y-73718893D01*
X82029671Y-73736617D01*
X82043921Y-73755830D01*
X82056218Y-73776347D01*
X82066446Y-73797971D01*
X82074504Y-73820493D01*
X82080316Y-73843697D01*
X82083826Y-73867358D01*
X82085000Y-73891250D01*
X82085000Y-74378750D01*
X82083826Y-74402642D01*
X82080316Y-74426303D01*
X82074504Y-74449507D01*
X82066446Y-74472029D01*
X82056218Y-74493653D01*
X82043921Y-74514170D01*
X82029671Y-74533383D01*
X82013607Y-74551107D01*
X81995883Y-74567171D01*
X81976670Y-74581421D01*
X81956153Y-74593718D01*
X81934529Y-74603946D01*
X81912007Y-74612004D01*
X81888803Y-74617816D01*
X81865142Y-74621326D01*
X81841250Y-74622500D01*
X80928750Y-74622500D01*
X80904858Y-74621326D01*
X80881197Y-74617816D01*
X80857993Y-74612004D01*
X80835471Y-74603946D01*
X80813847Y-74593718D01*
X80793330Y-74581421D01*
X80774117Y-74567171D01*
X80756393Y-74551107D01*
X80740329Y-74533383D01*
X80726079Y-74514170D01*
X80713782Y-74493653D01*
X80703554Y-74472029D01*
X80695496Y-74449507D01*
X80689684Y-74426303D01*
X80686174Y-74402642D01*
X80685000Y-74378750D01*
X80685000Y-73891250D01*
X80686174Y-73867358D01*
X80689684Y-73843697D01*
X80695496Y-73820493D01*
X80703554Y-73797971D01*
X80713782Y-73776347D01*
X80726079Y-73755830D01*
X80740329Y-73736617D01*
X80756393Y-73718893D01*
X80774117Y-73702829D01*
X80793330Y-73688579D01*
X80813847Y-73676282D01*
X80835471Y-73666054D01*
X80857993Y-73657996D01*
X80881197Y-73652184D01*
X80904858Y-73648674D01*
X80928750Y-73647500D01*
X81841250Y-73647500D01*
X81865142Y-73648674D01*
X81865142Y-73648674D01*
G37*
D28*
X81385000Y-74135000D03*
D27*
G36*
X81865142Y-71773674D02*
X81888803Y-71777184D01*
X81912007Y-71782996D01*
X81934529Y-71791054D01*
X81956153Y-71801282D01*
X81976670Y-71813579D01*
X81995883Y-71827829D01*
X82013607Y-71843893D01*
X82029671Y-71861617D01*
X82043921Y-71880830D01*
X82056218Y-71901347D01*
X82066446Y-71922971D01*
X82074504Y-71945493D01*
X82080316Y-71968697D01*
X82083826Y-71992358D01*
X82085000Y-72016250D01*
X82085000Y-72503750D01*
X82083826Y-72527642D01*
X82080316Y-72551303D01*
X82074504Y-72574507D01*
X82066446Y-72597029D01*
X82056218Y-72618653D01*
X82043921Y-72639170D01*
X82029671Y-72658383D01*
X82013607Y-72676107D01*
X81995883Y-72692171D01*
X81976670Y-72706421D01*
X81956153Y-72718718D01*
X81934529Y-72728946D01*
X81912007Y-72737004D01*
X81888803Y-72742816D01*
X81865142Y-72746326D01*
X81841250Y-72747500D01*
X80928750Y-72747500D01*
X80904858Y-72746326D01*
X80881197Y-72742816D01*
X80857993Y-72737004D01*
X80835471Y-72728946D01*
X80813847Y-72718718D01*
X80793330Y-72706421D01*
X80774117Y-72692171D01*
X80756393Y-72676107D01*
X80740329Y-72658383D01*
X80726079Y-72639170D01*
X80713782Y-72618653D01*
X80703554Y-72597029D01*
X80695496Y-72574507D01*
X80689684Y-72551303D01*
X80686174Y-72527642D01*
X80685000Y-72503750D01*
X80685000Y-72016250D01*
X80686174Y-71992358D01*
X80689684Y-71968697D01*
X80695496Y-71945493D01*
X80703554Y-71922971D01*
X80713782Y-71901347D01*
X80726079Y-71880830D01*
X80740329Y-71861617D01*
X80756393Y-71843893D01*
X80774117Y-71827829D01*
X80793330Y-71813579D01*
X80813847Y-71801282D01*
X80835471Y-71791054D01*
X80857993Y-71782996D01*
X80881197Y-71777184D01*
X80904858Y-71773674D01*
X80928750Y-71772500D01*
X81841250Y-71772500D01*
X81865142Y-71773674D01*
X81865142Y-71773674D01*
G37*
D28*
X81385000Y-72260000D03*
D27*
G36*
X81615142Y-65773674D02*
X81638803Y-65777184D01*
X81662007Y-65782996D01*
X81684529Y-65791054D01*
X81706153Y-65801282D01*
X81726670Y-65813579D01*
X81745883Y-65827829D01*
X81763607Y-65843893D01*
X81779671Y-65861617D01*
X81793921Y-65880830D01*
X81806218Y-65901347D01*
X81816446Y-65922971D01*
X81824504Y-65945493D01*
X81830316Y-65968697D01*
X81833826Y-65992358D01*
X81835000Y-66016250D01*
X81835000Y-66503750D01*
X81833826Y-66527642D01*
X81830316Y-66551303D01*
X81824504Y-66574507D01*
X81816446Y-66597029D01*
X81806218Y-66618653D01*
X81793921Y-66639170D01*
X81779671Y-66658383D01*
X81763607Y-66676107D01*
X81745883Y-66692171D01*
X81726670Y-66706421D01*
X81706153Y-66718718D01*
X81684529Y-66728946D01*
X81662007Y-66737004D01*
X81638803Y-66742816D01*
X81615142Y-66746326D01*
X81591250Y-66747500D01*
X80678750Y-66747500D01*
X80654858Y-66746326D01*
X80631197Y-66742816D01*
X80607993Y-66737004D01*
X80585471Y-66728946D01*
X80563847Y-66718718D01*
X80543330Y-66706421D01*
X80524117Y-66692171D01*
X80506393Y-66676107D01*
X80490329Y-66658383D01*
X80476079Y-66639170D01*
X80463782Y-66618653D01*
X80453554Y-66597029D01*
X80445496Y-66574507D01*
X80439684Y-66551303D01*
X80436174Y-66527642D01*
X80435000Y-66503750D01*
X80435000Y-66016250D01*
X80436174Y-65992358D01*
X80439684Y-65968697D01*
X80445496Y-65945493D01*
X80453554Y-65922971D01*
X80463782Y-65901347D01*
X80476079Y-65880830D01*
X80490329Y-65861617D01*
X80506393Y-65843893D01*
X80524117Y-65827829D01*
X80543330Y-65813579D01*
X80563847Y-65801282D01*
X80585471Y-65791054D01*
X80607993Y-65782996D01*
X80631197Y-65777184D01*
X80654858Y-65773674D01*
X80678750Y-65772500D01*
X81591250Y-65772500D01*
X81615142Y-65773674D01*
X81615142Y-65773674D01*
G37*
D28*
X81135000Y-66260000D03*
D27*
G36*
X81615142Y-63898674D02*
X81638803Y-63902184D01*
X81662007Y-63907996D01*
X81684529Y-63916054D01*
X81706153Y-63926282D01*
X81726670Y-63938579D01*
X81745883Y-63952829D01*
X81763607Y-63968893D01*
X81779671Y-63986617D01*
X81793921Y-64005830D01*
X81806218Y-64026347D01*
X81816446Y-64047971D01*
X81824504Y-64070493D01*
X81830316Y-64093697D01*
X81833826Y-64117358D01*
X81835000Y-64141250D01*
X81835000Y-64628750D01*
X81833826Y-64652642D01*
X81830316Y-64676303D01*
X81824504Y-64699507D01*
X81816446Y-64722029D01*
X81806218Y-64743653D01*
X81793921Y-64764170D01*
X81779671Y-64783383D01*
X81763607Y-64801107D01*
X81745883Y-64817171D01*
X81726670Y-64831421D01*
X81706153Y-64843718D01*
X81684529Y-64853946D01*
X81662007Y-64862004D01*
X81638803Y-64867816D01*
X81615142Y-64871326D01*
X81591250Y-64872500D01*
X80678750Y-64872500D01*
X80654858Y-64871326D01*
X80631197Y-64867816D01*
X80607993Y-64862004D01*
X80585471Y-64853946D01*
X80563847Y-64843718D01*
X80543330Y-64831421D01*
X80524117Y-64817171D01*
X80506393Y-64801107D01*
X80490329Y-64783383D01*
X80476079Y-64764170D01*
X80463782Y-64743653D01*
X80453554Y-64722029D01*
X80445496Y-64699507D01*
X80439684Y-64676303D01*
X80436174Y-64652642D01*
X80435000Y-64628750D01*
X80435000Y-64141250D01*
X80436174Y-64117358D01*
X80439684Y-64093697D01*
X80445496Y-64070493D01*
X80453554Y-64047971D01*
X80463782Y-64026347D01*
X80476079Y-64005830D01*
X80490329Y-63986617D01*
X80506393Y-63968893D01*
X80524117Y-63952829D01*
X80543330Y-63938579D01*
X80563847Y-63926282D01*
X80585471Y-63916054D01*
X80607993Y-63907996D01*
X80631197Y-63902184D01*
X80654858Y-63898674D01*
X80678750Y-63897500D01*
X81591250Y-63897500D01*
X81615142Y-63898674D01*
X81615142Y-63898674D01*
G37*
D28*
X81135000Y-64385000D03*
D27*
G36*
X81865142Y-129461174D02*
X81888803Y-129464684D01*
X81912007Y-129470496D01*
X81934529Y-129478554D01*
X81956153Y-129488782D01*
X81976670Y-129501079D01*
X81995883Y-129515329D01*
X82013607Y-129531393D01*
X82029671Y-129549117D01*
X82043921Y-129568330D01*
X82056218Y-129588847D01*
X82066446Y-129610471D01*
X82074504Y-129632993D01*
X82080316Y-129656197D01*
X82083826Y-129679858D01*
X82085000Y-129703750D01*
X82085000Y-130191250D01*
X82083826Y-130215142D01*
X82080316Y-130238803D01*
X82074504Y-130262007D01*
X82066446Y-130284529D01*
X82056218Y-130306153D01*
X82043921Y-130326670D01*
X82029671Y-130345883D01*
X82013607Y-130363607D01*
X81995883Y-130379671D01*
X81976670Y-130393921D01*
X81956153Y-130406218D01*
X81934529Y-130416446D01*
X81912007Y-130424504D01*
X81888803Y-130430316D01*
X81865142Y-130433826D01*
X81841250Y-130435000D01*
X80928750Y-130435000D01*
X80904858Y-130433826D01*
X80881197Y-130430316D01*
X80857993Y-130424504D01*
X80835471Y-130416446D01*
X80813847Y-130406218D01*
X80793330Y-130393921D01*
X80774117Y-130379671D01*
X80756393Y-130363607D01*
X80740329Y-130345883D01*
X80726079Y-130326670D01*
X80713782Y-130306153D01*
X80703554Y-130284529D01*
X80695496Y-130262007D01*
X80689684Y-130238803D01*
X80686174Y-130215142D01*
X80685000Y-130191250D01*
X80685000Y-129703750D01*
X80686174Y-129679858D01*
X80689684Y-129656197D01*
X80695496Y-129632993D01*
X80703554Y-129610471D01*
X80713782Y-129588847D01*
X80726079Y-129568330D01*
X80740329Y-129549117D01*
X80756393Y-129531393D01*
X80774117Y-129515329D01*
X80793330Y-129501079D01*
X80813847Y-129488782D01*
X80835471Y-129478554D01*
X80857993Y-129470496D01*
X80881197Y-129464684D01*
X80904858Y-129461174D01*
X80928750Y-129460000D01*
X81841250Y-129460000D01*
X81865142Y-129461174D01*
X81865142Y-129461174D01*
G37*
D28*
X81385000Y-129947500D03*
D27*
G36*
X81865142Y-127586174D02*
X81888803Y-127589684D01*
X81912007Y-127595496D01*
X81934529Y-127603554D01*
X81956153Y-127613782D01*
X81976670Y-127626079D01*
X81995883Y-127640329D01*
X82013607Y-127656393D01*
X82029671Y-127674117D01*
X82043921Y-127693330D01*
X82056218Y-127713847D01*
X82066446Y-127735471D01*
X82074504Y-127757993D01*
X82080316Y-127781197D01*
X82083826Y-127804858D01*
X82085000Y-127828750D01*
X82085000Y-128316250D01*
X82083826Y-128340142D01*
X82080316Y-128363803D01*
X82074504Y-128387007D01*
X82066446Y-128409529D01*
X82056218Y-128431153D01*
X82043921Y-128451670D01*
X82029671Y-128470883D01*
X82013607Y-128488607D01*
X81995883Y-128504671D01*
X81976670Y-128518921D01*
X81956153Y-128531218D01*
X81934529Y-128541446D01*
X81912007Y-128549504D01*
X81888803Y-128555316D01*
X81865142Y-128558826D01*
X81841250Y-128560000D01*
X80928750Y-128560000D01*
X80904858Y-128558826D01*
X80881197Y-128555316D01*
X80857993Y-128549504D01*
X80835471Y-128541446D01*
X80813847Y-128531218D01*
X80793330Y-128518921D01*
X80774117Y-128504671D01*
X80756393Y-128488607D01*
X80740329Y-128470883D01*
X80726079Y-128451670D01*
X80713782Y-128431153D01*
X80703554Y-128409529D01*
X80695496Y-128387007D01*
X80689684Y-128363803D01*
X80686174Y-128340142D01*
X80685000Y-128316250D01*
X80685000Y-127828750D01*
X80686174Y-127804858D01*
X80689684Y-127781197D01*
X80695496Y-127757993D01*
X80703554Y-127735471D01*
X80713782Y-127713847D01*
X80726079Y-127693330D01*
X80740329Y-127674117D01*
X80756393Y-127656393D01*
X80774117Y-127640329D01*
X80793330Y-127626079D01*
X80813847Y-127613782D01*
X80835471Y-127603554D01*
X80857993Y-127595496D01*
X80881197Y-127589684D01*
X80904858Y-127586174D01*
X80928750Y-127585000D01*
X81841250Y-127585000D01*
X81865142Y-127586174D01*
X81865142Y-127586174D01*
G37*
D28*
X81385000Y-128072500D03*
D27*
G36*
X79965142Y-120561174D02*
X79988803Y-120564684D01*
X80012007Y-120570496D01*
X80034529Y-120578554D01*
X80056153Y-120588782D01*
X80076670Y-120601079D01*
X80095883Y-120615329D01*
X80113607Y-120631393D01*
X80129671Y-120649117D01*
X80143921Y-120668330D01*
X80156218Y-120688847D01*
X80166446Y-120710471D01*
X80174504Y-120732993D01*
X80180316Y-120756197D01*
X80183826Y-120779858D01*
X80185000Y-120803750D01*
X80185000Y-121716250D01*
X80183826Y-121740142D01*
X80180316Y-121763803D01*
X80174504Y-121787007D01*
X80166446Y-121809529D01*
X80156218Y-121831153D01*
X80143921Y-121851670D01*
X80129671Y-121870883D01*
X80113607Y-121888607D01*
X80095883Y-121904671D01*
X80076670Y-121918921D01*
X80056153Y-121931218D01*
X80034529Y-121941446D01*
X80012007Y-121949504D01*
X79988803Y-121955316D01*
X79965142Y-121958826D01*
X79941250Y-121960000D01*
X79453750Y-121960000D01*
X79429858Y-121958826D01*
X79406197Y-121955316D01*
X79382993Y-121949504D01*
X79360471Y-121941446D01*
X79338847Y-121931218D01*
X79318330Y-121918921D01*
X79299117Y-121904671D01*
X79281393Y-121888607D01*
X79265329Y-121870883D01*
X79251079Y-121851670D01*
X79238782Y-121831153D01*
X79228554Y-121809529D01*
X79220496Y-121787007D01*
X79214684Y-121763803D01*
X79211174Y-121740142D01*
X79210000Y-121716250D01*
X79210000Y-120803750D01*
X79211174Y-120779858D01*
X79214684Y-120756197D01*
X79220496Y-120732993D01*
X79228554Y-120710471D01*
X79238782Y-120688847D01*
X79251079Y-120668330D01*
X79265329Y-120649117D01*
X79281393Y-120631393D01*
X79299117Y-120615329D01*
X79318330Y-120601079D01*
X79338847Y-120588782D01*
X79360471Y-120578554D01*
X79382993Y-120570496D01*
X79406197Y-120564684D01*
X79429858Y-120561174D01*
X79453750Y-120560000D01*
X79941250Y-120560000D01*
X79965142Y-120561174D01*
X79965142Y-120561174D01*
G37*
D28*
X79697500Y-121260000D03*
D27*
G36*
X81840142Y-120561174D02*
X81863803Y-120564684D01*
X81887007Y-120570496D01*
X81909529Y-120578554D01*
X81931153Y-120588782D01*
X81951670Y-120601079D01*
X81970883Y-120615329D01*
X81988607Y-120631393D01*
X82004671Y-120649117D01*
X82018921Y-120668330D01*
X82031218Y-120688847D01*
X82041446Y-120710471D01*
X82049504Y-120732993D01*
X82055316Y-120756197D01*
X82058826Y-120779858D01*
X82060000Y-120803750D01*
X82060000Y-121716250D01*
X82058826Y-121740142D01*
X82055316Y-121763803D01*
X82049504Y-121787007D01*
X82041446Y-121809529D01*
X82031218Y-121831153D01*
X82018921Y-121851670D01*
X82004671Y-121870883D01*
X81988607Y-121888607D01*
X81970883Y-121904671D01*
X81951670Y-121918921D01*
X81931153Y-121931218D01*
X81909529Y-121941446D01*
X81887007Y-121949504D01*
X81863803Y-121955316D01*
X81840142Y-121958826D01*
X81816250Y-121960000D01*
X81328750Y-121960000D01*
X81304858Y-121958826D01*
X81281197Y-121955316D01*
X81257993Y-121949504D01*
X81235471Y-121941446D01*
X81213847Y-121931218D01*
X81193330Y-121918921D01*
X81174117Y-121904671D01*
X81156393Y-121888607D01*
X81140329Y-121870883D01*
X81126079Y-121851670D01*
X81113782Y-121831153D01*
X81103554Y-121809529D01*
X81095496Y-121787007D01*
X81089684Y-121763803D01*
X81086174Y-121740142D01*
X81085000Y-121716250D01*
X81085000Y-120803750D01*
X81086174Y-120779858D01*
X81089684Y-120756197D01*
X81095496Y-120732993D01*
X81103554Y-120710471D01*
X81113782Y-120688847D01*
X81126079Y-120668330D01*
X81140329Y-120649117D01*
X81156393Y-120631393D01*
X81174117Y-120615329D01*
X81193330Y-120601079D01*
X81213847Y-120588782D01*
X81235471Y-120578554D01*
X81257993Y-120570496D01*
X81281197Y-120564684D01*
X81304858Y-120561174D01*
X81328750Y-120560000D01*
X81816250Y-120560000D01*
X81840142Y-120561174D01*
X81840142Y-120561174D01*
G37*
D28*
X81572500Y-121260000D03*
D27*
G36*
X81277642Y-89811174D02*
X81301303Y-89814684D01*
X81324507Y-89820496D01*
X81347029Y-89828554D01*
X81368653Y-89838782D01*
X81389170Y-89851079D01*
X81408383Y-89865329D01*
X81426107Y-89881393D01*
X81442171Y-89899117D01*
X81456421Y-89918330D01*
X81468718Y-89938847D01*
X81478946Y-89960471D01*
X81487004Y-89982993D01*
X81492816Y-90006197D01*
X81496326Y-90029858D01*
X81497500Y-90053750D01*
X81497500Y-90966250D01*
X81496326Y-90990142D01*
X81492816Y-91013803D01*
X81487004Y-91037007D01*
X81478946Y-91059529D01*
X81468718Y-91081153D01*
X81456421Y-91101670D01*
X81442171Y-91120883D01*
X81426107Y-91138607D01*
X81408383Y-91154671D01*
X81389170Y-91168921D01*
X81368653Y-91181218D01*
X81347029Y-91191446D01*
X81324507Y-91199504D01*
X81301303Y-91205316D01*
X81277642Y-91208826D01*
X81253750Y-91210000D01*
X80766250Y-91210000D01*
X80742358Y-91208826D01*
X80718697Y-91205316D01*
X80695493Y-91199504D01*
X80672971Y-91191446D01*
X80651347Y-91181218D01*
X80630830Y-91168921D01*
X80611617Y-91154671D01*
X80593893Y-91138607D01*
X80577829Y-91120883D01*
X80563579Y-91101670D01*
X80551282Y-91081153D01*
X80541054Y-91059529D01*
X80532996Y-91037007D01*
X80527184Y-91013803D01*
X80523674Y-90990142D01*
X80522500Y-90966250D01*
X80522500Y-90053750D01*
X80523674Y-90029858D01*
X80527184Y-90006197D01*
X80532996Y-89982993D01*
X80541054Y-89960471D01*
X80551282Y-89938847D01*
X80563579Y-89918330D01*
X80577829Y-89899117D01*
X80593893Y-89881393D01*
X80611617Y-89865329D01*
X80630830Y-89851079D01*
X80651347Y-89838782D01*
X80672971Y-89828554D01*
X80695493Y-89820496D01*
X80718697Y-89814684D01*
X80742358Y-89811174D01*
X80766250Y-89810000D01*
X81253750Y-89810000D01*
X81277642Y-89811174D01*
X81277642Y-89811174D01*
G37*
D28*
X81010000Y-90510000D03*
D27*
G36*
X83152642Y-89811174D02*
X83176303Y-89814684D01*
X83199507Y-89820496D01*
X83222029Y-89828554D01*
X83243653Y-89838782D01*
X83264170Y-89851079D01*
X83283383Y-89865329D01*
X83301107Y-89881393D01*
X83317171Y-89899117D01*
X83331421Y-89918330D01*
X83343718Y-89938847D01*
X83353946Y-89960471D01*
X83362004Y-89982993D01*
X83367816Y-90006197D01*
X83371326Y-90029858D01*
X83372500Y-90053750D01*
X83372500Y-90966250D01*
X83371326Y-90990142D01*
X83367816Y-91013803D01*
X83362004Y-91037007D01*
X83353946Y-91059529D01*
X83343718Y-91081153D01*
X83331421Y-91101670D01*
X83317171Y-91120883D01*
X83301107Y-91138607D01*
X83283383Y-91154671D01*
X83264170Y-91168921D01*
X83243653Y-91181218D01*
X83222029Y-91191446D01*
X83199507Y-91199504D01*
X83176303Y-91205316D01*
X83152642Y-91208826D01*
X83128750Y-91210000D01*
X82641250Y-91210000D01*
X82617358Y-91208826D01*
X82593697Y-91205316D01*
X82570493Y-91199504D01*
X82547971Y-91191446D01*
X82526347Y-91181218D01*
X82505830Y-91168921D01*
X82486617Y-91154671D01*
X82468893Y-91138607D01*
X82452829Y-91120883D01*
X82438579Y-91101670D01*
X82426282Y-91081153D01*
X82416054Y-91059529D01*
X82407996Y-91037007D01*
X82402184Y-91013803D01*
X82398674Y-90990142D01*
X82397500Y-90966250D01*
X82397500Y-90053750D01*
X82398674Y-90029858D01*
X82402184Y-90006197D01*
X82407996Y-89982993D01*
X82416054Y-89960471D01*
X82426282Y-89938847D01*
X82438579Y-89918330D01*
X82452829Y-89899117D01*
X82468893Y-89881393D01*
X82486617Y-89865329D01*
X82505830Y-89851079D01*
X82526347Y-89838782D01*
X82547971Y-89828554D01*
X82570493Y-89820496D01*
X82593697Y-89814684D01*
X82617358Y-89811174D01*
X82641250Y-89810000D01*
X83128750Y-89810000D01*
X83152642Y-89811174D01*
X83152642Y-89811174D01*
G37*
D28*
X82885000Y-90510000D03*
D27*
G36*
X90215142Y-67261174D02*
X90238803Y-67264684D01*
X90262007Y-67270496D01*
X90284529Y-67278554D01*
X90306153Y-67288782D01*
X90326670Y-67301079D01*
X90345883Y-67315329D01*
X90363607Y-67331393D01*
X90379671Y-67349117D01*
X90393921Y-67368330D01*
X90406218Y-67388847D01*
X90416446Y-67410471D01*
X90424504Y-67432993D01*
X90430316Y-67456197D01*
X90433826Y-67479858D01*
X90435000Y-67503750D01*
X90435000Y-68416250D01*
X90433826Y-68440142D01*
X90430316Y-68463803D01*
X90424504Y-68487007D01*
X90416446Y-68509529D01*
X90406218Y-68531153D01*
X90393921Y-68551670D01*
X90379671Y-68570883D01*
X90363607Y-68588607D01*
X90345883Y-68604671D01*
X90326670Y-68618921D01*
X90306153Y-68631218D01*
X90284529Y-68641446D01*
X90262007Y-68649504D01*
X90238803Y-68655316D01*
X90215142Y-68658826D01*
X90191250Y-68660000D01*
X89703750Y-68660000D01*
X89679858Y-68658826D01*
X89656197Y-68655316D01*
X89632993Y-68649504D01*
X89610471Y-68641446D01*
X89588847Y-68631218D01*
X89568330Y-68618921D01*
X89549117Y-68604671D01*
X89531393Y-68588607D01*
X89515329Y-68570883D01*
X89501079Y-68551670D01*
X89488782Y-68531153D01*
X89478554Y-68509529D01*
X89470496Y-68487007D01*
X89464684Y-68463803D01*
X89461174Y-68440142D01*
X89460000Y-68416250D01*
X89460000Y-67503750D01*
X89461174Y-67479858D01*
X89464684Y-67456197D01*
X89470496Y-67432993D01*
X89478554Y-67410471D01*
X89488782Y-67388847D01*
X89501079Y-67368330D01*
X89515329Y-67349117D01*
X89531393Y-67331393D01*
X89549117Y-67315329D01*
X89568330Y-67301079D01*
X89588847Y-67288782D01*
X89610471Y-67278554D01*
X89632993Y-67270496D01*
X89656197Y-67264684D01*
X89679858Y-67261174D01*
X89703750Y-67260000D01*
X90191250Y-67260000D01*
X90215142Y-67261174D01*
X90215142Y-67261174D01*
G37*
D28*
X89947500Y-67960000D03*
D27*
G36*
X92090142Y-67261174D02*
X92113803Y-67264684D01*
X92137007Y-67270496D01*
X92159529Y-67278554D01*
X92181153Y-67288782D01*
X92201670Y-67301079D01*
X92220883Y-67315329D01*
X92238607Y-67331393D01*
X92254671Y-67349117D01*
X92268921Y-67368330D01*
X92281218Y-67388847D01*
X92291446Y-67410471D01*
X92299504Y-67432993D01*
X92305316Y-67456197D01*
X92308826Y-67479858D01*
X92310000Y-67503750D01*
X92310000Y-68416250D01*
X92308826Y-68440142D01*
X92305316Y-68463803D01*
X92299504Y-68487007D01*
X92291446Y-68509529D01*
X92281218Y-68531153D01*
X92268921Y-68551670D01*
X92254671Y-68570883D01*
X92238607Y-68588607D01*
X92220883Y-68604671D01*
X92201670Y-68618921D01*
X92181153Y-68631218D01*
X92159529Y-68641446D01*
X92137007Y-68649504D01*
X92113803Y-68655316D01*
X92090142Y-68658826D01*
X92066250Y-68660000D01*
X91578750Y-68660000D01*
X91554858Y-68658826D01*
X91531197Y-68655316D01*
X91507993Y-68649504D01*
X91485471Y-68641446D01*
X91463847Y-68631218D01*
X91443330Y-68618921D01*
X91424117Y-68604671D01*
X91406393Y-68588607D01*
X91390329Y-68570883D01*
X91376079Y-68551670D01*
X91363782Y-68531153D01*
X91353554Y-68509529D01*
X91345496Y-68487007D01*
X91339684Y-68463803D01*
X91336174Y-68440142D01*
X91335000Y-68416250D01*
X91335000Y-67503750D01*
X91336174Y-67479858D01*
X91339684Y-67456197D01*
X91345496Y-67432993D01*
X91353554Y-67410471D01*
X91363782Y-67388847D01*
X91376079Y-67368330D01*
X91390329Y-67349117D01*
X91406393Y-67331393D01*
X91424117Y-67315329D01*
X91443330Y-67301079D01*
X91463847Y-67288782D01*
X91485471Y-67278554D01*
X91507993Y-67270496D01*
X91531197Y-67264684D01*
X91554858Y-67261174D01*
X91578750Y-67260000D01*
X92066250Y-67260000D01*
X92090142Y-67261174D01*
X92090142Y-67261174D01*
G37*
D28*
X91822500Y-67960000D03*
D27*
G36*
X68465142Y-132561174D02*
X68488803Y-132564684D01*
X68512007Y-132570496D01*
X68534529Y-132578554D01*
X68556153Y-132588782D01*
X68576670Y-132601079D01*
X68595883Y-132615329D01*
X68613607Y-132631393D01*
X68629671Y-132649117D01*
X68643921Y-132668330D01*
X68656218Y-132688847D01*
X68666446Y-132710471D01*
X68674504Y-132732993D01*
X68680316Y-132756197D01*
X68683826Y-132779858D01*
X68685000Y-132803750D01*
X68685000Y-133716250D01*
X68683826Y-133740142D01*
X68680316Y-133763803D01*
X68674504Y-133787007D01*
X68666446Y-133809529D01*
X68656218Y-133831153D01*
X68643921Y-133851670D01*
X68629671Y-133870883D01*
X68613607Y-133888607D01*
X68595883Y-133904671D01*
X68576670Y-133918921D01*
X68556153Y-133931218D01*
X68534529Y-133941446D01*
X68512007Y-133949504D01*
X68488803Y-133955316D01*
X68465142Y-133958826D01*
X68441250Y-133960000D01*
X67953750Y-133960000D01*
X67929858Y-133958826D01*
X67906197Y-133955316D01*
X67882993Y-133949504D01*
X67860471Y-133941446D01*
X67838847Y-133931218D01*
X67818330Y-133918921D01*
X67799117Y-133904671D01*
X67781393Y-133888607D01*
X67765329Y-133870883D01*
X67751079Y-133851670D01*
X67738782Y-133831153D01*
X67728554Y-133809529D01*
X67720496Y-133787007D01*
X67714684Y-133763803D01*
X67711174Y-133740142D01*
X67710000Y-133716250D01*
X67710000Y-132803750D01*
X67711174Y-132779858D01*
X67714684Y-132756197D01*
X67720496Y-132732993D01*
X67728554Y-132710471D01*
X67738782Y-132688847D01*
X67751079Y-132668330D01*
X67765329Y-132649117D01*
X67781393Y-132631393D01*
X67799117Y-132615329D01*
X67818330Y-132601079D01*
X67838847Y-132588782D01*
X67860471Y-132578554D01*
X67882993Y-132570496D01*
X67906197Y-132564684D01*
X67929858Y-132561174D01*
X67953750Y-132560000D01*
X68441250Y-132560000D01*
X68465142Y-132561174D01*
X68465142Y-132561174D01*
G37*
D28*
X68197500Y-133260000D03*
D27*
G36*
X70340142Y-132561174D02*
X70363803Y-132564684D01*
X70387007Y-132570496D01*
X70409529Y-132578554D01*
X70431153Y-132588782D01*
X70451670Y-132601079D01*
X70470883Y-132615329D01*
X70488607Y-132631393D01*
X70504671Y-132649117D01*
X70518921Y-132668330D01*
X70531218Y-132688847D01*
X70541446Y-132710471D01*
X70549504Y-132732993D01*
X70555316Y-132756197D01*
X70558826Y-132779858D01*
X70560000Y-132803750D01*
X70560000Y-133716250D01*
X70558826Y-133740142D01*
X70555316Y-133763803D01*
X70549504Y-133787007D01*
X70541446Y-133809529D01*
X70531218Y-133831153D01*
X70518921Y-133851670D01*
X70504671Y-133870883D01*
X70488607Y-133888607D01*
X70470883Y-133904671D01*
X70451670Y-133918921D01*
X70431153Y-133931218D01*
X70409529Y-133941446D01*
X70387007Y-133949504D01*
X70363803Y-133955316D01*
X70340142Y-133958826D01*
X70316250Y-133960000D01*
X69828750Y-133960000D01*
X69804858Y-133958826D01*
X69781197Y-133955316D01*
X69757993Y-133949504D01*
X69735471Y-133941446D01*
X69713847Y-133931218D01*
X69693330Y-133918921D01*
X69674117Y-133904671D01*
X69656393Y-133888607D01*
X69640329Y-133870883D01*
X69626079Y-133851670D01*
X69613782Y-133831153D01*
X69603554Y-133809529D01*
X69595496Y-133787007D01*
X69589684Y-133763803D01*
X69586174Y-133740142D01*
X69585000Y-133716250D01*
X69585000Y-132803750D01*
X69586174Y-132779858D01*
X69589684Y-132756197D01*
X69595496Y-132732993D01*
X69603554Y-132710471D01*
X69613782Y-132688847D01*
X69626079Y-132668330D01*
X69640329Y-132649117D01*
X69656393Y-132631393D01*
X69674117Y-132615329D01*
X69693330Y-132601079D01*
X69713847Y-132588782D01*
X69735471Y-132578554D01*
X69757993Y-132570496D01*
X69781197Y-132564684D01*
X69804858Y-132561174D01*
X69828750Y-132560000D01*
X70316250Y-132560000D01*
X70340142Y-132561174D01*
X70340142Y-132561174D01*
G37*
D28*
X70072500Y-133260000D03*
D27*
G36*
X73215142Y-152061174D02*
X73238803Y-152064684D01*
X73262007Y-152070496D01*
X73284529Y-152078554D01*
X73306153Y-152088782D01*
X73326670Y-152101079D01*
X73345883Y-152115329D01*
X73363607Y-152131393D01*
X73379671Y-152149117D01*
X73393921Y-152168330D01*
X73406218Y-152188847D01*
X73416446Y-152210471D01*
X73424504Y-152232993D01*
X73430316Y-152256197D01*
X73433826Y-152279858D01*
X73435000Y-152303750D01*
X73435000Y-153216250D01*
X73433826Y-153240142D01*
X73430316Y-153263803D01*
X73424504Y-153287007D01*
X73416446Y-153309529D01*
X73406218Y-153331153D01*
X73393921Y-153351670D01*
X73379671Y-153370883D01*
X73363607Y-153388607D01*
X73345883Y-153404671D01*
X73326670Y-153418921D01*
X73306153Y-153431218D01*
X73284529Y-153441446D01*
X73262007Y-153449504D01*
X73238803Y-153455316D01*
X73215142Y-153458826D01*
X73191250Y-153460000D01*
X72703750Y-153460000D01*
X72679858Y-153458826D01*
X72656197Y-153455316D01*
X72632993Y-153449504D01*
X72610471Y-153441446D01*
X72588847Y-153431218D01*
X72568330Y-153418921D01*
X72549117Y-153404671D01*
X72531393Y-153388607D01*
X72515329Y-153370883D01*
X72501079Y-153351670D01*
X72488782Y-153331153D01*
X72478554Y-153309529D01*
X72470496Y-153287007D01*
X72464684Y-153263803D01*
X72461174Y-153240142D01*
X72460000Y-153216250D01*
X72460000Y-152303750D01*
X72461174Y-152279858D01*
X72464684Y-152256197D01*
X72470496Y-152232993D01*
X72478554Y-152210471D01*
X72488782Y-152188847D01*
X72501079Y-152168330D01*
X72515329Y-152149117D01*
X72531393Y-152131393D01*
X72549117Y-152115329D01*
X72568330Y-152101079D01*
X72588847Y-152088782D01*
X72610471Y-152078554D01*
X72632993Y-152070496D01*
X72656197Y-152064684D01*
X72679858Y-152061174D01*
X72703750Y-152060000D01*
X73191250Y-152060000D01*
X73215142Y-152061174D01*
X73215142Y-152061174D01*
G37*
D28*
X72947500Y-152760000D03*
D27*
G36*
X75090142Y-152061174D02*
X75113803Y-152064684D01*
X75137007Y-152070496D01*
X75159529Y-152078554D01*
X75181153Y-152088782D01*
X75201670Y-152101079D01*
X75220883Y-152115329D01*
X75238607Y-152131393D01*
X75254671Y-152149117D01*
X75268921Y-152168330D01*
X75281218Y-152188847D01*
X75291446Y-152210471D01*
X75299504Y-152232993D01*
X75305316Y-152256197D01*
X75308826Y-152279858D01*
X75310000Y-152303750D01*
X75310000Y-153216250D01*
X75308826Y-153240142D01*
X75305316Y-153263803D01*
X75299504Y-153287007D01*
X75291446Y-153309529D01*
X75281218Y-153331153D01*
X75268921Y-153351670D01*
X75254671Y-153370883D01*
X75238607Y-153388607D01*
X75220883Y-153404671D01*
X75201670Y-153418921D01*
X75181153Y-153431218D01*
X75159529Y-153441446D01*
X75137007Y-153449504D01*
X75113803Y-153455316D01*
X75090142Y-153458826D01*
X75066250Y-153460000D01*
X74578750Y-153460000D01*
X74554858Y-153458826D01*
X74531197Y-153455316D01*
X74507993Y-153449504D01*
X74485471Y-153441446D01*
X74463847Y-153431218D01*
X74443330Y-153418921D01*
X74424117Y-153404671D01*
X74406393Y-153388607D01*
X74390329Y-153370883D01*
X74376079Y-153351670D01*
X74363782Y-153331153D01*
X74353554Y-153309529D01*
X74345496Y-153287007D01*
X74339684Y-153263803D01*
X74336174Y-153240142D01*
X74335000Y-153216250D01*
X74335000Y-152303750D01*
X74336174Y-152279858D01*
X74339684Y-152256197D01*
X74345496Y-152232993D01*
X74353554Y-152210471D01*
X74363782Y-152188847D01*
X74376079Y-152168330D01*
X74390329Y-152149117D01*
X74406393Y-152131393D01*
X74424117Y-152115329D01*
X74443330Y-152101079D01*
X74463847Y-152088782D01*
X74485471Y-152078554D01*
X74507993Y-152070496D01*
X74531197Y-152064684D01*
X74554858Y-152061174D01*
X74578750Y-152060000D01*
X75066250Y-152060000D01*
X75090142Y-152061174D01*
X75090142Y-152061174D01*
G37*
D28*
X74822500Y-152760000D03*
D27*
G36*
X73615142Y-110398674D02*
X73638803Y-110402184D01*
X73662007Y-110407996D01*
X73684529Y-110416054D01*
X73706153Y-110426282D01*
X73726670Y-110438579D01*
X73745883Y-110452829D01*
X73763607Y-110468893D01*
X73779671Y-110486617D01*
X73793921Y-110505830D01*
X73806218Y-110526347D01*
X73816446Y-110547971D01*
X73824504Y-110570493D01*
X73830316Y-110593697D01*
X73833826Y-110617358D01*
X73835000Y-110641250D01*
X73835000Y-111128750D01*
X73833826Y-111152642D01*
X73830316Y-111176303D01*
X73824504Y-111199507D01*
X73816446Y-111222029D01*
X73806218Y-111243653D01*
X73793921Y-111264170D01*
X73779671Y-111283383D01*
X73763607Y-111301107D01*
X73745883Y-111317171D01*
X73726670Y-111331421D01*
X73706153Y-111343718D01*
X73684529Y-111353946D01*
X73662007Y-111362004D01*
X73638803Y-111367816D01*
X73615142Y-111371326D01*
X73591250Y-111372500D01*
X72678750Y-111372500D01*
X72654858Y-111371326D01*
X72631197Y-111367816D01*
X72607993Y-111362004D01*
X72585471Y-111353946D01*
X72563847Y-111343718D01*
X72543330Y-111331421D01*
X72524117Y-111317171D01*
X72506393Y-111301107D01*
X72490329Y-111283383D01*
X72476079Y-111264170D01*
X72463782Y-111243653D01*
X72453554Y-111222029D01*
X72445496Y-111199507D01*
X72439684Y-111176303D01*
X72436174Y-111152642D01*
X72435000Y-111128750D01*
X72435000Y-110641250D01*
X72436174Y-110617358D01*
X72439684Y-110593697D01*
X72445496Y-110570493D01*
X72453554Y-110547971D01*
X72463782Y-110526347D01*
X72476079Y-110505830D01*
X72490329Y-110486617D01*
X72506393Y-110468893D01*
X72524117Y-110452829D01*
X72543330Y-110438579D01*
X72563847Y-110426282D01*
X72585471Y-110416054D01*
X72607993Y-110407996D01*
X72631197Y-110402184D01*
X72654858Y-110398674D01*
X72678750Y-110397500D01*
X73591250Y-110397500D01*
X73615142Y-110398674D01*
X73615142Y-110398674D01*
G37*
D28*
X73135000Y-110885000D03*
D27*
G36*
X73615142Y-108523674D02*
X73638803Y-108527184D01*
X73662007Y-108532996D01*
X73684529Y-108541054D01*
X73706153Y-108551282D01*
X73726670Y-108563579D01*
X73745883Y-108577829D01*
X73763607Y-108593893D01*
X73779671Y-108611617D01*
X73793921Y-108630830D01*
X73806218Y-108651347D01*
X73816446Y-108672971D01*
X73824504Y-108695493D01*
X73830316Y-108718697D01*
X73833826Y-108742358D01*
X73835000Y-108766250D01*
X73835000Y-109253750D01*
X73833826Y-109277642D01*
X73830316Y-109301303D01*
X73824504Y-109324507D01*
X73816446Y-109347029D01*
X73806218Y-109368653D01*
X73793921Y-109389170D01*
X73779671Y-109408383D01*
X73763607Y-109426107D01*
X73745883Y-109442171D01*
X73726670Y-109456421D01*
X73706153Y-109468718D01*
X73684529Y-109478946D01*
X73662007Y-109487004D01*
X73638803Y-109492816D01*
X73615142Y-109496326D01*
X73591250Y-109497500D01*
X72678750Y-109497500D01*
X72654858Y-109496326D01*
X72631197Y-109492816D01*
X72607993Y-109487004D01*
X72585471Y-109478946D01*
X72563847Y-109468718D01*
X72543330Y-109456421D01*
X72524117Y-109442171D01*
X72506393Y-109426107D01*
X72490329Y-109408383D01*
X72476079Y-109389170D01*
X72463782Y-109368653D01*
X72453554Y-109347029D01*
X72445496Y-109324507D01*
X72439684Y-109301303D01*
X72436174Y-109277642D01*
X72435000Y-109253750D01*
X72435000Y-108766250D01*
X72436174Y-108742358D01*
X72439684Y-108718697D01*
X72445496Y-108695493D01*
X72453554Y-108672971D01*
X72463782Y-108651347D01*
X72476079Y-108630830D01*
X72490329Y-108611617D01*
X72506393Y-108593893D01*
X72524117Y-108577829D01*
X72543330Y-108563579D01*
X72563847Y-108551282D01*
X72585471Y-108541054D01*
X72607993Y-108532996D01*
X72631197Y-108527184D01*
X72654858Y-108523674D01*
X72678750Y-108522500D01*
X73591250Y-108522500D01*
X73615142Y-108523674D01*
X73615142Y-108523674D01*
G37*
D28*
X73135000Y-109010000D03*
D27*
G36*
X73365142Y-119523674D02*
X73388803Y-119527184D01*
X73412007Y-119532996D01*
X73434529Y-119541054D01*
X73456153Y-119551282D01*
X73476670Y-119563579D01*
X73495883Y-119577829D01*
X73513607Y-119593893D01*
X73529671Y-119611617D01*
X73543921Y-119630830D01*
X73556218Y-119651347D01*
X73566446Y-119672971D01*
X73574504Y-119695493D01*
X73580316Y-119718697D01*
X73583826Y-119742358D01*
X73585000Y-119766250D01*
X73585000Y-120253750D01*
X73583826Y-120277642D01*
X73580316Y-120301303D01*
X73574504Y-120324507D01*
X73566446Y-120347029D01*
X73556218Y-120368653D01*
X73543921Y-120389170D01*
X73529671Y-120408383D01*
X73513607Y-120426107D01*
X73495883Y-120442171D01*
X73476670Y-120456421D01*
X73456153Y-120468718D01*
X73434529Y-120478946D01*
X73412007Y-120487004D01*
X73388803Y-120492816D01*
X73365142Y-120496326D01*
X73341250Y-120497500D01*
X72428750Y-120497500D01*
X72404858Y-120496326D01*
X72381197Y-120492816D01*
X72357993Y-120487004D01*
X72335471Y-120478946D01*
X72313847Y-120468718D01*
X72293330Y-120456421D01*
X72274117Y-120442171D01*
X72256393Y-120426107D01*
X72240329Y-120408383D01*
X72226079Y-120389170D01*
X72213782Y-120368653D01*
X72203554Y-120347029D01*
X72195496Y-120324507D01*
X72189684Y-120301303D01*
X72186174Y-120277642D01*
X72185000Y-120253750D01*
X72185000Y-119766250D01*
X72186174Y-119742358D01*
X72189684Y-119718697D01*
X72195496Y-119695493D01*
X72203554Y-119672971D01*
X72213782Y-119651347D01*
X72226079Y-119630830D01*
X72240329Y-119611617D01*
X72256393Y-119593893D01*
X72274117Y-119577829D01*
X72293330Y-119563579D01*
X72313847Y-119551282D01*
X72335471Y-119541054D01*
X72357993Y-119532996D01*
X72381197Y-119527184D01*
X72404858Y-119523674D01*
X72428750Y-119522500D01*
X73341250Y-119522500D01*
X73365142Y-119523674D01*
X73365142Y-119523674D01*
G37*
D28*
X72885000Y-120010000D03*
D27*
G36*
X73365142Y-121398674D02*
X73388803Y-121402184D01*
X73412007Y-121407996D01*
X73434529Y-121416054D01*
X73456153Y-121426282D01*
X73476670Y-121438579D01*
X73495883Y-121452829D01*
X73513607Y-121468893D01*
X73529671Y-121486617D01*
X73543921Y-121505830D01*
X73556218Y-121526347D01*
X73566446Y-121547971D01*
X73574504Y-121570493D01*
X73580316Y-121593697D01*
X73583826Y-121617358D01*
X73585000Y-121641250D01*
X73585000Y-122128750D01*
X73583826Y-122152642D01*
X73580316Y-122176303D01*
X73574504Y-122199507D01*
X73566446Y-122222029D01*
X73556218Y-122243653D01*
X73543921Y-122264170D01*
X73529671Y-122283383D01*
X73513607Y-122301107D01*
X73495883Y-122317171D01*
X73476670Y-122331421D01*
X73456153Y-122343718D01*
X73434529Y-122353946D01*
X73412007Y-122362004D01*
X73388803Y-122367816D01*
X73365142Y-122371326D01*
X73341250Y-122372500D01*
X72428750Y-122372500D01*
X72404858Y-122371326D01*
X72381197Y-122367816D01*
X72357993Y-122362004D01*
X72335471Y-122353946D01*
X72313847Y-122343718D01*
X72293330Y-122331421D01*
X72274117Y-122317171D01*
X72256393Y-122301107D01*
X72240329Y-122283383D01*
X72226079Y-122264170D01*
X72213782Y-122243653D01*
X72203554Y-122222029D01*
X72195496Y-122199507D01*
X72189684Y-122176303D01*
X72186174Y-122152642D01*
X72185000Y-122128750D01*
X72185000Y-121641250D01*
X72186174Y-121617358D01*
X72189684Y-121593697D01*
X72195496Y-121570493D01*
X72203554Y-121547971D01*
X72213782Y-121526347D01*
X72226079Y-121505830D01*
X72240329Y-121486617D01*
X72256393Y-121468893D01*
X72274117Y-121452829D01*
X72293330Y-121438579D01*
X72313847Y-121426282D01*
X72335471Y-121416054D01*
X72357993Y-121407996D01*
X72381197Y-121402184D01*
X72404858Y-121398674D01*
X72428750Y-121397500D01*
X73341250Y-121397500D01*
X73365142Y-121398674D01*
X73365142Y-121398674D01*
G37*
D28*
X72885000Y-121885000D03*
D27*
G36*
X83152642Y-94311174D02*
X83176303Y-94314684D01*
X83199507Y-94320496D01*
X83222029Y-94328554D01*
X83243653Y-94338782D01*
X83264170Y-94351079D01*
X83283383Y-94365329D01*
X83301107Y-94381393D01*
X83317171Y-94399117D01*
X83331421Y-94418330D01*
X83343718Y-94438847D01*
X83353946Y-94460471D01*
X83362004Y-94482993D01*
X83367816Y-94506197D01*
X83371326Y-94529858D01*
X83372500Y-94553750D01*
X83372500Y-95466250D01*
X83371326Y-95490142D01*
X83367816Y-95513803D01*
X83362004Y-95537007D01*
X83353946Y-95559529D01*
X83343718Y-95581153D01*
X83331421Y-95601670D01*
X83317171Y-95620883D01*
X83301107Y-95638607D01*
X83283383Y-95654671D01*
X83264170Y-95668921D01*
X83243653Y-95681218D01*
X83222029Y-95691446D01*
X83199507Y-95699504D01*
X83176303Y-95705316D01*
X83152642Y-95708826D01*
X83128750Y-95710000D01*
X82641250Y-95710000D01*
X82617358Y-95708826D01*
X82593697Y-95705316D01*
X82570493Y-95699504D01*
X82547971Y-95691446D01*
X82526347Y-95681218D01*
X82505830Y-95668921D01*
X82486617Y-95654671D01*
X82468893Y-95638607D01*
X82452829Y-95620883D01*
X82438579Y-95601670D01*
X82426282Y-95581153D01*
X82416054Y-95559529D01*
X82407996Y-95537007D01*
X82402184Y-95513803D01*
X82398674Y-95490142D01*
X82397500Y-95466250D01*
X82397500Y-94553750D01*
X82398674Y-94529858D01*
X82402184Y-94506197D01*
X82407996Y-94482993D01*
X82416054Y-94460471D01*
X82426282Y-94438847D01*
X82438579Y-94418330D01*
X82452829Y-94399117D01*
X82468893Y-94381393D01*
X82486617Y-94365329D01*
X82505830Y-94351079D01*
X82526347Y-94338782D01*
X82547971Y-94328554D01*
X82570493Y-94320496D01*
X82593697Y-94314684D01*
X82617358Y-94311174D01*
X82641250Y-94310000D01*
X83128750Y-94310000D01*
X83152642Y-94311174D01*
X83152642Y-94311174D01*
G37*
D28*
X82885000Y-95010000D03*
D27*
G36*
X81277642Y-94311174D02*
X81301303Y-94314684D01*
X81324507Y-94320496D01*
X81347029Y-94328554D01*
X81368653Y-94338782D01*
X81389170Y-94351079D01*
X81408383Y-94365329D01*
X81426107Y-94381393D01*
X81442171Y-94399117D01*
X81456421Y-94418330D01*
X81468718Y-94438847D01*
X81478946Y-94460471D01*
X81487004Y-94482993D01*
X81492816Y-94506197D01*
X81496326Y-94529858D01*
X81497500Y-94553750D01*
X81497500Y-95466250D01*
X81496326Y-95490142D01*
X81492816Y-95513803D01*
X81487004Y-95537007D01*
X81478946Y-95559529D01*
X81468718Y-95581153D01*
X81456421Y-95601670D01*
X81442171Y-95620883D01*
X81426107Y-95638607D01*
X81408383Y-95654671D01*
X81389170Y-95668921D01*
X81368653Y-95681218D01*
X81347029Y-95691446D01*
X81324507Y-95699504D01*
X81301303Y-95705316D01*
X81277642Y-95708826D01*
X81253750Y-95710000D01*
X80766250Y-95710000D01*
X80742358Y-95708826D01*
X80718697Y-95705316D01*
X80695493Y-95699504D01*
X80672971Y-95691446D01*
X80651347Y-95681218D01*
X80630830Y-95668921D01*
X80611617Y-95654671D01*
X80593893Y-95638607D01*
X80577829Y-95620883D01*
X80563579Y-95601670D01*
X80551282Y-95581153D01*
X80541054Y-95559529D01*
X80532996Y-95537007D01*
X80527184Y-95513803D01*
X80523674Y-95490142D01*
X80522500Y-95466250D01*
X80522500Y-94553750D01*
X80523674Y-94529858D01*
X80527184Y-94506197D01*
X80532996Y-94482993D01*
X80541054Y-94460471D01*
X80551282Y-94438847D01*
X80563579Y-94418330D01*
X80577829Y-94399117D01*
X80593893Y-94381393D01*
X80611617Y-94365329D01*
X80630830Y-94351079D01*
X80651347Y-94338782D01*
X80672971Y-94328554D01*
X80695493Y-94320496D01*
X80718697Y-94314684D01*
X80742358Y-94311174D01*
X80766250Y-94310000D01*
X81253750Y-94310000D01*
X81277642Y-94311174D01*
X81277642Y-94311174D01*
G37*
D28*
X81010000Y-95010000D03*
D27*
G36*
X73115142Y-64023674D02*
X73138803Y-64027184D01*
X73162007Y-64032996D01*
X73184529Y-64041054D01*
X73206153Y-64051282D01*
X73226670Y-64063579D01*
X73245883Y-64077829D01*
X73263607Y-64093893D01*
X73279671Y-64111617D01*
X73293921Y-64130830D01*
X73306218Y-64151347D01*
X73316446Y-64172971D01*
X73324504Y-64195493D01*
X73330316Y-64218697D01*
X73333826Y-64242358D01*
X73335000Y-64266250D01*
X73335000Y-64753750D01*
X73333826Y-64777642D01*
X73330316Y-64801303D01*
X73324504Y-64824507D01*
X73316446Y-64847029D01*
X73306218Y-64868653D01*
X73293921Y-64889170D01*
X73279671Y-64908383D01*
X73263607Y-64926107D01*
X73245883Y-64942171D01*
X73226670Y-64956421D01*
X73206153Y-64968718D01*
X73184529Y-64978946D01*
X73162007Y-64987004D01*
X73138803Y-64992816D01*
X73115142Y-64996326D01*
X73091250Y-64997500D01*
X72178750Y-64997500D01*
X72154858Y-64996326D01*
X72131197Y-64992816D01*
X72107993Y-64987004D01*
X72085471Y-64978946D01*
X72063847Y-64968718D01*
X72043330Y-64956421D01*
X72024117Y-64942171D01*
X72006393Y-64926107D01*
X71990329Y-64908383D01*
X71976079Y-64889170D01*
X71963782Y-64868653D01*
X71953554Y-64847029D01*
X71945496Y-64824507D01*
X71939684Y-64801303D01*
X71936174Y-64777642D01*
X71935000Y-64753750D01*
X71935000Y-64266250D01*
X71936174Y-64242358D01*
X71939684Y-64218697D01*
X71945496Y-64195493D01*
X71953554Y-64172971D01*
X71963782Y-64151347D01*
X71976079Y-64130830D01*
X71990329Y-64111617D01*
X72006393Y-64093893D01*
X72024117Y-64077829D01*
X72043330Y-64063579D01*
X72063847Y-64051282D01*
X72085471Y-64041054D01*
X72107993Y-64032996D01*
X72131197Y-64027184D01*
X72154858Y-64023674D01*
X72178750Y-64022500D01*
X73091250Y-64022500D01*
X73115142Y-64023674D01*
X73115142Y-64023674D01*
G37*
D28*
X72635000Y-64510000D03*
D27*
G36*
X73115142Y-62148674D02*
X73138803Y-62152184D01*
X73162007Y-62157996D01*
X73184529Y-62166054D01*
X73206153Y-62176282D01*
X73226670Y-62188579D01*
X73245883Y-62202829D01*
X73263607Y-62218893D01*
X73279671Y-62236617D01*
X73293921Y-62255830D01*
X73306218Y-62276347D01*
X73316446Y-62297971D01*
X73324504Y-62320493D01*
X73330316Y-62343697D01*
X73333826Y-62367358D01*
X73335000Y-62391250D01*
X73335000Y-62878750D01*
X73333826Y-62902642D01*
X73330316Y-62926303D01*
X73324504Y-62949507D01*
X73316446Y-62972029D01*
X73306218Y-62993653D01*
X73293921Y-63014170D01*
X73279671Y-63033383D01*
X73263607Y-63051107D01*
X73245883Y-63067171D01*
X73226670Y-63081421D01*
X73206153Y-63093718D01*
X73184529Y-63103946D01*
X73162007Y-63112004D01*
X73138803Y-63117816D01*
X73115142Y-63121326D01*
X73091250Y-63122500D01*
X72178750Y-63122500D01*
X72154858Y-63121326D01*
X72131197Y-63117816D01*
X72107993Y-63112004D01*
X72085471Y-63103946D01*
X72063847Y-63093718D01*
X72043330Y-63081421D01*
X72024117Y-63067171D01*
X72006393Y-63051107D01*
X71990329Y-63033383D01*
X71976079Y-63014170D01*
X71963782Y-62993653D01*
X71953554Y-62972029D01*
X71945496Y-62949507D01*
X71939684Y-62926303D01*
X71936174Y-62902642D01*
X71935000Y-62878750D01*
X71935000Y-62391250D01*
X71936174Y-62367358D01*
X71939684Y-62343697D01*
X71945496Y-62320493D01*
X71953554Y-62297971D01*
X71963782Y-62276347D01*
X71976079Y-62255830D01*
X71990329Y-62236617D01*
X72006393Y-62218893D01*
X72024117Y-62202829D01*
X72043330Y-62188579D01*
X72063847Y-62176282D01*
X72085471Y-62166054D01*
X72107993Y-62157996D01*
X72131197Y-62152184D01*
X72154858Y-62148674D01*
X72178750Y-62147500D01*
X73091250Y-62147500D01*
X73115142Y-62148674D01*
X73115142Y-62148674D01*
G37*
D28*
X72635000Y-62635000D03*
D27*
G36*
X72865142Y-88023674D02*
X72888803Y-88027184D01*
X72912007Y-88032996D01*
X72934529Y-88041054D01*
X72956153Y-88051282D01*
X72976670Y-88063579D01*
X72995883Y-88077829D01*
X73013607Y-88093893D01*
X73029671Y-88111617D01*
X73043921Y-88130830D01*
X73056218Y-88151347D01*
X73066446Y-88172971D01*
X73074504Y-88195493D01*
X73080316Y-88218697D01*
X73083826Y-88242358D01*
X73085000Y-88266250D01*
X73085000Y-88753750D01*
X73083826Y-88777642D01*
X73080316Y-88801303D01*
X73074504Y-88824507D01*
X73066446Y-88847029D01*
X73056218Y-88868653D01*
X73043921Y-88889170D01*
X73029671Y-88908383D01*
X73013607Y-88926107D01*
X72995883Y-88942171D01*
X72976670Y-88956421D01*
X72956153Y-88968718D01*
X72934529Y-88978946D01*
X72912007Y-88987004D01*
X72888803Y-88992816D01*
X72865142Y-88996326D01*
X72841250Y-88997500D01*
X71928750Y-88997500D01*
X71904858Y-88996326D01*
X71881197Y-88992816D01*
X71857993Y-88987004D01*
X71835471Y-88978946D01*
X71813847Y-88968718D01*
X71793330Y-88956421D01*
X71774117Y-88942171D01*
X71756393Y-88926107D01*
X71740329Y-88908383D01*
X71726079Y-88889170D01*
X71713782Y-88868653D01*
X71703554Y-88847029D01*
X71695496Y-88824507D01*
X71689684Y-88801303D01*
X71686174Y-88777642D01*
X71685000Y-88753750D01*
X71685000Y-88266250D01*
X71686174Y-88242358D01*
X71689684Y-88218697D01*
X71695496Y-88195493D01*
X71703554Y-88172971D01*
X71713782Y-88151347D01*
X71726079Y-88130830D01*
X71740329Y-88111617D01*
X71756393Y-88093893D01*
X71774117Y-88077829D01*
X71793330Y-88063579D01*
X71813847Y-88051282D01*
X71835471Y-88041054D01*
X71857993Y-88032996D01*
X71881197Y-88027184D01*
X71904858Y-88023674D01*
X71928750Y-88022500D01*
X72841250Y-88022500D01*
X72865142Y-88023674D01*
X72865142Y-88023674D01*
G37*
D28*
X72385000Y-88510000D03*
D27*
G36*
X72865142Y-86148674D02*
X72888803Y-86152184D01*
X72912007Y-86157996D01*
X72934529Y-86166054D01*
X72956153Y-86176282D01*
X72976670Y-86188579D01*
X72995883Y-86202829D01*
X73013607Y-86218893D01*
X73029671Y-86236617D01*
X73043921Y-86255830D01*
X73056218Y-86276347D01*
X73066446Y-86297971D01*
X73074504Y-86320493D01*
X73080316Y-86343697D01*
X73083826Y-86367358D01*
X73085000Y-86391250D01*
X73085000Y-86878750D01*
X73083826Y-86902642D01*
X73080316Y-86926303D01*
X73074504Y-86949507D01*
X73066446Y-86972029D01*
X73056218Y-86993653D01*
X73043921Y-87014170D01*
X73029671Y-87033383D01*
X73013607Y-87051107D01*
X72995883Y-87067171D01*
X72976670Y-87081421D01*
X72956153Y-87093718D01*
X72934529Y-87103946D01*
X72912007Y-87112004D01*
X72888803Y-87117816D01*
X72865142Y-87121326D01*
X72841250Y-87122500D01*
X71928750Y-87122500D01*
X71904858Y-87121326D01*
X71881197Y-87117816D01*
X71857993Y-87112004D01*
X71835471Y-87103946D01*
X71813847Y-87093718D01*
X71793330Y-87081421D01*
X71774117Y-87067171D01*
X71756393Y-87051107D01*
X71740329Y-87033383D01*
X71726079Y-87014170D01*
X71713782Y-86993653D01*
X71703554Y-86972029D01*
X71695496Y-86949507D01*
X71689684Y-86926303D01*
X71686174Y-86902642D01*
X71685000Y-86878750D01*
X71685000Y-86391250D01*
X71686174Y-86367358D01*
X71689684Y-86343697D01*
X71695496Y-86320493D01*
X71703554Y-86297971D01*
X71713782Y-86276347D01*
X71726079Y-86255830D01*
X71740329Y-86236617D01*
X71756393Y-86218893D01*
X71774117Y-86202829D01*
X71793330Y-86188579D01*
X71813847Y-86176282D01*
X71835471Y-86166054D01*
X71857993Y-86157996D01*
X71881197Y-86152184D01*
X71904858Y-86148674D01*
X71928750Y-86147500D01*
X72841250Y-86147500D01*
X72865142Y-86148674D01*
X72865142Y-86148674D01*
G37*
D28*
X72385000Y-86635000D03*
D27*
G36*
X70865142Y-121836174D02*
X70888803Y-121839684D01*
X70912007Y-121845496D01*
X70934529Y-121853554D01*
X70956153Y-121863782D01*
X70976670Y-121876079D01*
X70995883Y-121890329D01*
X71013607Y-121906393D01*
X71029671Y-121924117D01*
X71043921Y-121943330D01*
X71056218Y-121963847D01*
X71066446Y-121985471D01*
X71074504Y-122007993D01*
X71080316Y-122031197D01*
X71083826Y-122054858D01*
X71085000Y-122078750D01*
X71085000Y-122566250D01*
X71083826Y-122590142D01*
X71080316Y-122613803D01*
X71074504Y-122637007D01*
X71066446Y-122659529D01*
X71056218Y-122681153D01*
X71043921Y-122701670D01*
X71029671Y-122720883D01*
X71013607Y-122738607D01*
X70995883Y-122754671D01*
X70976670Y-122768921D01*
X70956153Y-122781218D01*
X70934529Y-122791446D01*
X70912007Y-122799504D01*
X70888803Y-122805316D01*
X70865142Y-122808826D01*
X70841250Y-122810000D01*
X69928750Y-122810000D01*
X69904858Y-122808826D01*
X69881197Y-122805316D01*
X69857993Y-122799504D01*
X69835471Y-122791446D01*
X69813847Y-122781218D01*
X69793330Y-122768921D01*
X69774117Y-122754671D01*
X69756393Y-122738607D01*
X69740329Y-122720883D01*
X69726079Y-122701670D01*
X69713782Y-122681153D01*
X69703554Y-122659529D01*
X69695496Y-122637007D01*
X69689684Y-122613803D01*
X69686174Y-122590142D01*
X69685000Y-122566250D01*
X69685000Y-122078750D01*
X69686174Y-122054858D01*
X69689684Y-122031197D01*
X69695496Y-122007993D01*
X69703554Y-121985471D01*
X69713782Y-121963847D01*
X69726079Y-121943330D01*
X69740329Y-121924117D01*
X69756393Y-121906393D01*
X69774117Y-121890329D01*
X69793330Y-121876079D01*
X69813847Y-121863782D01*
X69835471Y-121853554D01*
X69857993Y-121845496D01*
X69881197Y-121839684D01*
X69904858Y-121836174D01*
X69928750Y-121835000D01*
X70841250Y-121835000D01*
X70865142Y-121836174D01*
X70865142Y-121836174D01*
G37*
D28*
X70385000Y-122322500D03*
D27*
G36*
X70865142Y-123711174D02*
X70888803Y-123714684D01*
X70912007Y-123720496D01*
X70934529Y-123728554D01*
X70956153Y-123738782D01*
X70976670Y-123751079D01*
X70995883Y-123765329D01*
X71013607Y-123781393D01*
X71029671Y-123799117D01*
X71043921Y-123818330D01*
X71056218Y-123838847D01*
X71066446Y-123860471D01*
X71074504Y-123882993D01*
X71080316Y-123906197D01*
X71083826Y-123929858D01*
X71085000Y-123953750D01*
X71085000Y-124441250D01*
X71083826Y-124465142D01*
X71080316Y-124488803D01*
X71074504Y-124512007D01*
X71066446Y-124534529D01*
X71056218Y-124556153D01*
X71043921Y-124576670D01*
X71029671Y-124595883D01*
X71013607Y-124613607D01*
X70995883Y-124629671D01*
X70976670Y-124643921D01*
X70956153Y-124656218D01*
X70934529Y-124666446D01*
X70912007Y-124674504D01*
X70888803Y-124680316D01*
X70865142Y-124683826D01*
X70841250Y-124685000D01*
X69928750Y-124685000D01*
X69904858Y-124683826D01*
X69881197Y-124680316D01*
X69857993Y-124674504D01*
X69835471Y-124666446D01*
X69813847Y-124656218D01*
X69793330Y-124643921D01*
X69774117Y-124629671D01*
X69756393Y-124613607D01*
X69740329Y-124595883D01*
X69726079Y-124576670D01*
X69713782Y-124556153D01*
X69703554Y-124534529D01*
X69695496Y-124512007D01*
X69689684Y-124488803D01*
X69686174Y-124465142D01*
X69685000Y-124441250D01*
X69685000Y-123953750D01*
X69686174Y-123929858D01*
X69689684Y-123906197D01*
X69695496Y-123882993D01*
X69703554Y-123860471D01*
X69713782Y-123838847D01*
X69726079Y-123818330D01*
X69740329Y-123799117D01*
X69756393Y-123781393D01*
X69774117Y-123765329D01*
X69793330Y-123751079D01*
X69813847Y-123738782D01*
X69835471Y-123728554D01*
X69857993Y-123720496D01*
X69881197Y-123714684D01*
X69904858Y-123711174D01*
X69928750Y-123710000D01*
X70841250Y-123710000D01*
X70865142Y-123711174D01*
X70865142Y-123711174D01*
G37*
D28*
X70385000Y-124197500D03*
D27*
G36*
X77902642Y-132061174D02*
X77926303Y-132064684D01*
X77949507Y-132070496D01*
X77972029Y-132078554D01*
X77993653Y-132088782D01*
X78014170Y-132101079D01*
X78033383Y-132115329D01*
X78051107Y-132131393D01*
X78067171Y-132149117D01*
X78081421Y-132168330D01*
X78093718Y-132188847D01*
X78103946Y-132210471D01*
X78112004Y-132232993D01*
X78117816Y-132256197D01*
X78121326Y-132279858D01*
X78122500Y-132303750D01*
X78122500Y-133216250D01*
X78121326Y-133240142D01*
X78117816Y-133263803D01*
X78112004Y-133287007D01*
X78103946Y-133309529D01*
X78093718Y-133331153D01*
X78081421Y-133351670D01*
X78067171Y-133370883D01*
X78051107Y-133388607D01*
X78033383Y-133404671D01*
X78014170Y-133418921D01*
X77993653Y-133431218D01*
X77972029Y-133441446D01*
X77949507Y-133449504D01*
X77926303Y-133455316D01*
X77902642Y-133458826D01*
X77878750Y-133460000D01*
X77391250Y-133460000D01*
X77367358Y-133458826D01*
X77343697Y-133455316D01*
X77320493Y-133449504D01*
X77297971Y-133441446D01*
X77276347Y-133431218D01*
X77255830Y-133418921D01*
X77236617Y-133404671D01*
X77218893Y-133388607D01*
X77202829Y-133370883D01*
X77188579Y-133351670D01*
X77176282Y-133331153D01*
X77166054Y-133309529D01*
X77157996Y-133287007D01*
X77152184Y-133263803D01*
X77148674Y-133240142D01*
X77147500Y-133216250D01*
X77147500Y-132303750D01*
X77148674Y-132279858D01*
X77152184Y-132256197D01*
X77157996Y-132232993D01*
X77166054Y-132210471D01*
X77176282Y-132188847D01*
X77188579Y-132168330D01*
X77202829Y-132149117D01*
X77218893Y-132131393D01*
X77236617Y-132115329D01*
X77255830Y-132101079D01*
X77276347Y-132088782D01*
X77297971Y-132078554D01*
X77320493Y-132070496D01*
X77343697Y-132064684D01*
X77367358Y-132061174D01*
X77391250Y-132060000D01*
X77878750Y-132060000D01*
X77902642Y-132061174D01*
X77902642Y-132061174D01*
G37*
D28*
X77635000Y-132760000D03*
D27*
G36*
X76027642Y-132061174D02*
X76051303Y-132064684D01*
X76074507Y-132070496D01*
X76097029Y-132078554D01*
X76118653Y-132088782D01*
X76139170Y-132101079D01*
X76158383Y-132115329D01*
X76176107Y-132131393D01*
X76192171Y-132149117D01*
X76206421Y-132168330D01*
X76218718Y-132188847D01*
X76228946Y-132210471D01*
X76237004Y-132232993D01*
X76242816Y-132256197D01*
X76246326Y-132279858D01*
X76247500Y-132303750D01*
X76247500Y-133216250D01*
X76246326Y-133240142D01*
X76242816Y-133263803D01*
X76237004Y-133287007D01*
X76228946Y-133309529D01*
X76218718Y-133331153D01*
X76206421Y-133351670D01*
X76192171Y-133370883D01*
X76176107Y-133388607D01*
X76158383Y-133404671D01*
X76139170Y-133418921D01*
X76118653Y-133431218D01*
X76097029Y-133441446D01*
X76074507Y-133449504D01*
X76051303Y-133455316D01*
X76027642Y-133458826D01*
X76003750Y-133460000D01*
X75516250Y-133460000D01*
X75492358Y-133458826D01*
X75468697Y-133455316D01*
X75445493Y-133449504D01*
X75422971Y-133441446D01*
X75401347Y-133431218D01*
X75380830Y-133418921D01*
X75361617Y-133404671D01*
X75343893Y-133388607D01*
X75327829Y-133370883D01*
X75313579Y-133351670D01*
X75301282Y-133331153D01*
X75291054Y-133309529D01*
X75282996Y-133287007D01*
X75277184Y-133263803D01*
X75273674Y-133240142D01*
X75272500Y-133216250D01*
X75272500Y-132303750D01*
X75273674Y-132279858D01*
X75277184Y-132256197D01*
X75282996Y-132232993D01*
X75291054Y-132210471D01*
X75301282Y-132188847D01*
X75313579Y-132168330D01*
X75327829Y-132149117D01*
X75343893Y-132131393D01*
X75361617Y-132115329D01*
X75380830Y-132101079D01*
X75401347Y-132088782D01*
X75422971Y-132078554D01*
X75445493Y-132070496D01*
X75468697Y-132064684D01*
X75492358Y-132061174D01*
X75516250Y-132060000D01*
X76003750Y-132060000D01*
X76027642Y-132061174D01*
X76027642Y-132061174D01*
G37*
D28*
X75760000Y-132760000D03*
D27*
G36*
X81115142Y-110523674D02*
X81138803Y-110527184D01*
X81162007Y-110532996D01*
X81184529Y-110541054D01*
X81206153Y-110551282D01*
X81226670Y-110563579D01*
X81245883Y-110577829D01*
X81263607Y-110593893D01*
X81279671Y-110611617D01*
X81293921Y-110630830D01*
X81306218Y-110651347D01*
X81316446Y-110672971D01*
X81324504Y-110695493D01*
X81330316Y-110718697D01*
X81333826Y-110742358D01*
X81335000Y-110766250D01*
X81335000Y-111253750D01*
X81333826Y-111277642D01*
X81330316Y-111301303D01*
X81324504Y-111324507D01*
X81316446Y-111347029D01*
X81306218Y-111368653D01*
X81293921Y-111389170D01*
X81279671Y-111408383D01*
X81263607Y-111426107D01*
X81245883Y-111442171D01*
X81226670Y-111456421D01*
X81206153Y-111468718D01*
X81184529Y-111478946D01*
X81162007Y-111487004D01*
X81138803Y-111492816D01*
X81115142Y-111496326D01*
X81091250Y-111497500D01*
X80178750Y-111497500D01*
X80154858Y-111496326D01*
X80131197Y-111492816D01*
X80107993Y-111487004D01*
X80085471Y-111478946D01*
X80063847Y-111468718D01*
X80043330Y-111456421D01*
X80024117Y-111442171D01*
X80006393Y-111426107D01*
X79990329Y-111408383D01*
X79976079Y-111389170D01*
X79963782Y-111368653D01*
X79953554Y-111347029D01*
X79945496Y-111324507D01*
X79939684Y-111301303D01*
X79936174Y-111277642D01*
X79935000Y-111253750D01*
X79935000Y-110766250D01*
X79936174Y-110742358D01*
X79939684Y-110718697D01*
X79945496Y-110695493D01*
X79953554Y-110672971D01*
X79963782Y-110651347D01*
X79976079Y-110630830D01*
X79990329Y-110611617D01*
X80006393Y-110593893D01*
X80024117Y-110577829D01*
X80043330Y-110563579D01*
X80063847Y-110551282D01*
X80085471Y-110541054D01*
X80107993Y-110532996D01*
X80131197Y-110527184D01*
X80154858Y-110523674D01*
X80178750Y-110522500D01*
X81091250Y-110522500D01*
X81115142Y-110523674D01*
X81115142Y-110523674D01*
G37*
D28*
X80635000Y-111010000D03*
D27*
G36*
X81115142Y-108648674D02*
X81138803Y-108652184D01*
X81162007Y-108657996D01*
X81184529Y-108666054D01*
X81206153Y-108676282D01*
X81226670Y-108688579D01*
X81245883Y-108702829D01*
X81263607Y-108718893D01*
X81279671Y-108736617D01*
X81293921Y-108755830D01*
X81306218Y-108776347D01*
X81316446Y-108797971D01*
X81324504Y-108820493D01*
X81330316Y-108843697D01*
X81333826Y-108867358D01*
X81335000Y-108891250D01*
X81335000Y-109378750D01*
X81333826Y-109402642D01*
X81330316Y-109426303D01*
X81324504Y-109449507D01*
X81316446Y-109472029D01*
X81306218Y-109493653D01*
X81293921Y-109514170D01*
X81279671Y-109533383D01*
X81263607Y-109551107D01*
X81245883Y-109567171D01*
X81226670Y-109581421D01*
X81206153Y-109593718D01*
X81184529Y-109603946D01*
X81162007Y-109612004D01*
X81138803Y-109617816D01*
X81115142Y-109621326D01*
X81091250Y-109622500D01*
X80178750Y-109622500D01*
X80154858Y-109621326D01*
X80131197Y-109617816D01*
X80107993Y-109612004D01*
X80085471Y-109603946D01*
X80063847Y-109593718D01*
X80043330Y-109581421D01*
X80024117Y-109567171D01*
X80006393Y-109551107D01*
X79990329Y-109533383D01*
X79976079Y-109514170D01*
X79963782Y-109493653D01*
X79953554Y-109472029D01*
X79945496Y-109449507D01*
X79939684Y-109426303D01*
X79936174Y-109402642D01*
X79935000Y-109378750D01*
X79935000Y-108891250D01*
X79936174Y-108867358D01*
X79939684Y-108843697D01*
X79945496Y-108820493D01*
X79953554Y-108797971D01*
X79963782Y-108776347D01*
X79976079Y-108755830D01*
X79990329Y-108736617D01*
X80006393Y-108718893D01*
X80024117Y-108702829D01*
X80043330Y-108688579D01*
X80063847Y-108676282D01*
X80085471Y-108666054D01*
X80107993Y-108657996D01*
X80131197Y-108652184D01*
X80154858Y-108648674D01*
X80178750Y-108647500D01*
X81091250Y-108647500D01*
X81115142Y-108648674D01*
X81115142Y-108648674D01*
G37*
D28*
X80635000Y-109135000D03*
D27*
G36*
X81465142Y-69711174D02*
X81488803Y-69714684D01*
X81512007Y-69720496D01*
X81534529Y-69728554D01*
X81556153Y-69738782D01*
X81576670Y-69751079D01*
X81595883Y-69765329D01*
X81613607Y-69781393D01*
X81629671Y-69799117D01*
X81643921Y-69818330D01*
X81656218Y-69838847D01*
X81666446Y-69860471D01*
X81674504Y-69882993D01*
X81680316Y-69906197D01*
X81683826Y-69929858D01*
X81685000Y-69953750D01*
X81685000Y-70441250D01*
X81683826Y-70465142D01*
X81680316Y-70488803D01*
X81674504Y-70512007D01*
X81666446Y-70534529D01*
X81656218Y-70556153D01*
X81643921Y-70576670D01*
X81629671Y-70595883D01*
X81613607Y-70613607D01*
X81595883Y-70629671D01*
X81576670Y-70643921D01*
X81556153Y-70656218D01*
X81534529Y-70666446D01*
X81512007Y-70674504D01*
X81488803Y-70680316D01*
X81465142Y-70683826D01*
X81441250Y-70685000D01*
X80528750Y-70685000D01*
X80504858Y-70683826D01*
X80481197Y-70680316D01*
X80457993Y-70674504D01*
X80435471Y-70666446D01*
X80413847Y-70656218D01*
X80393330Y-70643921D01*
X80374117Y-70629671D01*
X80356393Y-70613607D01*
X80340329Y-70595883D01*
X80326079Y-70576670D01*
X80313782Y-70556153D01*
X80303554Y-70534529D01*
X80295496Y-70512007D01*
X80289684Y-70488803D01*
X80286174Y-70465142D01*
X80285000Y-70441250D01*
X80285000Y-69953750D01*
X80286174Y-69929858D01*
X80289684Y-69906197D01*
X80295496Y-69882993D01*
X80303554Y-69860471D01*
X80313782Y-69838847D01*
X80326079Y-69818330D01*
X80340329Y-69799117D01*
X80356393Y-69781393D01*
X80374117Y-69765329D01*
X80393330Y-69751079D01*
X80413847Y-69738782D01*
X80435471Y-69728554D01*
X80457993Y-69720496D01*
X80481197Y-69714684D01*
X80504858Y-69711174D01*
X80528750Y-69710000D01*
X81441250Y-69710000D01*
X81465142Y-69711174D01*
X81465142Y-69711174D01*
G37*
D28*
X80985000Y-70197500D03*
D27*
G36*
X81465142Y-67836174D02*
X81488803Y-67839684D01*
X81512007Y-67845496D01*
X81534529Y-67853554D01*
X81556153Y-67863782D01*
X81576670Y-67876079D01*
X81595883Y-67890329D01*
X81613607Y-67906393D01*
X81629671Y-67924117D01*
X81643921Y-67943330D01*
X81656218Y-67963847D01*
X81666446Y-67985471D01*
X81674504Y-68007993D01*
X81680316Y-68031197D01*
X81683826Y-68054858D01*
X81685000Y-68078750D01*
X81685000Y-68566250D01*
X81683826Y-68590142D01*
X81680316Y-68613803D01*
X81674504Y-68637007D01*
X81666446Y-68659529D01*
X81656218Y-68681153D01*
X81643921Y-68701670D01*
X81629671Y-68720883D01*
X81613607Y-68738607D01*
X81595883Y-68754671D01*
X81576670Y-68768921D01*
X81556153Y-68781218D01*
X81534529Y-68791446D01*
X81512007Y-68799504D01*
X81488803Y-68805316D01*
X81465142Y-68808826D01*
X81441250Y-68810000D01*
X80528750Y-68810000D01*
X80504858Y-68808826D01*
X80481197Y-68805316D01*
X80457993Y-68799504D01*
X80435471Y-68791446D01*
X80413847Y-68781218D01*
X80393330Y-68768921D01*
X80374117Y-68754671D01*
X80356393Y-68738607D01*
X80340329Y-68720883D01*
X80326079Y-68701670D01*
X80313782Y-68681153D01*
X80303554Y-68659529D01*
X80295496Y-68637007D01*
X80289684Y-68613803D01*
X80286174Y-68590142D01*
X80285000Y-68566250D01*
X80285000Y-68078750D01*
X80286174Y-68054858D01*
X80289684Y-68031197D01*
X80295496Y-68007993D01*
X80303554Y-67985471D01*
X80313782Y-67963847D01*
X80326079Y-67943330D01*
X80340329Y-67924117D01*
X80356393Y-67906393D01*
X80374117Y-67890329D01*
X80393330Y-67876079D01*
X80413847Y-67863782D01*
X80435471Y-67853554D01*
X80457993Y-67845496D01*
X80481197Y-67839684D01*
X80504858Y-67836174D01*
X80528750Y-67835000D01*
X81441250Y-67835000D01*
X81465142Y-67836174D01*
X81465142Y-67836174D01*
G37*
D28*
X80985000Y-68322500D03*
D27*
G36*
X73240142Y-67086174D02*
X73263803Y-67089684D01*
X73287007Y-67095496D01*
X73309529Y-67103554D01*
X73331153Y-67113782D01*
X73351670Y-67126079D01*
X73370883Y-67140329D01*
X73388607Y-67156393D01*
X73404671Y-67174117D01*
X73418921Y-67193330D01*
X73431218Y-67213847D01*
X73441446Y-67235471D01*
X73449504Y-67257993D01*
X73455316Y-67281197D01*
X73458826Y-67304858D01*
X73460000Y-67328750D01*
X73460000Y-67816250D01*
X73458826Y-67840142D01*
X73455316Y-67863803D01*
X73449504Y-67887007D01*
X73441446Y-67909529D01*
X73431218Y-67931153D01*
X73418921Y-67951670D01*
X73404671Y-67970883D01*
X73388607Y-67988607D01*
X73370883Y-68004671D01*
X73351670Y-68018921D01*
X73331153Y-68031218D01*
X73309529Y-68041446D01*
X73287007Y-68049504D01*
X73263803Y-68055316D01*
X73240142Y-68058826D01*
X73216250Y-68060000D01*
X72303750Y-68060000D01*
X72279858Y-68058826D01*
X72256197Y-68055316D01*
X72232993Y-68049504D01*
X72210471Y-68041446D01*
X72188847Y-68031218D01*
X72168330Y-68018921D01*
X72149117Y-68004671D01*
X72131393Y-67988607D01*
X72115329Y-67970883D01*
X72101079Y-67951670D01*
X72088782Y-67931153D01*
X72078554Y-67909529D01*
X72070496Y-67887007D01*
X72064684Y-67863803D01*
X72061174Y-67840142D01*
X72060000Y-67816250D01*
X72060000Y-67328750D01*
X72061174Y-67304858D01*
X72064684Y-67281197D01*
X72070496Y-67257993D01*
X72078554Y-67235471D01*
X72088782Y-67213847D01*
X72101079Y-67193330D01*
X72115329Y-67174117D01*
X72131393Y-67156393D01*
X72149117Y-67140329D01*
X72168330Y-67126079D01*
X72188847Y-67113782D01*
X72210471Y-67103554D01*
X72232993Y-67095496D01*
X72256197Y-67089684D01*
X72279858Y-67086174D01*
X72303750Y-67085000D01*
X73216250Y-67085000D01*
X73240142Y-67086174D01*
X73240142Y-67086174D01*
G37*
D28*
X72760000Y-67572500D03*
D27*
G36*
X73240142Y-68961174D02*
X73263803Y-68964684D01*
X73287007Y-68970496D01*
X73309529Y-68978554D01*
X73331153Y-68988782D01*
X73351670Y-69001079D01*
X73370883Y-69015329D01*
X73388607Y-69031393D01*
X73404671Y-69049117D01*
X73418921Y-69068330D01*
X73431218Y-69088847D01*
X73441446Y-69110471D01*
X73449504Y-69132993D01*
X73455316Y-69156197D01*
X73458826Y-69179858D01*
X73460000Y-69203750D01*
X73460000Y-69691250D01*
X73458826Y-69715142D01*
X73455316Y-69738803D01*
X73449504Y-69762007D01*
X73441446Y-69784529D01*
X73431218Y-69806153D01*
X73418921Y-69826670D01*
X73404671Y-69845883D01*
X73388607Y-69863607D01*
X73370883Y-69879671D01*
X73351670Y-69893921D01*
X73331153Y-69906218D01*
X73309529Y-69916446D01*
X73287007Y-69924504D01*
X73263803Y-69930316D01*
X73240142Y-69933826D01*
X73216250Y-69935000D01*
X72303750Y-69935000D01*
X72279858Y-69933826D01*
X72256197Y-69930316D01*
X72232993Y-69924504D01*
X72210471Y-69916446D01*
X72188847Y-69906218D01*
X72168330Y-69893921D01*
X72149117Y-69879671D01*
X72131393Y-69863607D01*
X72115329Y-69845883D01*
X72101079Y-69826670D01*
X72088782Y-69806153D01*
X72078554Y-69784529D01*
X72070496Y-69762007D01*
X72064684Y-69738803D01*
X72061174Y-69715142D01*
X72060000Y-69691250D01*
X72060000Y-69203750D01*
X72061174Y-69179858D01*
X72064684Y-69156197D01*
X72070496Y-69132993D01*
X72078554Y-69110471D01*
X72088782Y-69088847D01*
X72101079Y-69068330D01*
X72115329Y-69049117D01*
X72131393Y-69031393D01*
X72149117Y-69015329D01*
X72168330Y-69001079D01*
X72188847Y-68988782D01*
X72210471Y-68978554D01*
X72232993Y-68970496D01*
X72256197Y-68964684D01*
X72279858Y-68961174D01*
X72303750Y-68960000D01*
X73216250Y-68960000D01*
X73240142Y-68961174D01*
X73240142Y-68961174D01*
G37*
D28*
X72760000Y-69447500D03*
D27*
G36*
X76865142Y-149086174D02*
X76888803Y-149089684D01*
X76912007Y-149095496D01*
X76934529Y-149103554D01*
X76956153Y-149113782D01*
X76976670Y-149126079D01*
X76995883Y-149140329D01*
X77013607Y-149156393D01*
X77029671Y-149174117D01*
X77043921Y-149193330D01*
X77056218Y-149213847D01*
X77066446Y-149235471D01*
X77074504Y-149257993D01*
X77080316Y-149281197D01*
X77083826Y-149304858D01*
X77085000Y-149328750D01*
X77085000Y-149816250D01*
X77083826Y-149840142D01*
X77080316Y-149863803D01*
X77074504Y-149887007D01*
X77066446Y-149909529D01*
X77056218Y-149931153D01*
X77043921Y-149951670D01*
X77029671Y-149970883D01*
X77013607Y-149988607D01*
X76995883Y-150004671D01*
X76976670Y-150018921D01*
X76956153Y-150031218D01*
X76934529Y-150041446D01*
X76912007Y-150049504D01*
X76888803Y-150055316D01*
X76865142Y-150058826D01*
X76841250Y-150060000D01*
X75928750Y-150060000D01*
X75904858Y-150058826D01*
X75881197Y-150055316D01*
X75857993Y-150049504D01*
X75835471Y-150041446D01*
X75813847Y-150031218D01*
X75793330Y-150018921D01*
X75774117Y-150004671D01*
X75756393Y-149988607D01*
X75740329Y-149970883D01*
X75726079Y-149951670D01*
X75713782Y-149931153D01*
X75703554Y-149909529D01*
X75695496Y-149887007D01*
X75689684Y-149863803D01*
X75686174Y-149840142D01*
X75685000Y-149816250D01*
X75685000Y-149328750D01*
X75686174Y-149304858D01*
X75689684Y-149281197D01*
X75695496Y-149257993D01*
X75703554Y-149235471D01*
X75713782Y-149213847D01*
X75726079Y-149193330D01*
X75740329Y-149174117D01*
X75756393Y-149156393D01*
X75774117Y-149140329D01*
X75793330Y-149126079D01*
X75813847Y-149113782D01*
X75835471Y-149103554D01*
X75857993Y-149095496D01*
X75881197Y-149089684D01*
X75904858Y-149086174D01*
X75928750Y-149085000D01*
X76841250Y-149085000D01*
X76865142Y-149086174D01*
X76865142Y-149086174D01*
G37*
D28*
X76385000Y-149572500D03*
D27*
G36*
X76865142Y-150961174D02*
X76888803Y-150964684D01*
X76912007Y-150970496D01*
X76934529Y-150978554D01*
X76956153Y-150988782D01*
X76976670Y-151001079D01*
X76995883Y-151015329D01*
X77013607Y-151031393D01*
X77029671Y-151049117D01*
X77043921Y-151068330D01*
X77056218Y-151088847D01*
X77066446Y-151110471D01*
X77074504Y-151132993D01*
X77080316Y-151156197D01*
X77083826Y-151179858D01*
X77085000Y-151203750D01*
X77085000Y-151691250D01*
X77083826Y-151715142D01*
X77080316Y-151738803D01*
X77074504Y-151762007D01*
X77066446Y-151784529D01*
X77056218Y-151806153D01*
X77043921Y-151826670D01*
X77029671Y-151845883D01*
X77013607Y-151863607D01*
X76995883Y-151879671D01*
X76976670Y-151893921D01*
X76956153Y-151906218D01*
X76934529Y-151916446D01*
X76912007Y-151924504D01*
X76888803Y-151930316D01*
X76865142Y-151933826D01*
X76841250Y-151935000D01*
X75928750Y-151935000D01*
X75904858Y-151933826D01*
X75881197Y-151930316D01*
X75857993Y-151924504D01*
X75835471Y-151916446D01*
X75813847Y-151906218D01*
X75793330Y-151893921D01*
X75774117Y-151879671D01*
X75756393Y-151863607D01*
X75740329Y-151845883D01*
X75726079Y-151826670D01*
X75713782Y-151806153D01*
X75703554Y-151784529D01*
X75695496Y-151762007D01*
X75689684Y-151738803D01*
X75686174Y-151715142D01*
X75685000Y-151691250D01*
X75685000Y-151203750D01*
X75686174Y-151179858D01*
X75689684Y-151156197D01*
X75695496Y-151132993D01*
X75703554Y-151110471D01*
X75713782Y-151088847D01*
X75726079Y-151068330D01*
X75740329Y-151049117D01*
X75756393Y-151031393D01*
X75774117Y-151015329D01*
X75793330Y-151001079D01*
X75813847Y-150988782D01*
X75835471Y-150978554D01*
X75857993Y-150970496D01*
X75881197Y-150964684D01*
X75904858Y-150961174D01*
X75928750Y-150960000D01*
X76841250Y-150960000D01*
X76865142Y-150961174D01*
X76865142Y-150961174D01*
G37*
D28*
X76385000Y-151447500D03*
D27*
G36*
X79902642Y-74311174D02*
X79926303Y-74314684D01*
X79949507Y-74320496D01*
X79972029Y-74328554D01*
X79993653Y-74338782D01*
X80014170Y-74351079D01*
X80033383Y-74365329D01*
X80051107Y-74381393D01*
X80067171Y-74399117D01*
X80081421Y-74418330D01*
X80093718Y-74438847D01*
X80103946Y-74460471D01*
X80112004Y-74482993D01*
X80117816Y-74506197D01*
X80121326Y-74529858D01*
X80122500Y-74553750D01*
X80122500Y-75466250D01*
X80121326Y-75490142D01*
X80117816Y-75513803D01*
X80112004Y-75537007D01*
X80103946Y-75559529D01*
X80093718Y-75581153D01*
X80081421Y-75601670D01*
X80067171Y-75620883D01*
X80051107Y-75638607D01*
X80033383Y-75654671D01*
X80014170Y-75668921D01*
X79993653Y-75681218D01*
X79972029Y-75691446D01*
X79949507Y-75699504D01*
X79926303Y-75705316D01*
X79902642Y-75708826D01*
X79878750Y-75710000D01*
X79391250Y-75710000D01*
X79367358Y-75708826D01*
X79343697Y-75705316D01*
X79320493Y-75699504D01*
X79297971Y-75691446D01*
X79276347Y-75681218D01*
X79255830Y-75668921D01*
X79236617Y-75654671D01*
X79218893Y-75638607D01*
X79202829Y-75620883D01*
X79188579Y-75601670D01*
X79176282Y-75581153D01*
X79166054Y-75559529D01*
X79157996Y-75537007D01*
X79152184Y-75513803D01*
X79148674Y-75490142D01*
X79147500Y-75466250D01*
X79147500Y-74553750D01*
X79148674Y-74529858D01*
X79152184Y-74506197D01*
X79157996Y-74482993D01*
X79166054Y-74460471D01*
X79176282Y-74438847D01*
X79188579Y-74418330D01*
X79202829Y-74399117D01*
X79218893Y-74381393D01*
X79236617Y-74365329D01*
X79255830Y-74351079D01*
X79276347Y-74338782D01*
X79297971Y-74328554D01*
X79320493Y-74320496D01*
X79343697Y-74314684D01*
X79367358Y-74311174D01*
X79391250Y-74310000D01*
X79878750Y-74310000D01*
X79902642Y-74311174D01*
X79902642Y-74311174D01*
G37*
D28*
X79635000Y-75010000D03*
D27*
G36*
X78027642Y-74311174D02*
X78051303Y-74314684D01*
X78074507Y-74320496D01*
X78097029Y-74328554D01*
X78118653Y-74338782D01*
X78139170Y-74351079D01*
X78158383Y-74365329D01*
X78176107Y-74381393D01*
X78192171Y-74399117D01*
X78206421Y-74418330D01*
X78218718Y-74438847D01*
X78228946Y-74460471D01*
X78237004Y-74482993D01*
X78242816Y-74506197D01*
X78246326Y-74529858D01*
X78247500Y-74553750D01*
X78247500Y-75466250D01*
X78246326Y-75490142D01*
X78242816Y-75513803D01*
X78237004Y-75537007D01*
X78228946Y-75559529D01*
X78218718Y-75581153D01*
X78206421Y-75601670D01*
X78192171Y-75620883D01*
X78176107Y-75638607D01*
X78158383Y-75654671D01*
X78139170Y-75668921D01*
X78118653Y-75681218D01*
X78097029Y-75691446D01*
X78074507Y-75699504D01*
X78051303Y-75705316D01*
X78027642Y-75708826D01*
X78003750Y-75710000D01*
X77516250Y-75710000D01*
X77492358Y-75708826D01*
X77468697Y-75705316D01*
X77445493Y-75699504D01*
X77422971Y-75691446D01*
X77401347Y-75681218D01*
X77380830Y-75668921D01*
X77361617Y-75654671D01*
X77343893Y-75638607D01*
X77327829Y-75620883D01*
X77313579Y-75601670D01*
X77301282Y-75581153D01*
X77291054Y-75559529D01*
X77282996Y-75537007D01*
X77277184Y-75513803D01*
X77273674Y-75490142D01*
X77272500Y-75466250D01*
X77272500Y-74553750D01*
X77273674Y-74529858D01*
X77277184Y-74506197D01*
X77282996Y-74482993D01*
X77291054Y-74460471D01*
X77301282Y-74438847D01*
X77313579Y-74418330D01*
X77327829Y-74399117D01*
X77343893Y-74381393D01*
X77361617Y-74365329D01*
X77380830Y-74351079D01*
X77401347Y-74338782D01*
X77422971Y-74328554D01*
X77445493Y-74320496D01*
X77468697Y-74314684D01*
X77492358Y-74311174D01*
X77516250Y-74310000D01*
X78003750Y-74310000D01*
X78027642Y-74311174D01*
X78027642Y-74311174D01*
G37*
D28*
X77760000Y-75010000D03*
D27*
G36*
X66865142Y-131086174D02*
X66888803Y-131089684D01*
X66912007Y-131095496D01*
X66934529Y-131103554D01*
X66956153Y-131113782D01*
X66976670Y-131126079D01*
X66995883Y-131140329D01*
X67013607Y-131156393D01*
X67029671Y-131174117D01*
X67043921Y-131193330D01*
X67056218Y-131213847D01*
X67066446Y-131235471D01*
X67074504Y-131257993D01*
X67080316Y-131281197D01*
X67083826Y-131304858D01*
X67085000Y-131328750D01*
X67085000Y-131816250D01*
X67083826Y-131840142D01*
X67080316Y-131863803D01*
X67074504Y-131887007D01*
X67066446Y-131909529D01*
X67056218Y-131931153D01*
X67043921Y-131951670D01*
X67029671Y-131970883D01*
X67013607Y-131988607D01*
X66995883Y-132004671D01*
X66976670Y-132018921D01*
X66956153Y-132031218D01*
X66934529Y-132041446D01*
X66912007Y-132049504D01*
X66888803Y-132055316D01*
X66865142Y-132058826D01*
X66841250Y-132060000D01*
X65928750Y-132060000D01*
X65904858Y-132058826D01*
X65881197Y-132055316D01*
X65857993Y-132049504D01*
X65835471Y-132041446D01*
X65813847Y-132031218D01*
X65793330Y-132018921D01*
X65774117Y-132004671D01*
X65756393Y-131988607D01*
X65740329Y-131970883D01*
X65726079Y-131951670D01*
X65713782Y-131931153D01*
X65703554Y-131909529D01*
X65695496Y-131887007D01*
X65689684Y-131863803D01*
X65686174Y-131840142D01*
X65685000Y-131816250D01*
X65685000Y-131328750D01*
X65686174Y-131304858D01*
X65689684Y-131281197D01*
X65695496Y-131257993D01*
X65703554Y-131235471D01*
X65713782Y-131213847D01*
X65726079Y-131193330D01*
X65740329Y-131174117D01*
X65756393Y-131156393D01*
X65774117Y-131140329D01*
X65793330Y-131126079D01*
X65813847Y-131113782D01*
X65835471Y-131103554D01*
X65857993Y-131095496D01*
X65881197Y-131089684D01*
X65904858Y-131086174D01*
X65928750Y-131085000D01*
X66841250Y-131085000D01*
X66865142Y-131086174D01*
X66865142Y-131086174D01*
G37*
D28*
X66385000Y-131572500D03*
D27*
G36*
X66865142Y-132961174D02*
X66888803Y-132964684D01*
X66912007Y-132970496D01*
X66934529Y-132978554D01*
X66956153Y-132988782D01*
X66976670Y-133001079D01*
X66995883Y-133015329D01*
X67013607Y-133031393D01*
X67029671Y-133049117D01*
X67043921Y-133068330D01*
X67056218Y-133088847D01*
X67066446Y-133110471D01*
X67074504Y-133132993D01*
X67080316Y-133156197D01*
X67083826Y-133179858D01*
X67085000Y-133203750D01*
X67085000Y-133691250D01*
X67083826Y-133715142D01*
X67080316Y-133738803D01*
X67074504Y-133762007D01*
X67066446Y-133784529D01*
X67056218Y-133806153D01*
X67043921Y-133826670D01*
X67029671Y-133845883D01*
X67013607Y-133863607D01*
X66995883Y-133879671D01*
X66976670Y-133893921D01*
X66956153Y-133906218D01*
X66934529Y-133916446D01*
X66912007Y-133924504D01*
X66888803Y-133930316D01*
X66865142Y-133933826D01*
X66841250Y-133935000D01*
X65928750Y-133935000D01*
X65904858Y-133933826D01*
X65881197Y-133930316D01*
X65857993Y-133924504D01*
X65835471Y-133916446D01*
X65813847Y-133906218D01*
X65793330Y-133893921D01*
X65774117Y-133879671D01*
X65756393Y-133863607D01*
X65740329Y-133845883D01*
X65726079Y-133826670D01*
X65713782Y-133806153D01*
X65703554Y-133784529D01*
X65695496Y-133762007D01*
X65689684Y-133738803D01*
X65686174Y-133715142D01*
X65685000Y-133691250D01*
X65685000Y-133203750D01*
X65686174Y-133179858D01*
X65689684Y-133156197D01*
X65695496Y-133132993D01*
X65703554Y-133110471D01*
X65713782Y-133088847D01*
X65726079Y-133068330D01*
X65740329Y-133049117D01*
X65756393Y-133031393D01*
X65774117Y-133015329D01*
X65793330Y-133001079D01*
X65813847Y-132988782D01*
X65835471Y-132978554D01*
X65857993Y-132970496D01*
X65881197Y-132964684D01*
X65904858Y-132961174D01*
X65928750Y-132960000D01*
X66841250Y-132960000D01*
X66865142Y-132961174D01*
X66865142Y-132961174D01*
G37*
D28*
X66385000Y-133447500D03*
D27*
G36*
X60115142Y-124211174D02*
X60138803Y-124214684D01*
X60162007Y-124220496D01*
X60184529Y-124228554D01*
X60206153Y-124238782D01*
X60226670Y-124251079D01*
X60245883Y-124265329D01*
X60263607Y-124281393D01*
X60279671Y-124299117D01*
X60293921Y-124318330D01*
X60306218Y-124338847D01*
X60316446Y-124360471D01*
X60324504Y-124382993D01*
X60330316Y-124406197D01*
X60333826Y-124429858D01*
X60335000Y-124453750D01*
X60335000Y-124941250D01*
X60333826Y-124965142D01*
X60330316Y-124988803D01*
X60324504Y-125012007D01*
X60316446Y-125034529D01*
X60306218Y-125056153D01*
X60293921Y-125076670D01*
X60279671Y-125095883D01*
X60263607Y-125113607D01*
X60245883Y-125129671D01*
X60226670Y-125143921D01*
X60206153Y-125156218D01*
X60184529Y-125166446D01*
X60162007Y-125174504D01*
X60138803Y-125180316D01*
X60115142Y-125183826D01*
X60091250Y-125185000D01*
X59178750Y-125185000D01*
X59154858Y-125183826D01*
X59131197Y-125180316D01*
X59107993Y-125174504D01*
X59085471Y-125166446D01*
X59063847Y-125156218D01*
X59043330Y-125143921D01*
X59024117Y-125129671D01*
X59006393Y-125113607D01*
X58990329Y-125095883D01*
X58976079Y-125076670D01*
X58963782Y-125056153D01*
X58953554Y-125034529D01*
X58945496Y-125012007D01*
X58939684Y-124988803D01*
X58936174Y-124965142D01*
X58935000Y-124941250D01*
X58935000Y-124453750D01*
X58936174Y-124429858D01*
X58939684Y-124406197D01*
X58945496Y-124382993D01*
X58953554Y-124360471D01*
X58963782Y-124338847D01*
X58976079Y-124318330D01*
X58990329Y-124299117D01*
X59006393Y-124281393D01*
X59024117Y-124265329D01*
X59043330Y-124251079D01*
X59063847Y-124238782D01*
X59085471Y-124228554D01*
X59107993Y-124220496D01*
X59131197Y-124214684D01*
X59154858Y-124211174D01*
X59178750Y-124210000D01*
X60091250Y-124210000D01*
X60115142Y-124211174D01*
X60115142Y-124211174D01*
G37*
D28*
X59635000Y-124697500D03*
D27*
G36*
X60115142Y-122336174D02*
X60138803Y-122339684D01*
X60162007Y-122345496D01*
X60184529Y-122353554D01*
X60206153Y-122363782D01*
X60226670Y-122376079D01*
X60245883Y-122390329D01*
X60263607Y-122406393D01*
X60279671Y-122424117D01*
X60293921Y-122443330D01*
X60306218Y-122463847D01*
X60316446Y-122485471D01*
X60324504Y-122507993D01*
X60330316Y-122531197D01*
X60333826Y-122554858D01*
X60335000Y-122578750D01*
X60335000Y-123066250D01*
X60333826Y-123090142D01*
X60330316Y-123113803D01*
X60324504Y-123137007D01*
X60316446Y-123159529D01*
X60306218Y-123181153D01*
X60293921Y-123201670D01*
X60279671Y-123220883D01*
X60263607Y-123238607D01*
X60245883Y-123254671D01*
X60226670Y-123268921D01*
X60206153Y-123281218D01*
X60184529Y-123291446D01*
X60162007Y-123299504D01*
X60138803Y-123305316D01*
X60115142Y-123308826D01*
X60091250Y-123310000D01*
X59178750Y-123310000D01*
X59154858Y-123308826D01*
X59131197Y-123305316D01*
X59107993Y-123299504D01*
X59085471Y-123291446D01*
X59063847Y-123281218D01*
X59043330Y-123268921D01*
X59024117Y-123254671D01*
X59006393Y-123238607D01*
X58990329Y-123220883D01*
X58976079Y-123201670D01*
X58963782Y-123181153D01*
X58953554Y-123159529D01*
X58945496Y-123137007D01*
X58939684Y-123113803D01*
X58936174Y-123090142D01*
X58935000Y-123066250D01*
X58935000Y-122578750D01*
X58936174Y-122554858D01*
X58939684Y-122531197D01*
X58945496Y-122507993D01*
X58953554Y-122485471D01*
X58963782Y-122463847D01*
X58976079Y-122443330D01*
X58990329Y-122424117D01*
X59006393Y-122406393D01*
X59024117Y-122390329D01*
X59043330Y-122376079D01*
X59063847Y-122363782D01*
X59085471Y-122353554D01*
X59107993Y-122345496D01*
X59131197Y-122339684D01*
X59154858Y-122336174D01*
X59178750Y-122335000D01*
X60091250Y-122335000D01*
X60115142Y-122336174D01*
X60115142Y-122336174D01*
G37*
D28*
X59635000Y-122822500D03*
D27*
G36*
X64865142Y-132961174D02*
X64888803Y-132964684D01*
X64912007Y-132970496D01*
X64934529Y-132978554D01*
X64956153Y-132988782D01*
X64976670Y-133001079D01*
X64995883Y-133015329D01*
X65013607Y-133031393D01*
X65029671Y-133049117D01*
X65043921Y-133068330D01*
X65056218Y-133088847D01*
X65066446Y-133110471D01*
X65074504Y-133132993D01*
X65080316Y-133156197D01*
X65083826Y-133179858D01*
X65085000Y-133203750D01*
X65085000Y-133691250D01*
X65083826Y-133715142D01*
X65080316Y-133738803D01*
X65074504Y-133762007D01*
X65066446Y-133784529D01*
X65056218Y-133806153D01*
X65043921Y-133826670D01*
X65029671Y-133845883D01*
X65013607Y-133863607D01*
X64995883Y-133879671D01*
X64976670Y-133893921D01*
X64956153Y-133906218D01*
X64934529Y-133916446D01*
X64912007Y-133924504D01*
X64888803Y-133930316D01*
X64865142Y-133933826D01*
X64841250Y-133935000D01*
X63928750Y-133935000D01*
X63904858Y-133933826D01*
X63881197Y-133930316D01*
X63857993Y-133924504D01*
X63835471Y-133916446D01*
X63813847Y-133906218D01*
X63793330Y-133893921D01*
X63774117Y-133879671D01*
X63756393Y-133863607D01*
X63740329Y-133845883D01*
X63726079Y-133826670D01*
X63713782Y-133806153D01*
X63703554Y-133784529D01*
X63695496Y-133762007D01*
X63689684Y-133738803D01*
X63686174Y-133715142D01*
X63685000Y-133691250D01*
X63685000Y-133203750D01*
X63686174Y-133179858D01*
X63689684Y-133156197D01*
X63695496Y-133132993D01*
X63703554Y-133110471D01*
X63713782Y-133088847D01*
X63726079Y-133068330D01*
X63740329Y-133049117D01*
X63756393Y-133031393D01*
X63774117Y-133015329D01*
X63793330Y-133001079D01*
X63813847Y-132988782D01*
X63835471Y-132978554D01*
X63857993Y-132970496D01*
X63881197Y-132964684D01*
X63904858Y-132961174D01*
X63928750Y-132960000D01*
X64841250Y-132960000D01*
X64865142Y-132961174D01*
X64865142Y-132961174D01*
G37*
D28*
X64385000Y-133447500D03*
D27*
G36*
X64865142Y-131086174D02*
X64888803Y-131089684D01*
X64912007Y-131095496D01*
X64934529Y-131103554D01*
X64956153Y-131113782D01*
X64976670Y-131126079D01*
X64995883Y-131140329D01*
X65013607Y-131156393D01*
X65029671Y-131174117D01*
X65043921Y-131193330D01*
X65056218Y-131213847D01*
X65066446Y-131235471D01*
X65074504Y-131257993D01*
X65080316Y-131281197D01*
X65083826Y-131304858D01*
X65085000Y-131328750D01*
X65085000Y-131816250D01*
X65083826Y-131840142D01*
X65080316Y-131863803D01*
X65074504Y-131887007D01*
X65066446Y-131909529D01*
X65056218Y-131931153D01*
X65043921Y-131951670D01*
X65029671Y-131970883D01*
X65013607Y-131988607D01*
X64995883Y-132004671D01*
X64976670Y-132018921D01*
X64956153Y-132031218D01*
X64934529Y-132041446D01*
X64912007Y-132049504D01*
X64888803Y-132055316D01*
X64865142Y-132058826D01*
X64841250Y-132060000D01*
X63928750Y-132060000D01*
X63904858Y-132058826D01*
X63881197Y-132055316D01*
X63857993Y-132049504D01*
X63835471Y-132041446D01*
X63813847Y-132031218D01*
X63793330Y-132018921D01*
X63774117Y-132004671D01*
X63756393Y-131988607D01*
X63740329Y-131970883D01*
X63726079Y-131951670D01*
X63713782Y-131931153D01*
X63703554Y-131909529D01*
X63695496Y-131887007D01*
X63689684Y-131863803D01*
X63686174Y-131840142D01*
X63685000Y-131816250D01*
X63685000Y-131328750D01*
X63686174Y-131304858D01*
X63689684Y-131281197D01*
X63695496Y-131257993D01*
X63703554Y-131235471D01*
X63713782Y-131213847D01*
X63726079Y-131193330D01*
X63740329Y-131174117D01*
X63756393Y-131156393D01*
X63774117Y-131140329D01*
X63793330Y-131126079D01*
X63813847Y-131113782D01*
X63835471Y-131103554D01*
X63857993Y-131095496D01*
X63881197Y-131089684D01*
X63904858Y-131086174D01*
X63928750Y-131085000D01*
X64841250Y-131085000D01*
X64865142Y-131086174D01*
X64865142Y-131086174D01*
G37*
D28*
X64385000Y-131572500D03*
D27*
G36*
X78340142Y-120561174D02*
X78363803Y-120564684D01*
X78387007Y-120570496D01*
X78409529Y-120578554D01*
X78431153Y-120588782D01*
X78451670Y-120601079D01*
X78470883Y-120615329D01*
X78488607Y-120631393D01*
X78504671Y-120649117D01*
X78518921Y-120668330D01*
X78531218Y-120688847D01*
X78541446Y-120710471D01*
X78549504Y-120732993D01*
X78555316Y-120756197D01*
X78558826Y-120779858D01*
X78560000Y-120803750D01*
X78560000Y-121716250D01*
X78558826Y-121740142D01*
X78555316Y-121763803D01*
X78549504Y-121787007D01*
X78541446Y-121809529D01*
X78531218Y-121831153D01*
X78518921Y-121851670D01*
X78504671Y-121870883D01*
X78488607Y-121888607D01*
X78470883Y-121904671D01*
X78451670Y-121918921D01*
X78431153Y-121931218D01*
X78409529Y-121941446D01*
X78387007Y-121949504D01*
X78363803Y-121955316D01*
X78340142Y-121958826D01*
X78316250Y-121960000D01*
X77828750Y-121960000D01*
X77804858Y-121958826D01*
X77781197Y-121955316D01*
X77757993Y-121949504D01*
X77735471Y-121941446D01*
X77713847Y-121931218D01*
X77693330Y-121918921D01*
X77674117Y-121904671D01*
X77656393Y-121888607D01*
X77640329Y-121870883D01*
X77626079Y-121851670D01*
X77613782Y-121831153D01*
X77603554Y-121809529D01*
X77595496Y-121787007D01*
X77589684Y-121763803D01*
X77586174Y-121740142D01*
X77585000Y-121716250D01*
X77585000Y-120803750D01*
X77586174Y-120779858D01*
X77589684Y-120756197D01*
X77595496Y-120732993D01*
X77603554Y-120710471D01*
X77613782Y-120688847D01*
X77626079Y-120668330D01*
X77640329Y-120649117D01*
X77656393Y-120631393D01*
X77674117Y-120615329D01*
X77693330Y-120601079D01*
X77713847Y-120588782D01*
X77735471Y-120578554D01*
X77757993Y-120570496D01*
X77781197Y-120564684D01*
X77804858Y-120561174D01*
X77828750Y-120560000D01*
X78316250Y-120560000D01*
X78340142Y-120561174D01*
X78340142Y-120561174D01*
G37*
D28*
X78072500Y-121260000D03*
D27*
G36*
X76465142Y-120561174D02*
X76488803Y-120564684D01*
X76512007Y-120570496D01*
X76534529Y-120578554D01*
X76556153Y-120588782D01*
X76576670Y-120601079D01*
X76595883Y-120615329D01*
X76613607Y-120631393D01*
X76629671Y-120649117D01*
X76643921Y-120668330D01*
X76656218Y-120688847D01*
X76666446Y-120710471D01*
X76674504Y-120732993D01*
X76680316Y-120756197D01*
X76683826Y-120779858D01*
X76685000Y-120803750D01*
X76685000Y-121716250D01*
X76683826Y-121740142D01*
X76680316Y-121763803D01*
X76674504Y-121787007D01*
X76666446Y-121809529D01*
X76656218Y-121831153D01*
X76643921Y-121851670D01*
X76629671Y-121870883D01*
X76613607Y-121888607D01*
X76595883Y-121904671D01*
X76576670Y-121918921D01*
X76556153Y-121931218D01*
X76534529Y-121941446D01*
X76512007Y-121949504D01*
X76488803Y-121955316D01*
X76465142Y-121958826D01*
X76441250Y-121960000D01*
X75953750Y-121960000D01*
X75929858Y-121958826D01*
X75906197Y-121955316D01*
X75882993Y-121949504D01*
X75860471Y-121941446D01*
X75838847Y-121931218D01*
X75818330Y-121918921D01*
X75799117Y-121904671D01*
X75781393Y-121888607D01*
X75765329Y-121870883D01*
X75751079Y-121851670D01*
X75738782Y-121831153D01*
X75728554Y-121809529D01*
X75720496Y-121787007D01*
X75714684Y-121763803D01*
X75711174Y-121740142D01*
X75710000Y-121716250D01*
X75710000Y-120803750D01*
X75711174Y-120779858D01*
X75714684Y-120756197D01*
X75720496Y-120732993D01*
X75728554Y-120710471D01*
X75738782Y-120688847D01*
X75751079Y-120668330D01*
X75765329Y-120649117D01*
X75781393Y-120631393D01*
X75799117Y-120615329D01*
X75818330Y-120601079D01*
X75838847Y-120588782D01*
X75860471Y-120578554D01*
X75882993Y-120570496D01*
X75906197Y-120564684D01*
X75929858Y-120561174D01*
X75953750Y-120560000D01*
X76441250Y-120560000D01*
X76465142Y-120561174D01*
X76465142Y-120561174D01*
G37*
D28*
X76197500Y-121260000D03*
D27*
G36*
X65115142Y-129211174D02*
X65138803Y-129214684D01*
X65162007Y-129220496D01*
X65184529Y-129228554D01*
X65206153Y-129238782D01*
X65226670Y-129251079D01*
X65245883Y-129265329D01*
X65263607Y-129281393D01*
X65279671Y-129299117D01*
X65293921Y-129318330D01*
X65306218Y-129338847D01*
X65316446Y-129360471D01*
X65324504Y-129382993D01*
X65330316Y-129406197D01*
X65333826Y-129429858D01*
X65335000Y-129453750D01*
X65335000Y-129941250D01*
X65333826Y-129965142D01*
X65330316Y-129988803D01*
X65324504Y-130012007D01*
X65316446Y-130034529D01*
X65306218Y-130056153D01*
X65293921Y-130076670D01*
X65279671Y-130095883D01*
X65263607Y-130113607D01*
X65245883Y-130129671D01*
X65226670Y-130143921D01*
X65206153Y-130156218D01*
X65184529Y-130166446D01*
X65162007Y-130174504D01*
X65138803Y-130180316D01*
X65115142Y-130183826D01*
X65091250Y-130185000D01*
X64178750Y-130185000D01*
X64154858Y-130183826D01*
X64131197Y-130180316D01*
X64107993Y-130174504D01*
X64085471Y-130166446D01*
X64063847Y-130156218D01*
X64043330Y-130143921D01*
X64024117Y-130129671D01*
X64006393Y-130113607D01*
X63990329Y-130095883D01*
X63976079Y-130076670D01*
X63963782Y-130056153D01*
X63953554Y-130034529D01*
X63945496Y-130012007D01*
X63939684Y-129988803D01*
X63936174Y-129965142D01*
X63935000Y-129941250D01*
X63935000Y-129453750D01*
X63936174Y-129429858D01*
X63939684Y-129406197D01*
X63945496Y-129382993D01*
X63953554Y-129360471D01*
X63963782Y-129338847D01*
X63976079Y-129318330D01*
X63990329Y-129299117D01*
X64006393Y-129281393D01*
X64024117Y-129265329D01*
X64043330Y-129251079D01*
X64063847Y-129238782D01*
X64085471Y-129228554D01*
X64107993Y-129220496D01*
X64131197Y-129214684D01*
X64154858Y-129211174D01*
X64178750Y-129210000D01*
X65091250Y-129210000D01*
X65115142Y-129211174D01*
X65115142Y-129211174D01*
G37*
D28*
X64635000Y-129697500D03*
D27*
G36*
X65115142Y-127336174D02*
X65138803Y-127339684D01*
X65162007Y-127345496D01*
X65184529Y-127353554D01*
X65206153Y-127363782D01*
X65226670Y-127376079D01*
X65245883Y-127390329D01*
X65263607Y-127406393D01*
X65279671Y-127424117D01*
X65293921Y-127443330D01*
X65306218Y-127463847D01*
X65316446Y-127485471D01*
X65324504Y-127507993D01*
X65330316Y-127531197D01*
X65333826Y-127554858D01*
X65335000Y-127578750D01*
X65335000Y-128066250D01*
X65333826Y-128090142D01*
X65330316Y-128113803D01*
X65324504Y-128137007D01*
X65316446Y-128159529D01*
X65306218Y-128181153D01*
X65293921Y-128201670D01*
X65279671Y-128220883D01*
X65263607Y-128238607D01*
X65245883Y-128254671D01*
X65226670Y-128268921D01*
X65206153Y-128281218D01*
X65184529Y-128291446D01*
X65162007Y-128299504D01*
X65138803Y-128305316D01*
X65115142Y-128308826D01*
X65091250Y-128310000D01*
X64178750Y-128310000D01*
X64154858Y-128308826D01*
X64131197Y-128305316D01*
X64107993Y-128299504D01*
X64085471Y-128291446D01*
X64063847Y-128281218D01*
X64043330Y-128268921D01*
X64024117Y-128254671D01*
X64006393Y-128238607D01*
X63990329Y-128220883D01*
X63976079Y-128201670D01*
X63963782Y-128181153D01*
X63953554Y-128159529D01*
X63945496Y-128137007D01*
X63939684Y-128113803D01*
X63936174Y-128090142D01*
X63935000Y-128066250D01*
X63935000Y-127578750D01*
X63936174Y-127554858D01*
X63939684Y-127531197D01*
X63945496Y-127507993D01*
X63953554Y-127485471D01*
X63963782Y-127463847D01*
X63976079Y-127443330D01*
X63990329Y-127424117D01*
X64006393Y-127406393D01*
X64024117Y-127390329D01*
X64043330Y-127376079D01*
X64063847Y-127363782D01*
X64085471Y-127353554D01*
X64107993Y-127345496D01*
X64131197Y-127339684D01*
X64154858Y-127336174D01*
X64178750Y-127335000D01*
X65091250Y-127335000D01*
X65115142Y-127336174D01*
X65115142Y-127336174D01*
G37*
D28*
X64635000Y-127822500D03*
D27*
G36*
X92090142Y-89561174D02*
X92113803Y-89564684D01*
X92137007Y-89570496D01*
X92159529Y-89578554D01*
X92181153Y-89588782D01*
X92201670Y-89601079D01*
X92220883Y-89615329D01*
X92238607Y-89631393D01*
X92254671Y-89649117D01*
X92268921Y-89668330D01*
X92281218Y-89688847D01*
X92291446Y-89710471D01*
X92299504Y-89732993D01*
X92305316Y-89756197D01*
X92308826Y-89779858D01*
X92310000Y-89803750D01*
X92310000Y-90716250D01*
X92308826Y-90740142D01*
X92305316Y-90763803D01*
X92299504Y-90787007D01*
X92291446Y-90809529D01*
X92281218Y-90831153D01*
X92268921Y-90851670D01*
X92254671Y-90870883D01*
X92238607Y-90888607D01*
X92220883Y-90904671D01*
X92201670Y-90918921D01*
X92181153Y-90931218D01*
X92159529Y-90941446D01*
X92137007Y-90949504D01*
X92113803Y-90955316D01*
X92090142Y-90958826D01*
X92066250Y-90960000D01*
X91578750Y-90960000D01*
X91554858Y-90958826D01*
X91531197Y-90955316D01*
X91507993Y-90949504D01*
X91485471Y-90941446D01*
X91463847Y-90931218D01*
X91443330Y-90918921D01*
X91424117Y-90904671D01*
X91406393Y-90888607D01*
X91390329Y-90870883D01*
X91376079Y-90851670D01*
X91363782Y-90831153D01*
X91353554Y-90809529D01*
X91345496Y-90787007D01*
X91339684Y-90763803D01*
X91336174Y-90740142D01*
X91335000Y-90716250D01*
X91335000Y-89803750D01*
X91336174Y-89779858D01*
X91339684Y-89756197D01*
X91345496Y-89732993D01*
X91353554Y-89710471D01*
X91363782Y-89688847D01*
X91376079Y-89668330D01*
X91390329Y-89649117D01*
X91406393Y-89631393D01*
X91424117Y-89615329D01*
X91443330Y-89601079D01*
X91463847Y-89588782D01*
X91485471Y-89578554D01*
X91507993Y-89570496D01*
X91531197Y-89564684D01*
X91554858Y-89561174D01*
X91578750Y-89560000D01*
X92066250Y-89560000D01*
X92090142Y-89561174D01*
X92090142Y-89561174D01*
G37*
D28*
X91822500Y-90260000D03*
D27*
G36*
X90215142Y-89561174D02*
X90238803Y-89564684D01*
X90262007Y-89570496D01*
X90284529Y-89578554D01*
X90306153Y-89588782D01*
X90326670Y-89601079D01*
X90345883Y-89615329D01*
X90363607Y-89631393D01*
X90379671Y-89649117D01*
X90393921Y-89668330D01*
X90406218Y-89688847D01*
X90416446Y-89710471D01*
X90424504Y-89732993D01*
X90430316Y-89756197D01*
X90433826Y-89779858D01*
X90435000Y-89803750D01*
X90435000Y-90716250D01*
X90433826Y-90740142D01*
X90430316Y-90763803D01*
X90424504Y-90787007D01*
X90416446Y-90809529D01*
X90406218Y-90831153D01*
X90393921Y-90851670D01*
X90379671Y-90870883D01*
X90363607Y-90888607D01*
X90345883Y-90904671D01*
X90326670Y-90918921D01*
X90306153Y-90931218D01*
X90284529Y-90941446D01*
X90262007Y-90949504D01*
X90238803Y-90955316D01*
X90215142Y-90958826D01*
X90191250Y-90960000D01*
X89703750Y-90960000D01*
X89679858Y-90958826D01*
X89656197Y-90955316D01*
X89632993Y-90949504D01*
X89610471Y-90941446D01*
X89588847Y-90931218D01*
X89568330Y-90918921D01*
X89549117Y-90904671D01*
X89531393Y-90888607D01*
X89515329Y-90870883D01*
X89501079Y-90851670D01*
X89488782Y-90831153D01*
X89478554Y-90809529D01*
X89470496Y-90787007D01*
X89464684Y-90763803D01*
X89461174Y-90740142D01*
X89460000Y-90716250D01*
X89460000Y-89803750D01*
X89461174Y-89779858D01*
X89464684Y-89756197D01*
X89470496Y-89732993D01*
X89478554Y-89710471D01*
X89488782Y-89688847D01*
X89501079Y-89668330D01*
X89515329Y-89649117D01*
X89531393Y-89631393D01*
X89549117Y-89615329D01*
X89568330Y-89601079D01*
X89588847Y-89588782D01*
X89610471Y-89578554D01*
X89632993Y-89570496D01*
X89656197Y-89564684D01*
X89679858Y-89561174D01*
X89703750Y-89560000D01*
X90191250Y-89560000D01*
X90215142Y-89561174D01*
X90215142Y-89561174D01*
G37*
D28*
X89947500Y-90260000D03*
D27*
G36*
X90277642Y-73311174D02*
X90301303Y-73314684D01*
X90324507Y-73320496D01*
X90347029Y-73328554D01*
X90368653Y-73338782D01*
X90389170Y-73351079D01*
X90408383Y-73365329D01*
X90426107Y-73381393D01*
X90442171Y-73399117D01*
X90456421Y-73418330D01*
X90468718Y-73438847D01*
X90478946Y-73460471D01*
X90487004Y-73482993D01*
X90492816Y-73506197D01*
X90496326Y-73529858D01*
X90497500Y-73553750D01*
X90497500Y-74466250D01*
X90496326Y-74490142D01*
X90492816Y-74513803D01*
X90487004Y-74537007D01*
X90478946Y-74559529D01*
X90468718Y-74581153D01*
X90456421Y-74601670D01*
X90442171Y-74620883D01*
X90426107Y-74638607D01*
X90408383Y-74654671D01*
X90389170Y-74668921D01*
X90368653Y-74681218D01*
X90347029Y-74691446D01*
X90324507Y-74699504D01*
X90301303Y-74705316D01*
X90277642Y-74708826D01*
X90253750Y-74710000D01*
X89766250Y-74710000D01*
X89742358Y-74708826D01*
X89718697Y-74705316D01*
X89695493Y-74699504D01*
X89672971Y-74691446D01*
X89651347Y-74681218D01*
X89630830Y-74668921D01*
X89611617Y-74654671D01*
X89593893Y-74638607D01*
X89577829Y-74620883D01*
X89563579Y-74601670D01*
X89551282Y-74581153D01*
X89541054Y-74559529D01*
X89532996Y-74537007D01*
X89527184Y-74513803D01*
X89523674Y-74490142D01*
X89522500Y-74466250D01*
X89522500Y-73553750D01*
X89523674Y-73529858D01*
X89527184Y-73506197D01*
X89532996Y-73482993D01*
X89541054Y-73460471D01*
X89551282Y-73438847D01*
X89563579Y-73418330D01*
X89577829Y-73399117D01*
X89593893Y-73381393D01*
X89611617Y-73365329D01*
X89630830Y-73351079D01*
X89651347Y-73338782D01*
X89672971Y-73328554D01*
X89695493Y-73320496D01*
X89718697Y-73314684D01*
X89742358Y-73311174D01*
X89766250Y-73310000D01*
X90253750Y-73310000D01*
X90277642Y-73311174D01*
X90277642Y-73311174D01*
G37*
D28*
X90010000Y-74010000D03*
D27*
G36*
X92152642Y-73311174D02*
X92176303Y-73314684D01*
X92199507Y-73320496D01*
X92222029Y-73328554D01*
X92243653Y-73338782D01*
X92264170Y-73351079D01*
X92283383Y-73365329D01*
X92301107Y-73381393D01*
X92317171Y-73399117D01*
X92331421Y-73418330D01*
X92343718Y-73438847D01*
X92353946Y-73460471D01*
X92362004Y-73482993D01*
X92367816Y-73506197D01*
X92371326Y-73529858D01*
X92372500Y-73553750D01*
X92372500Y-74466250D01*
X92371326Y-74490142D01*
X92367816Y-74513803D01*
X92362004Y-74537007D01*
X92353946Y-74559529D01*
X92343718Y-74581153D01*
X92331421Y-74601670D01*
X92317171Y-74620883D01*
X92301107Y-74638607D01*
X92283383Y-74654671D01*
X92264170Y-74668921D01*
X92243653Y-74681218D01*
X92222029Y-74691446D01*
X92199507Y-74699504D01*
X92176303Y-74705316D01*
X92152642Y-74708826D01*
X92128750Y-74710000D01*
X91641250Y-74710000D01*
X91617358Y-74708826D01*
X91593697Y-74705316D01*
X91570493Y-74699504D01*
X91547971Y-74691446D01*
X91526347Y-74681218D01*
X91505830Y-74668921D01*
X91486617Y-74654671D01*
X91468893Y-74638607D01*
X91452829Y-74620883D01*
X91438579Y-74601670D01*
X91426282Y-74581153D01*
X91416054Y-74559529D01*
X91407996Y-74537007D01*
X91402184Y-74513803D01*
X91398674Y-74490142D01*
X91397500Y-74466250D01*
X91397500Y-73553750D01*
X91398674Y-73529858D01*
X91402184Y-73506197D01*
X91407996Y-73482993D01*
X91416054Y-73460471D01*
X91426282Y-73438847D01*
X91438579Y-73418330D01*
X91452829Y-73399117D01*
X91468893Y-73381393D01*
X91486617Y-73365329D01*
X91505830Y-73351079D01*
X91526347Y-73338782D01*
X91547971Y-73328554D01*
X91570493Y-73320496D01*
X91593697Y-73314684D01*
X91617358Y-73311174D01*
X91641250Y-73310000D01*
X92128750Y-73310000D01*
X92152642Y-73311174D01*
X92152642Y-73311174D01*
G37*
D28*
X91885000Y-74010000D03*
D27*
G36*
X78152642Y-76311174D02*
X78176303Y-76314684D01*
X78199507Y-76320496D01*
X78222029Y-76328554D01*
X78243653Y-76338782D01*
X78264170Y-76351079D01*
X78283383Y-76365329D01*
X78301107Y-76381393D01*
X78317171Y-76399117D01*
X78331421Y-76418330D01*
X78343718Y-76438847D01*
X78353946Y-76460471D01*
X78362004Y-76482993D01*
X78367816Y-76506197D01*
X78371326Y-76529858D01*
X78372500Y-76553750D01*
X78372500Y-77466250D01*
X78371326Y-77490142D01*
X78367816Y-77513803D01*
X78362004Y-77537007D01*
X78353946Y-77559529D01*
X78343718Y-77581153D01*
X78331421Y-77601670D01*
X78317171Y-77620883D01*
X78301107Y-77638607D01*
X78283383Y-77654671D01*
X78264170Y-77668921D01*
X78243653Y-77681218D01*
X78222029Y-77691446D01*
X78199507Y-77699504D01*
X78176303Y-77705316D01*
X78152642Y-77708826D01*
X78128750Y-77710000D01*
X77641250Y-77710000D01*
X77617358Y-77708826D01*
X77593697Y-77705316D01*
X77570493Y-77699504D01*
X77547971Y-77691446D01*
X77526347Y-77681218D01*
X77505830Y-77668921D01*
X77486617Y-77654671D01*
X77468893Y-77638607D01*
X77452829Y-77620883D01*
X77438579Y-77601670D01*
X77426282Y-77581153D01*
X77416054Y-77559529D01*
X77407996Y-77537007D01*
X77402184Y-77513803D01*
X77398674Y-77490142D01*
X77397500Y-77466250D01*
X77397500Y-76553750D01*
X77398674Y-76529858D01*
X77402184Y-76506197D01*
X77407996Y-76482993D01*
X77416054Y-76460471D01*
X77426282Y-76438847D01*
X77438579Y-76418330D01*
X77452829Y-76399117D01*
X77468893Y-76381393D01*
X77486617Y-76365329D01*
X77505830Y-76351079D01*
X77526347Y-76338782D01*
X77547971Y-76328554D01*
X77570493Y-76320496D01*
X77593697Y-76314684D01*
X77617358Y-76311174D01*
X77641250Y-76310000D01*
X78128750Y-76310000D01*
X78152642Y-76311174D01*
X78152642Y-76311174D01*
G37*
D28*
X77885000Y-77010000D03*
D27*
G36*
X80027642Y-76311174D02*
X80051303Y-76314684D01*
X80074507Y-76320496D01*
X80097029Y-76328554D01*
X80118653Y-76338782D01*
X80139170Y-76351079D01*
X80158383Y-76365329D01*
X80176107Y-76381393D01*
X80192171Y-76399117D01*
X80206421Y-76418330D01*
X80218718Y-76438847D01*
X80228946Y-76460471D01*
X80237004Y-76482993D01*
X80242816Y-76506197D01*
X80246326Y-76529858D01*
X80247500Y-76553750D01*
X80247500Y-77466250D01*
X80246326Y-77490142D01*
X80242816Y-77513803D01*
X80237004Y-77537007D01*
X80228946Y-77559529D01*
X80218718Y-77581153D01*
X80206421Y-77601670D01*
X80192171Y-77620883D01*
X80176107Y-77638607D01*
X80158383Y-77654671D01*
X80139170Y-77668921D01*
X80118653Y-77681218D01*
X80097029Y-77691446D01*
X80074507Y-77699504D01*
X80051303Y-77705316D01*
X80027642Y-77708826D01*
X80003750Y-77710000D01*
X79516250Y-77710000D01*
X79492358Y-77708826D01*
X79468697Y-77705316D01*
X79445493Y-77699504D01*
X79422971Y-77691446D01*
X79401347Y-77681218D01*
X79380830Y-77668921D01*
X79361617Y-77654671D01*
X79343893Y-77638607D01*
X79327829Y-77620883D01*
X79313579Y-77601670D01*
X79301282Y-77581153D01*
X79291054Y-77559529D01*
X79282996Y-77537007D01*
X79277184Y-77513803D01*
X79273674Y-77490142D01*
X79272500Y-77466250D01*
X79272500Y-76553750D01*
X79273674Y-76529858D01*
X79277184Y-76506197D01*
X79282996Y-76482993D01*
X79291054Y-76460471D01*
X79301282Y-76438847D01*
X79313579Y-76418330D01*
X79327829Y-76399117D01*
X79343893Y-76381393D01*
X79361617Y-76365329D01*
X79380830Y-76351079D01*
X79401347Y-76338782D01*
X79422971Y-76328554D01*
X79445493Y-76320496D01*
X79468697Y-76314684D01*
X79492358Y-76311174D01*
X79516250Y-76310000D01*
X80003750Y-76310000D01*
X80027642Y-76311174D01*
X80027642Y-76311174D01*
G37*
D28*
X79760000Y-77010000D03*
D27*
G36*
X72215142Y-71311174D02*
X72238803Y-71314684D01*
X72262007Y-71320496D01*
X72284529Y-71328554D01*
X72306153Y-71338782D01*
X72326670Y-71351079D01*
X72345883Y-71365329D01*
X72363607Y-71381393D01*
X72379671Y-71399117D01*
X72393921Y-71418330D01*
X72406218Y-71438847D01*
X72416446Y-71460471D01*
X72424504Y-71482993D01*
X72430316Y-71506197D01*
X72433826Y-71529858D01*
X72435000Y-71553750D01*
X72435000Y-72466250D01*
X72433826Y-72490142D01*
X72430316Y-72513803D01*
X72424504Y-72537007D01*
X72416446Y-72559529D01*
X72406218Y-72581153D01*
X72393921Y-72601670D01*
X72379671Y-72620883D01*
X72363607Y-72638607D01*
X72345883Y-72654671D01*
X72326670Y-72668921D01*
X72306153Y-72681218D01*
X72284529Y-72691446D01*
X72262007Y-72699504D01*
X72238803Y-72705316D01*
X72215142Y-72708826D01*
X72191250Y-72710000D01*
X71703750Y-72710000D01*
X71679858Y-72708826D01*
X71656197Y-72705316D01*
X71632993Y-72699504D01*
X71610471Y-72691446D01*
X71588847Y-72681218D01*
X71568330Y-72668921D01*
X71549117Y-72654671D01*
X71531393Y-72638607D01*
X71515329Y-72620883D01*
X71501079Y-72601670D01*
X71488782Y-72581153D01*
X71478554Y-72559529D01*
X71470496Y-72537007D01*
X71464684Y-72513803D01*
X71461174Y-72490142D01*
X71460000Y-72466250D01*
X71460000Y-71553750D01*
X71461174Y-71529858D01*
X71464684Y-71506197D01*
X71470496Y-71482993D01*
X71478554Y-71460471D01*
X71488782Y-71438847D01*
X71501079Y-71418330D01*
X71515329Y-71399117D01*
X71531393Y-71381393D01*
X71549117Y-71365329D01*
X71568330Y-71351079D01*
X71588847Y-71338782D01*
X71610471Y-71328554D01*
X71632993Y-71320496D01*
X71656197Y-71314684D01*
X71679858Y-71311174D01*
X71703750Y-71310000D01*
X72191250Y-71310000D01*
X72215142Y-71311174D01*
X72215142Y-71311174D01*
G37*
D28*
X71947500Y-72010000D03*
D27*
G36*
X74090142Y-71311174D02*
X74113803Y-71314684D01*
X74137007Y-71320496D01*
X74159529Y-71328554D01*
X74181153Y-71338782D01*
X74201670Y-71351079D01*
X74220883Y-71365329D01*
X74238607Y-71381393D01*
X74254671Y-71399117D01*
X74268921Y-71418330D01*
X74281218Y-71438847D01*
X74291446Y-71460471D01*
X74299504Y-71482993D01*
X74305316Y-71506197D01*
X74308826Y-71529858D01*
X74310000Y-71553750D01*
X74310000Y-72466250D01*
X74308826Y-72490142D01*
X74305316Y-72513803D01*
X74299504Y-72537007D01*
X74291446Y-72559529D01*
X74281218Y-72581153D01*
X74268921Y-72601670D01*
X74254671Y-72620883D01*
X74238607Y-72638607D01*
X74220883Y-72654671D01*
X74201670Y-72668921D01*
X74181153Y-72681218D01*
X74159529Y-72691446D01*
X74137007Y-72699504D01*
X74113803Y-72705316D01*
X74090142Y-72708826D01*
X74066250Y-72710000D01*
X73578750Y-72710000D01*
X73554858Y-72708826D01*
X73531197Y-72705316D01*
X73507993Y-72699504D01*
X73485471Y-72691446D01*
X73463847Y-72681218D01*
X73443330Y-72668921D01*
X73424117Y-72654671D01*
X73406393Y-72638607D01*
X73390329Y-72620883D01*
X73376079Y-72601670D01*
X73363782Y-72581153D01*
X73353554Y-72559529D01*
X73345496Y-72537007D01*
X73339684Y-72513803D01*
X73336174Y-72490142D01*
X73335000Y-72466250D01*
X73335000Y-71553750D01*
X73336174Y-71529858D01*
X73339684Y-71506197D01*
X73345496Y-71482993D01*
X73353554Y-71460471D01*
X73363782Y-71438847D01*
X73376079Y-71418330D01*
X73390329Y-71399117D01*
X73406393Y-71381393D01*
X73424117Y-71365329D01*
X73443330Y-71351079D01*
X73463847Y-71338782D01*
X73485471Y-71328554D01*
X73507993Y-71320496D01*
X73531197Y-71314684D01*
X73554858Y-71311174D01*
X73578750Y-71310000D01*
X74066250Y-71310000D01*
X74090142Y-71311174D01*
X74090142Y-71311174D01*
G37*
D28*
X73822500Y-72010000D03*
D27*
G36*
X67090142Y-69811174D02*
X67113803Y-69814684D01*
X67137007Y-69820496D01*
X67159529Y-69828554D01*
X67181153Y-69838782D01*
X67201670Y-69851079D01*
X67220883Y-69865329D01*
X67238607Y-69881393D01*
X67254671Y-69899117D01*
X67268921Y-69918330D01*
X67281218Y-69938847D01*
X67291446Y-69960471D01*
X67299504Y-69982993D01*
X67305316Y-70006197D01*
X67308826Y-70029858D01*
X67310000Y-70053750D01*
X67310000Y-70966250D01*
X67308826Y-70990142D01*
X67305316Y-71013803D01*
X67299504Y-71037007D01*
X67291446Y-71059529D01*
X67281218Y-71081153D01*
X67268921Y-71101670D01*
X67254671Y-71120883D01*
X67238607Y-71138607D01*
X67220883Y-71154671D01*
X67201670Y-71168921D01*
X67181153Y-71181218D01*
X67159529Y-71191446D01*
X67137007Y-71199504D01*
X67113803Y-71205316D01*
X67090142Y-71208826D01*
X67066250Y-71210000D01*
X66578750Y-71210000D01*
X66554858Y-71208826D01*
X66531197Y-71205316D01*
X66507993Y-71199504D01*
X66485471Y-71191446D01*
X66463847Y-71181218D01*
X66443330Y-71168921D01*
X66424117Y-71154671D01*
X66406393Y-71138607D01*
X66390329Y-71120883D01*
X66376079Y-71101670D01*
X66363782Y-71081153D01*
X66353554Y-71059529D01*
X66345496Y-71037007D01*
X66339684Y-71013803D01*
X66336174Y-70990142D01*
X66335000Y-70966250D01*
X66335000Y-70053750D01*
X66336174Y-70029858D01*
X66339684Y-70006197D01*
X66345496Y-69982993D01*
X66353554Y-69960471D01*
X66363782Y-69938847D01*
X66376079Y-69918330D01*
X66390329Y-69899117D01*
X66406393Y-69881393D01*
X66424117Y-69865329D01*
X66443330Y-69851079D01*
X66463847Y-69838782D01*
X66485471Y-69828554D01*
X66507993Y-69820496D01*
X66531197Y-69814684D01*
X66554858Y-69811174D01*
X66578750Y-69810000D01*
X67066250Y-69810000D01*
X67090142Y-69811174D01*
X67090142Y-69811174D01*
G37*
D28*
X66822500Y-70510000D03*
D27*
G36*
X68965142Y-69811174D02*
X68988803Y-69814684D01*
X69012007Y-69820496D01*
X69034529Y-69828554D01*
X69056153Y-69838782D01*
X69076670Y-69851079D01*
X69095883Y-69865329D01*
X69113607Y-69881393D01*
X69129671Y-69899117D01*
X69143921Y-69918330D01*
X69156218Y-69938847D01*
X69166446Y-69960471D01*
X69174504Y-69982993D01*
X69180316Y-70006197D01*
X69183826Y-70029858D01*
X69185000Y-70053750D01*
X69185000Y-70966250D01*
X69183826Y-70990142D01*
X69180316Y-71013803D01*
X69174504Y-71037007D01*
X69166446Y-71059529D01*
X69156218Y-71081153D01*
X69143921Y-71101670D01*
X69129671Y-71120883D01*
X69113607Y-71138607D01*
X69095883Y-71154671D01*
X69076670Y-71168921D01*
X69056153Y-71181218D01*
X69034529Y-71191446D01*
X69012007Y-71199504D01*
X68988803Y-71205316D01*
X68965142Y-71208826D01*
X68941250Y-71210000D01*
X68453750Y-71210000D01*
X68429858Y-71208826D01*
X68406197Y-71205316D01*
X68382993Y-71199504D01*
X68360471Y-71191446D01*
X68338847Y-71181218D01*
X68318330Y-71168921D01*
X68299117Y-71154671D01*
X68281393Y-71138607D01*
X68265329Y-71120883D01*
X68251079Y-71101670D01*
X68238782Y-71081153D01*
X68228554Y-71059529D01*
X68220496Y-71037007D01*
X68214684Y-71013803D01*
X68211174Y-70990142D01*
X68210000Y-70966250D01*
X68210000Y-70053750D01*
X68211174Y-70029858D01*
X68214684Y-70006197D01*
X68220496Y-69982993D01*
X68228554Y-69960471D01*
X68238782Y-69938847D01*
X68251079Y-69918330D01*
X68265329Y-69899117D01*
X68281393Y-69881393D01*
X68299117Y-69865329D01*
X68318330Y-69851079D01*
X68338847Y-69838782D01*
X68360471Y-69828554D01*
X68382993Y-69820496D01*
X68406197Y-69814684D01*
X68429858Y-69811174D01*
X68453750Y-69810000D01*
X68941250Y-69810000D01*
X68965142Y-69811174D01*
X68965142Y-69811174D01*
G37*
D28*
X68697500Y-70510000D03*
D27*
G36*
X85902642Y-73311174D02*
X85926303Y-73314684D01*
X85949507Y-73320496D01*
X85972029Y-73328554D01*
X85993653Y-73338782D01*
X86014170Y-73351079D01*
X86033383Y-73365329D01*
X86051107Y-73381393D01*
X86067171Y-73399117D01*
X86081421Y-73418330D01*
X86093718Y-73438847D01*
X86103946Y-73460471D01*
X86112004Y-73482993D01*
X86117816Y-73506197D01*
X86121326Y-73529858D01*
X86122500Y-73553750D01*
X86122500Y-74466250D01*
X86121326Y-74490142D01*
X86117816Y-74513803D01*
X86112004Y-74537007D01*
X86103946Y-74559529D01*
X86093718Y-74581153D01*
X86081421Y-74601670D01*
X86067171Y-74620883D01*
X86051107Y-74638607D01*
X86033383Y-74654671D01*
X86014170Y-74668921D01*
X85993653Y-74681218D01*
X85972029Y-74691446D01*
X85949507Y-74699504D01*
X85926303Y-74705316D01*
X85902642Y-74708826D01*
X85878750Y-74710000D01*
X85391250Y-74710000D01*
X85367358Y-74708826D01*
X85343697Y-74705316D01*
X85320493Y-74699504D01*
X85297971Y-74691446D01*
X85276347Y-74681218D01*
X85255830Y-74668921D01*
X85236617Y-74654671D01*
X85218893Y-74638607D01*
X85202829Y-74620883D01*
X85188579Y-74601670D01*
X85176282Y-74581153D01*
X85166054Y-74559529D01*
X85157996Y-74537007D01*
X85152184Y-74513803D01*
X85148674Y-74490142D01*
X85147500Y-74466250D01*
X85147500Y-73553750D01*
X85148674Y-73529858D01*
X85152184Y-73506197D01*
X85157996Y-73482993D01*
X85166054Y-73460471D01*
X85176282Y-73438847D01*
X85188579Y-73418330D01*
X85202829Y-73399117D01*
X85218893Y-73381393D01*
X85236617Y-73365329D01*
X85255830Y-73351079D01*
X85276347Y-73338782D01*
X85297971Y-73328554D01*
X85320493Y-73320496D01*
X85343697Y-73314684D01*
X85367358Y-73311174D01*
X85391250Y-73310000D01*
X85878750Y-73310000D01*
X85902642Y-73311174D01*
X85902642Y-73311174D01*
G37*
D28*
X85635000Y-74010000D03*
D27*
G36*
X84027642Y-73311174D02*
X84051303Y-73314684D01*
X84074507Y-73320496D01*
X84097029Y-73328554D01*
X84118653Y-73338782D01*
X84139170Y-73351079D01*
X84158383Y-73365329D01*
X84176107Y-73381393D01*
X84192171Y-73399117D01*
X84206421Y-73418330D01*
X84218718Y-73438847D01*
X84228946Y-73460471D01*
X84237004Y-73482993D01*
X84242816Y-73506197D01*
X84246326Y-73529858D01*
X84247500Y-73553750D01*
X84247500Y-74466250D01*
X84246326Y-74490142D01*
X84242816Y-74513803D01*
X84237004Y-74537007D01*
X84228946Y-74559529D01*
X84218718Y-74581153D01*
X84206421Y-74601670D01*
X84192171Y-74620883D01*
X84176107Y-74638607D01*
X84158383Y-74654671D01*
X84139170Y-74668921D01*
X84118653Y-74681218D01*
X84097029Y-74691446D01*
X84074507Y-74699504D01*
X84051303Y-74705316D01*
X84027642Y-74708826D01*
X84003750Y-74710000D01*
X83516250Y-74710000D01*
X83492358Y-74708826D01*
X83468697Y-74705316D01*
X83445493Y-74699504D01*
X83422971Y-74691446D01*
X83401347Y-74681218D01*
X83380830Y-74668921D01*
X83361617Y-74654671D01*
X83343893Y-74638607D01*
X83327829Y-74620883D01*
X83313579Y-74601670D01*
X83301282Y-74581153D01*
X83291054Y-74559529D01*
X83282996Y-74537007D01*
X83277184Y-74513803D01*
X83273674Y-74490142D01*
X83272500Y-74466250D01*
X83272500Y-73553750D01*
X83273674Y-73529858D01*
X83277184Y-73506197D01*
X83282996Y-73482993D01*
X83291054Y-73460471D01*
X83301282Y-73438847D01*
X83313579Y-73418330D01*
X83327829Y-73399117D01*
X83343893Y-73381393D01*
X83361617Y-73365329D01*
X83380830Y-73351079D01*
X83401347Y-73338782D01*
X83422971Y-73328554D01*
X83445493Y-73320496D01*
X83468697Y-73314684D01*
X83492358Y-73311174D01*
X83516250Y-73310000D01*
X84003750Y-73310000D01*
X84027642Y-73311174D01*
X84027642Y-73311174D01*
G37*
D28*
X83760000Y-74010000D03*
D27*
G36*
X81665142Y-56520482D02*
X81688803Y-56523992D01*
X81712007Y-56529804D01*
X81734529Y-56537862D01*
X81756153Y-56548090D01*
X81776670Y-56560387D01*
X81795883Y-56574637D01*
X81813607Y-56590701D01*
X81829671Y-56608425D01*
X81843921Y-56627638D01*
X81856218Y-56648155D01*
X81866446Y-56669779D01*
X81874504Y-56692301D01*
X81880316Y-56715505D01*
X81883826Y-56739166D01*
X81885000Y-56763058D01*
X81885000Y-57250558D01*
X81883826Y-57274450D01*
X81880316Y-57298111D01*
X81874504Y-57321315D01*
X81866446Y-57343837D01*
X81856218Y-57365461D01*
X81843921Y-57385978D01*
X81829671Y-57405191D01*
X81813607Y-57422915D01*
X81795883Y-57438979D01*
X81776670Y-57453229D01*
X81756153Y-57465526D01*
X81734529Y-57475754D01*
X81712007Y-57483812D01*
X81688803Y-57489624D01*
X81665142Y-57493134D01*
X81641250Y-57494308D01*
X80728750Y-57494308D01*
X80704858Y-57493134D01*
X80681197Y-57489624D01*
X80657993Y-57483812D01*
X80635471Y-57475754D01*
X80613847Y-57465526D01*
X80593330Y-57453229D01*
X80574117Y-57438979D01*
X80556393Y-57422915D01*
X80540329Y-57405191D01*
X80526079Y-57385978D01*
X80513782Y-57365461D01*
X80503554Y-57343837D01*
X80495496Y-57321315D01*
X80489684Y-57298111D01*
X80486174Y-57274450D01*
X80485000Y-57250558D01*
X80485000Y-56763058D01*
X80486174Y-56739166D01*
X80489684Y-56715505D01*
X80495496Y-56692301D01*
X80503554Y-56669779D01*
X80513782Y-56648155D01*
X80526079Y-56627638D01*
X80540329Y-56608425D01*
X80556393Y-56590701D01*
X80574117Y-56574637D01*
X80593330Y-56560387D01*
X80613847Y-56548090D01*
X80635471Y-56537862D01*
X80657993Y-56529804D01*
X80681197Y-56523992D01*
X80704858Y-56520482D01*
X80728750Y-56519308D01*
X81641250Y-56519308D01*
X81665142Y-56520482D01*
X81665142Y-56520482D01*
G37*
D28*
X81185000Y-57006808D03*
D27*
G36*
X81665142Y-58395482D02*
X81688803Y-58398992D01*
X81712007Y-58404804D01*
X81734529Y-58412862D01*
X81756153Y-58423090D01*
X81776670Y-58435387D01*
X81795883Y-58449637D01*
X81813607Y-58465701D01*
X81829671Y-58483425D01*
X81843921Y-58502638D01*
X81856218Y-58523155D01*
X81866446Y-58544779D01*
X81874504Y-58567301D01*
X81880316Y-58590505D01*
X81883826Y-58614166D01*
X81885000Y-58638058D01*
X81885000Y-59125558D01*
X81883826Y-59149450D01*
X81880316Y-59173111D01*
X81874504Y-59196315D01*
X81866446Y-59218837D01*
X81856218Y-59240461D01*
X81843921Y-59260978D01*
X81829671Y-59280191D01*
X81813607Y-59297915D01*
X81795883Y-59313979D01*
X81776670Y-59328229D01*
X81756153Y-59340526D01*
X81734529Y-59350754D01*
X81712007Y-59358812D01*
X81688803Y-59364624D01*
X81665142Y-59368134D01*
X81641250Y-59369308D01*
X80728750Y-59369308D01*
X80704858Y-59368134D01*
X80681197Y-59364624D01*
X80657993Y-59358812D01*
X80635471Y-59350754D01*
X80613847Y-59340526D01*
X80593330Y-59328229D01*
X80574117Y-59313979D01*
X80556393Y-59297915D01*
X80540329Y-59280191D01*
X80526079Y-59260978D01*
X80513782Y-59240461D01*
X80503554Y-59218837D01*
X80495496Y-59196315D01*
X80489684Y-59173111D01*
X80486174Y-59149450D01*
X80485000Y-59125558D01*
X80485000Y-58638058D01*
X80486174Y-58614166D01*
X80489684Y-58590505D01*
X80495496Y-58567301D01*
X80503554Y-58544779D01*
X80513782Y-58523155D01*
X80526079Y-58502638D01*
X80540329Y-58483425D01*
X80556393Y-58465701D01*
X80574117Y-58449637D01*
X80593330Y-58435387D01*
X80613847Y-58423090D01*
X80635471Y-58412862D01*
X80657993Y-58404804D01*
X80681197Y-58398992D01*
X80704858Y-58395482D01*
X80728750Y-58394308D01*
X81641250Y-58394308D01*
X81665142Y-58395482D01*
X81665142Y-58395482D01*
G37*
D28*
X81185000Y-58881808D03*
D27*
G36*
X78215142Y-80811174D02*
X78238803Y-80814684D01*
X78262007Y-80820496D01*
X78284529Y-80828554D01*
X78306153Y-80838782D01*
X78326670Y-80851079D01*
X78345883Y-80865329D01*
X78363607Y-80881393D01*
X78379671Y-80899117D01*
X78393921Y-80918330D01*
X78406218Y-80938847D01*
X78416446Y-80960471D01*
X78424504Y-80982993D01*
X78430316Y-81006197D01*
X78433826Y-81029858D01*
X78435000Y-81053750D01*
X78435000Y-81966250D01*
X78433826Y-81990142D01*
X78430316Y-82013803D01*
X78424504Y-82037007D01*
X78416446Y-82059529D01*
X78406218Y-82081153D01*
X78393921Y-82101670D01*
X78379671Y-82120883D01*
X78363607Y-82138607D01*
X78345883Y-82154671D01*
X78326670Y-82168921D01*
X78306153Y-82181218D01*
X78284529Y-82191446D01*
X78262007Y-82199504D01*
X78238803Y-82205316D01*
X78215142Y-82208826D01*
X78191250Y-82210000D01*
X77703750Y-82210000D01*
X77679858Y-82208826D01*
X77656197Y-82205316D01*
X77632993Y-82199504D01*
X77610471Y-82191446D01*
X77588847Y-82181218D01*
X77568330Y-82168921D01*
X77549117Y-82154671D01*
X77531393Y-82138607D01*
X77515329Y-82120883D01*
X77501079Y-82101670D01*
X77488782Y-82081153D01*
X77478554Y-82059529D01*
X77470496Y-82037007D01*
X77464684Y-82013803D01*
X77461174Y-81990142D01*
X77460000Y-81966250D01*
X77460000Y-81053750D01*
X77461174Y-81029858D01*
X77464684Y-81006197D01*
X77470496Y-80982993D01*
X77478554Y-80960471D01*
X77488782Y-80938847D01*
X77501079Y-80918330D01*
X77515329Y-80899117D01*
X77531393Y-80881393D01*
X77549117Y-80865329D01*
X77568330Y-80851079D01*
X77588847Y-80838782D01*
X77610471Y-80828554D01*
X77632993Y-80820496D01*
X77656197Y-80814684D01*
X77679858Y-80811174D01*
X77703750Y-80810000D01*
X78191250Y-80810000D01*
X78215142Y-80811174D01*
X78215142Y-80811174D01*
G37*
D28*
X77947500Y-81510000D03*
D27*
G36*
X80090142Y-80811174D02*
X80113803Y-80814684D01*
X80137007Y-80820496D01*
X80159529Y-80828554D01*
X80181153Y-80838782D01*
X80201670Y-80851079D01*
X80220883Y-80865329D01*
X80238607Y-80881393D01*
X80254671Y-80899117D01*
X80268921Y-80918330D01*
X80281218Y-80938847D01*
X80291446Y-80960471D01*
X80299504Y-80982993D01*
X80305316Y-81006197D01*
X80308826Y-81029858D01*
X80310000Y-81053750D01*
X80310000Y-81966250D01*
X80308826Y-81990142D01*
X80305316Y-82013803D01*
X80299504Y-82037007D01*
X80291446Y-82059529D01*
X80281218Y-82081153D01*
X80268921Y-82101670D01*
X80254671Y-82120883D01*
X80238607Y-82138607D01*
X80220883Y-82154671D01*
X80201670Y-82168921D01*
X80181153Y-82181218D01*
X80159529Y-82191446D01*
X80137007Y-82199504D01*
X80113803Y-82205316D01*
X80090142Y-82208826D01*
X80066250Y-82210000D01*
X79578750Y-82210000D01*
X79554858Y-82208826D01*
X79531197Y-82205316D01*
X79507993Y-82199504D01*
X79485471Y-82191446D01*
X79463847Y-82181218D01*
X79443330Y-82168921D01*
X79424117Y-82154671D01*
X79406393Y-82138607D01*
X79390329Y-82120883D01*
X79376079Y-82101670D01*
X79363782Y-82081153D01*
X79353554Y-82059529D01*
X79345496Y-82037007D01*
X79339684Y-82013803D01*
X79336174Y-81990142D01*
X79335000Y-81966250D01*
X79335000Y-81053750D01*
X79336174Y-81029858D01*
X79339684Y-81006197D01*
X79345496Y-80982993D01*
X79353554Y-80960471D01*
X79363782Y-80938847D01*
X79376079Y-80918330D01*
X79390329Y-80899117D01*
X79406393Y-80881393D01*
X79424117Y-80865329D01*
X79443330Y-80851079D01*
X79463847Y-80838782D01*
X79485471Y-80828554D01*
X79507993Y-80820496D01*
X79531197Y-80814684D01*
X79554858Y-80811174D01*
X79578750Y-80810000D01*
X80066250Y-80810000D01*
X80090142Y-80811174D01*
X80090142Y-80811174D01*
G37*
D28*
X79822500Y-81510000D03*
D27*
G36*
X58615142Y-99961174D02*
X58638803Y-99964684D01*
X58662007Y-99970496D01*
X58684529Y-99978554D01*
X58706153Y-99988782D01*
X58726670Y-100001079D01*
X58745883Y-100015329D01*
X58763607Y-100031393D01*
X58779671Y-100049117D01*
X58793921Y-100068330D01*
X58806218Y-100088847D01*
X58816446Y-100110471D01*
X58824504Y-100132993D01*
X58830316Y-100156197D01*
X58833826Y-100179858D01*
X58835000Y-100203750D01*
X58835000Y-100691250D01*
X58833826Y-100715142D01*
X58830316Y-100738803D01*
X58824504Y-100762007D01*
X58816446Y-100784529D01*
X58806218Y-100806153D01*
X58793921Y-100826670D01*
X58779671Y-100845883D01*
X58763607Y-100863607D01*
X58745883Y-100879671D01*
X58726670Y-100893921D01*
X58706153Y-100906218D01*
X58684529Y-100916446D01*
X58662007Y-100924504D01*
X58638803Y-100930316D01*
X58615142Y-100933826D01*
X58591250Y-100935000D01*
X57678750Y-100935000D01*
X57654858Y-100933826D01*
X57631197Y-100930316D01*
X57607993Y-100924504D01*
X57585471Y-100916446D01*
X57563847Y-100906218D01*
X57543330Y-100893921D01*
X57524117Y-100879671D01*
X57506393Y-100863607D01*
X57490329Y-100845883D01*
X57476079Y-100826670D01*
X57463782Y-100806153D01*
X57453554Y-100784529D01*
X57445496Y-100762007D01*
X57439684Y-100738803D01*
X57436174Y-100715142D01*
X57435000Y-100691250D01*
X57435000Y-100203750D01*
X57436174Y-100179858D01*
X57439684Y-100156197D01*
X57445496Y-100132993D01*
X57453554Y-100110471D01*
X57463782Y-100088847D01*
X57476079Y-100068330D01*
X57490329Y-100049117D01*
X57506393Y-100031393D01*
X57524117Y-100015329D01*
X57543330Y-100001079D01*
X57563847Y-99988782D01*
X57585471Y-99978554D01*
X57607993Y-99970496D01*
X57631197Y-99964684D01*
X57654858Y-99961174D01*
X57678750Y-99960000D01*
X58591250Y-99960000D01*
X58615142Y-99961174D01*
X58615142Y-99961174D01*
G37*
D28*
X58135000Y-100447500D03*
D27*
G36*
X58615142Y-98086174D02*
X58638803Y-98089684D01*
X58662007Y-98095496D01*
X58684529Y-98103554D01*
X58706153Y-98113782D01*
X58726670Y-98126079D01*
X58745883Y-98140329D01*
X58763607Y-98156393D01*
X58779671Y-98174117D01*
X58793921Y-98193330D01*
X58806218Y-98213847D01*
X58816446Y-98235471D01*
X58824504Y-98257993D01*
X58830316Y-98281197D01*
X58833826Y-98304858D01*
X58835000Y-98328750D01*
X58835000Y-98816250D01*
X58833826Y-98840142D01*
X58830316Y-98863803D01*
X58824504Y-98887007D01*
X58816446Y-98909529D01*
X58806218Y-98931153D01*
X58793921Y-98951670D01*
X58779671Y-98970883D01*
X58763607Y-98988607D01*
X58745883Y-99004671D01*
X58726670Y-99018921D01*
X58706153Y-99031218D01*
X58684529Y-99041446D01*
X58662007Y-99049504D01*
X58638803Y-99055316D01*
X58615142Y-99058826D01*
X58591250Y-99060000D01*
X57678750Y-99060000D01*
X57654858Y-99058826D01*
X57631197Y-99055316D01*
X57607993Y-99049504D01*
X57585471Y-99041446D01*
X57563847Y-99031218D01*
X57543330Y-99018921D01*
X57524117Y-99004671D01*
X57506393Y-98988607D01*
X57490329Y-98970883D01*
X57476079Y-98951670D01*
X57463782Y-98931153D01*
X57453554Y-98909529D01*
X57445496Y-98887007D01*
X57439684Y-98863803D01*
X57436174Y-98840142D01*
X57435000Y-98816250D01*
X57435000Y-98328750D01*
X57436174Y-98304858D01*
X57439684Y-98281197D01*
X57445496Y-98257993D01*
X57453554Y-98235471D01*
X57463782Y-98213847D01*
X57476079Y-98193330D01*
X57490329Y-98174117D01*
X57506393Y-98156393D01*
X57524117Y-98140329D01*
X57543330Y-98126079D01*
X57563847Y-98113782D01*
X57585471Y-98103554D01*
X57607993Y-98095496D01*
X57631197Y-98089684D01*
X57654858Y-98086174D01*
X57678750Y-98085000D01*
X58591250Y-98085000D01*
X58615142Y-98086174D01*
X58615142Y-98086174D01*
G37*
D28*
X58135000Y-98572500D03*
D27*
G36*
X80027642Y-78561174D02*
X80051303Y-78564684D01*
X80074507Y-78570496D01*
X80097029Y-78578554D01*
X80118653Y-78588782D01*
X80139170Y-78601079D01*
X80158383Y-78615329D01*
X80176107Y-78631393D01*
X80192171Y-78649117D01*
X80206421Y-78668330D01*
X80218718Y-78688847D01*
X80228946Y-78710471D01*
X80237004Y-78732993D01*
X80242816Y-78756197D01*
X80246326Y-78779858D01*
X80247500Y-78803750D01*
X80247500Y-79716250D01*
X80246326Y-79740142D01*
X80242816Y-79763803D01*
X80237004Y-79787007D01*
X80228946Y-79809529D01*
X80218718Y-79831153D01*
X80206421Y-79851670D01*
X80192171Y-79870883D01*
X80176107Y-79888607D01*
X80158383Y-79904671D01*
X80139170Y-79918921D01*
X80118653Y-79931218D01*
X80097029Y-79941446D01*
X80074507Y-79949504D01*
X80051303Y-79955316D01*
X80027642Y-79958826D01*
X80003750Y-79960000D01*
X79516250Y-79960000D01*
X79492358Y-79958826D01*
X79468697Y-79955316D01*
X79445493Y-79949504D01*
X79422971Y-79941446D01*
X79401347Y-79931218D01*
X79380830Y-79918921D01*
X79361617Y-79904671D01*
X79343893Y-79888607D01*
X79327829Y-79870883D01*
X79313579Y-79851670D01*
X79301282Y-79831153D01*
X79291054Y-79809529D01*
X79282996Y-79787007D01*
X79277184Y-79763803D01*
X79273674Y-79740142D01*
X79272500Y-79716250D01*
X79272500Y-78803750D01*
X79273674Y-78779858D01*
X79277184Y-78756197D01*
X79282996Y-78732993D01*
X79291054Y-78710471D01*
X79301282Y-78688847D01*
X79313579Y-78668330D01*
X79327829Y-78649117D01*
X79343893Y-78631393D01*
X79361617Y-78615329D01*
X79380830Y-78601079D01*
X79401347Y-78588782D01*
X79422971Y-78578554D01*
X79445493Y-78570496D01*
X79468697Y-78564684D01*
X79492358Y-78561174D01*
X79516250Y-78560000D01*
X80003750Y-78560000D01*
X80027642Y-78561174D01*
X80027642Y-78561174D01*
G37*
D28*
X79760000Y-79260000D03*
D27*
G36*
X78152642Y-78561174D02*
X78176303Y-78564684D01*
X78199507Y-78570496D01*
X78222029Y-78578554D01*
X78243653Y-78588782D01*
X78264170Y-78601079D01*
X78283383Y-78615329D01*
X78301107Y-78631393D01*
X78317171Y-78649117D01*
X78331421Y-78668330D01*
X78343718Y-78688847D01*
X78353946Y-78710471D01*
X78362004Y-78732993D01*
X78367816Y-78756197D01*
X78371326Y-78779858D01*
X78372500Y-78803750D01*
X78372500Y-79716250D01*
X78371326Y-79740142D01*
X78367816Y-79763803D01*
X78362004Y-79787007D01*
X78353946Y-79809529D01*
X78343718Y-79831153D01*
X78331421Y-79851670D01*
X78317171Y-79870883D01*
X78301107Y-79888607D01*
X78283383Y-79904671D01*
X78264170Y-79918921D01*
X78243653Y-79931218D01*
X78222029Y-79941446D01*
X78199507Y-79949504D01*
X78176303Y-79955316D01*
X78152642Y-79958826D01*
X78128750Y-79960000D01*
X77641250Y-79960000D01*
X77617358Y-79958826D01*
X77593697Y-79955316D01*
X77570493Y-79949504D01*
X77547971Y-79941446D01*
X77526347Y-79931218D01*
X77505830Y-79918921D01*
X77486617Y-79904671D01*
X77468893Y-79888607D01*
X77452829Y-79870883D01*
X77438579Y-79851670D01*
X77426282Y-79831153D01*
X77416054Y-79809529D01*
X77407996Y-79787007D01*
X77402184Y-79763803D01*
X77398674Y-79740142D01*
X77397500Y-79716250D01*
X77397500Y-78803750D01*
X77398674Y-78779858D01*
X77402184Y-78756197D01*
X77407996Y-78732993D01*
X77416054Y-78710471D01*
X77426282Y-78688847D01*
X77438579Y-78668330D01*
X77452829Y-78649117D01*
X77468893Y-78631393D01*
X77486617Y-78615329D01*
X77505830Y-78601079D01*
X77526347Y-78588782D01*
X77547971Y-78578554D01*
X77570493Y-78570496D01*
X77593697Y-78564684D01*
X77617358Y-78561174D01*
X77641250Y-78560000D01*
X78128750Y-78560000D01*
X78152642Y-78561174D01*
X78152642Y-78561174D01*
G37*
D28*
X77885000Y-79260000D03*
D27*
G36*
X58615142Y-104211174D02*
X58638803Y-104214684D01*
X58662007Y-104220496D01*
X58684529Y-104228554D01*
X58706153Y-104238782D01*
X58726670Y-104251079D01*
X58745883Y-104265329D01*
X58763607Y-104281393D01*
X58779671Y-104299117D01*
X58793921Y-104318330D01*
X58806218Y-104338847D01*
X58816446Y-104360471D01*
X58824504Y-104382993D01*
X58830316Y-104406197D01*
X58833826Y-104429858D01*
X58835000Y-104453750D01*
X58835000Y-104941250D01*
X58833826Y-104965142D01*
X58830316Y-104988803D01*
X58824504Y-105012007D01*
X58816446Y-105034529D01*
X58806218Y-105056153D01*
X58793921Y-105076670D01*
X58779671Y-105095883D01*
X58763607Y-105113607D01*
X58745883Y-105129671D01*
X58726670Y-105143921D01*
X58706153Y-105156218D01*
X58684529Y-105166446D01*
X58662007Y-105174504D01*
X58638803Y-105180316D01*
X58615142Y-105183826D01*
X58591250Y-105185000D01*
X57678750Y-105185000D01*
X57654858Y-105183826D01*
X57631197Y-105180316D01*
X57607993Y-105174504D01*
X57585471Y-105166446D01*
X57563847Y-105156218D01*
X57543330Y-105143921D01*
X57524117Y-105129671D01*
X57506393Y-105113607D01*
X57490329Y-105095883D01*
X57476079Y-105076670D01*
X57463782Y-105056153D01*
X57453554Y-105034529D01*
X57445496Y-105012007D01*
X57439684Y-104988803D01*
X57436174Y-104965142D01*
X57435000Y-104941250D01*
X57435000Y-104453750D01*
X57436174Y-104429858D01*
X57439684Y-104406197D01*
X57445496Y-104382993D01*
X57453554Y-104360471D01*
X57463782Y-104338847D01*
X57476079Y-104318330D01*
X57490329Y-104299117D01*
X57506393Y-104281393D01*
X57524117Y-104265329D01*
X57543330Y-104251079D01*
X57563847Y-104238782D01*
X57585471Y-104228554D01*
X57607993Y-104220496D01*
X57631197Y-104214684D01*
X57654858Y-104211174D01*
X57678750Y-104210000D01*
X58591250Y-104210000D01*
X58615142Y-104211174D01*
X58615142Y-104211174D01*
G37*
D28*
X58135000Y-104697500D03*
D27*
G36*
X58615142Y-102336174D02*
X58638803Y-102339684D01*
X58662007Y-102345496D01*
X58684529Y-102353554D01*
X58706153Y-102363782D01*
X58726670Y-102376079D01*
X58745883Y-102390329D01*
X58763607Y-102406393D01*
X58779671Y-102424117D01*
X58793921Y-102443330D01*
X58806218Y-102463847D01*
X58816446Y-102485471D01*
X58824504Y-102507993D01*
X58830316Y-102531197D01*
X58833826Y-102554858D01*
X58835000Y-102578750D01*
X58835000Y-103066250D01*
X58833826Y-103090142D01*
X58830316Y-103113803D01*
X58824504Y-103137007D01*
X58816446Y-103159529D01*
X58806218Y-103181153D01*
X58793921Y-103201670D01*
X58779671Y-103220883D01*
X58763607Y-103238607D01*
X58745883Y-103254671D01*
X58726670Y-103268921D01*
X58706153Y-103281218D01*
X58684529Y-103291446D01*
X58662007Y-103299504D01*
X58638803Y-103305316D01*
X58615142Y-103308826D01*
X58591250Y-103310000D01*
X57678750Y-103310000D01*
X57654858Y-103308826D01*
X57631197Y-103305316D01*
X57607993Y-103299504D01*
X57585471Y-103291446D01*
X57563847Y-103281218D01*
X57543330Y-103268921D01*
X57524117Y-103254671D01*
X57506393Y-103238607D01*
X57490329Y-103220883D01*
X57476079Y-103201670D01*
X57463782Y-103181153D01*
X57453554Y-103159529D01*
X57445496Y-103137007D01*
X57439684Y-103113803D01*
X57436174Y-103090142D01*
X57435000Y-103066250D01*
X57435000Y-102578750D01*
X57436174Y-102554858D01*
X57439684Y-102531197D01*
X57445496Y-102507993D01*
X57453554Y-102485471D01*
X57463782Y-102463847D01*
X57476079Y-102443330D01*
X57490329Y-102424117D01*
X57506393Y-102406393D01*
X57524117Y-102390329D01*
X57543330Y-102376079D01*
X57563847Y-102363782D01*
X57585471Y-102353554D01*
X57607993Y-102345496D01*
X57631197Y-102339684D01*
X57654858Y-102336174D01*
X57678750Y-102335000D01*
X58591250Y-102335000D01*
X58615142Y-102336174D01*
X58615142Y-102336174D01*
G37*
D28*
X58135000Y-102822500D03*
D27*
G36*
X84199446Y-127607982D02*
X84223107Y-127611492D01*
X84246311Y-127617304D01*
X84268833Y-127625362D01*
X84290457Y-127635590D01*
X84310974Y-127647887D01*
X84330187Y-127662137D01*
X84347911Y-127678201D01*
X84363975Y-127695925D01*
X84378225Y-127715138D01*
X84390522Y-127735655D01*
X84400750Y-127757279D01*
X84408808Y-127779801D01*
X84414620Y-127803005D01*
X84418130Y-127826666D01*
X84419304Y-127850558D01*
X84419304Y-128338058D01*
X84418130Y-128361950D01*
X84414620Y-128385611D01*
X84408808Y-128408815D01*
X84400750Y-128431337D01*
X84390522Y-128452961D01*
X84378225Y-128473478D01*
X84363975Y-128492691D01*
X84347911Y-128510415D01*
X84330187Y-128526479D01*
X84310974Y-128540729D01*
X84290457Y-128553026D01*
X84268833Y-128563254D01*
X84246311Y-128571312D01*
X84223107Y-128577124D01*
X84199446Y-128580634D01*
X84175554Y-128581808D01*
X83263054Y-128581808D01*
X83239162Y-128580634D01*
X83215501Y-128577124D01*
X83192297Y-128571312D01*
X83169775Y-128563254D01*
X83148151Y-128553026D01*
X83127634Y-128540729D01*
X83108421Y-128526479D01*
X83090697Y-128510415D01*
X83074633Y-128492691D01*
X83060383Y-128473478D01*
X83048086Y-128452961D01*
X83037858Y-128431337D01*
X83029800Y-128408815D01*
X83023988Y-128385611D01*
X83020478Y-128361950D01*
X83019304Y-128338058D01*
X83019304Y-127850558D01*
X83020478Y-127826666D01*
X83023988Y-127803005D01*
X83029800Y-127779801D01*
X83037858Y-127757279D01*
X83048086Y-127735655D01*
X83060383Y-127715138D01*
X83074633Y-127695925D01*
X83090697Y-127678201D01*
X83108421Y-127662137D01*
X83127634Y-127647887D01*
X83148151Y-127635590D01*
X83169775Y-127625362D01*
X83192297Y-127617304D01*
X83215501Y-127611492D01*
X83239162Y-127607982D01*
X83263054Y-127606808D01*
X84175554Y-127606808D01*
X84199446Y-127607982D01*
X84199446Y-127607982D01*
G37*
D28*
X83719304Y-128094308D03*
D27*
G36*
X84199446Y-129482982D02*
X84223107Y-129486492D01*
X84246311Y-129492304D01*
X84268833Y-129500362D01*
X84290457Y-129510590D01*
X84310974Y-129522887D01*
X84330187Y-129537137D01*
X84347911Y-129553201D01*
X84363975Y-129570925D01*
X84378225Y-129590138D01*
X84390522Y-129610655D01*
X84400750Y-129632279D01*
X84408808Y-129654801D01*
X84414620Y-129678005D01*
X84418130Y-129701666D01*
X84419304Y-129725558D01*
X84419304Y-130213058D01*
X84418130Y-130236950D01*
X84414620Y-130260611D01*
X84408808Y-130283815D01*
X84400750Y-130306337D01*
X84390522Y-130327961D01*
X84378225Y-130348478D01*
X84363975Y-130367691D01*
X84347911Y-130385415D01*
X84330187Y-130401479D01*
X84310974Y-130415729D01*
X84290457Y-130428026D01*
X84268833Y-130438254D01*
X84246311Y-130446312D01*
X84223107Y-130452124D01*
X84199446Y-130455634D01*
X84175554Y-130456808D01*
X83263054Y-130456808D01*
X83239162Y-130455634D01*
X83215501Y-130452124D01*
X83192297Y-130446312D01*
X83169775Y-130438254D01*
X83148151Y-130428026D01*
X83127634Y-130415729D01*
X83108421Y-130401479D01*
X83090697Y-130385415D01*
X83074633Y-130367691D01*
X83060383Y-130348478D01*
X83048086Y-130327961D01*
X83037858Y-130306337D01*
X83029800Y-130283815D01*
X83023988Y-130260611D01*
X83020478Y-130236950D01*
X83019304Y-130213058D01*
X83019304Y-129725558D01*
X83020478Y-129701666D01*
X83023988Y-129678005D01*
X83029800Y-129654801D01*
X83037858Y-129632279D01*
X83048086Y-129610655D01*
X83060383Y-129590138D01*
X83074633Y-129570925D01*
X83090697Y-129553201D01*
X83108421Y-129537137D01*
X83127634Y-129522887D01*
X83148151Y-129510590D01*
X83169775Y-129500362D01*
X83192297Y-129492304D01*
X83215501Y-129486492D01*
X83239162Y-129482982D01*
X83263054Y-129481808D01*
X84175554Y-129481808D01*
X84199446Y-129482982D01*
X84199446Y-129482982D01*
G37*
D28*
X83719304Y-129969308D03*
D27*
G36*
X79527642Y-132811174D02*
X79551303Y-132814684D01*
X79574507Y-132820496D01*
X79597029Y-132828554D01*
X79618653Y-132838782D01*
X79639170Y-132851079D01*
X79658383Y-132865329D01*
X79676107Y-132881393D01*
X79692171Y-132899117D01*
X79706421Y-132918330D01*
X79718718Y-132938847D01*
X79728946Y-132960471D01*
X79737004Y-132982993D01*
X79742816Y-133006197D01*
X79746326Y-133029858D01*
X79747500Y-133053750D01*
X79747500Y-133966250D01*
X79746326Y-133990142D01*
X79742816Y-134013803D01*
X79737004Y-134037007D01*
X79728946Y-134059529D01*
X79718718Y-134081153D01*
X79706421Y-134101670D01*
X79692171Y-134120883D01*
X79676107Y-134138607D01*
X79658383Y-134154671D01*
X79639170Y-134168921D01*
X79618653Y-134181218D01*
X79597029Y-134191446D01*
X79574507Y-134199504D01*
X79551303Y-134205316D01*
X79527642Y-134208826D01*
X79503750Y-134210000D01*
X79016250Y-134210000D01*
X78992358Y-134208826D01*
X78968697Y-134205316D01*
X78945493Y-134199504D01*
X78922971Y-134191446D01*
X78901347Y-134181218D01*
X78880830Y-134168921D01*
X78861617Y-134154671D01*
X78843893Y-134138607D01*
X78827829Y-134120883D01*
X78813579Y-134101670D01*
X78801282Y-134081153D01*
X78791054Y-134059529D01*
X78782996Y-134037007D01*
X78777184Y-134013803D01*
X78773674Y-133990142D01*
X78772500Y-133966250D01*
X78772500Y-133053750D01*
X78773674Y-133029858D01*
X78777184Y-133006197D01*
X78782996Y-132982993D01*
X78791054Y-132960471D01*
X78801282Y-132938847D01*
X78813579Y-132918330D01*
X78827829Y-132899117D01*
X78843893Y-132881393D01*
X78861617Y-132865329D01*
X78880830Y-132851079D01*
X78901347Y-132838782D01*
X78922971Y-132828554D01*
X78945493Y-132820496D01*
X78968697Y-132814684D01*
X78992358Y-132811174D01*
X79016250Y-132810000D01*
X79503750Y-132810000D01*
X79527642Y-132811174D01*
X79527642Y-132811174D01*
G37*
D28*
X79260000Y-133510000D03*
D27*
G36*
X81402642Y-132811174D02*
X81426303Y-132814684D01*
X81449507Y-132820496D01*
X81472029Y-132828554D01*
X81493653Y-132838782D01*
X81514170Y-132851079D01*
X81533383Y-132865329D01*
X81551107Y-132881393D01*
X81567171Y-132899117D01*
X81581421Y-132918330D01*
X81593718Y-132938847D01*
X81603946Y-132960471D01*
X81612004Y-132982993D01*
X81617816Y-133006197D01*
X81621326Y-133029858D01*
X81622500Y-133053750D01*
X81622500Y-133966250D01*
X81621326Y-133990142D01*
X81617816Y-134013803D01*
X81612004Y-134037007D01*
X81603946Y-134059529D01*
X81593718Y-134081153D01*
X81581421Y-134101670D01*
X81567171Y-134120883D01*
X81551107Y-134138607D01*
X81533383Y-134154671D01*
X81514170Y-134168921D01*
X81493653Y-134181218D01*
X81472029Y-134191446D01*
X81449507Y-134199504D01*
X81426303Y-134205316D01*
X81402642Y-134208826D01*
X81378750Y-134210000D01*
X80891250Y-134210000D01*
X80867358Y-134208826D01*
X80843697Y-134205316D01*
X80820493Y-134199504D01*
X80797971Y-134191446D01*
X80776347Y-134181218D01*
X80755830Y-134168921D01*
X80736617Y-134154671D01*
X80718893Y-134138607D01*
X80702829Y-134120883D01*
X80688579Y-134101670D01*
X80676282Y-134081153D01*
X80666054Y-134059529D01*
X80657996Y-134037007D01*
X80652184Y-134013803D01*
X80648674Y-133990142D01*
X80647500Y-133966250D01*
X80647500Y-133053750D01*
X80648674Y-133029858D01*
X80652184Y-133006197D01*
X80657996Y-132982993D01*
X80666054Y-132960471D01*
X80676282Y-132938847D01*
X80688579Y-132918330D01*
X80702829Y-132899117D01*
X80718893Y-132881393D01*
X80736617Y-132865329D01*
X80755830Y-132851079D01*
X80776347Y-132838782D01*
X80797971Y-132828554D01*
X80820493Y-132820496D01*
X80843697Y-132814684D01*
X80867358Y-132811174D01*
X80891250Y-132810000D01*
X81378750Y-132810000D01*
X81402642Y-132811174D01*
X81402642Y-132811174D01*
G37*
D28*
X81135000Y-133510000D03*
D27*
G36*
X81115142Y-105023674D02*
X81138803Y-105027184D01*
X81162007Y-105032996D01*
X81184529Y-105041054D01*
X81206153Y-105051282D01*
X81226670Y-105063579D01*
X81245883Y-105077829D01*
X81263607Y-105093893D01*
X81279671Y-105111617D01*
X81293921Y-105130830D01*
X81306218Y-105151347D01*
X81316446Y-105172971D01*
X81324504Y-105195493D01*
X81330316Y-105218697D01*
X81333826Y-105242358D01*
X81335000Y-105266250D01*
X81335000Y-105753750D01*
X81333826Y-105777642D01*
X81330316Y-105801303D01*
X81324504Y-105824507D01*
X81316446Y-105847029D01*
X81306218Y-105868653D01*
X81293921Y-105889170D01*
X81279671Y-105908383D01*
X81263607Y-105926107D01*
X81245883Y-105942171D01*
X81226670Y-105956421D01*
X81206153Y-105968718D01*
X81184529Y-105978946D01*
X81162007Y-105987004D01*
X81138803Y-105992816D01*
X81115142Y-105996326D01*
X81091250Y-105997500D01*
X80178750Y-105997500D01*
X80154858Y-105996326D01*
X80131197Y-105992816D01*
X80107993Y-105987004D01*
X80085471Y-105978946D01*
X80063847Y-105968718D01*
X80043330Y-105956421D01*
X80024117Y-105942171D01*
X80006393Y-105926107D01*
X79990329Y-105908383D01*
X79976079Y-105889170D01*
X79963782Y-105868653D01*
X79953554Y-105847029D01*
X79945496Y-105824507D01*
X79939684Y-105801303D01*
X79936174Y-105777642D01*
X79935000Y-105753750D01*
X79935000Y-105266250D01*
X79936174Y-105242358D01*
X79939684Y-105218697D01*
X79945496Y-105195493D01*
X79953554Y-105172971D01*
X79963782Y-105151347D01*
X79976079Y-105130830D01*
X79990329Y-105111617D01*
X80006393Y-105093893D01*
X80024117Y-105077829D01*
X80043330Y-105063579D01*
X80063847Y-105051282D01*
X80085471Y-105041054D01*
X80107993Y-105032996D01*
X80131197Y-105027184D01*
X80154858Y-105023674D01*
X80178750Y-105022500D01*
X81091250Y-105022500D01*
X81115142Y-105023674D01*
X81115142Y-105023674D01*
G37*
D28*
X80635000Y-105510000D03*
D27*
G36*
X81115142Y-106898674D02*
X81138803Y-106902184D01*
X81162007Y-106907996D01*
X81184529Y-106916054D01*
X81206153Y-106926282D01*
X81226670Y-106938579D01*
X81245883Y-106952829D01*
X81263607Y-106968893D01*
X81279671Y-106986617D01*
X81293921Y-107005830D01*
X81306218Y-107026347D01*
X81316446Y-107047971D01*
X81324504Y-107070493D01*
X81330316Y-107093697D01*
X81333826Y-107117358D01*
X81335000Y-107141250D01*
X81335000Y-107628750D01*
X81333826Y-107652642D01*
X81330316Y-107676303D01*
X81324504Y-107699507D01*
X81316446Y-107722029D01*
X81306218Y-107743653D01*
X81293921Y-107764170D01*
X81279671Y-107783383D01*
X81263607Y-107801107D01*
X81245883Y-107817171D01*
X81226670Y-107831421D01*
X81206153Y-107843718D01*
X81184529Y-107853946D01*
X81162007Y-107862004D01*
X81138803Y-107867816D01*
X81115142Y-107871326D01*
X81091250Y-107872500D01*
X80178750Y-107872500D01*
X80154858Y-107871326D01*
X80131197Y-107867816D01*
X80107993Y-107862004D01*
X80085471Y-107853946D01*
X80063847Y-107843718D01*
X80043330Y-107831421D01*
X80024117Y-107817171D01*
X80006393Y-107801107D01*
X79990329Y-107783383D01*
X79976079Y-107764170D01*
X79963782Y-107743653D01*
X79953554Y-107722029D01*
X79945496Y-107699507D01*
X79939684Y-107676303D01*
X79936174Y-107652642D01*
X79935000Y-107628750D01*
X79935000Y-107141250D01*
X79936174Y-107117358D01*
X79939684Y-107093697D01*
X79945496Y-107070493D01*
X79953554Y-107047971D01*
X79963782Y-107026347D01*
X79976079Y-107005830D01*
X79990329Y-106986617D01*
X80006393Y-106968893D01*
X80024117Y-106952829D01*
X80043330Y-106938579D01*
X80063847Y-106926282D01*
X80085471Y-106916054D01*
X80107993Y-106907996D01*
X80131197Y-106902184D01*
X80154858Y-106898674D01*
X80178750Y-106897500D01*
X81091250Y-106897500D01*
X81115142Y-106898674D01*
X81115142Y-106898674D01*
G37*
D28*
X80635000Y-107385000D03*
D27*
G36*
X79527642Y-135561174D02*
X79551303Y-135564684D01*
X79574507Y-135570496D01*
X79597029Y-135578554D01*
X79618653Y-135588782D01*
X79639170Y-135601079D01*
X79658383Y-135615329D01*
X79676107Y-135631393D01*
X79692171Y-135649117D01*
X79706421Y-135668330D01*
X79718718Y-135688847D01*
X79728946Y-135710471D01*
X79737004Y-135732993D01*
X79742816Y-135756197D01*
X79746326Y-135779858D01*
X79747500Y-135803750D01*
X79747500Y-136716250D01*
X79746326Y-136740142D01*
X79742816Y-136763803D01*
X79737004Y-136787007D01*
X79728946Y-136809529D01*
X79718718Y-136831153D01*
X79706421Y-136851670D01*
X79692171Y-136870883D01*
X79676107Y-136888607D01*
X79658383Y-136904671D01*
X79639170Y-136918921D01*
X79618653Y-136931218D01*
X79597029Y-136941446D01*
X79574507Y-136949504D01*
X79551303Y-136955316D01*
X79527642Y-136958826D01*
X79503750Y-136960000D01*
X79016250Y-136960000D01*
X78992358Y-136958826D01*
X78968697Y-136955316D01*
X78945493Y-136949504D01*
X78922971Y-136941446D01*
X78901347Y-136931218D01*
X78880830Y-136918921D01*
X78861617Y-136904671D01*
X78843893Y-136888607D01*
X78827829Y-136870883D01*
X78813579Y-136851670D01*
X78801282Y-136831153D01*
X78791054Y-136809529D01*
X78782996Y-136787007D01*
X78777184Y-136763803D01*
X78773674Y-136740142D01*
X78772500Y-136716250D01*
X78772500Y-135803750D01*
X78773674Y-135779858D01*
X78777184Y-135756197D01*
X78782996Y-135732993D01*
X78791054Y-135710471D01*
X78801282Y-135688847D01*
X78813579Y-135668330D01*
X78827829Y-135649117D01*
X78843893Y-135631393D01*
X78861617Y-135615329D01*
X78880830Y-135601079D01*
X78901347Y-135588782D01*
X78922971Y-135578554D01*
X78945493Y-135570496D01*
X78968697Y-135564684D01*
X78992358Y-135561174D01*
X79016250Y-135560000D01*
X79503750Y-135560000D01*
X79527642Y-135561174D01*
X79527642Y-135561174D01*
G37*
D28*
X79260000Y-136260000D03*
D27*
G36*
X81402642Y-135561174D02*
X81426303Y-135564684D01*
X81449507Y-135570496D01*
X81472029Y-135578554D01*
X81493653Y-135588782D01*
X81514170Y-135601079D01*
X81533383Y-135615329D01*
X81551107Y-135631393D01*
X81567171Y-135649117D01*
X81581421Y-135668330D01*
X81593718Y-135688847D01*
X81603946Y-135710471D01*
X81612004Y-135732993D01*
X81617816Y-135756197D01*
X81621326Y-135779858D01*
X81622500Y-135803750D01*
X81622500Y-136716250D01*
X81621326Y-136740142D01*
X81617816Y-136763803D01*
X81612004Y-136787007D01*
X81603946Y-136809529D01*
X81593718Y-136831153D01*
X81581421Y-136851670D01*
X81567171Y-136870883D01*
X81551107Y-136888607D01*
X81533383Y-136904671D01*
X81514170Y-136918921D01*
X81493653Y-136931218D01*
X81472029Y-136941446D01*
X81449507Y-136949504D01*
X81426303Y-136955316D01*
X81402642Y-136958826D01*
X81378750Y-136960000D01*
X80891250Y-136960000D01*
X80867358Y-136958826D01*
X80843697Y-136955316D01*
X80820493Y-136949504D01*
X80797971Y-136941446D01*
X80776347Y-136931218D01*
X80755830Y-136918921D01*
X80736617Y-136904671D01*
X80718893Y-136888607D01*
X80702829Y-136870883D01*
X80688579Y-136851670D01*
X80676282Y-136831153D01*
X80666054Y-136809529D01*
X80657996Y-136787007D01*
X80652184Y-136763803D01*
X80648674Y-136740142D01*
X80647500Y-136716250D01*
X80647500Y-135803750D01*
X80648674Y-135779858D01*
X80652184Y-135756197D01*
X80657996Y-135732993D01*
X80666054Y-135710471D01*
X80676282Y-135688847D01*
X80688579Y-135668330D01*
X80702829Y-135649117D01*
X80718893Y-135631393D01*
X80736617Y-135615329D01*
X80755830Y-135601079D01*
X80776347Y-135588782D01*
X80797971Y-135578554D01*
X80820493Y-135570496D01*
X80843697Y-135564684D01*
X80867358Y-135561174D01*
X80891250Y-135560000D01*
X81378750Y-135560000D01*
X81402642Y-135561174D01*
X81402642Y-135561174D01*
G37*
D28*
X81135000Y-136260000D03*
D27*
G36*
X60340142Y-86811174D02*
X60363803Y-86814684D01*
X60387007Y-86820496D01*
X60409529Y-86828554D01*
X60431153Y-86838782D01*
X60451670Y-86851079D01*
X60470883Y-86865329D01*
X60488607Y-86881393D01*
X60504671Y-86899117D01*
X60518921Y-86918330D01*
X60531218Y-86938847D01*
X60541446Y-86960471D01*
X60549504Y-86982993D01*
X60555316Y-87006197D01*
X60558826Y-87029858D01*
X60560000Y-87053750D01*
X60560000Y-87966250D01*
X60558826Y-87990142D01*
X60555316Y-88013803D01*
X60549504Y-88037007D01*
X60541446Y-88059529D01*
X60531218Y-88081153D01*
X60518921Y-88101670D01*
X60504671Y-88120883D01*
X60488607Y-88138607D01*
X60470883Y-88154671D01*
X60451670Y-88168921D01*
X60431153Y-88181218D01*
X60409529Y-88191446D01*
X60387007Y-88199504D01*
X60363803Y-88205316D01*
X60340142Y-88208826D01*
X60316250Y-88210000D01*
X59828750Y-88210000D01*
X59804858Y-88208826D01*
X59781197Y-88205316D01*
X59757993Y-88199504D01*
X59735471Y-88191446D01*
X59713847Y-88181218D01*
X59693330Y-88168921D01*
X59674117Y-88154671D01*
X59656393Y-88138607D01*
X59640329Y-88120883D01*
X59626079Y-88101670D01*
X59613782Y-88081153D01*
X59603554Y-88059529D01*
X59595496Y-88037007D01*
X59589684Y-88013803D01*
X59586174Y-87990142D01*
X59585000Y-87966250D01*
X59585000Y-87053750D01*
X59586174Y-87029858D01*
X59589684Y-87006197D01*
X59595496Y-86982993D01*
X59603554Y-86960471D01*
X59613782Y-86938847D01*
X59626079Y-86918330D01*
X59640329Y-86899117D01*
X59656393Y-86881393D01*
X59674117Y-86865329D01*
X59693330Y-86851079D01*
X59713847Y-86838782D01*
X59735471Y-86828554D01*
X59757993Y-86820496D01*
X59781197Y-86814684D01*
X59804858Y-86811174D01*
X59828750Y-86810000D01*
X60316250Y-86810000D01*
X60340142Y-86811174D01*
X60340142Y-86811174D01*
G37*
D28*
X60072500Y-87510000D03*
D27*
G36*
X58465142Y-86811174D02*
X58488803Y-86814684D01*
X58512007Y-86820496D01*
X58534529Y-86828554D01*
X58556153Y-86838782D01*
X58576670Y-86851079D01*
X58595883Y-86865329D01*
X58613607Y-86881393D01*
X58629671Y-86899117D01*
X58643921Y-86918330D01*
X58656218Y-86938847D01*
X58666446Y-86960471D01*
X58674504Y-86982993D01*
X58680316Y-87006197D01*
X58683826Y-87029858D01*
X58685000Y-87053750D01*
X58685000Y-87966250D01*
X58683826Y-87990142D01*
X58680316Y-88013803D01*
X58674504Y-88037007D01*
X58666446Y-88059529D01*
X58656218Y-88081153D01*
X58643921Y-88101670D01*
X58629671Y-88120883D01*
X58613607Y-88138607D01*
X58595883Y-88154671D01*
X58576670Y-88168921D01*
X58556153Y-88181218D01*
X58534529Y-88191446D01*
X58512007Y-88199504D01*
X58488803Y-88205316D01*
X58465142Y-88208826D01*
X58441250Y-88210000D01*
X57953750Y-88210000D01*
X57929858Y-88208826D01*
X57906197Y-88205316D01*
X57882993Y-88199504D01*
X57860471Y-88191446D01*
X57838847Y-88181218D01*
X57818330Y-88168921D01*
X57799117Y-88154671D01*
X57781393Y-88138607D01*
X57765329Y-88120883D01*
X57751079Y-88101670D01*
X57738782Y-88081153D01*
X57728554Y-88059529D01*
X57720496Y-88037007D01*
X57714684Y-88013803D01*
X57711174Y-87990142D01*
X57710000Y-87966250D01*
X57710000Y-87053750D01*
X57711174Y-87029858D01*
X57714684Y-87006197D01*
X57720496Y-86982993D01*
X57728554Y-86960471D01*
X57738782Y-86938847D01*
X57751079Y-86918330D01*
X57765329Y-86899117D01*
X57781393Y-86881393D01*
X57799117Y-86865329D01*
X57818330Y-86851079D01*
X57838847Y-86838782D01*
X57860471Y-86828554D01*
X57882993Y-86820496D01*
X57906197Y-86814684D01*
X57929858Y-86811174D01*
X57953750Y-86810000D01*
X58441250Y-86810000D01*
X58465142Y-86811174D01*
X58465142Y-86811174D01*
G37*
D28*
X58197500Y-87510000D03*
D27*
G36*
X83152642Y-92061174D02*
X83176303Y-92064684D01*
X83199507Y-92070496D01*
X83222029Y-92078554D01*
X83243653Y-92088782D01*
X83264170Y-92101079D01*
X83283383Y-92115329D01*
X83301107Y-92131393D01*
X83317171Y-92149117D01*
X83331421Y-92168330D01*
X83343718Y-92188847D01*
X83353946Y-92210471D01*
X83362004Y-92232993D01*
X83367816Y-92256197D01*
X83371326Y-92279858D01*
X83372500Y-92303750D01*
X83372500Y-93216250D01*
X83371326Y-93240142D01*
X83367816Y-93263803D01*
X83362004Y-93287007D01*
X83353946Y-93309529D01*
X83343718Y-93331153D01*
X83331421Y-93351670D01*
X83317171Y-93370883D01*
X83301107Y-93388607D01*
X83283383Y-93404671D01*
X83264170Y-93418921D01*
X83243653Y-93431218D01*
X83222029Y-93441446D01*
X83199507Y-93449504D01*
X83176303Y-93455316D01*
X83152642Y-93458826D01*
X83128750Y-93460000D01*
X82641250Y-93460000D01*
X82617358Y-93458826D01*
X82593697Y-93455316D01*
X82570493Y-93449504D01*
X82547971Y-93441446D01*
X82526347Y-93431218D01*
X82505830Y-93418921D01*
X82486617Y-93404671D01*
X82468893Y-93388607D01*
X82452829Y-93370883D01*
X82438579Y-93351670D01*
X82426282Y-93331153D01*
X82416054Y-93309529D01*
X82407996Y-93287007D01*
X82402184Y-93263803D01*
X82398674Y-93240142D01*
X82397500Y-93216250D01*
X82397500Y-92303750D01*
X82398674Y-92279858D01*
X82402184Y-92256197D01*
X82407996Y-92232993D01*
X82416054Y-92210471D01*
X82426282Y-92188847D01*
X82438579Y-92168330D01*
X82452829Y-92149117D01*
X82468893Y-92131393D01*
X82486617Y-92115329D01*
X82505830Y-92101079D01*
X82526347Y-92088782D01*
X82547971Y-92078554D01*
X82570493Y-92070496D01*
X82593697Y-92064684D01*
X82617358Y-92061174D01*
X82641250Y-92060000D01*
X83128750Y-92060000D01*
X83152642Y-92061174D01*
X83152642Y-92061174D01*
G37*
D28*
X82885000Y-92760000D03*
D27*
G36*
X81277642Y-92061174D02*
X81301303Y-92064684D01*
X81324507Y-92070496D01*
X81347029Y-92078554D01*
X81368653Y-92088782D01*
X81389170Y-92101079D01*
X81408383Y-92115329D01*
X81426107Y-92131393D01*
X81442171Y-92149117D01*
X81456421Y-92168330D01*
X81468718Y-92188847D01*
X81478946Y-92210471D01*
X81487004Y-92232993D01*
X81492816Y-92256197D01*
X81496326Y-92279858D01*
X81497500Y-92303750D01*
X81497500Y-93216250D01*
X81496326Y-93240142D01*
X81492816Y-93263803D01*
X81487004Y-93287007D01*
X81478946Y-93309529D01*
X81468718Y-93331153D01*
X81456421Y-93351670D01*
X81442171Y-93370883D01*
X81426107Y-93388607D01*
X81408383Y-93404671D01*
X81389170Y-93418921D01*
X81368653Y-93431218D01*
X81347029Y-93441446D01*
X81324507Y-93449504D01*
X81301303Y-93455316D01*
X81277642Y-93458826D01*
X81253750Y-93460000D01*
X80766250Y-93460000D01*
X80742358Y-93458826D01*
X80718697Y-93455316D01*
X80695493Y-93449504D01*
X80672971Y-93441446D01*
X80651347Y-93431218D01*
X80630830Y-93418921D01*
X80611617Y-93404671D01*
X80593893Y-93388607D01*
X80577829Y-93370883D01*
X80563579Y-93351670D01*
X80551282Y-93331153D01*
X80541054Y-93309529D01*
X80532996Y-93287007D01*
X80527184Y-93263803D01*
X80523674Y-93240142D01*
X80522500Y-93216250D01*
X80522500Y-92303750D01*
X80523674Y-92279858D01*
X80527184Y-92256197D01*
X80532996Y-92232993D01*
X80541054Y-92210471D01*
X80551282Y-92188847D01*
X80563579Y-92168330D01*
X80577829Y-92149117D01*
X80593893Y-92131393D01*
X80611617Y-92115329D01*
X80630830Y-92101079D01*
X80651347Y-92088782D01*
X80672971Y-92078554D01*
X80695493Y-92070496D01*
X80718697Y-92064684D01*
X80742358Y-92061174D01*
X80766250Y-92060000D01*
X81253750Y-92060000D01*
X81277642Y-92061174D01*
X81277642Y-92061174D01*
G37*
D28*
X81010000Y-92760000D03*
D27*
G36*
X88065142Y-57836174D02*
X88088803Y-57839684D01*
X88112007Y-57845496D01*
X88134529Y-57853554D01*
X88156153Y-57863782D01*
X88176670Y-57876079D01*
X88195883Y-57890329D01*
X88213607Y-57906393D01*
X88229671Y-57924117D01*
X88243921Y-57943330D01*
X88256218Y-57963847D01*
X88266446Y-57985471D01*
X88274504Y-58007993D01*
X88280316Y-58031197D01*
X88283826Y-58054858D01*
X88285000Y-58078750D01*
X88285000Y-58566250D01*
X88283826Y-58590142D01*
X88280316Y-58613803D01*
X88274504Y-58637007D01*
X88266446Y-58659529D01*
X88256218Y-58681153D01*
X88243921Y-58701670D01*
X88229671Y-58720883D01*
X88213607Y-58738607D01*
X88195883Y-58754671D01*
X88176670Y-58768921D01*
X88156153Y-58781218D01*
X88134529Y-58791446D01*
X88112007Y-58799504D01*
X88088803Y-58805316D01*
X88065142Y-58808826D01*
X88041250Y-58810000D01*
X87128750Y-58810000D01*
X87104858Y-58808826D01*
X87081197Y-58805316D01*
X87057993Y-58799504D01*
X87035471Y-58791446D01*
X87013847Y-58781218D01*
X86993330Y-58768921D01*
X86974117Y-58754671D01*
X86956393Y-58738607D01*
X86940329Y-58720883D01*
X86926079Y-58701670D01*
X86913782Y-58681153D01*
X86903554Y-58659529D01*
X86895496Y-58637007D01*
X86889684Y-58613803D01*
X86886174Y-58590142D01*
X86885000Y-58566250D01*
X86885000Y-58078750D01*
X86886174Y-58054858D01*
X86889684Y-58031197D01*
X86895496Y-58007993D01*
X86903554Y-57985471D01*
X86913782Y-57963847D01*
X86926079Y-57943330D01*
X86940329Y-57924117D01*
X86956393Y-57906393D01*
X86974117Y-57890329D01*
X86993330Y-57876079D01*
X87013847Y-57863782D01*
X87035471Y-57853554D01*
X87057993Y-57845496D01*
X87081197Y-57839684D01*
X87104858Y-57836174D01*
X87128750Y-57835000D01*
X88041250Y-57835000D01*
X88065142Y-57836174D01*
X88065142Y-57836174D01*
G37*
D28*
X87585000Y-58322500D03*
D27*
G36*
X88065142Y-59711174D02*
X88088803Y-59714684D01*
X88112007Y-59720496D01*
X88134529Y-59728554D01*
X88156153Y-59738782D01*
X88176670Y-59751079D01*
X88195883Y-59765329D01*
X88213607Y-59781393D01*
X88229671Y-59799117D01*
X88243921Y-59818330D01*
X88256218Y-59838847D01*
X88266446Y-59860471D01*
X88274504Y-59882993D01*
X88280316Y-59906197D01*
X88283826Y-59929858D01*
X88285000Y-59953750D01*
X88285000Y-60441250D01*
X88283826Y-60465142D01*
X88280316Y-60488803D01*
X88274504Y-60512007D01*
X88266446Y-60534529D01*
X88256218Y-60556153D01*
X88243921Y-60576670D01*
X88229671Y-60595883D01*
X88213607Y-60613607D01*
X88195883Y-60629671D01*
X88176670Y-60643921D01*
X88156153Y-60656218D01*
X88134529Y-60666446D01*
X88112007Y-60674504D01*
X88088803Y-60680316D01*
X88065142Y-60683826D01*
X88041250Y-60685000D01*
X87128750Y-60685000D01*
X87104858Y-60683826D01*
X87081197Y-60680316D01*
X87057993Y-60674504D01*
X87035471Y-60666446D01*
X87013847Y-60656218D01*
X86993330Y-60643921D01*
X86974117Y-60629671D01*
X86956393Y-60613607D01*
X86940329Y-60595883D01*
X86926079Y-60576670D01*
X86913782Y-60556153D01*
X86903554Y-60534529D01*
X86895496Y-60512007D01*
X86889684Y-60488803D01*
X86886174Y-60465142D01*
X86885000Y-60441250D01*
X86885000Y-59953750D01*
X86886174Y-59929858D01*
X86889684Y-59906197D01*
X86895496Y-59882993D01*
X86903554Y-59860471D01*
X86913782Y-59838847D01*
X86926079Y-59818330D01*
X86940329Y-59799117D01*
X86956393Y-59781393D01*
X86974117Y-59765329D01*
X86993330Y-59751079D01*
X87013847Y-59738782D01*
X87035471Y-59728554D01*
X87057993Y-59720496D01*
X87081197Y-59714684D01*
X87104858Y-59711174D01*
X87128750Y-59710000D01*
X88041250Y-59710000D01*
X88065142Y-59711174D01*
X88065142Y-59711174D01*
G37*
D28*
X87585000Y-60197500D03*
D27*
G36*
X74115142Y-134148674D02*
X74138803Y-134152184D01*
X74162007Y-134157996D01*
X74184529Y-134166054D01*
X74206153Y-134176282D01*
X74226670Y-134188579D01*
X74245883Y-134202829D01*
X74263607Y-134218893D01*
X74279671Y-134236617D01*
X74293921Y-134255830D01*
X74306218Y-134276347D01*
X74316446Y-134297971D01*
X74324504Y-134320493D01*
X74330316Y-134343697D01*
X74333826Y-134367358D01*
X74335000Y-134391250D01*
X74335000Y-134878750D01*
X74333826Y-134902642D01*
X74330316Y-134926303D01*
X74324504Y-134949507D01*
X74316446Y-134972029D01*
X74306218Y-134993653D01*
X74293921Y-135014170D01*
X74279671Y-135033383D01*
X74263607Y-135051107D01*
X74245883Y-135067171D01*
X74226670Y-135081421D01*
X74206153Y-135093718D01*
X74184529Y-135103946D01*
X74162007Y-135112004D01*
X74138803Y-135117816D01*
X74115142Y-135121326D01*
X74091250Y-135122500D01*
X73178750Y-135122500D01*
X73154858Y-135121326D01*
X73131197Y-135117816D01*
X73107993Y-135112004D01*
X73085471Y-135103946D01*
X73063847Y-135093718D01*
X73043330Y-135081421D01*
X73024117Y-135067171D01*
X73006393Y-135051107D01*
X72990329Y-135033383D01*
X72976079Y-135014170D01*
X72963782Y-134993653D01*
X72953554Y-134972029D01*
X72945496Y-134949507D01*
X72939684Y-134926303D01*
X72936174Y-134902642D01*
X72935000Y-134878750D01*
X72935000Y-134391250D01*
X72936174Y-134367358D01*
X72939684Y-134343697D01*
X72945496Y-134320493D01*
X72953554Y-134297971D01*
X72963782Y-134276347D01*
X72976079Y-134255830D01*
X72990329Y-134236617D01*
X73006393Y-134218893D01*
X73024117Y-134202829D01*
X73043330Y-134188579D01*
X73063847Y-134176282D01*
X73085471Y-134166054D01*
X73107993Y-134157996D01*
X73131197Y-134152184D01*
X73154858Y-134148674D01*
X73178750Y-134147500D01*
X74091250Y-134147500D01*
X74115142Y-134148674D01*
X74115142Y-134148674D01*
G37*
D28*
X73635000Y-134635000D03*
D27*
G36*
X74115142Y-136023674D02*
X74138803Y-136027184D01*
X74162007Y-136032996D01*
X74184529Y-136041054D01*
X74206153Y-136051282D01*
X74226670Y-136063579D01*
X74245883Y-136077829D01*
X74263607Y-136093893D01*
X74279671Y-136111617D01*
X74293921Y-136130830D01*
X74306218Y-136151347D01*
X74316446Y-136172971D01*
X74324504Y-136195493D01*
X74330316Y-136218697D01*
X74333826Y-136242358D01*
X74335000Y-136266250D01*
X74335000Y-136753750D01*
X74333826Y-136777642D01*
X74330316Y-136801303D01*
X74324504Y-136824507D01*
X74316446Y-136847029D01*
X74306218Y-136868653D01*
X74293921Y-136889170D01*
X74279671Y-136908383D01*
X74263607Y-136926107D01*
X74245883Y-136942171D01*
X74226670Y-136956421D01*
X74206153Y-136968718D01*
X74184529Y-136978946D01*
X74162007Y-136987004D01*
X74138803Y-136992816D01*
X74115142Y-136996326D01*
X74091250Y-136997500D01*
X73178750Y-136997500D01*
X73154858Y-136996326D01*
X73131197Y-136992816D01*
X73107993Y-136987004D01*
X73085471Y-136978946D01*
X73063847Y-136968718D01*
X73043330Y-136956421D01*
X73024117Y-136942171D01*
X73006393Y-136926107D01*
X72990329Y-136908383D01*
X72976079Y-136889170D01*
X72963782Y-136868653D01*
X72953554Y-136847029D01*
X72945496Y-136824507D01*
X72939684Y-136801303D01*
X72936174Y-136777642D01*
X72935000Y-136753750D01*
X72935000Y-136266250D01*
X72936174Y-136242358D01*
X72939684Y-136218697D01*
X72945496Y-136195493D01*
X72953554Y-136172971D01*
X72963782Y-136151347D01*
X72976079Y-136130830D01*
X72990329Y-136111617D01*
X73006393Y-136093893D01*
X73024117Y-136077829D01*
X73043330Y-136063579D01*
X73063847Y-136051282D01*
X73085471Y-136041054D01*
X73107993Y-136032996D01*
X73131197Y-136027184D01*
X73154858Y-136023674D01*
X73178750Y-136022500D01*
X74091250Y-136022500D01*
X74115142Y-136023674D01*
X74115142Y-136023674D01*
G37*
D28*
X73635000Y-136510000D03*
D27*
G36*
X73615142Y-140148674D02*
X73638803Y-140152184D01*
X73662007Y-140157996D01*
X73684529Y-140166054D01*
X73706153Y-140176282D01*
X73726670Y-140188579D01*
X73745883Y-140202829D01*
X73763607Y-140218893D01*
X73779671Y-140236617D01*
X73793921Y-140255830D01*
X73806218Y-140276347D01*
X73816446Y-140297971D01*
X73824504Y-140320493D01*
X73830316Y-140343697D01*
X73833826Y-140367358D01*
X73835000Y-140391250D01*
X73835000Y-140878750D01*
X73833826Y-140902642D01*
X73830316Y-140926303D01*
X73824504Y-140949507D01*
X73816446Y-140972029D01*
X73806218Y-140993653D01*
X73793921Y-141014170D01*
X73779671Y-141033383D01*
X73763607Y-141051107D01*
X73745883Y-141067171D01*
X73726670Y-141081421D01*
X73706153Y-141093718D01*
X73684529Y-141103946D01*
X73662007Y-141112004D01*
X73638803Y-141117816D01*
X73615142Y-141121326D01*
X73591250Y-141122500D01*
X72678750Y-141122500D01*
X72654858Y-141121326D01*
X72631197Y-141117816D01*
X72607993Y-141112004D01*
X72585471Y-141103946D01*
X72563847Y-141093718D01*
X72543330Y-141081421D01*
X72524117Y-141067171D01*
X72506393Y-141051107D01*
X72490329Y-141033383D01*
X72476079Y-141014170D01*
X72463782Y-140993653D01*
X72453554Y-140972029D01*
X72445496Y-140949507D01*
X72439684Y-140926303D01*
X72436174Y-140902642D01*
X72435000Y-140878750D01*
X72435000Y-140391250D01*
X72436174Y-140367358D01*
X72439684Y-140343697D01*
X72445496Y-140320493D01*
X72453554Y-140297971D01*
X72463782Y-140276347D01*
X72476079Y-140255830D01*
X72490329Y-140236617D01*
X72506393Y-140218893D01*
X72524117Y-140202829D01*
X72543330Y-140188579D01*
X72563847Y-140176282D01*
X72585471Y-140166054D01*
X72607993Y-140157996D01*
X72631197Y-140152184D01*
X72654858Y-140148674D01*
X72678750Y-140147500D01*
X73591250Y-140147500D01*
X73615142Y-140148674D01*
X73615142Y-140148674D01*
G37*
D28*
X73135000Y-140635000D03*
D27*
G36*
X73615142Y-142023674D02*
X73638803Y-142027184D01*
X73662007Y-142032996D01*
X73684529Y-142041054D01*
X73706153Y-142051282D01*
X73726670Y-142063579D01*
X73745883Y-142077829D01*
X73763607Y-142093893D01*
X73779671Y-142111617D01*
X73793921Y-142130830D01*
X73806218Y-142151347D01*
X73816446Y-142172971D01*
X73824504Y-142195493D01*
X73830316Y-142218697D01*
X73833826Y-142242358D01*
X73835000Y-142266250D01*
X73835000Y-142753750D01*
X73833826Y-142777642D01*
X73830316Y-142801303D01*
X73824504Y-142824507D01*
X73816446Y-142847029D01*
X73806218Y-142868653D01*
X73793921Y-142889170D01*
X73779671Y-142908383D01*
X73763607Y-142926107D01*
X73745883Y-142942171D01*
X73726670Y-142956421D01*
X73706153Y-142968718D01*
X73684529Y-142978946D01*
X73662007Y-142987004D01*
X73638803Y-142992816D01*
X73615142Y-142996326D01*
X73591250Y-142997500D01*
X72678750Y-142997500D01*
X72654858Y-142996326D01*
X72631197Y-142992816D01*
X72607993Y-142987004D01*
X72585471Y-142978946D01*
X72563847Y-142968718D01*
X72543330Y-142956421D01*
X72524117Y-142942171D01*
X72506393Y-142926107D01*
X72490329Y-142908383D01*
X72476079Y-142889170D01*
X72463782Y-142868653D01*
X72453554Y-142847029D01*
X72445496Y-142824507D01*
X72439684Y-142801303D01*
X72436174Y-142777642D01*
X72435000Y-142753750D01*
X72435000Y-142266250D01*
X72436174Y-142242358D01*
X72439684Y-142218697D01*
X72445496Y-142195493D01*
X72453554Y-142172971D01*
X72463782Y-142151347D01*
X72476079Y-142130830D01*
X72490329Y-142111617D01*
X72506393Y-142093893D01*
X72524117Y-142077829D01*
X72543330Y-142063579D01*
X72563847Y-142051282D01*
X72585471Y-142041054D01*
X72607993Y-142032996D01*
X72631197Y-142027184D01*
X72654858Y-142023674D01*
X72678750Y-142022500D01*
X73591250Y-142022500D01*
X73615142Y-142023674D01*
X73615142Y-142023674D01*
G37*
D28*
X73135000Y-142510000D03*
D27*
G36*
X74115142Y-124148674D02*
X74138803Y-124152184D01*
X74162007Y-124157996D01*
X74184529Y-124166054D01*
X74206153Y-124176282D01*
X74226670Y-124188579D01*
X74245883Y-124202829D01*
X74263607Y-124218893D01*
X74279671Y-124236617D01*
X74293921Y-124255830D01*
X74306218Y-124276347D01*
X74316446Y-124297971D01*
X74324504Y-124320493D01*
X74330316Y-124343697D01*
X74333826Y-124367358D01*
X74335000Y-124391250D01*
X74335000Y-124878750D01*
X74333826Y-124902642D01*
X74330316Y-124926303D01*
X74324504Y-124949507D01*
X74316446Y-124972029D01*
X74306218Y-124993653D01*
X74293921Y-125014170D01*
X74279671Y-125033383D01*
X74263607Y-125051107D01*
X74245883Y-125067171D01*
X74226670Y-125081421D01*
X74206153Y-125093718D01*
X74184529Y-125103946D01*
X74162007Y-125112004D01*
X74138803Y-125117816D01*
X74115142Y-125121326D01*
X74091250Y-125122500D01*
X73178750Y-125122500D01*
X73154858Y-125121326D01*
X73131197Y-125117816D01*
X73107993Y-125112004D01*
X73085471Y-125103946D01*
X73063847Y-125093718D01*
X73043330Y-125081421D01*
X73024117Y-125067171D01*
X73006393Y-125051107D01*
X72990329Y-125033383D01*
X72976079Y-125014170D01*
X72963782Y-124993653D01*
X72953554Y-124972029D01*
X72945496Y-124949507D01*
X72939684Y-124926303D01*
X72936174Y-124902642D01*
X72935000Y-124878750D01*
X72935000Y-124391250D01*
X72936174Y-124367358D01*
X72939684Y-124343697D01*
X72945496Y-124320493D01*
X72953554Y-124297971D01*
X72963782Y-124276347D01*
X72976079Y-124255830D01*
X72990329Y-124236617D01*
X73006393Y-124218893D01*
X73024117Y-124202829D01*
X73043330Y-124188579D01*
X73063847Y-124176282D01*
X73085471Y-124166054D01*
X73107993Y-124157996D01*
X73131197Y-124152184D01*
X73154858Y-124148674D01*
X73178750Y-124147500D01*
X74091250Y-124147500D01*
X74115142Y-124148674D01*
X74115142Y-124148674D01*
G37*
D28*
X73635000Y-124635000D03*
D27*
G36*
X74115142Y-126023674D02*
X74138803Y-126027184D01*
X74162007Y-126032996D01*
X74184529Y-126041054D01*
X74206153Y-126051282D01*
X74226670Y-126063579D01*
X74245883Y-126077829D01*
X74263607Y-126093893D01*
X74279671Y-126111617D01*
X74293921Y-126130830D01*
X74306218Y-126151347D01*
X74316446Y-126172971D01*
X74324504Y-126195493D01*
X74330316Y-126218697D01*
X74333826Y-126242358D01*
X74335000Y-126266250D01*
X74335000Y-126753750D01*
X74333826Y-126777642D01*
X74330316Y-126801303D01*
X74324504Y-126824507D01*
X74316446Y-126847029D01*
X74306218Y-126868653D01*
X74293921Y-126889170D01*
X74279671Y-126908383D01*
X74263607Y-126926107D01*
X74245883Y-126942171D01*
X74226670Y-126956421D01*
X74206153Y-126968718D01*
X74184529Y-126978946D01*
X74162007Y-126987004D01*
X74138803Y-126992816D01*
X74115142Y-126996326D01*
X74091250Y-126997500D01*
X73178750Y-126997500D01*
X73154858Y-126996326D01*
X73131197Y-126992816D01*
X73107993Y-126987004D01*
X73085471Y-126978946D01*
X73063847Y-126968718D01*
X73043330Y-126956421D01*
X73024117Y-126942171D01*
X73006393Y-126926107D01*
X72990329Y-126908383D01*
X72976079Y-126889170D01*
X72963782Y-126868653D01*
X72953554Y-126847029D01*
X72945496Y-126824507D01*
X72939684Y-126801303D01*
X72936174Y-126777642D01*
X72935000Y-126753750D01*
X72935000Y-126266250D01*
X72936174Y-126242358D01*
X72939684Y-126218697D01*
X72945496Y-126195493D01*
X72953554Y-126172971D01*
X72963782Y-126151347D01*
X72976079Y-126130830D01*
X72990329Y-126111617D01*
X73006393Y-126093893D01*
X73024117Y-126077829D01*
X73043330Y-126063579D01*
X73063847Y-126051282D01*
X73085471Y-126041054D01*
X73107993Y-126032996D01*
X73131197Y-126027184D01*
X73154858Y-126023674D01*
X73178750Y-126022500D01*
X74091250Y-126022500D01*
X74115142Y-126023674D01*
X74115142Y-126023674D01*
G37*
D28*
X73635000Y-126510000D03*
D27*
G36*
X89865142Y-122398674D02*
X89888803Y-122402184D01*
X89912007Y-122407996D01*
X89934529Y-122416054D01*
X89956153Y-122426282D01*
X89976670Y-122438579D01*
X89995883Y-122452829D01*
X90013607Y-122468893D01*
X90029671Y-122486617D01*
X90043921Y-122505830D01*
X90056218Y-122526347D01*
X90066446Y-122547971D01*
X90074504Y-122570493D01*
X90080316Y-122593697D01*
X90083826Y-122617358D01*
X90085000Y-122641250D01*
X90085000Y-123128750D01*
X90083826Y-123152642D01*
X90080316Y-123176303D01*
X90074504Y-123199507D01*
X90066446Y-123222029D01*
X90056218Y-123243653D01*
X90043921Y-123264170D01*
X90029671Y-123283383D01*
X90013607Y-123301107D01*
X89995883Y-123317171D01*
X89976670Y-123331421D01*
X89956153Y-123343718D01*
X89934529Y-123353946D01*
X89912007Y-123362004D01*
X89888803Y-123367816D01*
X89865142Y-123371326D01*
X89841250Y-123372500D01*
X88928750Y-123372500D01*
X88904858Y-123371326D01*
X88881197Y-123367816D01*
X88857993Y-123362004D01*
X88835471Y-123353946D01*
X88813847Y-123343718D01*
X88793330Y-123331421D01*
X88774117Y-123317171D01*
X88756393Y-123301107D01*
X88740329Y-123283383D01*
X88726079Y-123264170D01*
X88713782Y-123243653D01*
X88703554Y-123222029D01*
X88695496Y-123199507D01*
X88689684Y-123176303D01*
X88686174Y-123152642D01*
X88685000Y-123128750D01*
X88685000Y-122641250D01*
X88686174Y-122617358D01*
X88689684Y-122593697D01*
X88695496Y-122570493D01*
X88703554Y-122547971D01*
X88713782Y-122526347D01*
X88726079Y-122505830D01*
X88740329Y-122486617D01*
X88756393Y-122468893D01*
X88774117Y-122452829D01*
X88793330Y-122438579D01*
X88813847Y-122426282D01*
X88835471Y-122416054D01*
X88857993Y-122407996D01*
X88881197Y-122402184D01*
X88904858Y-122398674D01*
X88928750Y-122397500D01*
X89841250Y-122397500D01*
X89865142Y-122398674D01*
X89865142Y-122398674D01*
G37*
D28*
X89385000Y-122885000D03*
D27*
G36*
X89865142Y-124273674D02*
X89888803Y-124277184D01*
X89912007Y-124282996D01*
X89934529Y-124291054D01*
X89956153Y-124301282D01*
X89976670Y-124313579D01*
X89995883Y-124327829D01*
X90013607Y-124343893D01*
X90029671Y-124361617D01*
X90043921Y-124380830D01*
X90056218Y-124401347D01*
X90066446Y-124422971D01*
X90074504Y-124445493D01*
X90080316Y-124468697D01*
X90083826Y-124492358D01*
X90085000Y-124516250D01*
X90085000Y-125003750D01*
X90083826Y-125027642D01*
X90080316Y-125051303D01*
X90074504Y-125074507D01*
X90066446Y-125097029D01*
X90056218Y-125118653D01*
X90043921Y-125139170D01*
X90029671Y-125158383D01*
X90013607Y-125176107D01*
X89995883Y-125192171D01*
X89976670Y-125206421D01*
X89956153Y-125218718D01*
X89934529Y-125228946D01*
X89912007Y-125237004D01*
X89888803Y-125242816D01*
X89865142Y-125246326D01*
X89841250Y-125247500D01*
X88928750Y-125247500D01*
X88904858Y-125246326D01*
X88881197Y-125242816D01*
X88857993Y-125237004D01*
X88835471Y-125228946D01*
X88813847Y-125218718D01*
X88793330Y-125206421D01*
X88774117Y-125192171D01*
X88756393Y-125176107D01*
X88740329Y-125158383D01*
X88726079Y-125139170D01*
X88713782Y-125118653D01*
X88703554Y-125097029D01*
X88695496Y-125074507D01*
X88689684Y-125051303D01*
X88686174Y-125027642D01*
X88685000Y-125003750D01*
X88685000Y-124516250D01*
X88686174Y-124492358D01*
X88689684Y-124468697D01*
X88695496Y-124445493D01*
X88703554Y-124422971D01*
X88713782Y-124401347D01*
X88726079Y-124380830D01*
X88740329Y-124361617D01*
X88756393Y-124343893D01*
X88774117Y-124327829D01*
X88793330Y-124313579D01*
X88813847Y-124301282D01*
X88835471Y-124291054D01*
X88857993Y-124282996D01*
X88881197Y-124277184D01*
X88904858Y-124273674D01*
X88928750Y-124272500D01*
X89841250Y-124272500D01*
X89865142Y-124273674D01*
X89865142Y-124273674D01*
G37*
D28*
X89385000Y-124760000D03*
D27*
G36*
X87365142Y-124211174D02*
X87388803Y-124214684D01*
X87412007Y-124220496D01*
X87434529Y-124228554D01*
X87456153Y-124238782D01*
X87476670Y-124251079D01*
X87495883Y-124265329D01*
X87513607Y-124281393D01*
X87529671Y-124299117D01*
X87543921Y-124318330D01*
X87556218Y-124338847D01*
X87566446Y-124360471D01*
X87574504Y-124382993D01*
X87580316Y-124406197D01*
X87583826Y-124429858D01*
X87585000Y-124453750D01*
X87585000Y-124941250D01*
X87583826Y-124965142D01*
X87580316Y-124988803D01*
X87574504Y-125012007D01*
X87566446Y-125034529D01*
X87556218Y-125056153D01*
X87543921Y-125076670D01*
X87529671Y-125095883D01*
X87513607Y-125113607D01*
X87495883Y-125129671D01*
X87476670Y-125143921D01*
X87456153Y-125156218D01*
X87434529Y-125166446D01*
X87412007Y-125174504D01*
X87388803Y-125180316D01*
X87365142Y-125183826D01*
X87341250Y-125185000D01*
X86428750Y-125185000D01*
X86404858Y-125183826D01*
X86381197Y-125180316D01*
X86357993Y-125174504D01*
X86335471Y-125166446D01*
X86313847Y-125156218D01*
X86293330Y-125143921D01*
X86274117Y-125129671D01*
X86256393Y-125113607D01*
X86240329Y-125095883D01*
X86226079Y-125076670D01*
X86213782Y-125056153D01*
X86203554Y-125034529D01*
X86195496Y-125012007D01*
X86189684Y-124988803D01*
X86186174Y-124965142D01*
X86185000Y-124941250D01*
X86185000Y-124453750D01*
X86186174Y-124429858D01*
X86189684Y-124406197D01*
X86195496Y-124382993D01*
X86203554Y-124360471D01*
X86213782Y-124338847D01*
X86226079Y-124318330D01*
X86240329Y-124299117D01*
X86256393Y-124281393D01*
X86274117Y-124265329D01*
X86293330Y-124251079D01*
X86313847Y-124238782D01*
X86335471Y-124228554D01*
X86357993Y-124220496D01*
X86381197Y-124214684D01*
X86404858Y-124211174D01*
X86428750Y-124210000D01*
X87341250Y-124210000D01*
X87365142Y-124211174D01*
X87365142Y-124211174D01*
G37*
D28*
X86885000Y-124697500D03*
D27*
G36*
X87365142Y-122336174D02*
X87388803Y-122339684D01*
X87412007Y-122345496D01*
X87434529Y-122353554D01*
X87456153Y-122363782D01*
X87476670Y-122376079D01*
X87495883Y-122390329D01*
X87513607Y-122406393D01*
X87529671Y-122424117D01*
X87543921Y-122443330D01*
X87556218Y-122463847D01*
X87566446Y-122485471D01*
X87574504Y-122507993D01*
X87580316Y-122531197D01*
X87583826Y-122554858D01*
X87585000Y-122578750D01*
X87585000Y-123066250D01*
X87583826Y-123090142D01*
X87580316Y-123113803D01*
X87574504Y-123137007D01*
X87566446Y-123159529D01*
X87556218Y-123181153D01*
X87543921Y-123201670D01*
X87529671Y-123220883D01*
X87513607Y-123238607D01*
X87495883Y-123254671D01*
X87476670Y-123268921D01*
X87456153Y-123281218D01*
X87434529Y-123291446D01*
X87412007Y-123299504D01*
X87388803Y-123305316D01*
X87365142Y-123308826D01*
X87341250Y-123310000D01*
X86428750Y-123310000D01*
X86404858Y-123308826D01*
X86381197Y-123305316D01*
X86357993Y-123299504D01*
X86335471Y-123291446D01*
X86313847Y-123281218D01*
X86293330Y-123268921D01*
X86274117Y-123254671D01*
X86256393Y-123238607D01*
X86240329Y-123220883D01*
X86226079Y-123201670D01*
X86213782Y-123181153D01*
X86203554Y-123159529D01*
X86195496Y-123137007D01*
X86189684Y-123113803D01*
X86186174Y-123090142D01*
X86185000Y-123066250D01*
X86185000Y-122578750D01*
X86186174Y-122554858D01*
X86189684Y-122531197D01*
X86195496Y-122507993D01*
X86203554Y-122485471D01*
X86213782Y-122463847D01*
X86226079Y-122443330D01*
X86240329Y-122424117D01*
X86256393Y-122406393D01*
X86274117Y-122390329D01*
X86293330Y-122376079D01*
X86313847Y-122363782D01*
X86335471Y-122353554D01*
X86357993Y-122345496D01*
X86381197Y-122339684D01*
X86404858Y-122336174D01*
X86428750Y-122335000D01*
X87341250Y-122335000D01*
X87365142Y-122336174D01*
X87365142Y-122336174D01*
G37*
D28*
X86885000Y-122822500D03*
D27*
G36*
X58590142Y-135311174D02*
X58613803Y-135314684D01*
X58637007Y-135320496D01*
X58659529Y-135328554D01*
X58681153Y-135338782D01*
X58701670Y-135351079D01*
X58720883Y-135365329D01*
X58738607Y-135381393D01*
X58754671Y-135399117D01*
X58768921Y-135418330D01*
X58781218Y-135438847D01*
X58791446Y-135460471D01*
X58799504Y-135482993D01*
X58805316Y-135506197D01*
X58808826Y-135529858D01*
X58810000Y-135553750D01*
X58810000Y-136466250D01*
X58808826Y-136490142D01*
X58805316Y-136513803D01*
X58799504Y-136537007D01*
X58791446Y-136559529D01*
X58781218Y-136581153D01*
X58768921Y-136601670D01*
X58754671Y-136620883D01*
X58738607Y-136638607D01*
X58720883Y-136654671D01*
X58701670Y-136668921D01*
X58681153Y-136681218D01*
X58659529Y-136691446D01*
X58637007Y-136699504D01*
X58613803Y-136705316D01*
X58590142Y-136708826D01*
X58566250Y-136710000D01*
X58078750Y-136710000D01*
X58054858Y-136708826D01*
X58031197Y-136705316D01*
X58007993Y-136699504D01*
X57985471Y-136691446D01*
X57963847Y-136681218D01*
X57943330Y-136668921D01*
X57924117Y-136654671D01*
X57906393Y-136638607D01*
X57890329Y-136620883D01*
X57876079Y-136601670D01*
X57863782Y-136581153D01*
X57853554Y-136559529D01*
X57845496Y-136537007D01*
X57839684Y-136513803D01*
X57836174Y-136490142D01*
X57835000Y-136466250D01*
X57835000Y-135553750D01*
X57836174Y-135529858D01*
X57839684Y-135506197D01*
X57845496Y-135482993D01*
X57853554Y-135460471D01*
X57863782Y-135438847D01*
X57876079Y-135418330D01*
X57890329Y-135399117D01*
X57906393Y-135381393D01*
X57924117Y-135365329D01*
X57943330Y-135351079D01*
X57963847Y-135338782D01*
X57985471Y-135328554D01*
X58007993Y-135320496D01*
X58031197Y-135314684D01*
X58054858Y-135311174D01*
X58078750Y-135310000D01*
X58566250Y-135310000D01*
X58590142Y-135311174D01*
X58590142Y-135311174D01*
G37*
D28*
X58322500Y-136010000D03*
D27*
G36*
X56715142Y-135311174D02*
X56738803Y-135314684D01*
X56762007Y-135320496D01*
X56784529Y-135328554D01*
X56806153Y-135338782D01*
X56826670Y-135351079D01*
X56845883Y-135365329D01*
X56863607Y-135381393D01*
X56879671Y-135399117D01*
X56893921Y-135418330D01*
X56906218Y-135438847D01*
X56916446Y-135460471D01*
X56924504Y-135482993D01*
X56930316Y-135506197D01*
X56933826Y-135529858D01*
X56935000Y-135553750D01*
X56935000Y-136466250D01*
X56933826Y-136490142D01*
X56930316Y-136513803D01*
X56924504Y-136537007D01*
X56916446Y-136559529D01*
X56906218Y-136581153D01*
X56893921Y-136601670D01*
X56879671Y-136620883D01*
X56863607Y-136638607D01*
X56845883Y-136654671D01*
X56826670Y-136668921D01*
X56806153Y-136681218D01*
X56784529Y-136691446D01*
X56762007Y-136699504D01*
X56738803Y-136705316D01*
X56715142Y-136708826D01*
X56691250Y-136710000D01*
X56203750Y-136710000D01*
X56179858Y-136708826D01*
X56156197Y-136705316D01*
X56132993Y-136699504D01*
X56110471Y-136691446D01*
X56088847Y-136681218D01*
X56068330Y-136668921D01*
X56049117Y-136654671D01*
X56031393Y-136638607D01*
X56015329Y-136620883D01*
X56001079Y-136601670D01*
X55988782Y-136581153D01*
X55978554Y-136559529D01*
X55970496Y-136537007D01*
X55964684Y-136513803D01*
X55961174Y-136490142D01*
X55960000Y-136466250D01*
X55960000Y-135553750D01*
X55961174Y-135529858D01*
X55964684Y-135506197D01*
X55970496Y-135482993D01*
X55978554Y-135460471D01*
X55988782Y-135438847D01*
X56001079Y-135418330D01*
X56015329Y-135399117D01*
X56031393Y-135381393D01*
X56049117Y-135365329D01*
X56068330Y-135351079D01*
X56088847Y-135338782D01*
X56110471Y-135328554D01*
X56132993Y-135320496D01*
X56156197Y-135314684D01*
X56179858Y-135311174D01*
X56203750Y-135310000D01*
X56691250Y-135310000D01*
X56715142Y-135311174D01*
X56715142Y-135311174D01*
G37*
D28*
X56447500Y-136010000D03*
D29*
X81135000Y-62194308D03*
X72885000Y-145010000D03*
X56885000Y-57260000D03*
X73135000Y-60010000D03*
D14*
X65885000Y-143760000D03*
X65885000Y-135660000D03*
D15*
X61185000Y-141460000D03*
D16*
X70585000Y-141460000D03*
M02*
