%TF.GenerationSoftware,KiCad,Pcbnew,(5.0.0)*%
%TF.CreationDate,2018-12-09T22:39:23+01:00*%
%TF.ProjectId,formant_vco,666F726D616E745F76636F2E6B696361,rev?*%
%TF.SameCoordinates,Original*%
%TF.FileFunction,Copper,L2,Bot,Signal*%
%TF.FilePolarity,Positive*%
%FSLAX46Y46*%
G04 Gerber Fmt 4.6, Leading zero omitted, Abs format (unit mm)*
G04 Created by KiCad (PCBNEW (5.0.0)) date 12/09/18 22:39:23*
%MOMM*%
%LPD*%
G01*
G04 APERTURE LIST*
%ADD10C,0.100000*%
%ADD11R,1.727200X1.727200*%
%ADD12O,1.727200X1.727200*%
%ADD13C,1.620000*%
%ADD14O,3.000000X1.000000*%
%ADD15O,1.500000X3.000000*%
%ADD16O,1.500000X2.100000*%
%ADD17C,2.000000*%
%ADD18R,1.700000X1.700000*%
%ADD19O,1.700000X1.700000*%
%ADD20R,1.800000X1.800000*%
%ADD21C,1.800000*%
%ADD22C,1.400000*%
%ADD23C,0.600000*%
%ADD24C,0.400000*%
%ADD25C,0.254000*%
G04 APERTURE END LIST*
D10*
X55000000Y-155000000D02*
X95000000Y-155000000D01*
X95000000Y-55000000D02*
X95000000Y-155000000D01*
X55000000Y-55000000D02*
X95000000Y-55000000D01*
X55000000Y-155000000D02*
X55000000Y-55000000D01*
X57551666Y-175260000D02*
G75*
G03X57551666Y-175260000I-1666666J0D01*
G01*
X53385000Y-175260000D02*
X58385000Y-175260000D01*
X55885000Y-172760000D02*
X55885000Y-177760000D01*
D11*
X91135000Y-149010000D03*
D12*
X88595000Y-149010000D03*
X91135000Y-146470000D03*
X88595000Y-146470000D03*
X91135000Y-143930000D03*
X88595000Y-143930000D03*
X91135000Y-141390000D03*
X88595000Y-141390000D03*
X91135000Y-138850000D03*
X88595000Y-138850000D03*
X91135000Y-136310000D03*
X88595000Y-136310000D03*
X91135000Y-133770000D03*
X88595000Y-133770000D03*
X91135000Y-131230000D03*
X88595000Y-131230000D03*
D13*
X74635000Y-119010000D03*
X79635000Y-116510000D03*
X74635000Y-114010000D03*
X58135000Y-95010000D03*
X63135000Y-92510000D03*
X58135000Y-90010000D03*
D14*
X86635000Y-104760000D03*
X86635000Y-96660000D03*
D15*
X81935000Y-102460000D03*
D16*
X91335000Y-102460000D03*
D17*
X63385000Y-120510000D03*
X65885000Y-120510000D03*
X68385000Y-120510000D03*
X70685000Y-113010000D03*
X61085000Y-113010000D03*
D18*
X83885000Y-63460000D03*
D19*
X83885000Y-60920000D03*
D18*
X90260000Y-63510000D03*
D19*
X90260000Y-60970000D03*
D20*
X67885000Y-149510000D03*
D21*
X70425000Y-149510000D03*
D20*
X61385000Y-149510000D03*
D21*
X63925000Y-149510000D03*
D17*
X84385000Y-87510000D03*
X86885000Y-87510000D03*
X89385000Y-87510000D03*
X91685000Y-80010000D03*
X82085000Y-80010000D03*
X63385000Y-87510000D03*
X65885000Y-87510000D03*
X68385000Y-87510000D03*
X70685000Y-80010000D03*
X61085000Y-80010000D03*
X84135000Y-120760000D03*
X86635000Y-120760000D03*
X89135000Y-120760000D03*
X91435000Y-113260000D03*
X81835000Y-113260000D03*
D14*
X65885000Y-64760000D03*
X65885000Y-56660000D03*
D15*
X61185000Y-62460000D03*
D16*
X70585000Y-62460000D03*
D14*
X65885000Y-104760000D03*
X65885000Y-96660000D03*
D15*
X61185000Y-102460000D03*
D16*
X70585000Y-102460000D03*
D13*
X83635000Y-146760000D03*
X81135000Y-151760000D03*
X78635000Y-146760000D03*
X74385000Y-90010000D03*
X79385000Y-87510000D03*
X74385000Y-85010000D03*
X79385000Y-98510000D03*
X76885000Y-103510000D03*
X74385000Y-98510000D03*
D22*
X81135000Y-62194308D03*
X72885000Y-145010000D03*
X56885000Y-57260000D03*
X73135000Y-60010000D03*
D14*
X65885000Y-143760000D03*
X65885000Y-135660000D03*
D15*
X61185000Y-141460000D03*
D16*
X70585000Y-141460000D03*
D23*
X92085000Y-71960000D03*
X83385000Y-68260000D03*
X76135000Y-59260000D03*
X66385000Y-128760000D03*
X76635000Y-107260000D03*
X72635000Y-121010000D03*
X78635002Y-120010000D03*
X57335050Y-127250012D03*
X81635000Y-126760000D03*
X81376042Y-75257014D03*
X59135000Y-136010000D03*
X71885000Y-152260000D03*
X70672805Y-133057967D03*
X69835010Y-134596777D03*
X60835010Y-127760000D03*
X74385000Y-67509996D03*
X72885000Y-89760000D03*
X73100427Y-85266914D03*
X73635000Y-73260000D03*
X72476564Y-76897612D03*
X72310346Y-80191322D03*
X70435000Y-146260000D03*
X71885000Y-147260000D03*
X86885000Y-139550000D03*
X86885000Y-138150000D03*
X59885000Y-119510000D03*
X75393958Y-128007014D03*
X67060990Y-126809998D03*
X69293610Y-126388139D03*
X63948386Y-126121290D03*
X61861870Y-124910022D03*
X83635000Y-124510000D03*
X80135000Y-113010000D03*
X80135010Y-114760000D03*
X81709425Y-119799925D03*
X84635000Y-111260000D03*
X87291906Y-109294474D03*
X93647017Y-124106141D03*
X93655682Y-131480682D03*
X93635000Y-133510000D03*
X74885000Y-148670001D03*
X74885000Y-147270001D03*
X93635000Y-120010000D03*
X86930969Y-77033557D03*
X87932742Y-78057750D03*
X92385000Y-81760000D03*
X92385001Y-88608775D03*
X92885000Y-90260000D03*
X91885000Y-72760000D03*
X86635000Y-73260000D03*
X93849974Y-119010000D03*
X80385001Y-73260000D03*
X92885000Y-122260000D03*
X92897941Y-124387010D03*
X92880682Y-132255682D03*
X92885000Y-134260000D03*
X92930090Y-145555090D03*
X93670040Y-146795040D03*
X55885000Y-149010000D03*
X56635000Y-147510000D03*
X56885000Y-137760000D03*
X58385000Y-137260000D03*
X69635000Y-76760000D03*
X69385000Y-78160011D03*
X71635000Y-66760000D03*
X70583346Y-68844769D03*
X71634994Y-66760000D03*
X66919456Y-74960000D03*
X70335000Y-74260000D03*
X80416900Y-80334694D03*
X82135000Y-75510000D03*
X83900022Y-75260759D03*
X87385000Y-76260000D03*
X86018063Y-77169032D03*
X76319304Y-80194308D03*
X85385000Y-79510023D03*
X82135000Y-77760000D03*
X76385000Y-84259994D03*
X75635000Y-92510000D03*
X76385000Y-99510000D03*
X75635000Y-96510000D03*
X82484989Y-107010000D03*
X83885000Y-107010000D03*
X72385000Y-132010000D03*
X71403945Y-134528945D03*
X71385000Y-139510000D03*
X72785012Y-139542098D03*
X74635000Y-128260000D03*
X73329940Y-127210010D03*
X70385000Y-130510000D03*
X68791511Y-130410011D03*
X70885000Y-127460010D03*
X72385000Y-127210010D03*
X86635000Y-126260000D03*
X84885000Y-126510000D03*
X83385000Y-123260000D03*
X78213696Y-123239470D03*
X76536703Y-123562416D03*
X73385000Y-123510000D03*
X71384978Y-123260000D03*
X81719304Y-123244308D03*
X55885000Y-138760000D03*
X69385000Y-107760000D03*
X67985677Y-108127070D03*
X77385000Y-68010000D03*
X55635000Y-123810013D03*
X70984988Y-150987857D03*
X72754982Y-150140018D03*
X74435003Y-73260000D03*
X73191958Y-77255705D03*
X73069304Y-80444308D03*
X75725981Y-70117760D03*
X75774344Y-68717749D03*
X76296020Y-79394635D03*
X78825226Y-79994298D03*
X69132245Y-121948294D03*
X68500500Y-123946725D03*
X72885000Y-118509998D03*
X71484988Y-118473972D03*
X63385000Y-129760000D03*
X63385000Y-132510000D03*
X65255070Y-122832547D03*
X65317379Y-124309907D03*
X78635000Y-107260000D03*
X78635000Y-103760000D03*
X77190591Y-92243967D03*
X75626042Y-99762987D03*
X79319304Y-83944308D03*
X72634996Y-130760000D03*
X74135000Y-141510000D03*
X71385000Y-133709987D03*
X70635000Y-138760012D03*
X66546273Y-130421277D03*
X59819304Y-120444308D03*
X65847649Y-127067646D03*
X60835000Y-126944308D03*
X61019291Y-124944308D03*
X81875000Y-142959998D03*
X78885000Y-142959980D03*
X83885000Y-134759977D03*
X83885000Y-136760000D03*
X79223694Y-137518009D03*
X74885000Y-137260000D03*
X76385000Y-74010000D03*
X75885002Y-104510000D03*
X76334994Y-68013147D03*
X76435006Y-92506855D03*
X81135000Y-124010000D03*
X83185000Y-137760000D03*
X84385000Y-134010000D03*
X84628620Y-128959685D03*
X80157240Y-128876151D03*
X80634994Y-120010000D03*
X78586990Y-117296007D03*
X78385000Y-115760000D03*
X81885000Y-142010000D03*
X80234988Y-142260086D03*
X77069304Y-83694308D03*
X73601845Y-105793154D03*
X69833990Y-108508405D03*
X67285677Y-108781038D03*
X56765025Y-122640025D03*
X57419724Y-124248193D03*
X68435000Y-143010000D03*
X66384855Y-136660010D03*
X63585001Y-136622771D03*
X72020849Y-143232727D03*
X70635000Y-73510000D03*
X67635000Y-74260000D03*
X55635000Y-123010000D03*
X56662312Y-124505740D03*
X62684969Y-135760008D03*
X67997500Y-69260000D03*
X70385000Y-70760000D03*
X79085396Y-79049569D03*
X75697467Y-78673272D03*
X86885006Y-108510000D03*
X85872010Y-109522981D03*
D24*
X92185000Y-71860000D02*
X92085000Y-71960000D01*
X72885000Y-85482341D02*
X73100427Y-85266914D01*
X72885000Y-89760000D02*
X72885000Y-85482341D01*
X73635000Y-68259996D02*
X74135000Y-67759996D01*
X73635000Y-73260000D02*
X73635000Y-68259996D01*
X73885000Y-68009996D02*
X74135000Y-67759996D01*
X74135000Y-67759996D02*
X74385000Y-67509996D01*
X72476564Y-76897612D02*
X72476564Y-80025104D01*
X72476564Y-80025104D02*
X72310346Y-80191322D01*
X70435000Y-146260000D02*
X70885000Y-146260000D01*
X70885000Y-146260000D02*
X71885000Y-147260000D01*
X86885000Y-139550000D02*
X86885000Y-138150000D01*
X75093959Y-127707015D02*
X75393958Y-128007014D01*
X73475084Y-126088140D02*
X75093959Y-127707015D01*
X69593609Y-126088140D02*
X73475084Y-126088140D01*
X69293610Y-126388139D02*
X69593609Y-126088140D01*
X66372282Y-126121290D02*
X64372650Y-126121290D01*
X64372650Y-126121290D02*
X63948386Y-126121290D01*
X67060990Y-126809998D02*
X66372282Y-126121290D01*
X59885000Y-119510000D02*
X61861870Y-121486870D01*
X61861870Y-121486870D02*
X61861870Y-124485758D01*
X61861870Y-124485758D02*
X61861870Y-124910022D01*
X80135000Y-113010000D02*
X80135000Y-114759990D01*
X80135000Y-114759990D02*
X80135010Y-114760000D01*
X84085001Y-124059999D02*
X84085001Y-122923999D01*
X82009424Y-120848422D02*
X82009424Y-120099924D01*
X84085001Y-122923999D02*
X82009424Y-120848422D01*
X82009424Y-120099924D02*
X81709425Y-119799925D01*
X83635000Y-124510000D02*
X84085001Y-124059999D01*
X85326380Y-111260000D02*
X86991907Y-109594473D01*
X84635000Y-111260000D02*
X85326380Y-111260000D01*
X86991907Y-109594473D02*
X87291906Y-109294474D01*
X93655682Y-131480682D02*
X93655682Y-133489318D01*
X93655682Y-133489318D02*
X93635000Y-133510000D01*
X74885000Y-148670001D02*
X74885000Y-147270001D01*
X93647017Y-124106141D02*
X93647017Y-120022017D01*
X93647017Y-120022017D02*
X93635000Y-120010000D01*
X86930969Y-77033557D02*
X87932742Y-78035330D01*
X87932742Y-78035330D02*
X87932742Y-78057750D01*
X93135000Y-81010000D02*
X92385000Y-81760000D01*
X93135000Y-74010000D02*
X93135000Y-81010000D01*
X92635000Y-73510000D02*
X93135000Y-74010000D01*
X92385001Y-88608775D02*
X92385001Y-89760001D01*
X92385001Y-89760001D02*
X92885000Y-90260000D01*
X92635000Y-73510000D02*
X91885000Y-72760000D01*
X86635000Y-73260000D02*
X80385001Y-73260000D01*
X71324999Y-148610001D02*
X72260967Y-148610001D01*
X77610967Y-153960001D02*
X93434999Y-153960001D01*
X93434999Y-153960001D02*
X94385000Y-153010000D01*
X94385000Y-153010000D02*
X94385000Y-119545026D01*
X94149973Y-119309999D02*
X93849974Y-119010000D01*
X94385000Y-119545026D02*
X94149973Y-119309999D01*
X70425000Y-149510000D02*
X71324999Y-148610001D01*
X72260967Y-148610001D02*
X77610967Y-153960001D01*
X92885000Y-124374069D02*
X92897941Y-124387010D01*
X92885000Y-124260000D02*
X92885000Y-124374069D01*
X92885000Y-122260000D02*
X92897941Y-124387010D01*
X92880682Y-132255682D02*
X92880682Y-134005682D01*
X92930090Y-145555090D02*
X92930090Y-146055090D01*
X92930090Y-146055090D02*
X93670040Y-146795040D01*
X55885000Y-149010000D02*
X55885000Y-148260000D01*
X55885000Y-148260000D02*
X56635000Y-147510000D01*
X56885000Y-137760000D02*
X57885000Y-137760000D01*
X57885000Y-137760000D02*
X58385000Y-137260000D01*
X69635000Y-76760000D02*
X69635000Y-77910011D01*
X69635000Y-77910011D02*
X69385000Y-78160011D01*
X71635000Y-66760000D02*
X70583346Y-67811654D01*
X71635000Y-66760000D02*
X71634994Y-66760000D01*
X70583346Y-68420505D02*
X70583346Y-68844769D01*
X70583346Y-67811654D02*
X70583346Y-68420505D01*
X66919456Y-74960000D02*
X69635000Y-74960000D01*
X69635000Y-74960000D02*
X70335000Y-74260000D01*
X82384241Y-75260759D02*
X82135000Y-75510000D01*
X83900022Y-75260759D02*
X82384241Y-75260759D01*
X86018063Y-77169032D02*
X86018063Y-76744768D01*
X86502831Y-76260000D02*
X86960736Y-76260000D01*
X86018063Y-76744768D02*
X86502831Y-76260000D01*
X86960736Y-76260000D02*
X87385000Y-76260000D01*
X76619303Y-80494307D02*
X76319304Y-80194308D01*
X80416900Y-80334694D02*
X80057286Y-80694308D01*
X80057286Y-80694308D02*
X76819304Y-80694308D01*
X76819304Y-80694308D02*
X76619303Y-80494307D01*
X82559264Y-77760000D02*
X82135000Y-77760000D01*
X83634977Y-77760000D02*
X82559264Y-77760000D01*
X85385000Y-79510023D02*
X83634977Y-77760000D01*
X76385000Y-84259994D02*
X75635000Y-85009994D01*
X75635000Y-85009994D02*
X75635000Y-92085736D01*
X75635000Y-92085736D02*
X75635000Y-92510000D01*
X76385000Y-99510000D02*
X75635000Y-98760000D01*
X75635000Y-98760000D02*
X75635000Y-96934264D01*
X75635000Y-96934264D02*
X75635000Y-96510000D01*
X83885000Y-107010000D02*
X83460736Y-107010000D01*
X83460736Y-107010000D02*
X82484989Y-107010000D01*
X72385000Y-132010000D02*
X72385000Y-133972154D01*
X72385000Y-133972154D02*
X71828209Y-134528945D01*
X71828209Y-134528945D02*
X71403945Y-134528945D01*
X72785012Y-139542098D02*
X71417098Y-139542098D01*
X71417098Y-139542098D02*
X71385000Y-139510000D01*
X73585010Y-127210010D02*
X73329940Y-127210010D01*
X74635000Y-128260000D02*
X73585010Y-127210010D01*
X68891500Y-130510000D02*
X68791511Y-130410011D01*
X70385000Y-130510000D02*
X68891500Y-130510000D01*
X72135000Y-127460010D02*
X72385000Y-127210010D01*
X70885000Y-127460010D02*
X72135000Y-127460010D01*
X86635000Y-126260000D02*
X85135000Y-126260000D01*
X85135000Y-126260000D02*
X84885000Y-126510000D01*
X77890750Y-123562416D02*
X78213696Y-123239470D01*
X76536703Y-123562416D02*
X77890750Y-123562416D01*
X71634978Y-123510000D02*
X71384978Y-123260000D01*
X71405530Y-123239470D02*
X71385000Y-123260000D01*
X71385000Y-123260000D02*
X71384978Y-123260000D01*
X73385000Y-123510000D02*
X71634978Y-123510000D01*
X81734996Y-123260000D02*
X81719304Y-123244308D01*
X83385000Y-123260000D02*
X81734996Y-123260000D01*
X69385000Y-107760000D02*
X69017930Y-108127070D01*
X69017930Y-108127070D02*
X68409941Y-108127070D01*
X68409941Y-108127070D02*
X67985677Y-108127070D01*
X75704218Y-67266518D02*
X76641518Y-67266518D01*
X75085003Y-67885733D02*
X75704218Y-67266518D01*
X77085001Y-67710001D02*
X77385000Y-68010000D01*
X75085003Y-68596002D02*
X75085003Y-67885733D01*
X74855996Y-68825009D02*
X75085003Y-68596002D01*
X76641518Y-67266518D02*
X77085001Y-67710001D01*
X55885000Y-138760000D02*
X55885000Y-124060013D01*
X55885000Y-124060013D02*
X55635000Y-123810013D01*
X71907143Y-150987857D02*
X72454983Y-150440017D01*
X72454983Y-150440017D02*
X72754982Y-150140018D01*
X70984988Y-150987857D02*
X71907143Y-150987857D01*
X74855996Y-72839007D02*
X74855996Y-68825009D01*
X74435003Y-73260000D02*
X74855996Y-72839007D01*
X73191958Y-77255705D02*
X73191958Y-80321654D01*
X73191958Y-80321654D02*
X73069304Y-80444308D01*
X75774344Y-68717749D02*
X75774344Y-70069397D01*
X75774344Y-70069397D02*
X75725981Y-70117760D01*
X76296020Y-79394635D02*
X78225563Y-79394635D01*
X78225563Y-79394635D02*
X78525227Y-79694299D01*
X78525227Y-79694299D02*
X78825226Y-79994298D01*
X69132245Y-121948294D02*
X69132245Y-123314980D01*
X68800499Y-123646726D02*
X68500500Y-123946725D01*
X69132245Y-123314980D02*
X68800499Y-123646726D01*
X71484988Y-118473972D02*
X72848974Y-118473972D01*
X72848974Y-118473972D02*
X72885000Y-118509998D01*
X63385000Y-129760000D02*
X63385000Y-132510000D01*
X65255070Y-124247598D02*
X65317379Y-124309907D01*
X65255070Y-122832547D02*
X65255070Y-124247598D01*
X78635000Y-107260000D02*
X78635000Y-103760000D01*
X74385000Y-98510000D02*
X75626042Y-99751042D01*
X75626042Y-99751042D02*
X75626042Y-99762987D01*
X77190591Y-92243967D02*
X77190591Y-86323021D01*
X79019305Y-84494307D02*
X79019305Y-84244307D01*
X77190591Y-86323021D02*
X79019305Y-84494307D01*
X79019305Y-84244307D02*
X79319304Y-83944308D01*
X71385000Y-132009996D02*
X71385000Y-133285723D01*
X72634996Y-130760000D02*
X71385000Y-132009996D01*
X71385000Y-133285723D02*
X71385000Y-133709987D01*
X72634996Y-130760000D02*
X71584997Y-129710001D01*
X71584997Y-129710001D02*
X68340745Y-129710001D01*
X74135000Y-139856084D02*
X73038928Y-138760012D01*
X73038928Y-138760012D02*
X71059264Y-138760012D01*
X74135000Y-141510000D02*
X74135000Y-139856084D01*
X71059264Y-138760012D02*
X70635000Y-138760012D01*
X68340745Y-129710001D02*
X67257549Y-129710001D01*
X67257549Y-129710001D02*
X66546273Y-130421277D01*
X60835000Y-126944308D02*
X65724311Y-126944308D01*
X60819304Y-126944308D02*
X60835000Y-126944308D01*
X65724311Y-126944308D02*
X65847649Y-127067646D01*
X61019291Y-121644295D02*
X61019291Y-124520044D01*
X59819304Y-120444308D02*
X61019291Y-121644295D01*
X61019291Y-124520044D02*
X61019291Y-124944308D01*
X84184999Y-136460001D02*
X84184999Y-135059976D01*
X84184999Y-135059976D02*
X83885000Y-134759977D01*
X83885000Y-136760000D02*
X84184999Y-136460001D01*
X79334980Y-142959980D02*
X78885000Y-142959980D01*
X79409989Y-143034989D02*
X79334980Y-142959980D01*
X79434978Y-143010000D02*
X79409989Y-143034989D01*
X81875000Y-142959998D02*
X81824998Y-143010000D01*
X81824998Y-143010000D02*
X79434978Y-143010000D01*
X75143009Y-137518009D02*
X74885000Y-137260000D01*
X79223694Y-137518009D02*
X75143009Y-137518009D01*
X74635000Y-111010000D02*
X74635000Y-114010000D01*
X75635000Y-110010000D02*
X74635000Y-111010000D01*
X75885000Y-104510000D02*
X75635000Y-104760000D01*
X75635000Y-104760000D02*
X75635000Y-110010000D01*
X76385000Y-74010000D02*
X76684999Y-73710001D01*
X76684999Y-68363152D02*
X76634993Y-68313146D01*
X76684999Y-73710001D02*
X76684999Y-68363152D01*
X76634993Y-68313146D02*
X76334994Y-68013147D01*
X84785009Y-134410009D02*
X84385000Y-134010000D01*
X84785009Y-136895993D02*
X84785009Y-134410009D01*
X83185000Y-137760000D02*
X83921002Y-137760000D01*
X83921002Y-137760000D02*
X84785009Y-136895993D01*
X78286991Y-115858009D02*
X78385000Y-115760000D01*
X78586990Y-117296007D02*
X78286991Y-116996008D01*
X78286991Y-116996008D02*
X78286991Y-115858009D01*
X80234988Y-142260086D02*
X81634914Y-142260086D01*
X81634914Y-142260086D02*
X81885000Y-142010000D01*
X77369303Y-83994307D02*
X77069304Y-83694308D01*
X76435006Y-85995998D02*
X77369303Y-85061701D01*
X77369303Y-85061701D02*
X77369303Y-83994307D01*
X76435006Y-92506855D02*
X76435006Y-85995998D01*
X80325397Y-129044308D02*
X80157240Y-128876151D01*
X84628620Y-128959685D02*
X84543997Y-129044308D01*
X84543997Y-129044308D02*
X80325397Y-129044308D01*
X80634994Y-123509994D02*
X80634994Y-120434264D01*
X81135000Y-124010000D02*
X80634994Y-123509994D01*
X80634994Y-120434264D02*
X80634994Y-120010000D01*
X73601845Y-105647643D02*
X73601845Y-105793154D01*
X76885000Y-103510000D02*
X75739488Y-103510000D01*
X75739488Y-103510000D02*
X73601845Y-105647643D01*
X67331710Y-108827071D02*
X67285677Y-108781038D01*
X69833990Y-108508405D02*
X69515324Y-108827071D01*
X69515324Y-108827071D02*
X67331710Y-108827071D01*
X56765025Y-122640025D02*
X57419724Y-123294724D01*
X57419724Y-123294724D02*
X57419724Y-124248193D01*
X64009265Y-136622771D02*
X63585001Y-136622771D01*
X65135000Y-136760000D02*
X64997771Y-136622771D01*
X64997771Y-136622771D02*
X64009265Y-136622771D01*
X66284865Y-136760000D02*
X66384855Y-136660010D01*
X66385000Y-136760000D02*
X66284865Y-136760000D01*
X65349223Y-136622771D02*
X64997771Y-136622771D01*
X66385000Y-136760000D02*
X65486452Y-136760000D01*
X65486452Y-136760000D02*
X65349223Y-136622771D01*
X68435000Y-143010000D02*
X71798122Y-143010000D01*
X71798122Y-143010000D02*
X72020849Y-143232727D01*
X70635000Y-73510000D02*
X69635000Y-73510000D01*
X67885000Y-74010000D02*
X67635000Y-74260000D01*
X69135000Y-74010000D02*
X67885000Y-74010000D01*
X69635000Y-73510000D02*
X69135000Y-74010000D01*
X56059264Y-123010000D02*
X56662312Y-123613048D01*
X55635000Y-123010000D02*
X56059264Y-123010000D01*
X56662312Y-123613048D02*
X56662312Y-124081476D01*
X56662312Y-124081476D02*
X56662312Y-124505740D01*
X62784977Y-135660000D02*
X62684969Y-135760008D01*
X65885000Y-135660000D02*
X62784977Y-135660000D01*
X67997500Y-69260000D02*
X69497500Y-70760000D01*
X69497500Y-70760000D02*
X69960736Y-70760000D01*
X69960736Y-70760000D02*
X70385000Y-70760000D01*
X76121731Y-78673272D02*
X75697467Y-78673272D01*
X78709099Y-78673272D02*
X76121731Y-78673272D01*
X79085396Y-79049569D02*
X78709099Y-78673272D01*
X86884991Y-108510000D02*
X86885006Y-108510000D01*
X85872010Y-109522981D02*
X86884991Y-108510000D01*
D25*
G36*
X94315001Y-118190583D02*
X94035957Y-118075000D01*
X93663991Y-118075000D01*
X93320339Y-118217345D01*
X93057319Y-118480365D01*
X92914974Y-118824017D01*
X92914974Y-119195983D01*
X92976995Y-119345715D01*
X92842345Y-119480365D01*
X92700000Y-119824017D01*
X92700000Y-120195983D01*
X92812018Y-120466419D01*
X92812018Y-121325000D01*
X92699017Y-121325000D01*
X92355365Y-121467345D01*
X92092345Y-121730365D01*
X91950000Y-122074017D01*
X91950000Y-122445983D01*
X92052624Y-122693740D01*
X92060363Y-123965828D01*
X91962941Y-124201027D01*
X91962941Y-124572993D01*
X92105286Y-124916645D01*
X92368306Y-125179665D01*
X92711958Y-125322010D01*
X93083924Y-125322010D01*
X93427576Y-125179665D01*
X93550001Y-125057240D01*
X93550001Y-130545682D01*
X93469699Y-130545682D01*
X93126047Y-130688027D01*
X92863027Y-130951047D01*
X92720682Y-131294699D01*
X92720682Y-131320682D01*
X92694699Y-131320682D01*
X92640452Y-131343152D01*
X92662959Y-131230000D01*
X92546650Y-130645275D01*
X92215430Y-130149570D01*
X91719725Y-129818350D01*
X91282598Y-129731400D01*
X90987402Y-129731400D01*
X90550275Y-129818350D01*
X90054570Y-130149570D01*
X89865000Y-130433281D01*
X89675430Y-130149570D01*
X89179725Y-129818350D01*
X88742598Y-129731400D01*
X88447402Y-129731400D01*
X88010275Y-129818350D01*
X87514570Y-130149570D01*
X87183350Y-130645275D01*
X87067041Y-131230000D01*
X87183350Y-131814725D01*
X87514570Y-132310430D01*
X87798281Y-132500000D01*
X87514570Y-132689570D01*
X87183350Y-133185275D01*
X87067041Y-133770000D01*
X87183350Y-134354725D01*
X87514570Y-134850430D01*
X87798281Y-135040000D01*
X87514570Y-135229570D01*
X87183350Y-135725275D01*
X87067041Y-136310000D01*
X87183350Y-136894725D01*
X87514570Y-137390430D01*
X87798281Y-137580000D01*
X87690708Y-137651878D01*
X87677655Y-137620365D01*
X87414635Y-137357345D01*
X87070983Y-137215000D01*
X86699017Y-137215000D01*
X86355365Y-137357345D01*
X86092345Y-137620365D01*
X85950000Y-137964017D01*
X85950000Y-138335983D01*
X86050001Y-138577407D01*
X86050000Y-139122594D01*
X85950000Y-139364017D01*
X85950000Y-139735983D01*
X86092345Y-140079635D01*
X86355365Y-140342655D01*
X86699017Y-140485000D01*
X87070983Y-140485000D01*
X87414635Y-140342655D01*
X87677655Y-140079635D01*
X87690708Y-140048122D01*
X87802826Y-140123037D01*
X87388179Y-140501510D01*
X87140032Y-141030973D01*
X87260531Y-141263000D01*
X88468000Y-141263000D01*
X88468000Y-141243000D01*
X88722000Y-141243000D01*
X88722000Y-141263000D01*
X91008000Y-141263000D01*
X91008000Y-141243000D01*
X91262000Y-141243000D01*
X91262000Y-141263000D01*
X92469469Y-141263000D01*
X92589968Y-141030973D01*
X92341821Y-140501510D01*
X91927174Y-140123037D01*
X92215430Y-139930430D01*
X92546650Y-139434725D01*
X92662959Y-138850000D01*
X92546650Y-138265275D01*
X92215430Y-137769570D01*
X91931719Y-137580000D01*
X92215430Y-137390430D01*
X92546650Y-136894725D01*
X92662959Y-136310000D01*
X92546650Y-135725275D01*
X92215430Y-135229570D01*
X91931719Y-135040000D01*
X92178090Y-134875380D01*
X92355365Y-135052655D01*
X92699017Y-135195000D01*
X93070983Y-135195000D01*
X93414635Y-135052655D01*
X93550001Y-134917289D01*
X93550000Y-144852710D01*
X93459725Y-144762435D01*
X93116073Y-144620090D01*
X92744107Y-144620090D01*
X92400455Y-144762435D01*
X92137435Y-145025455D01*
X92026374Y-145293582D01*
X91923848Y-145200000D01*
X92341821Y-144818490D01*
X92589968Y-144289027D01*
X92469469Y-144057000D01*
X91262000Y-144057000D01*
X91262000Y-146343000D01*
X91282000Y-146343000D01*
X91282000Y-146597000D01*
X91262000Y-146597000D01*
X91262000Y-146617000D01*
X91008000Y-146617000D01*
X91008000Y-146597000D01*
X88722000Y-146597000D01*
X88722000Y-146617000D01*
X88468000Y-146617000D01*
X88468000Y-146597000D01*
X87260531Y-146597000D01*
X87140032Y-146829027D01*
X87388179Y-147358490D01*
X87802826Y-147736963D01*
X87514570Y-147929570D01*
X87183350Y-148425275D01*
X87067041Y-149010000D01*
X87183350Y-149594725D01*
X87514570Y-150090430D01*
X88010275Y-150421650D01*
X88447402Y-150508600D01*
X88742598Y-150508600D01*
X89179725Y-150421650D01*
X89668068Y-150095349D01*
X89673243Y-150121365D01*
X89813591Y-150331409D01*
X90023635Y-150471757D01*
X90271400Y-150521040D01*
X91998600Y-150521040D01*
X92246365Y-150471757D01*
X92456409Y-150331409D01*
X92596757Y-150121365D01*
X92646040Y-149873600D01*
X92646040Y-148146400D01*
X92596757Y-147898635D01*
X92456409Y-147688591D01*
X92246365Y-147548243D01*
X92154050Y-147529881D01*
X92341821Y-147358490D01*
X92568648Y-146874516D01*
X92777385Y-147083253D01*
X92877385Y-147324675D01*
X93140405Y-147587695D01*
X93484057Y-147730040D01*
X93550000Y-147730040D01*
X93550000Y-152664132D01*
X93089131Y-153125001D01*
X81615563Y-153125001D01*
X81953527Y-152985012D01*
X82360012Y-152578527D01*
X82580000Y-152047428D01*
X82580000Y-151472572D01*
X82360012Y-150941473D01*
X81953527Y-150534988D01*
X81422428Y-150315000D01*
X80847572Y-150315000D01*
X80316473Y-150534988D01*
X79909988Y-150941473D01*
X79690000Y-151472572D01*
X79690000Y-152047428D01*
X79909988Y-152578527D01*
X80316473Y-152985012D01*
X80654437Y-153125001D01*
X77956835Y-153125001D01*
X72909554Y-148077721D01*
X72862968Y-148008000D01*
X72620981Y-147846309D01*
X72677655Y-147789635D01*
X72820000Y-147445983D01*
X72820000Y-147084018D01*
X73950000Y-147084018D01*
X73950000Y-147455984D01*
X74050001Y-147697408D01*
X74050000Y-148242595D01*
X73950000Y-148484018D01*
X73950000Y-148855984D01*
X74092345Y-149199636D01*
X74355365Y-149462656D01*
X74699017Y-149605001D01*
X75070983Y-149605001D01*
X75414635Y-149462656D01*
X75677655Y-149199636D01*
X75820000Y-148855984D01*
X75820000Y-148484018D01*
X75720000Y-148242596D01*
X75720000Y-147774988D01*
X77799617Y-147774988D01*
X77874980Y-148022144D01*
X78415834Y-148216916D01*
X78990055Y-148189886D01*
X79395020Y-148022144D01*
X79470383Y-147774988D01*
X78635000Y-146939605D01*
X77799617Y-147774988D01*
X75720000Y-147774988D01*
X75720000Y-147697406D01*
X75820000Y-147455984D01*
X75820000Y-147084018D01*
X75677655Y-146740366D01*
X75478123Y-146540834D01*
X77178084Y-146540834D01*
X77205114Y-147115055D01*
X77372856Y-147520020D01*
X77620012Y-147595383D01*
X78455395Y-146760000D01*
X78814605Y-146760000D01*
X79649988Y-147595383D01*
X79897144Y-147520020D01*
X80091916Y-146979166D01*
X80068070Y-146472572D01*
X82190000Y-146472572D01*
X82190000Y-147047428D01*
X82409988Y-147578527D01*
X82816473Y-147985012D01*
X83347572Y-148205000D01*
X83922428Y-148205000D01*
X84453527Y-147985012D01*
X84860012Y-147578527D01*
X85080000Y-147047428D01*
X85080000Y-146472572D01*
X84860012Y-145941473D01*
X84453527Y-145534988D01*
X83922428Y-145315000D01*
X83347572Y-145315000D01*
X82816473Y-145534988D01*
X82409988Y-145941473D01*
X82190000Y-146472572D01*
X80068070Y-146472572D01*
X80064886Y-146404945D01*
X79897144Y-145999980D01*
X79649988Y-145924617D01*
X78814605Y-146760000D01*
X78455395Y-146760000D01*
X77620012Y-145924617D01*
X77372856Y-145999980D01*
X77178084Y-146540834D01*
X75478123Y-146540834D01*
X75414635Y-146477346D01*
X75070983Y-146335001D01*
X74699017Y-146335001D01*
X74355365Y-146477346D01*
X74092345Y-146740366D01*
X73950000Y-147084018D01*
X72820000Y-147084018D01*
X72820000Y-147074017D01*
X72677655Y-146730365D01*
X72414635Y-146467345D01*
X72173212Y-146367345D01*
X71533587Y-145727720D01*
X71487001Y-145657999D01*
X71210801Y-145473448D01*
X70967237Y-145425000D01*
X70967233Y-145425000D01*
X70885000Y-145408643D01*
X70843057Y-145416986D01*
X70620983Y-145325000D01*
X70249017Y-145325000D01*
X69905365Y-145467345D01*
X69642345Y-145730365D01*
X69500000Y-146074017D01*
X69500000Y-146445983D01*
X69642345Y-146789635D01*
X69905365Y-147052655D01*
X70249017Y-147195000D01*
X70620983Y-147195000D01*
X70633817Y-147189684D01*
X70992345Y-147548212D01*
X71092345Y-147789635D01*
X71105095Y-147802385D01*
X70999198Y-147823449D01*
X70756292Y-147985754D01*
X70730330Y-147975000D01*
X70119670Y-147975000D01*
X69555493Y-148208690D01*
X69379139Y-148385044D01*
X69323327Y-148250301D01*
X69144698Y-148071673D01*
X68911309Y-147975000D01*
X68170750Y-147975000D01*
X68012000Y-148133750D01*
X68012000Y-149383000D01*
X68032000Y-149383000D01*
X68032000Y-149637000D01*
X68012000Y-149637000D01*
X68012000Y-150886250D01*
X68170750Y-151045000D01*
X68911309Y-151045000D01*
X69144698Y-150948327D01*
X69323327Y-150769699D01*
X69379139Y-150634956D01*
X69555493Y-150811310D01*
X70049988Y-151016137D01*
X70049988Y-151173840D01*
X70192333Y-151517492D01*
X70455353Y-151780512D01*
X70799005Y-151922857D01*
X71170971Y-151922857D01*
X71412393Y-151822857D01*
X71824910Y-151822857D01*
X71907143Y-151839214D01*
X71989376Y-151822857D01*
X71989380Y-151822857D01*
X72232944Y-151774409D01*
X72509144Y-151589858D01*
X72555730Y-151520137D01*
X73043195Y-151032673D01*
X73284617Y-150932673D01*
X73343694Y-150873596D01*
X76486761Y-154016663D01*
X55761680Y-153883810D01*
X55751658Y-149945000D01*
X56070983Y-149945000D01*
X56414635Y-149802655D01*
X56677655Y-149539635D01*
X56820000Y-149195983D01*
X56820000Y-148824017D01*
X56731352Y-148610000D01*
X59837560Y-148610000D01*
X59837560Y-150410000D01*
X59886843Y-150657765D01*
X60027191Y-150867809D01*
X60237235Y-151008157D01*
X60485000Y-151057440D01*
X62285000Y-151057440D01*
X62532765Y-151008157D01*
X62742809Y-150867809D01*
X62875058Y-150669886D01*
X62909890Y-150704718D01*
X63024447Y-150590161D01*
X63110852Y-150846643D01*
X63684336Y-151056458D01*
X64294460Y-151030839D01*
X64739148Y-150846643D01*
X64825554Y-150590159D01*
X63925000Y-149689605D01*
X63910858Y-149703748D01*
X63731253Y-149524143D01*
X63745395Y-149510000D01*
X64104605Y-149510000D01*
X65005159Y-150410554D01*
X65261643Y-150324148D01*
X65454962Y-149795750D01*
X66350000Y-149795750D01*
X66350000Y-150536310D01*
X66446673Y-150769699D01*
X66625302Y-150948327D01*
X66858691Y-151045000D01*
X67599250Y-151045000D01*
X67758000Y-150886250D01*
X67758000Y-149637000D01*
X66508750Y-149637000D01*
X66350000Y-149795750D01*
X65454962Y-149795750D01*
X65471458Y-149750664D01*
X65445839Y-149140540D01*
X65261643Y-148695852D01*
X65005159Y-148609446D01*
X64104605Y-149510000D01*
X63745395Y-149510000D01*
X63731253Y-149495858D01*
X63910858Y-149316253D01*
X63925000Y-149330395D01*
X64771705Y-148483690D01*
X66350000Y-148483690D01*
X66350000Y-149224250D01*
X66508750Y-149383000D01*
X67758000Y-149383000D01*
X67758000Y-148133750D01*
X67599250Y-147975000D01*
X66858691Y-147975000D01*
X66625302Y-148071673D01*
X66446673Y-148250301D01*
X66350000Y-148483690D01*
X64771705Y-148483690D01*
X64825554Y-148429841D01*
X64739148Y-148173357D01*
X64165664Y-147963542D01*
X63555540Y-147989161D01*
X63110852Y-148173357D01*
X63024447Y-148429839D01*
X62909890Y-148315282D01*
X62875058Y-148350114D01*
X62742809Y-148152191D01*
X62532765Y-148011843D01*
X62285000Y-147962560D01*
X60485000Y-147962560D01*
X60237235Y-148011843D01*
X60027191Y-148152191D01*
X59886843Y-148362235D01*
X59837560Y-148610000D01*
X56731352Y-148610000D01*
X56726816Y-148599051D01*
X56923212Y-148402655D01*
X57164635Y-148302655D01*
X57427655Y-148039635D01*
X57570000Y-147695983D01*
X57570000Y-147324017D01*
X57427655Y-146980365D01*
X57164635Y-146717345D01*
X56820983Y-146575000D01*
X56449017Y-146575000D01*
X56105365Y-146717345D01*
X55842345Y-146980365D01*
X55744714Y-147216069D01*
X55735921Y-143760000D01*
X63727765Y-143760000D01*
X63815854Y-144202855D01*
X64066711Y-144578289D01*
X64442145Y-144829146D01*
X64773217Y-144895000D01*
X66996783Y-144895000D01*
X67327855Y-144829146D01*
X67703289Y-144578289D01*
X67954146Y-144202855D01*
X68023978Y-143851786D01*
X68249017Y-143945000D01*
X68620983Y-143945000D01*
X68862405Y-143845000D01*
X71310832Y-143845000D01*
X71491214Y-144025382D01*
X71834866Y-144167727D01*
X71839298Y-144167727D01*
X71753242Y-144253783D01*
X71550000Y-144744452D01*
X71550000Y-145275548D01*
X71753242Y-145766217D01*
X72128783Y-146141758D01*
X72619452Y-146345000D01*
X73150548Y-146345000D01*
X73641217Y-146141758D01*
X74016758Y-145766217D01*
X74025541Y-145745012D01*
X77799617Y-145745012D01*
X78635000Y-146580395D01*
X79470383Y-145745012D01*
X79395020Y-145497856D01*
X78854166Y-145303084D01*
X78279945Y-145330114D01*
X77874980Y-145497856D01*
X77799617Y-145745012D01*
X74025541Y-145745012D01*
X74220000Y-145275548D01*
X74220000Y-144744452D01*
X74031357Y-144289027D01*
X87140032Y-144289027D01*
X87388179Y-144818490D01*
X87806152Y-145200000D01*
X87388179Y-145581510D01*
X87140032Y-146110973D01*
X87260531Y-146343000D01*
X88468000Y-146343000D01*
X88468000Y-144057000D01*
X88722000Y-144057000D01*
X88722000Y-146343000D01*
X91008000Y-146343000D01*
X91008000Y-144057000D01*
X88722000Y-144057000D01*
X88468000Y-144057000D01*
X87260531Y-144057000D01*
X87140032Y-144289027D01*
X74031357Y-144289027D01*
X74016758Y-144253783D01*
X73641217Y-143878242D01*
X73150548Y-143675000D01*
X72849690Y-143675000D01*
X72955849Y-143418710D01*
X72955849Y-143046744D01*
X72842874Y-142773997D01*
X77950000Y-142773997D01*
X77950000Y-143145963D01*
X78092345Y-143489615D01*
X78355365Y-143752635D01*
X78699017Y-143894980D01*
X79070983Y-143894980D01*
X79195046Y-143843592D01*
X79409989Y-143886347D01*
X79617853Y-143845000D01*
X81568311Y-143845000D01*
X81689017Y-143894998D01*
X82060983Y-143894998D01*
X82404635Y-143752653D01*
X82667655Y-143489633D01*
X82810000Y-143145981D01*
X82810000Y-142774015D01*
X82695286Y-142497070D01*
X82820000Y-142195983D01*
X82820000Y-141824017D01*
X82788939Y-141749027D01*
X87140032Y-141749027D01*
X87388179Y-142278490D01*
X87806152Y-142660000D01*
X87388179Y-143041510D01*
X87140032Y-143570973D01*
X87260531Y-143803000D01*
X88468000Y-143803000D01*
X88468000Y-141517000D01*
X88722000Y-141517000D01*
X88722000Y-143803000D01*
X91008000Y-143803000D01*
X91008000Y-141517000D01*
X91262000Y-141517000D01*
X91262000Y-143803000D01*
X92469469Y-143803000D01*
X92589968Y-143570973D01*
X92341821Y-143041510D01*
X91923848Y-142660000D01*
X92341821Y-142278490D01*
X92589968Y-141749027D01*
X92469469Y-141517000D01*
X91262000Y-141517000D01*
X91008000Y-141517000D01*
X88722000Y-141517000D01*
X88468000Y-141517000D01*
X87260531Y-141517000D01*
X87140032Y-141749027D01*
X82788939Y-141749027D01*
X82677655Y-141480365D01*
X82414635Y-141217345D01*
X82070983Y-141075000D01*
X81699017Y-141075000D01*
X81355365Y-141217345D01*
X81147624Y-141425086D01*
X80662393Y-141425086D01*
X80420971Y-141325086D01*
X80049005Y-141325086D01*
X79705353Y-141467431D01*
X79442333Y-141730451D01*
X79299988Y-142074103D01*
X79299988Y-142115583D01*
X79293051Y-142116963D01*
X79070983Y-142024980D01*
X78699017Y-142024980D01*
X78355365Y-142167325D01*
X78092345Y-142430345D01*
X77950000Y-142773997D01*
X72842874Y-142773997D01*
X72813504Y-142703092D01*
X72550484Y-142440072D01*
X72281176Y-142328521D01*
X72123923Y-142223448D01*
X71884505Y-142175825D01*
X71970000Y-141887000D01*
X71970000Y-141587000D01*
X70712000Y-141587000D01*
X70712000Y-141607000D01*
X70458000Y-141607000D01*
X70458000Y-141587000D01*
X69200000Y-141587000D01*
X69200000Y-141887000D01*
X69285251Y-142175000D01*
X68862405Y-142175000D01*
X68620983Y-142075000D01*
X68249017Y-142075000D01*
X67905365Y-142217345D01*
X67642345Y-142480365D01*
X67505885Y-142809810D01*
X67327855Y-142690854D01*
X66996783Y-142625000D01*
X64773217Y-142625000D01*
X64442145Y-142690854D01*
X64066711Y-142941711D01*
X63815854Y-143317145D01*
X63727765Y-143760000D01*
X55735921Y-143760000D01*
X55730391Y-141587000D01*
X59800000Y-141587000D01*
X59800000Y-142337000D01*
X59954028Y-142857349D01*
X60295460Y-143279145D01*
X60772316Y-143538173D01*
X60843815Y-143552318D01*
X61058000Y-143429656D01*
X61058000Y-141587000D01*
X61312000Y-141587000D01*
X61312000Y-143429656D01*
X61526185Y-143552318D01*
X61597684Y-143538173D01*
X62074540Y-143279145D01*
X62415972Y-142857349D01*
X62570000Y-142337000D01*
X62570000Y-141587000D01*
X61312000Y-141587000D01*
X61058000Y-141587000D01*
X59800000Y-141587000D01*
X55730391Y-141587000D01*
X55727836Y-140583000D01*
X59800000Y-140583000D01*
X59800000Y-141333000D01*
X61058000Y-141333000D01*
X61058000Y-139490344D01*
X61312000Y-139490344D01*
X61312000Y-141333000D01*
X62570000Y-141333000D01*
X62570000Y-141033000D01*
X69200000Y-141033000D01*
X69200000Y-141333000D01*
X70458000Y-141333000D01*
X70458000Y-141313000D01*
X70712000Y-141313000D01*
X70712000Y-141333000D01*
X71970000Y-141333000D01*
X71970000Y-141033000D01*
X71815972Y-140512651D01*
X71713444Y-140385991D01*
X71734913Y-140377098D01*
X72357607Y-140377098D01*
X72599029Y-140477098D01*
X72970995Y-140477098D01*
X73300001Y-140340820D01*
X73300000Y-141082594D01*
X73200000Y-141324017D01*
X73200000Y-141695983D01*
X73342345Y-142039635D01*
X73605365Y-142302655D01*
X73949017Y-142445000D01*
X74320983Y-142445000D01*
X74664635Y-142302655D01*
X74927655Y-142039635D01*
X75070000Y-141695983D01*
X75070000Y-141324017D01*
X74970000Y-141082595D01*
X74970000Y-139938321D01*
X74986358Y-139856084D01*
X74921552Y-139530283D01*
X74812905Y-139367682D01*
X74737001Y-139254083D01*
X74667282Y-139207499D01*
X73687515Y-138227732D01*
X73640929Y-138158011D01*
X73364729Y-137973460D01*
X73121165Y-137925012D01*
X73121161Y-137925012D01*
X73038928Y-137908655D01*
X72956695Y-137925012D01*
X71062405Y-137925012D01*
X70820983Y-137825012D01*
X70449017Y-137825012D01*
X70105365Y-137967357D01*
X69842345Y-138230377D01*
X69700000Y-138574029D01*
X69700000Y-138945995D01*
X69842345Y-139289647D01*
X70105365Y-139552667D01*
X70449017Y-139695012D01*
X70450000Y-139695012D01*
X70450000Y-139695983D01*
X70482730Y-139775000D01*
X70457998Y-139775000D01*
X70457998Y-139940343D01*
X70243815Y-139817682D01*
X70172316Y-139831827D01*
X69695460Y-140090855D01*
X69354028Y-140512651D01*
X69200000Y-141033000D01*
X62570000Y-141033000D01*
X62570000Y-140583000D01*
X62415972Y-140062651D01*
X62074540Y-139640855D01*
X61597684Y-139381827D01*
X61526185Y-139367682D01*
X61312000Y-139490344D01*
X61058000Y-139490344D01*
X60843815Y-139367682D01*
X60772316Y-139381827D01*
X60295460Y-139640855D01*
X59954028Y-140062651D01*
X59800000Y-140583000D01*
X55727836Y-140583000D01*
X55725576Y-139695000D01*
X56070983Y-139695000D01*
X56414635Y-139552655D01*
X56677655Y-139289635D01*
X56820000Y-138945983D01*
X56820000Y-138695000D01*
X57070983Y-138695000D01*
X57312405Y-138595000D01*
X57802767Y-138595000D01*
X57885000Y-138611357D01*
X57967233Y-138595000D01*
X57967237Y-138595000D01*
X58210801Y-138546552D01*
X58487001Y-138362001D01*
X58533587Y-138292280D01*
X58673211Y-138152656D01*
X58914635Y-138052655D01*
X59177655Y-137789635D01*
X59320000Y-137445983D01*
X59320000Y-137074017D01*
X59177655Y-136730365D01*
X58914635Y-136467345D01*
X58570983Y-136325000D01*
X58199017Y-136325000D01*
X57855365Y-136467345D01*
X57592345Y-136730365D01*
X57511725Y-136925000D01*
X57312405Y-136925000D01*
X57070983Y-136825000D01*
X56720000Y-136825000D01*
X56720000Y-135574025D01*
X61749969Y-135574025D01*
X61749969Y-135945991D01*
X61892314Y-136289643D01*
X62155334Y-136552663D01*
X62498986Y-136695008D01*
X62650001Y-136695008D01*
X62650001Y-136808754D01*
X62792346Y-137152406D01*
X63055366Y-137415426D01*
X63399018Y-137557771D01*
X63770984Y-137557771D01*
X64012406Y-137457771D01*
X64676330Y-137457771D01*
X64809200Y-137546552D01*
X65134999Y-137611357D01*
X65310724Y-137576404D01*
X65404215Y-137595000D01*
X65404218Y-137595000D01*
X65486451Y-137611357D01*
X65568684Y-137595000D01*
X66198848Y-137595000D01*
X66198872Y-137595010D01*
X66202682Y-137595010D01*
X66284865Y-137611357D01*
X66367048Y-137595010D01*
X66570838Y-137595010D01*
X66666600Y-137555344D01*
X66710801Y-137546552D01*
X66748272Y-137521514D01*
X66914490Y-137452665D01*
X67177510Y-137189645D01*
X67225404Y-137074017D01*
X73950000Y-137074017D01*
X73950000Y-137445983D01*
X74092345Y-137789635D01*
X74355365Y-138052655D01*
X74578575Y-138145111D01*
X74817208Y-138304561D01*
X75060772Y-138353009D01*
X75143009Y-138369367D01*
X75225246Y-138353009D01*
X78796289Y-138353009D01*
X79037711Y-138453009D01*
X79409677Y-138453009D01*
X79753329Y-138310664D01*
X80016349Y-138047644D01*
X80158694Y-137703992D01*
X80158694Y-137574017D01*
X82250000Y-137574017D01*
X82250000Y-137945983D01*
X82392345Y-138289635D01*
X82655365Y-138552655D01*
X82999017Y-138695000D01*
X83370983Y-138695000D01*
X83612405Y-138595000D01*
X83838769Y-138595000D01*
X83921002Y-138611357D01*
X84003235Y-138595000D01*
X84003239Y-138595000D01*
X84246803Y-138546552D01*
X84523003Y-138362001D01*
X84569589Y-138292280D01*
X85317295Y-137544576D01*
X85387010Y-137497994D01*
X85571561Y-137221794D01*
X85620009Y-136978230D01*
X85620009Y-136978227D01*
X85636366Y-136895994D01*
X85620009Y-136813761D01*
X85620009Y-134492241D01*
X85636366Y-134410008D01*
X85620009Y-134327775D01*
X85620009Y-134327772D01*
X85571561Y-134084208D01*
X85387010Y-133808008D01*
X85317289Y-133761422D01*
X85277656Y-133721789D01*
X85177655Y-133480365D01*
X84914635Y-133217345D01*
X84570983Y-133075000D01*
X84199017Y-133075000D01*
X83855365Y-133217345D01*
X83592345Y-133480365D01*
X83450000Y-133824017D01*
X83450000Y-133928123D01*
X83355365Y-133967322D01*
X83092345Y-134230342D01*
X82950000Y-134573994D01*
X82950000Y-134945960D01*
X83092345Y-135289612D01*
X83350000Y-135547267D01*
X83349999Y-135972711D01*
X83092345Y-136230365D01*
X82950000Y-136574017D01*
X82950000Y-136845303D01*
X82655365Y-136967345D01*
X82392345Y-137230365D01*
X82250000Y-137574017D01*
X80158694Y-137574017D01*
X80158694Y-137332026D01*
X80016349Y-136988374D01*
X79753329Y-136725354D01*
X79409677Y-136583009D01*
X79037711Y-136583009D01*
X78796289Y-136683009D01*
X75630299Y-136683009D01*
X75414635Y-136467345D01*
X75070983Y-136325000D01*
X74699017Y-136325000D01*
X74355365Y-136467345D01*
X74092345Y-136730365D01*
X73950000Y-137074017D01*
X67225404Y-137074017D01*
X67319855Y-136845993D01*
X67319855Y-136730737D01*
X67327855Y-136729146D01*
X67703289Y-136478289D01*
X67954146Y-136102855D01*
X68042235Y-135660000D01*
X67954146Y-135217145D01*
X67703289Y-134841711D01*
X67327855Y-134590854D01*
X66996783Y-134525000D01*
X64773217Y-134525000D01*
X64442145Y-134590854D01*
X64091721Y-134825000D01*
X62867214Y-134825000D01*
X62784977Y-134808642D01*
X62702740Y-134825000D01*
X62702700Y-134825008D01*
X62498986Y-134825008D01*
X62155334Y-134967353D01*
X61892314Y-135230373D01*
X61749969Y-135574025D01*
X56720000Y-135574025D01*
X56720000Y-129574017D01*
X62450000Y-129574017D01*
X62450000Y-129945983D01*
X62550000Y-130187405D01*
X62550001Y-132082593D01*
X62450000Y-132324017D01*
X62450000Y-132695983D01*
X62592345Y-133039635D01*
X62855365Y-133302655D01*
X63199017Y-133445000D01*
X63570983Y-133445000D01*
X63914635Y-133302655D01*
X64177655Y-133039635D01*
X64320000Y-132695983D01*
X64320000Y-132324017D01*
X64220000Y-132082595D01*
X64220000Y-130235294D01*
X65611273Y-130235294D01*
X65611273Y-130607260D01*
X65753618Y-130950912D01*
X66016638Y-131213932D01*
X66360290Y-131356277D01*
X66732256Y-131356277D01*
X67075908Y-131213932D01*
X67338928Y-130950912D01*
X67438928Y-130709489D01*
X67603417Y-130545001D01*
X67856511Y-130545001D01*
X67856511Y-130595994D01*
X67998856Y-130939646D01*
X68261876Y-131202666D01*
X68605528Y-131345011D01*
X68809319Y-131345011D01*
X68891500Y-131361358D01*
X68973681Y-131345011D01*
X68977494Y-131345011D01*
X68977521Y-131345000D01*
X69957595Y-131345000D01*
X70199017Y-131445000D01*
X70570983Y-131445000D01*
X70909238Y-131304890D01*
X70852720Y-131361409D01*
X70782999Y-131407995D01*
X70598448Y-131684196D01*
X70550000Y-131927760D01*
X70550000Y-131927763D01*
X70533643Y-132009996D01*
X70550000Y-132092230D01*
X70550001Y-133203483D01*
X70550000Y-133203487D01*
X70550000Y-133282582D01*
X70450000Y-133524004D01*
X70450000Y-133895970D01*
X70552047Y-134142335D01*
X70468945Y-134342962D01*
X70468945Y-134714928D01*
X70611290Y-135058580D01*
X70874310Y-135321600D01*
X71217962Y-135463945D01*
X71589928Y-135463945D01*
X71803653Y-135375418D01*
X71828209Y-135380302D01*
X71910442Y-135363945D01*
X71910446Y-135363945D01*
X72154010Y-135315497D01*
X72430210Y-135130946D01*
X72476796Y-135061226D01*
X72917285Y-134620738D01*
X72987001Y-134574155D01*
X73034785Y-134502642D01*
X73171552Y-134297955D01*
X73175945Y-134275870D01*
X73220000Y-134054391D01*
X73220000Y-134054388D01*
X73236357Y-133972155D01*
X73220000Y-133889922D01*
X73220000Y-132437405D01*
X73320000Y-132195983D01*
X73320000Y-131824017D01*
X73195014Y-131522272D01*
X73427651Y-131289635D01*
X73569996Y-130945983D01*
X73569996Y-130574017D01*
X73427651Y-130230365D01*
X73164631Y-129967345D01*
X72923208Y-129867345D01*
X72233584Y-129177721D01*
X72186998Y-129108000D01*
X71910798Y-128923449D01*
X71667234Y-128875001D01*
X71667230Y-128875001D01*
X71584997Y-128858644D01*
X71502764Y-128875001D01*
X67339781Y-128875001D01*
X67257548Y-128858644D01*
X67175315Y-128875001D01*
X67175312Y-128875001D01*
X66931748Y-128923449D01*
X66655548Y-129108000D01*
X66608963Y-129177719D01*
X66258061Y-129528622D01*
X66016638Y-129628622D01*
X65753618Y-129891642D01*
X65611273Y-130235294D01*
X64220000Y-130235294D01*
X64220000Y-130187405D01*
X64320000Y-129945983D01*
X64320000Y-129574017D01*
X64177655Y-129230365D01*
X63914635Y-128967345D01*
X63570983Y-128825000D01*
X63199017Y-128825000D01*
X62855365Y-128967345D01*
X62592345Y-129230365D01*
X62450000Y-129574017D01*
X56720000Y-129574017D01*
X56720000Y-126758325D01*
X59900000Y-126758325D01*
X59900000Y-127130291D01*
X60042345Y-127473943D01*
X60305365Y-127736963D01*
X60649017Y-127879308D01*
X61020983Y-127879308D01*
X61262405Y-127779308D01*
X65237021Y-127779308D01*
X65318014Y-127860301D01*
X65661666Y-128002646D01*
X66033632Y-128002646D01*
X66377284Y-127860301D01*
X66604595Y-127632990D01*
X66875007Y-127744998D01*
X67246973Y-127744998D01*
X67590625Y-127602653D01*
X67853645Y-127339633D01*
X67995990Y-126995981D01*
X67995990Y-126624015D01*
X67853645Y-126280363D01*
X67775438Y-126202156D01*
X68358610Y-126202156D01*
X68358610Y-126574122D01*
X68500955Y-126917774D01*
X68763975Y-127180794D01*
X69107627Y-127323139D01*
X69479593Y-127323139D01*
X69823245Y-127180794D01*
X70080899Y-126923140D01*
X70099580Y-126923140D01*
X70092345Y-126930375D01*
X69950000Y-127274027D01*
X69950000Y-127645993D01*
X70092345Y-127989645D01*
X70355365Y-128252665D01*
X70699017Y-128395010D01*
X71070983Y-128395010D01*
X71312405Y-128295010D01*
X72052767Y-128295010D01*
X72135000Y-128311367D01*
X72217233Y-128295010D01*
X72217237Y-128295010D01*
X72460801Y-128246562D01*
X72680961Y-128099456D01*
X72857470Y-128026343D01*
X73143957Y-128145010D01*
X73339143Y-128145010D01*
X73742345Y-128548212D01*
X73842345Y-128789635D01*
X74105365Y-129052655D01*
X74449017Y-129195000D01*
X74820983Y-129195000D01*
X75164635Y-129052655D01*
X75275276Y-128942014D01*
X75579941Y-128942014D01*
X75923593Y-128799669D01*
X76033094Y-128690168D01*
X79222240Y-128690168D01*
X79222240Y-129062134D01*
X79364585Y-129405786D01*
X79627605Y-129668806D01*
X79968211Y-129809889D01*
X79999596Y-129830860D01*
X80243160Y-129879308D01*
X80325397Y-129895666D01*
X80407634Y-129879308D01*
X84405514Y-129879308D01*
X84442637Y-129894685D01*
X84539070Y-129894685D01*
X84543997Y-129895665D01*
X84548924Y-129894685D01*
X84814603Y-129894685D01*
X85158255Y-129752340D01*
X85421275Y-129489320D01*
X85563620Y-129145668D01*
X85563620Y-128773702D01*
X85421275Y-128430050D01*
X85158255Y-128167030D01*
X84814603Y-128024685D01*
X84442637Y-128024685D01*
X84098985Y-128167030D01*
X84056707Y-128209308D01*
X80812687Y-128209308D01*
X80686875Y-128083496D01*
X80343223Y-127941151D01*
X79971257Y-127941151D01*
X79627605Y-128083496D01*
X79364585Y-128346516D01*
X79222240Y-128690168D01*
X76033094Y-128690168D01*
X76186613Y-128536649D01*
X76328958Y-128192997D01*
X76328958Y-127821031D01*
X76186613Y-127477379D01*
X75923593Y-127214359D01*
X75682171Y-127114359D01*
X74891829Y-126324017D01*
X83950000Y-126324017D01*
X83950000Y-126695983D01*
X84092345Y-127039635D01*
X84355365Y-127302655D01*
X84699017Y-127445000D01*
X85070983Y-127445000D01*
X85414635Y-127302655D01*
X85622290Y-127095000D01*
X86207595Y-127095000D01*
X86449017Y-127195000D01*
X86820983Y-127195000D01*
X87164635Y-127052655D01*
X87427655Y-126789635D01*
X87570000Y-126445983D01*
X87570000Y-126074017D01*
X87427655Y-125730365D01*
X87164635Y-125467345D01*
X86820983Y-125325000D01*
X86449017Y-125325000D01*
X86207595Y-125425000D01*
X85217232Y-125425000D01*
X85134999Y-125408643D01*
X85052766Y-125425000D01*
X85052763Y-125425000D01*
X84809199Y-125473448D01*
X84589039Y-125620554D01*
X84355365Y-125717345D01*
X84092345Y-125980365D01*
X83950000Y-126324017D01*
X74891829Y-126324017D01*
X74123671Y-125555860D01*
X74077085Y-125486139D01*
X73800885Y-125301588D01*
X73557321Y-125253140D01*
X73557317Y-125253140D01*
X73475084Y-125236783D01*
X73392851Y-125253140D01*
X69675846Y-125253140D01*
X69593609Y-125236782D01*
X69511372Y-125253140D01*
X69267808Y-125301588D01*
X68991608Y-125486139D01*
X68977698Y-125506957D01*
X68763975Y-125595484D01*
X68500955Y-125858504D01*
X68358610Y-126202156D01*
X67775438Y-126202156D01*
X67590625Y-126017343D01*
X67349202Y-125917343D01*
X67020869Y-125589010D01*
X66974283Y-125519289D01*
X66698083Y-125334738D01*
X66454519Y-125286290D01*
X66454515Y-125286290D01*
X66372282Y-125269933D01*
X66290049Y-125286290D01*
X64375791Y-125286290D01*
X64134369Y-125186290D01*
X63762403Y-125186290D01*
X63418751Y-125328635D01*
X63155731Y-125591655D01*
X63013386Y-125935307D01*
X63013386Y-126109308D01*
X61262405Y-126109308D01*
X61020983Y-126009308D01*
X60649017Y-126009308D01*
X60305365Y-126151653D01*
X60042345Y-126414673D01*
X59900000Y-126758325D01*
X56720000Y-126758325D01*
X56720000Y-125440740D01*
X56848295Y-125440740D01*
X57191947Y-125298395D01*
X57307149Y-125183193D01*
X57605707Y-125183193D01*
X57949359Y-125040848D01*
X58212379Y-124777828D01*
X58354724Y-124434176D01*
X58354724Y-124062210D01*
X58254724Y-123820788D01*
X58254724Y-123376956D01*
X58271081Y-123294723D01*
X58254724Y-123212488D01*
X58254724Y-123212487D01*
X58206276Y-122968923D01*
X58021725Y-122692723D01*
X57952007Y-122646139D01*
X57657680Y-122351813D01*
X57557680Y-122110390D01*
X57294660Y-121847370D01*
X56951008Y-121705025D01*
X56579042Y-121705025D01*
X56235390Y-121847370D01*
X55972370Y-122110390D01*
X55962712Y-122133706D01*
X55820983Y-122075000D01*
X55685000Y-122075000D01*
X55685000Y-120258325D01*
X58884304Y-120258325D01*
X58884304Y-120630291D01*
X59026649Y-120973943D01*
X59289669Y-121236963D01*
X59531092Y-121336964D01*
X60184291Y-121990163D01*
X60184292Y-124437803D01*
X60184291Y-124437808D01*
X60184291Y-124516903D01*
X60084291Y-124758325D01*
X60084291Y-125130291D01*
X60226636Y-125473943D01*
X60489656Y-125736963D01*
X60833308Y-125879308D01*
X61205274Y-125879308D01*
X61481967Y-125764698D01*
X61675887Y-125845022D01*
X62047853Y-125845022D01*
X62391505Y-125702677D01*
X62654525Y-125439657D01*
X62796870Y-125096005D01*
X62796870Y-124724039D01*
X62696870Y-124482617D01*
X62696870Y-121998538D01*
X63120461Y-122155908D01*
X63770460Y-122131856D01*
X64259264Y-121929387D01*
X64357927Y-121662532D01*
X63385000Y-120689605D01*
X63370858Y-120703748D01*
X63191253Y-120524143D01*
X63205395Y-120510000D01*
X63564605Y-120510000D01*
X64537532Y-121482927D01*
X64543486Y-121480725D01*
X64958847Y-121896086D01*
X65015730Y-121919648D01*
X64725435Y-122039892D01*
X64462415Y-122302912D01*
X64320070Y-122646564D01*
X64320070Y-123018530D01*
X64420070Y-123259953D01*
X64420071Y-124032928D01*
X64382379Y-124123924D01*
X64382379Y-124495890D01*
X64524724Y-124839542D01*
X64787744Y-125102562D01*
X65131396Y-125244907D01*
X65503362Y-125244907D01*
X65847014Y-125102562D01*
X66110034Y-124839542D01*
X66252379Y-124495890D01*
X66252379Y-124123924D01*
X66110034Y-123780272D01*
X66090070Y-123760308D01*
X66090070Y-123259952D01*
X66190070Y-123018530D01*
X66190070Y-122646564D01*
X66047725Y-122302912D01*
X65889813Y-122145000D01*
X66210222Y-122145000D01*
X66811153Y-121896086D01*
X67135000Y-121572239D01*
X67458847Y-121896086D01*
X68059778Y-122145000D01*
X68201687Y-122145000D01*
X68297245Y-122375700D01*
X68297246Y-122969112D01*
X68212289Y-123054069D01*
X67970865Y-123154070D01*
X67707845Y-123417090D01*
X67565500Y-123760742D01*
X67565500Y-124132708D01*
X67707845Y-124476360D01*
X67970865Y-124739380D01*
X68314517Y-124881725D01*
X68686483Y-124881725D01*
X69030135Y-124739380D01*
X69293155Y-124476360D01*
X69393156Y-124234936D01*
X69664525Y-123963567D01*
X69734246Y-123916981D01*
X69918797Y-123640781D01*
X69967245Y-123397217D01*
X69983603Y-123314980D01*
X69967245Y-123232743D01*
X69967245Y-123074017D01*
X70449978Y-123074017D01*
X70449978Y-123445983D01*
X70592323Y-123789635D01*
X70855343Y-124052655D01*
X71089017Y-124149446D01*
X71309177Y-124296552D01*
X71552741Y-124345000D01*
X71552744Y-124345000D01*
X71634977Y-124361357D01*
X71717210Y-124345000D01*
X72957595Y-124345000D01*
X73199017Y-124445000D01*
X73570983Y-124445000D01*
X73914635Y-124302655D01*
X74177655Y-124039635D01*
X74320000Y-123695983D01*
X74320000Y-123376433D01*
X75601703Y-123376433D01*
X75601703Y-123748399D01*
X75744048Y-124092051D01*
X76007068Y-124355071D01*
X76350720Y-124497416D01*
X76722686Y-124497416D01*
X76964108Y-124397416D01*
X77808517Y-124397416D01*
X77890750Y-124413773D01*
X77972983Y-124397416D01*
X77972987Y-124397416D01*
X78216551Y-124348968D01*
X78492751Y-124164417D01*
X78519080Y-124125012D01*
X78743331Y-124032125D01*
X79006351Y-123769105D01*
X79148696Y-123425453D01*
X79148696Y-123053487D01*
X79006351Y-122709835D01*
X78743331Y-122446815D01*
X78399679Y-122304470D01*
X78027713Y-122304470D01*
X77684061Y-122446815D01*
X77421041Y-122709835D01*
X77413759Y-122727416D01*
X76964108Y-122727416D01*
X76722686Y-122627416D01*
X76350720Y-122627416D01*
X76007068Y-122769761D01*
X75744048Y-123032781D01*
X75601703Y-123376433D01*
X74320000Y-123376433D01*
X74320000Y-123324017D01*
X74177655Y-122980365D01*
X73914635Y-122717345D01*
X73570983Y-122575000D01*
X73199017Y-122575000D01*
X72957595Y-122675000D01*
X72122268Y-122675000D01*
X71914613Y-122467345D01*
X71570961Y-122325000D01*
X71198995Y-122325000D01*
X70855343Y-122467345D01*
X70592323Y-122730365D01*
X70449978Y-123074017D01*
X69967245Y-123074017D01*
X69967245Y-122375699D01*
X70067245Y-122134277D01*
X70067245Y-121762311D01*
X69924900Y-121418659D01*
X69821261Y-121315020D01*
X70020000Y-120835222D01*
X70020000Y-120184778D01*
X69771086Y-119583847D01*
X69311153Y-119123914D01*
X68710222Y-118875000D01*
X68059778Y-118875000D01*
X67458847Y-119123914D01*
X67135000Y-119447761D01*
X66811153Y-119123914D01*
X66210222Y-118875000D01*
X65559778Y-118875000D01*
X64958847Y-119123914D01*
X64543486Y-119539275D01*
X64537532Y-119537073D01*
X63564605Y-120510000D01*
X63205395Y-120510000D01*
X62232468Y-119537073D01*
X61965613Y-119635736D01*
X61755951Y-120200082D01*
X60913337Y-119357468D01*
X62412073Y-119357468D01*
X63385000Y-120330395D01*
X64357927Y-119357468D01*
X64259264Y-119090613D01*
X63649539Y-118864092D01*
X62999540Y-118888144D01*
X62510736Y-119090613D01*
X62412073Y-119357468D01*
X60913337Y-119357468D01*
X60777656Y-119221788D01*
X60677655Y-118980365D01*
X60414635Y-118717345D01*
X60070983Y-118575000D01*
X59699017Y-118575000D01*
X59355365Y-118717345D01*
X59092345Y-118980365D01*
X58950000Y-119324017D01*
X58950000Y-119695983D01*
X59036503Y-119904819D01*
X59026649Y-119914673D01*
X58884304Y-120258325D01*
X55685000Y-120258325D01*
X55685000Y-118287989D01*
X70549988Y-118287989D01*
X70549988Y-118659955D01*
X70692333Y-119003607D01*
X70955353Y-119266627D01*
X71299005Y-119408972D01*
X71670971Y-119408972D01*
X71912393Y-119308972D01*
X72370620Y-119308972D01*
X72699017Y-119444998D01*
X73070983Y-119444998D01*
X73224744Y-119381308D01*
X73409988Y-119828527D01*
X73816473Y-120235012D01*
X74347572Y-120455000D01*
X74922428Y-120455000D01*
X75453527Y-120235012D01*
X75860012Y-119828527D01*
X75861880Y-119824017D01*
X79699994Y-119824017D01*
X79699994Y-120195983D01*
X79799994Y-120437405D01*
X79799994Y-120516500D01*
X79799995Y-120516505D01*
X79799994Y-123427761D01*
X79783637Y-123509994D01*
X79799994Y-123592227D01*
X79799994Y-123592230D01*
X79848442Y-123835794D01*
X80032993Y-124111995D01*
X80102714Y-124158581D01*
X80242345Y-124298212D01*
X80342345Y-124539635D01*
X80605365Y-124802655D01*
X80949017Y-124945000D01*
X81320983Y-124945000D01*
X81664635Y-124802655D01*
X81927655Y-124539635D01*
X82070000Y-124195983D01*
X82070000Y-124111082D01*
X82108825Y-124095000D01*
X82794862Y-124095000D01*
X82700000Y-124324017D01*
X82700000Y-124695983D01*
X82842345Y-125039635D01*
X83105365Y-125302655D01*
X83449017Y-125445000D01*
X83820983Y-125445000D01*
X84164635Y-125302655D01*
X84427655Y-125039635D01*
X84527656Y-124798211D01*
X84617281Y-124708586D01*
X84687002Y-124662000D01*
X84871553Y-124385800D01*
X84920001Y-124142236D01*
X84920001Y-124142235D01*
X84936359Y-124059999D01*
X84920001Y-123977762D01*
X84920001Y-123006231D01*
X84936358Y-122923998D01*
X84920001Y-122841765D01*
X84920001Y-122841762D01*
X84871553Y-122598198D01*
X84687002Y-122321998D01*
X84667662Y-122309075D01*
X85061153Y-122146086D01*
X85385000Y-121822239D01*
X85708847Y-122146086D01*
X86309778Y-122395000D01*
X86960222Y-122395000D01*
X87561153Y-122146086D01*
X87794707Y-121912532D01*
X88162073Y-121912532D01*
X88260736Y-122179387D01*
X88870461Y-122405908D01*
X89520460Y-122381856D01*
X90009264Y-122179387D01*
X90107927Y-121912532D01*
X89135000Y-120939605D01*
X88162073Y-121912532D01*
X87794707Y-121912532D01*
X87976514Y-121730725D01*
X87982468Y-121732927D01*
X88955395Y-120760000D01*
X89314605Y-120760000D01*
X90287532Y-121732927D01*
X90554387Y-121634264D01*
X90780908Y-121024539D01*
X90756856Y-120374540D01*
X90554387Y-119885736D01*
X90287532Y-119787073D01*
X89314605Y-120760000D01*
X88955395Y-120760000D01*
X87982468Y-119787073D01*
X87976514Y-119789275D01*
X87794707Y-119607468D01*
X88162073Y-119607468D01*
X89135000Y-120580395D01*
X90107927Y-119607468D01*
X90009264Y-119340613D01*
X89399539Y-119114092D01*
X88749540Y-119138144D01*
X88260736Y-119340613D01*
X88162073Y-119607468D01*
X87794707Y-119607468D01*
X87561153Y-119373914D01*
X86960222Y-119125000D01*
X86309778Y-119125000D01*
X85708847Y-119373914D01*
X85385000Y-119697761D01*
X85061153Y-119373914D01*
X84460222Y-119125000D01*
X83809778Y-119125000D01*
X83208847Y-119373914D01*
X82798077Y-119784684D01*
X82795976Y-119774123D01*
X82611425Y-119497923D01*
X82590607Y-119484013D01*
X82502080Y-119270290D01*
X82239060Y-119007270D01*
X81895408Y-118864925D01*
X81523442Y-118864925D01*
X81179790Y-119007270D01*
X81026804Y-119160256D01*
X80820977Y-119075000D01*
X80449011Y-119075000D01*
X80105359Y-119217345D01*
X79842339Y-119480365D01*
X79699994Y-119824017D01*
X75861880Y-119824017D01*
X76080000Y-119297428D01*
X76080000Y-118722572D01*
X75860012Y-118191473D01*
X75453527Y-117784988D01*
X74922428Y-117565000D01*
X74347572Y-117565000D01*
X73816473Y-117784988D01*
X73649377Y-117952085D01*
X73414635Y-117717343D01*
X73070983Y-117574998D01*
X72699017Y-117574998D01*
X72544570Y-117638972D01*
X71912393Y-117638972D01*
X71670971Y-117538972D01*
X71299005Y-117538972D01*
X70955353Y-117681317D01*
X70692333Y-117944337D01*
X70549988Y-118287989D01*
X55685000Y-118287989D01*
X55685000Y-115858009D01*
X77435634Y-115858009D01*
X77450000Y-115930232D01*
X77450000Y-115945983D01*
X77451992Y-115950792D01*
X77451991Y-116913774D01*
X77435634Y-116996008D01*
X77451991Y-117078241D01*
X77451991Y-117078244D01*
X77500439Y-117321808D01*
X77684990Y-117598009D01*
X77705808Y-117611919D01*
X77794335Y-117825642D01*
X78057355Y-118088662D01*
X78401007Y-118231007D01*
X78772973Y-118231007D01*
X79116625Y-118088662D01*
X79278781Y-117926506D01*
X79347572Y-117955000D01*
X79922428Y-117955000D01*
X80453527Y-117735012D01*
X80860012Y-117328527D01*
X81080000Y-116797428D01*
X81080000Y-116222572D01*
X80860012Y-115691473D01*
X80692920Y-115524381D01*
X80927665Y-115289635D01*
X81070010Y-114945983D01*
X81070010Y-114712842D01*
X81509778Y-114895000D01*
X82160222Y-114895000D01*
X82761153Y-114646086D01*
X83221086Y-114186153D01*
X83470000Y-113585222D01*
X83470000Y-112934778D01*
X89800000Y-112934778D01*
X89800000Y-113585222D01*
X90048914Y-114186153D01*
X90508847Y-114646086D01*
X91109778Y-114895000D01*
X91760222Y-114895000D01*
X92361153Y-114646086D01*
X92821086Y-114186153D01*
X93070000Y-113585222D01*
X93070000Y-112934778D01*
X92821086Y-112333847D01*
X92361153Y-111873914D01*
X91760222Y-111625000D01*
X91109778Y-111625000D01*
X90508847Y-111873914D01*
X90048914Y-112333847D01*
X89800000Y-112934778D01*
X83470000Y-112934778D01*
X83221086Y-112333847D01*
X82761153Y-111873914D01*
X82160222Y-111625000D01*
X81509778Y-111625000D01*
X80908847Y-111873914D01*
X80594477Y-112188284D01*
X80320983Y-112075000D01*
X79949017Y-112075000D01*
X79605365Y-112217345D01*
X79342345Y-112480365D01*
X79200000Y-112824017D01*
X79200000Y-113195983D01*
X79300000Y-113437406D01*
X79300001Y-114332617D01*
X79200010Y-114574017D01*
X79200010Y-114945983D01*
X79263699Y-115099741D01*
X79110492Y-115163202D01*
X78914635Y-114967345D01*
X78570983Y-114825000D01*
X78199017Y-114825000D01*
X77855365Y-114967345D01*
X77592345Y-115230365D01*
X77450000Y-115574017D01*
X77450000Y-115785786D01*
X77435634Y-115858009D01*
X55685000Y-115858009D01*
X55685000Y-112684778D01*
X59450000Y-112684778D01*
X59450000Y-113335222D01*
X59698914Y-113936153D01*
X60158847Y-114396086D01*
X60759778Y-114645000D01*
X61410222Y-114645000D01*
X62011153Y-114396086D01*
X62471086Y-113936153D01*
X62720000Y-113335222D01*
X62720000Y-112684778D01*
X69050000Y-112684778D01*
X69050000Y-113335222D01*
X69298914Y-113936153D01*
X69758847Y-114396086D01*
X70359778Y-114645000D01*
X71010222Y-114645000D01*
X71611153Y-114396086D01*
X72071086Y-113936153D01*
X72320000Y-113335222D01*
X72320000Y-112684778D01*
X72071086Y-112083847D01*
X71611153Y-111623914D01*
X71010222Y-111375000D01*
X70359778Y-111375000D01*
X69758847Y-111623914D01*
X69298914Y-112083847D01*
X69050000Y-112684778D01*
X62720000Y-112684778D01*
X62471086Y-112083847D01*
X62011153Y-111623914D01*
X61410222Y-111375000D01*
X60759778Y-111375000D01*
X60158847Y-111623914D01*
X59698914Y-112083847D01*
X59450000Y-112684778D01*
X55685000Y-112684778D01*
X55685000Y-108595055D01*
X66350677Y-108595055D01*
X66350677Y-108967021D01*
X66493022Y-109310673D01*
X66756042Y-109573693D01*
X67099694Y-109716038D01*
X67471660Y-109716038D01*
X67601948Y-109662071D01*
X69433091Y-109662071D01*
X69515324Y-109678428D01*
X69597557Y-109662071D01*
X69597561Y-109662071D01*
X69841125Y-109613623D01*
X70117325Y-109429072D01*
X70141338Y-109393134D01*
X70363625Y-109301060D01*
X70626645Y-109038040D01*
X70768990Y-108694388D01*
X70768990Y-108322422D01*
X70626645Y-107978770D01*
X70363625Y-107715750D01*
X70320000Y-107697680D01*
X70320000Y-107574017D01*
X70177655Y-107230365D01*
X69914635Y-106967345D01*
X69570983Y-106825000D01*
X69199017Y-106825000D01*
X68855365Y-106967345D01*
X68592345Y-107230365D01*
X68566786Y-107292070D01*
X68413082Y-107292070D01*
X68171660Y-107192070D01*
X67799694Y-107192070D01*
X67456042Y-107334415D01*
X67193022Y-107597435D01*
X67088050Y-107850861D01*
X66756042Y-107988383D01*
X66493022Y-108251403D01*
X66350677Y-108595055D01*
X55685000Y-108595055D01*
X55685000Y-104760000D01*
X63727765Y-104760000D01*
X63815854Y-105202855D01*
X64066711Y-105578289D01*
X64442145Y-105829146D01*
X64773217Y-105895000D01*
X66996783Y-105895000D01*
X67327855Y-105829146D01*
X67660064Y-105607171D01*
X72666845Y-105607171D01*
X72666845Y-105979137D01*
X72809190Y-106322789D01*
X73072210Y-106585809D01*
X73415862Y-106728154D01*
X73787828Y-106728154D01*
X74131480Y-106585809D01*
X74394500Y-106322789D01*
X74536845Y-105979137D01*
X74536845Y-105893510D01*
X74800000Y-105630355D01*
X74800001Y-109664131D01*
X74102720Y-110361413D01*
X74032999Y-110407999D01*
X73848448Y-110684200D01*
X73800000Y-110927764D01*
X73800000Y-110927767D01*
X73783643Y-111010000D01*
X73800000Y-111092233D01*
X73800001Y-112801460D01*
X73409988Y-113191473D01*
X73190000Y-113722572D01*
X73190000Y-114297428D01*
X73409988Y-114828527D01*
X73816473Y-115235012D01*
X74347572Y-115455000D01*
X74922428Y-115455000D01*
X75453527Y-115235012D01*
X75860012Y-114828527D01*
X76080000Y-114297428D01*
X76080000Y-113722572D01*
X75860012Y-113191473D01*
X75470000Y-112801461D01*
X75470000Y-111355867D01*
X75751850Y-111074017D01*
X83700000Y-111074017D01*
X83700000Y-111445983D01*
X83842345Y-111789635D01*
X84105365Y-112052655D01*
X84449017Y-112195000D01*
X84820983Y-112195000D01*
X85062405Y-112095000D01*
X85244147Y-112095000D01*
X85326380Y-112111357D01*
X85408613Y-112095000D01*
X85408617Y-112095000D01*
X85652181Y-112046552D01*
X85928381Y-111862001D01*
X85974967Y-111792280D01*
X87580119Y-110187129D01*
X87821541Y-110087129D01*
X88084561Y-109824109D01*
X88226906Y-109480457D01*
X88226906Y-109108491D01*
X88084561Y-108764839D01*
X87821541Y-108501819D01*
X87820006Y-108501183D01*
X87820006Y-108324017D01*
X87677661Y-107980365D01*
X87414641Y-107717345D01*
X87070989Y-107575000D01*
X86699023Y-107575000D01*
X86355371Y-107717345D01*
X86092351Y-107980365D01*
X85992362Y-108221761D01*
X85583798Y-108630326D01*
X85342375Y-108730326D01*
X85079355Y-108993346D01*
X84937010Y-109336998D01*
X84937010Y-109708964D01*
X85079355Y-110052616D01*
X85216126Y-110189387D01*
X85004498Y-110401014D01*
X84820983Y-110325000D01*
X84449017Y-110325000D01*
X84105365Y-110467345D01*
X83842345Y-110730365D01*
X83700000Y-111074017D01*
X75751850Y-111074017D01*
X76167282Y-110658585D01*
X76237001Y-110612001D01*
X76421552Y-110335801D01*
X76470000Y-110092237D01*
X76486358Y-110010000D01*
X76470000Y-109927763D01*
X76470000Y-105247292D01*
X76677657Y-105039635D01*
X76712714Y-104955000D01*
X77172428Y-104955000D01*
X77703527Y-104735012D01*
X77800001Y-104638538D01*
X77800000Y-106832595D01*
X77700000Y-107074017D01*
X77700000Y-107445983D01*
X77842345Y-107789635D01*
X78105365Y-108052655D01*
X78449017Y-108195000D01*
X78820983Y-108195000D01*
X79164635Y-108052655D01*
X79427655Y-107789635D01*
X79570000Y-107445983D01*
X79570000Y-107074017D01*
X79470000Y-106832595D01*
X79470000Y-106824017D01*
X81549989Y-106824017D01*
X81549989Y-107195983D01*
X81692334Y-107539635D01*
X81955354Y-107802655D01*
X82299006Y-107945000D01*
X82670972Y-107945000D01*
X82912394Y-107845000D01*
X83457595Y-107845000D01*
X83699017Y-107945000D01*
X84070983Y-107945000D01*
X84414635Y-107802655D01*
X84677655Y-107539635D01*
X84820000Y-107195983D01*
X84820000Y-106824017D01*
X84677655Y-106480365D01*
X84414635Y-106217345D01*
X84070983Y-106075000D01*
X83699017Y-106075000D01*
X83457595Y-106175000D01*
X82912394Y-106175000D01*
X82670972Y-106075000D01*
X82299006Y-106075000D01*
X81955354Y-106217345D01*
X81692334Y-106480365D01*
X81549989Y-106824017D01*
X79470000Y-106824017D01*
X79470000Y-104760000D01*
X84477765Y-104760000D01*
X84565854Y-105202855D01*
X84816711Y-105578289D01*
X85192145Y-105829146D01*
X85523217Y-105895000D01*
X87746783Y-105895000D01*
X88077855Y-105829146D01*
X88453289Y-105578289D01*
X88704146Y-105202855D01*
X88792235Y-104760000D01*
X88704146Y-104317145D01*
X88453289Y-103941711D01*
X88077855Y-103690854D01*
X87746783Y-103625000D01*
X85523217Y-103625000D01*
X85192145Y-103690854D01*
X84816711Y-103941711D01*
X84565854Y-104317145D01*
X84477765Y-104760000D01*
X79470000Y-104760000D01*
X79470000Y-104187405D01*
X79570000Y-103945983D01*
X79570000Y-103574017D01*
X79427655Y-103230365D01*
X79164635Y-102967345D01*
X78820983Y-102825000D01*
X78449017Y-102825000D01*
X78206867Y-102925302D01*
X78110012Y-102691473D01*
X78005539Y-102587000D01*
X80550000Y-102587000D01*
X80550000Y-103337000D01*
X80704028Y-103857349D01*
X81045460Y-104279145D01*
X81522316Y-104538173D01*
X81593815Y-104552318D01*
X81808000Y-104429656D01*
X81808000Y-102587000D01*
X82062000Y-102587000D01*
X82062000Y-104429656D01*
X82276185Y-104552318D01*
X82347684Y-104538173D01*
X82824540Y-104279145D01*
X83165972Y-103857349D01*
X83320000Y-103337000D01*
X83320000Y-102587000D01*
X89950000Y-102587000D01*
X89950000Y-102887000D01*
X90104028Y-103407349D01*
X90445460Y-103829145D01*
X90922316Y-104088173D01*
X90993815Y-104102318D01*
X91208000Y-103979656D01*
X91208000Y-102587000D01*
X91462000Y-102587000D01*
X91462000Y-103979656D01*
X91676185Y-104102318D01*
X91747684Y-104088173D01*
X92224540Y-103829145D01*
X92565972Y-103407349D01*
X92720000Y-102887000D01*
X92720000Y-102587000D01*
X91462000Y-102587000D01*
X91208000Y-102587000D01*
X89950000Y-102587000D01*
X83320000Y-102587000D01*
X82062000Y-102587000D01*
X81808000Y-102587000D01*
X80550000Y-102587000D01*
X78005539Y-102587000D01*
X77703527Y-102284988D01*
X77172428Y-102065000D01*
X76597572Y-102065000D01*
X76066473Y-102284988D01*
X75681231Y-102670230D01*
X75657251Y-102675000D01*
X75413687Y-102723448D01*
X75137487Y-102907999D01*
X75090903Y-102977717D01*
X73069565Y-104999056D01*
X72999844Y-105045642D01*
X72945026Y-105127683D01*
X72809190Y-105263519D01*
X72666845Y-105607171D01*
X67660064Y-105607171D01*
X67703289Y-105578289D01*
X67954146Y-105202855D01*
X68042235Y-104760000D01*
X67954146Y-104317145D01*
X67703289Y-103941711D01*
X67327855Y-103690854D01*
X66996783Y-103625000D01*
X64773217Y-103625000D01*
X64442145Y-103690854D01*
X64066711Y-103941711D01*
X63815854Y-104317145D01*
X63727765Y-104760000D01*
X55685000Y-104760000D01*
X55685000Y-102587000D01*
X59800000Y-102587000D01*
X59800000Y-103337000D01*
X59954028Y-103857349D01*
X60295460Y-104279145D01*
X60772316Y-104538173D01*
X60843815Y-104552318D01*
X61058000Y-104429656D01*
X61058000Y-102587000D01*
X61312000Y-102587000D01*
X61312000Y-104429656D01*
X61526185Y-104552318D01*
X61597684Y-104538173D01*
X62074540Y-104279145D01*
X62415972Y-103857349D01*
X62570000Y-103337000D01*
X62570000Y-102587000D01*
X69200000Y-102587000D01*
X69200000Y-102887000D01*
X69354028Y-103407349D01*
X69695460Y-103829145D01*
X70172316Y-104088173D01*
X70243815Y-104102318D01*
X70458000Y-103979656D01*
X70458000Y-102587000D01*
X70712000Y-102587000D01*
X70712000Y-103979656D01*
X70926185Y-104102318D01*
X70997684Y-104088173D01*
X71474540Y-103829145D01*
X71815972Y-103407349D01*
X71970000Y-102887000D01*
X71970000Y-102587000D01*
X70712000Y-102587000D01*
X70458000Y-102587000D01*
X69200000Y-102587000D01*
X62570000Y-102587000D01*
X61312000Y-102587000D01*
X61058000Y-102587000D01*
X59800000Y-102587000D01*
X55685000Y-102587000D01*
X55685000Y-101583000D01*
X59800000Y-101583000D01*
X59800000Y-102333000D01*
X61058000Y-102333000D01*
X61058000Y-100490344D01*
X61312000Y-100490344D01*
X61312000Y-102333000D01*
X62570000Y-102333000D01*
X62570000Y-102033000D01*
X69200000Y-102033000D01*
X69200000Y-102333000D01*
X70458000Y-102333000D01*
X70458000Y-100940344D01*
X70712000Y-100940344D01*
X70712000Y-102333000D01*
X71970000Y-102333000D01*
X71970000Y-102033000D01*
X71836796Y-101583000D01*
X80550000Y-101583000D01*
X80550000Y-102333000D01*
X81808000Y-102333000D01*
X81808000Y-100490344D01*
X82062000Y-100490344D01*
X82062000Y-102333000D01*
X83320000Y-102333000D01*
X83320000Y-102033000D01*
X89950000Y-102033000D01*
X89950000Y-102333000D01*
X91208000Y-102333000D01*
X91208000Y-100940344D01*
X91462000Y-100940344D01*
X91462000Y-102333000D01*
X92720000Y-102333000D01*
X92720000Y-102033000D01*
X92565972Y-101512651D01*
X92224540Y-101090855D01*
X91747684Y-100831827D01*
X91676185Y-100817682D01*
X91462000Y-100940344D01*
X91208000Y-100940344D01*
X90993815Y-100817682D01*
X90922316Y-100831827D01*
X90445460Y-101090855D01*
X90104028Y-101512651D01*
X89950000Y-102033000D01*
X83320000Y-102033000D01*
X83320000Y-101583000D01*
X83165972Y-101062651D01*
X82824540Y-100640855D01*
X82347684Y-100381827D01*
X82276185Y-100367682D01*
X82062000Y-100490344D01*
X81808000Y-100490344D01*
X81593815Y-100367682D01*
X81522316Y-100381827D01*
X81045460Y-100640855D01*
X80704028Y-101062651D01*
X80550000Y-101583000D01*
X71836796Y-101583000D01*
X71815972Y-101512651D01*
X71474540Y-101090855D01*
X70997684Y-100831827D01*
X70926185Y-100817682D01*
X70712000Y-100940344D01*
X70458000Y-100940344D01*
X70243815Y-100817682D01*
X70172316Y-100831827D01*
X69695460Y-101090855D01*
X69354028Y-101512651D01*
X69200000Y-102033000D01*
X62570000Y-102033000D01*
X62570000Y-101583000D01*
X62415972Y-101062651D01*
X62074540Y-100640855D01*
X61597684Y-100381827D01*
X61526185Y-100367682D01*
X61312000Y-100490344D01*
X61058000Y-100490344D01*
X60843815Y-100367682D01*
X60772316Y-100381827D01*
X60295460Y-100640855D01*
X59954028Y-101062651D01*
X59800000Y-101583000D01*
X55685000Y-101583000D01*
X55685000Y-98222572D01*
X72940000Y-98222572D01*
X72940000Y-98797428D01*
X73159988Y-99328527D01*
X73566473Y-99735012D01*
X74097572Y-99955000D01*
X74649132Y-99955000D01*
X74724941Y-100030809D01*
X74833387Y-100292622D01*
X75096407Y-100555642D01*
X75440059Y-100697987D01*
X75812025Y-100697987D01*
X76155677Y-100555642D01*
X76266319Y-100445000D01*
X76570983Y-100445000D01*
X76914635Y-100302655D01*
X77177655Y-100039635D01*
X77320000Y-99695983D01*
X77320000Y-99324017D01*
X77177655Y-98980365D01*
X76914635Y-98717345D01*
X76673212Y-98617345D01*
X76470000Y-98414133D01*
X76470000Y-98222572D01*
X77940000Y-98222572D01*
X77940000Y-98797428D01*
X78159988Y-99328527D01*
X78566473Y-99735012D01*
X79097572Y-99955000D01*
X79672428Y-99955000D01*
X80203527Y-99735012D01*
X80610012Y-99328527D01*
X80830000Y-98797428D01*
X80830000Y-98222572D01*
X80610012Y-97691473D01*
X80203527Y-97284988D01*
X79672428Y-97065000D01*
X79097572Y-97065000D01*
X78566473Y-97284988D01*
X78159988Y-97691473D01*
X77940000Y-98222572D01*
X76470000Y-98222572D01*
X76470000Y-96937405D01*
X76570000Y-96695983D01*
X76570000Y-96660000D01*
X84477765Y-96660000D01*
X84565854Y-97102855D01*
X84816711Y-97478289D01*
X85192145Y-97729146D01*
X85523217Y-97795000D01*
X87746783Y-97795000D01*
X88077855Y-97729146D01*
X88453289Y-97478289D01*
X88704146Y-97102855D01*
X88792235Y-96660000D01*
X88704146Y-96217145D01*
X88453289Y-95841711D01*
X88077855Y-95590854D01*
X87746783Y-95525000D01*
X85523217Y-95525000D01*
X85192145Y-95590854D01*
X84816711Y-95841711D01*
X84565854Y-96217145D01*
X84477765Y-96660000D01*
X76570000Y-96660000D01*
X76570000Y-96324017D01*
X76427655Y-95980365D01*
X76164635Y-95717345D01*
X75820983Y-95575000D01*
X75449017Y-95575000D01*
X75105365Y-95717345D01*
X74842345Y-95980365D01*
X74700000Y-96324017D01*
X74700000Y-96695983D01*
X74800000Y-96937405D01*
X74800000Y-97016500D01*
X74800001Y-97016505D01*
X74800001Y-97117842D01*
X74672428Y-97065000D01*
X74097572Y-97065000D01*
X73566473Y-97284988D01*
X73159988Y-97691473D01*
X72940000Y-98222572D01*
X55685000Y-98222572D01*
X55685000Y-96660000D01*
X63727765Y-96660000D01*
X63815854Y-97102855D01*
X64066711Y-97478289D01*
X64442145Y-97729146D01*
X64773217Y-97795000D01*
X66996783Y-97795000D01*
X67327855Y-97729146D01*
X67703289Y-97478289D01*
X67954146Y-97102855D01*
X68042235Y-96660000D01*
X67954146Y-96217145D01*
X67703289Y-95841711D01*
X67327855Y-95590854D01*
X66996783Y-95525000D01*
X64773217Y-95525000D01*
X64442145Y-95590854D01*
X64066711Y-95841711D01*
X63815854Y-96217145D01*
X63727765Y-96660000D01*
X55685000Y-96660000D01*
X55685000Y-94722572D01*
X56690000Y-94722572D01*
X56690000Y-95297428D01*
X56909988Y-95828527D01*
X57316473Y-96235012D01*
X57847572Y-96455000D01*
X58422428Y-96455000D01*
X58953527Y-96235012D01*
X59360012Y-95828527D01*
X59580000Y-95297428D01*
X59580000Y-94722572D01*
X59360012Y-94191473D01*
X58953527Y-93784988D01*
X58422428Y-93565000D01*
X57847572Y-93565000D01*
X57316473Y-93784988D01*
X56909988Y-94191473D01*
X56690000Y-94722572D01*
X55685000Y-94722572D01*
X55685000Y-92222572D01*
X61690000Y-92222572D01*
X61690000Y-92797428D01*
X61909988Y-93328527D01*
X62316473Y-93735012D01*
X62847572Y-93955000D01*
X63422428Y-93955000D01*
X63953527Y-93735012D01*
X64360012Y-93328527D01*
X64580000Y-92797428D01*
X64580000Y-92222572D01*
X64360012Y-91691473D01*
X63953527Y-91284988D01*
X63422428Y-91065000D01*
X62847572Y-91065000D01*
X62316473Y-91284988D01*
X61909988Y-91691473D01*
X61690000Y-92222572D01*
X55685000Y-92222572D01*
X55685000Y-89722572D01*
X56690000Y-89722572D01*
X56690000Y-90297428D01*
X56909988Y-90828527D01*
X57316473Y-91235012D01*
X57847572Y-91455000D01*
X58422428Y-91455000D01*
X58953527Y-91235012D01*
X59360012Y-90828527D01*
X59580000Y-90297428D01*
X59580000Y-89722572D01*
X59518467Y-89574017D01*
X71950000Y-89574017D01*
X71950000Y-89945983D01*
X72092345Y-90289635D01*
X72355365Y-90552655D01*
X72699017Y-90695000D01*
X73070983Y-90695000D01*
X73099745Y-90683087D01*
X73159988Y-90828527D01*
X73566473Y-91235012D01*
X74097572Y-91455000D01*
X74672428Y-91455000D01*
X74800001Y-91402158D01*
X74800001Y-92003495D01*
X74800000Y-92003500D01*
X74800000Y-92082595D01*
X74700000Y-92324017D01*
X74700000Y-92695983D01*
X74842345Y-93039635D01*
X75105365Y-93302655D01*
X75449017Y-93445000D01*
X75820983Y-93445000D01*
X76038799Y-93354778D01*
X76249023Y-93441855D01*
X76620989Y-93441855D01*
X76964641Y-93299510D01*
X77085184Y-93178967D01*
X77376574Y-93178967D01*
X77720226Y-93036622D01*
X77983246Y-92773602D01*
X78125591Y-92429950D01*
X78125591Y-92057984D01*
X78025591Y-91816562D01*
X78025591Y-88004063D01*
X78159988Y-88328527D01*
X78566473Y-88735012D01*
X79097572Y-88955000D01*
X79672428Y-88955000D01*
X80203527Y-88735012D01*
X80610012Y-88328527D01*
X80830000Y-87797428D01*
X80830000Y-87222572D01*
X80814346Y-87184778D01*
X82750000Y-87184778D01*
X82750000Y-87835222D01*
X82998914Y-88436153D01*
X83458847Y-88896086D01*
X84059778Y-89145000D01*
X84710222Y-89145000D01*
X85311153Y-88896086D01*
X85635000Y-88572239D01*
X85958847Y-88896086D01*
X86559778Y-89145000D01*
X87210222Y-89145000D01*
X87811153Y-88896086D01*
X88135000Y-88572239D01*
X88458847Y-88896086D01*
X89059778Y-89145000D01*
X89710222Y-89145000D01*
X90311153Y-88896086D01*
X90771086Y-88436153D01*
X90776620Y-88422792D01*
X91450001Y-88422792D01*
X91450001Y-88794758D01*
X91550001Y-89036181D01*
X91550002Y-89677764D01*
X91533644Y-89760001D01*
X91598449Y-90085801D01*
X91598450Y-90085802D01*
X91783001Y-90362002D01*
X91852719Y-90408586D01*
X91992345Y-90548212D01*
X92092345Y-90789635D01*
X92355365Y-91052655D01*
X92699017Y-91195000D01*
X93070983Y-91195000D01*
X93414635Y-91052655D01*
X93677655Y-90789635D01*
X93820000Y-90445983D01*
X93820000Y-90074017D01*
X93677655Y-89730365D01*
X93414635Y-89467345D01*
X93220001Y-89386725D01*
X93220001Y-89036180D01*
X93320001Y-88794758D01*
X93320001Y-88422792D01*
X93177656Y-88079140D01*
X92914636Y-87816120D01*
X92570984Y-87673775D01*
X92199018Y-87673775D01*
X91855366Y-87816120D01*
X91592346Y-88079140D01*
X91450001Y-88422792D01*
X90776620Y-88422792D01*
X91020000Y-87835222D01*
X91020000Y-87184778D01*
X90771086Y-86583847D01*
X90311153Y-86123914D01*
X89710222Y-85875000D01*
X89059778Y-85875000D01*
X88458847Y-86123914D01*
X88135000Y-86447761D01*
X87811153Y-86123914D01*
X87210222Y-85875000D01*
X86559778Y-85875000D01*
X85958847Y-86123914D01*
X85635000Y-86447761D01*
X85311153Y-86123914D01*
X84710222Y-85875000D01*
X84059778Y-85875000D01*
X83458847Y-86123914D01*
X82998914Y-86583847D01*
X82750000Y-87184778D01*
X80814346Y-87184778D01*
X80610012Y-86691473D01*
X80203527Y-86284988D01*
X79672428Y-86065000D01*
X79097572Y-86065000D01*
X78566473Y-86284988D01*
X78159988Y-86691473D01*
X78025591Y-87015937D01*
X78025591Y-86668888D01*
X79551588Y-85142892D01*
X79621306Y-85096308D01*
X79805857Y-84820108D01*
X79820012Y-84748945D01*
X79848939Y-84736963D01*
X80111959Y-84473943D01*
X80254304Y-84130291D01*
X80254304Y-83758325D01*
X80111959Y-83414673D01*
X79848939Y-83151653D01*
X79505287Y-83009308D01*
X79133321Y-83009308D01*
X78789669Y-83151653D01*
X78526649Y-83414673D01*
X78438122Y-83628396D01*
X78417304Y-83642306D01*
X78232753Y-83918506D01*
X78219168Y-83986802D01*
X78155855Y-83668508D01*
X78155855Y-83668506D01*
X77971304Y-83392306D01*
X77950486Y-83378396D01*
X77861959Y-83164673D01*
X77598939Y-82901653D01*
X77255287Y-82759308D01*
X76883321Y-82759308D01*
X76539669Y-82901653D01*
X76276649Y-83164673D01*
X76210242Y-83324994D01*
X76199017Y-83324994D01*
X75855365Y-83467339D01*
X75592345Y-83730359D01*
X75492345Y-83971782D01*
X75441333Y-84022794D01*
X75203527Y-83784988D01*
X74672428Y-83565000D01*
X74097572Y-83565000D01*
X73566473Y-83784988D01*
X73159988Y-84191473D01*
X73101816Y-84331914D01*
X72914444Y-84331914D01*
X72570792Y-84474259D01*
X72307772Y-84737279D01*
X72192269Y-85016128D01*
X72098448Y-85156541D01*
X72033643Y-85482341D01*
X72050001Y-85564579D01*
X72050000Y-89332595D01*
X71950000Y-89574017D01*
X59518467Y-89574017D01*
X59360012Y-89191473D01*
X58953527Y-88784988D01*
X58657892Y-88662532D01*
X62412073Y-88662532D01*
X62510736Y-88929387D01*
X63120461Y-89155908D01*
X63770460Y-89131856D01*
X64259264Y-88929387D01*
X64357927Y-88662532D01*
X63385000Y-87689605D01*
X62412073Y-88662532D01*
X58657892Y-88662532D01*
X58422428Y-88565000D01*
X57847572Y-88565000D01*
X57316473Y-88784988D01*
X56909988Y-89191473D01*
X56690000Y-89722572D01*
X55685000Y-89722572D01*
X55685000Y-87245461D01*
X61739092Y-87245461D01*
X61763144Y-87895460D01*
X61965613Y-88384264D01*
X62232468Y-88482927D01*
X63205395Y-87510000D01*
X63564605Y-87510000D01*
X64537532Y-88482927D01*
X64543486Y-88480725D01*
X64958847Y-88896086D01*
X65559778Y-89145000D01*
X66210222Y-89145000D01*
X66811153Y-88896086D01*
X67135000Y-88572239D01*
X67458847Y-88896086D01*
X68059778Y-89145000D01*
X68710222Y-89145000D01*
X69311153Y-88896086D01*
X69771086Y-88436153D01*
X70020000Y-87835222D01*
X70020000Y-87184778D01*
X69771086Y-86583847D01*
X69311153Y-86123914D01*
X68710222Y-85875000D01*
X68059778Y-85875000D01*
X67458847Y-86123914D01*
X67135000Y-86447761D01*
X66811153Y-86123914D01*
X66210222Y-85875000D01*
X65559778Y-85875000D01*
X64958847Y-86123914D01*
X64543486Y-86539275D01*
X64537532Y-86537073D01*
X63564605Y-87510000D01*
X63205395Y-87510000D01*
X62232468Y-86537073D01*
X61965613Y-86635736D01*
X61739092Y-87245461D01*
X55685000Y-87245461D01*
X55685000Y-86357468D01*
X62412073Y-86357468D01*
X63385000Y-87330395D01*
X64357927Y-86357468D01*
X64259264Y-86090613D01*
X63649539Y-85864092D01*
X62999540Y-85888144D01*
X62510736Y-86090613D01*
X62412073Y-86357468D01*
X55685000Y-86357468D01*
X55685000Y-79684778D01*
X59450000Y-79684778D01*
X59450000Y-80335222D01*
X59698914Y-80936153D01*
X60158847Y-81396086D01*
X60759778Y-81645000D01*
X61410222Y-81645000D01*
X62011153Y-81396086D01*
X62471086Y-80936153D01*
X62720000Y-80335222D01*
X62720000Y-79684778D01*
X62471086Y-79083847D01*
X62011153Y-78623914D01*
X61410222Y-78375000D01*
X60759778Y-78375000D01*
X60158847Y-78623914D01*
X59698914Y-79083847D01*
X59450000Y-79684778D01*
X55685000Y-79684778D01*
X55685000Y-77974028D01*
X68450000Y-77974028D01*
X68450000Y-78345994D01*
X68592345Y-78689646D01*
X68855365Y-78952666D01*
X69199017Y-79095011D01*
X69294290Y-79095011D01*
X69050000Y-79684778D01*
X69050000Y-80335222D01*
X69298914Y-80936153D01*
X69758847Y-81396086D01*
X70359778Y-81645000D01*
X71010222Y-81645000D01*
X71611153Y-81396086D01*
X71952221Y-81055018D01*
X72124363Y-81126322D01*
X72429028Y-81126322D01*
X72539669Y-81236963D01*
X72883321Y-81379308D01*
X73255287Y-81379308D01*
X73598939Y-81236963D01*
X73861959Y-80973943D01*
X74004304Y-80630291D01*
X74004304Y-80517780D01*
X74026958Y-80403891D01*
X74043316Y-80321654D01*
X74026958Y-80239417D01*
X74026958Y-78487289D01*
X74762467Y-78487289D01*
X74762467Y-78859255D01*
X74904812Y-79202907D01*
X75167832Y-79465927D01*
X75361020Y-79545948D01*
X75361020Y-79580618D01*
X75461243Y-79822578D01*
X75384304Y-80008325D01*
X75384304Y-80380291D01*
X75526649Y-80723943D01*
X75789669Y-80986963D01*
X76031093Y-81086964D01*
X76170717Y-81226588D01*
X76217303Y-81296309D01*
X76493503Y-81480860D01*
X76737067Y-81529308D01*
X76737070Y-81529308D01*
X76819303Y-81545665D01*
X76901536Y-81529308D01*
X79975053Y-81529308D01*
X80057286Y-81545665D01*
X80139519Y-81529308D01*
X80139523Y-81529308D01*
X80383087Y-81480860D01*
X80659287Y-81296309D01*
X80705461Y-81227205D01*
X80906636Y-81143875D01*
X81158847Y-81396086D01*
X81759778Y-81645000D01*
X82410222Y-81645000D01*
X83011153Y-81396086D01*
X83471086Y-80936153D01*
X83720000Y-80335222D01*
X83720000Y-79684778D01*
X83471086Y-79083847D01*
X83011153Y-78623914D01*
X82941348Y-78595000D01*
X83289110Y-78595000D01*
X84492345Y-79798237D01*
X84592345Y-80039658D01*
X84855365Y-80302678D01*
X85199017Y-80445023D01*
X85570983Y-80445023D01*
X85914635Y-80302678D01*
X86177655Y-80039658D01*
X86320000Y-79696006D01*
X86320000Y-79684778D01*
X90050000Y-79684778D01*
X90050000Y-80335222D01*
X90298914Y-80936153D01*
X90758847Y-81396086D01*
X91359778Y-81645000D01*
X91450000Y-81645000D01*
X91450000Y-81945983D01*
X91592345Y-82289635D01*
X91855365Y-82552655D01*
X92199017Y-82695000D01*
X92570983Y-82695000D01*
X92914635Y-82552655D01*
X93177655Y-82289635D01*
X93277655Y-82048212D01*
X93667282Y-81658586D01*
X93737001Y-81612001D01*
X93921552Y-81335801D01*
X93970000Y-81092237D01*
X93970000Y-81092234D01*
X93986357Y-81010001D01*
X93970000Y-80927768D01*
X93970000Y-74092237D01*
X93986358Y-74010000D01*
X93921552Y-73684199D01*
X93872920Y-73611416D01*
X93737001Y-73407999D01*
X93667280Y-73361413D01*
X93283586Y-72977719D01*
X93283584Y-72977716D01*
X92777655Y-72471788D01*
X92677655Y-72230365D01*
X92414635Y-71967345D01*
X92070983Y-71825000D01*
X91699017Y-71825000D01*
X91355365Y-71967345D01*
X91092345Y-72230365D01*
X90950000Y-72574017D01*
X90950000Y-72945983D01*
X91092345Y-73289635D01*
X91355365Y-73552655D01*
X91596788Y-73652655D01*
X92102716Y-74158584D01*
X92102719Y-74158586D01*
X92300000Y-74355867D01*
X92300001Y-78495030D01*
X92010222Y-78375000D01*
X91359778Y-78375000D01*
X90758847Y-78623914D01*
X90298914Y-79083847D01*
X90050000Y-79684778D01*
X86320000Y-79684778D01*
X86320000Y-79324040D01*
X86177655Y-78980388D01*
X85914635Y-78717368D01*
X85673214Y-78617368D01*
X84283564Y-77227720D01*
X84236978Y-77157999D01*
X83975147Y-76983049D01*
X85083063Y-76983049D01*
X85083063Y-77355015D01*
X85225408Y-77698667D01*
X85488428Y-77961687D01*
X85832080Y-78104032D01*
X86204046Y-78104032D01*
X86547698Y-77961687D01*
X86600624Y-77908761D01*
X86642757Y-77926213D01*
X87024233Y-78307689D01*
X87140087Y-78587385D01*
X87403107Y-78850405D01*
X87746759Y-78992750D01*
X88118725Y-78992750D01*
X88462377Y-78850405D01*
X88725397Y-78587385D01*
X88867742Y-78243733D01*
X88867742Y-77871767D01*
X88725397Y-77528115D01*
X88462377Y-77265095D01*
X88259228Y-77180948D01*
X88022785Y-76944505D01*
X88177655Y-76789635D01*
X88320000Y-76445983D01*
X88320000Y-76074017D01*
X88177655Y-75730365D01*
X87914635Y-75467345D01*
X87570983Y-75325000D01*
X87199017Y-75325000D01*
X86957595Y-75425000D01*
X86585063Y-75425000D01*
X86502830Y-75408643D01*
X86420597Y-75425000D01*
X86420594Y-75425000D01*
X86177030Y-75473448D01*
X85900830Y-75657999D01*
X85854245Y-75727718D01*
X85485781Y-76096183D01*
X85416063Y-76142767D01*
X85231511Y-76418967D01*
X85183063Y-76662531D01*
X85183063Y-76662535D01*
X85166706Y-76744768D01*
X85171590Y-76769324D01*
X85083063Y-76983049D01*
X83975147Y-76983049D01*
X83960778Y-76973448D01*
X83717214Y-76925000D01*
X83717210Y-76925000D01*
X83634977Y-76908643D01*
X83552744Y-76925000D01*
X82562405Y-76925000D01*
X82320983Y-76825000D01*
X81949017Y-76825000D01*
X81605365Y-76967345D01*
X81342345Y-77230365D01*
X81200000Y-77574017D01*
X81200000Y-77945983D01*
X81342345Y-78289635D01*
X81524971Y-78472261D01*
X81158847Y-78623914D01*
X80698914Y-79083847D01*
X80568086Y-79399694D01*
X80230917Y-79399694D01*
X79894725Y-79538949D01*
X80020396Y-79235552D01*
X80020396Y-78863586D01*
X79878051Y-78519934D01*
X79615031Y-78256914D01*
X79373608Y-78156913D01*
X79357686Y-78140992D01*
X79311100Y-78071271D01*
X79034900Y-77886720D01*
X78791336Y-77838272D01*
X78791332Y-77838272D01*
X78709099Y-77821915D01*
X78626866Y-77838272D01*
X76124872Y-77838272D01*
X75883450Y-77738272D01*
X75511484Y-77738272D01*
X75167832Y-77880617D01*
X74904812Y-78143637D01*
X74762467Y-78487289D01*
X74026958Y-78487289D01*
X74026958Y-77683110D01*
X74126958Y-77441688D01*
X74126958Y-77069722D01*
X73984613Y-76726070D01*
X73721593Y-76463050D01*
X73377941Y-76320705D01*
X73221947Y-76320705D01*
X73006199Y-76104957D01*
X72662547Y-75962612D01*
X72290581Y-75962612D01*
X71946929Y-76104957D01*
X71683909Y-76367977D01*
X71541564Y-76711629D01*
X71541564Y-77083595D01*
X71641564Y-77325017D01*
X71641565Y-78654326D01*
X71611153Y-78623914D01*
X71010222Y-78375000D01*
X70359778Y-78375000D01*
X70316599Y-78392885D01*
X70421552Y-78235812D01*
X70470000Y-77992248D01*
X70470000Y-77992245D01*
X70486357Y-77910012D01*
X70470000Y-77827779D01*
X70470000Y-77187405D01*
X70570000Y-76945983D01*
X70570000Y-76574017D01*
X70427655Y-76230365D01*
X70164635Y-75967345D01*
X69820983Y-75825000D01*
X69449017Y-75825000D01*
X69105365Y-75967345D01*
X68842345Y-76230365D01*
X68700000Y-76574017D01*
X68700000Y-76945983D01*
X68800000Y-77187406D01*
X68800001Y-77422720D01*
X68592345Y-77630376D01*
X68450000Y-77974028D01*
X55685000Y-77974028D01*
X55685000Y-74774017D01*
X65984456Y-74774017D01*
X65984456Y-75145983D01*
X66126801Y-75489635D01*
X66389821Y-75752655D01*
X66733473Y-75895000D01*
X67105439Y-75895000D01*
X67346861Y-75795000D01*
X69552767Y-75795000D01*
X69635000Y-75811357D01*
X69717233Y-75795000D01*
X69717237Y-75795000D01*
X69960801Y-75746552D01*
X70237001Y-75562001D01*
X70283587Y-75492281D01*
X70451851Y-75324017D01*
X81200000Y-75324017D01*
X81200000Y-75695983D01*
X81342345Y-76039635D01*
X81605365Y-76302655D01*
X81949017Y-76445000D01*
X82320983Y-76445000D01*
X82664635Y-76302655D01*
X82871531Y-76095759D01*
X83472617Y-76095759D01*
X83714039Y-76195759D01*
X84086005Y-76195759D01*
X84429657Y-76053414D01*
X84692677Y-75790394D01*
X84835022Y-75446742D01*
X84835022Y-75074776D01*
X84692677Y-74731124D01*
X84429657Y-74468104D01*
X84086005Y-74325759D01*
X83714039Y-74325759D01*
X83472617Y-74425759D01*
X82466473Y-74425759D01*
X82384240Y-74409402D01*
X82302007Y-74425759D01*
X82302004Y-74425759D01*
X82058440Y-74474207D01*
X81840031Y-74620144D01*
X81605365Y-74717345D01*
X81342345Y-74980365D01*
X81200000Y-75324017D01*
X70451851Y-75324017D01*
X70623213Y-75152655D01*
X70864635Y-75052655D01*
X71127655Y-74789635D01*
X71270000Y-74445983D01*
X71270000Y-74197290D01*
X71427655Y-74039635D01*
X71570000Y-73695983D01*
X71570000Y-73324017D01*
X71466447Y-73074017D01*
X72700000Y-73074017D01*
X72700000Y-73445983D01*
X72842345Y-73789635D01*
X73105365Y-74052655D01*
X73449017Y-74195000D01*
X73820983Y-74195000D01*
X74035002Y-74106351D01*
X74249020Y-74195000D01*
X74620986Y-74195000D01*
X74964638Y-74052655D01*
X75227658Y-73789635D01*
X75327659Y-73548211D01*
X75388276Y-73487594D01*
X75457997Y-73441008D01*
X75642548Y-73164808D01*
X75690996Y-72921244D01*
X75690996Y-72921241D01*
X75707353Y-72839008D01*
X75690996Y-72756775D01*
X75690996Y-71052760D01*
X75849999Y-71052760D01*
X75849999Y-73222711D01*
X75592345Y-73480365D01*
X75450000Y-73824017D01*
X75450000Y-74195983D01*
X75592345Y-74539635D01*
X75855365Y-74802655D01*
X76199017Y-74945000D01*
X76570983Y-74945000D01*
X76914635Y-74802655D01*
X77177655Y-74539635D01*
X77266182Y-74325912D01*
X77287000Y-74312002D01*
X77471551Y-74035802D01*
X77519999Y-73792238D01*
X77519999Y-73792237D01*
X77536357Y-73710001D01*
X77519999Y-73627764D01*
X77519999Y-73074017D01*
X79450001Y-73074017D01*
X79450001Y-73445983D01*
X79592346Y-73789635D01*
X79855366Y-74052655D01*
X80199018Y-74195000D01*
X80570984Y-74195000D01*
X80812406Y-74095000D01*
X86207595Y-74095000D01*
X86449017Y-74195000D01*
X86820983Y-74195000D01*
X87164635Y-74052655D01*
X87427655Y-73789635D01*
X87570000Y-73445983D01*
X87570000Y-73074017D01*
X87427655Y-72730365D01*
X87164635Y-72467345D01*
X86820983Y-72325000D01*
X86449017Y-72325000D01*
X86207595Y-72425000D01*
X80812406Y-72425000D01*
X80570984Y-72325000D01*
X80199018Y-72325000D01*
X79855366Y-72467345D01*
X79592346Y-72730365D01*
X79450001Y-73074017D01*
X77519999Y-73074017D01*
X77519999Y-68945000D01*
X77570983Y-68945000D01*
X77914635Y-68802655D01*
X78177655Y-68539635D01*
X78320000Y-68195983D01*
X78320000Y-67824017D01*
X78177655Y-67480365D01*
X77914635Y-67217345D01*
X77673211Y-67117344D01*
X77290105Y-66734238D01*
X77243519Y-66664517D01*
X76967319Y-66479966D01*
X76723755Y-66431518D01*
X76723751Y-66431518D01*
X76641518Y-66415161D01*
X76559285Y-66431518D01*
X75786450Y-66431518D01*
X75704217Y-66415161D01*
X75621984Y-66431518D01*
X75621981Y-66431518D01*
X75378417Y-66479966D01*
X75102217Y-66664517D01*
X75055632Y-66734236D01*
X74993581Y-66796287D01*
X74914635Y-66717341D01*
X74570983Y-66574996D01*
X74199017Y-66574996D01*
X73855365Y-66717341D01*
X73592345Y-66980361D01*
X73492345Y-67221784D01*
X73102718Y-67611411D01*
X73033000Y-67657995D01*
X72986416Y-67727713D01*
X72848448Y-67934196D01*
X72783643Y-68259996D01*
X72800001Y-68342234D01*
X72800000Y-72832595D01*
X72700000Y-73074017D01*
X71466447Y-73074017D01*
X71427655Y-72980365D01*
X71164635Y-72717345D01*
X70820983Y-72575000D01*
X70449017Y-72575000D01*
X70207595Y-72675000D01*
X69717237Y-72675000D01*
X69635000Y-72658642D01*
X69552763Y-72675000D01*
X69309199Y-72723448D01*
X69032999Y-72907999D01*
X68986413Y-72977720D01*
X68789133Y-73175000D01*
X67967232Y-73175000D01*
X67884999Y-73158643D01*
X67802766Y-73175000D01*
X67802763Y-73175000D01*
X67559199Y-73223448D01*
X67339039Y-73370554D01*
X67105365Y-73467345D01*
X66842345Y-73730365D01*
X66717576Y-74031585D01*
X66389821Y-74167345D01*
X66126801Y-74430365D01*
X65984456Y-74774017D01*
X55685000Y-74774017D01*
X55685000Y-69074017D01*
X67062500Y-69074017D01*
X67062500Y-69445983D01*
X67204845Y-69789635D01*
X67467865Y-70052655D01*
X67709288Y-70152655D01*
X68848916Y-71292285D01*
X68895499Y-71362001D01*
X69171699Y-71546552D01*
X69415263Y-71595000D01*
X69415266Y-71595000D01*
X69497499Y-71611357D01*
X69579732Y-71595000D01*
X69957595Y-71595000D01*
X70199017Y-71695000D01*
X70570983Y-71695000D01*
X70914635Y-71552655D01*
X71177655Y-71289635D01*
X71320000Y-70945983D01*
X71320000Y-70574017D01*
X71177655Y-70230365D01*
X70914635Y-69967345D01*
X70570983Y-69825000D01*
X70199017Y-69825000D01*
X69957595Y-69925000D01*
X69843369Y-69925000D01*
X68890155Y-68971788D01*
X68790155Y-68730365D01*
X68718576Y-68658786D01*
X69648346Y-68658786D01*
X69648346Y-69030752D01*
X69790691Y-69374404D01*
X70053711Y-69637424D01*
X70397363Y-69779769D01*
X70769329Y-69779769D01*
X71112981Y-69637424D01*
X71376001Y-69374404D01*
X71518346Y-69030752D01*
X71518346Y-68658786D01*
X71418346Y-68417364D01*
X71418346Y-68157522D01*
X71923214Y-67652655D01*
X72164635Y-67552655D01*
X72427655Y-67289635D01*
X72570000Y-66945983D01*
X72570000Y-66574017D01*
X72427655Y-66230365D01*
X72164635Y-65967345D01*
X71820983Y-65825000D01*
X71449011Y-65825000D01*
X71105359Y-65967345D01*
X70842339Y-66230365D01*
X70742335Y-66471797D01*
X70051066Y-67163067D01*
X69981345Y-67209653D01*
X69796794Y-67485854D01*
X69748346Y-67729418D01*
X69748346Y-67729421D01*
X69731989Y-67811654D01*
X69748346Y-67893887D01*
X69748346Y-68417364D01*
X69648346Y-68658786D01*
X68718576Y-68658786D01*
X68527135Y-68467345D01*
X68183483Y-68325000D01*
X67811517Y-68325000D01*
X67467865Y-68467345D01*
X67204845Y-68730365D01*
X67062500Y-69074017D01*
X55685000Y-69074017D01*
X55685000Y-64760000D01*
X63727765Y-64760000D01*
X63815854Y-65202855D01*
X64066711Y-65578289D01*
X64442145Y-65829146D01*
X64773217Y-65895000D01*
X66996783Y-65895000D01*
X67327855Y-65829146D01*
X67703289Y-65578289D01*
X67954146Y-65202855D01*
X68042235Y-64760000D01*
X67954146Y-64317145D01*
X67703289Y-63941711D01*
X67327855Y-63690854D01*
X66996783Y-63625000D01*
X64773217Y-63625000D01*
X64442145Y-63690854D01*
X64066711Y-63941711D01*
X63815854Y-64317145D01*
X63727765Y-64760000D01*
X55685000Y-64760000D01*
X55685000Y-62587000D01*
X59800000Y-62587000D01*
X59800000Y-63337000D01*
X59954028Y-63857349D01*
X60295460Y-64279145D01*
X60772316Y-64538173D01*
X60843815Y-64552318D01*
X61058000Y-64429656D01*
X61058000Y-62587000D01*
X61312000Y-62587000D01*
X61312000Y-64429656D01*
X61526185Y-64552318D01*
X61597684Y-64538173D01*
X62074540Y-64279145D01*
X62415972Y-63857349D01*
X62570000Y-63337000D01*
X62570000Y-62587000D01*
X69200000Y-62587000D01*
X69200000Y-62887000D01*
X69354028Y-63407349D01*
X69695460Y-63829145D01*
X70172316Y-64088173D01*
X70243815Y-64102318D01*
X70458000Y-63979656D01*
X70458000Y-62587000D01*
X70712000Y-62587000D01*
X70712000Y-63979656D01*
X70926185Y-64102318D01*
X70997684Y-64088173D01*
X71474540Y-63829145D01*
X71815972Y-63407349D01*
X71970000Y-62887000D01*
X71970000Y-62587000D01*
X70712000Y-62587000D01*
X70458000Y-62587000D01*
X69200000Y-62587000D01*
X62570000Y-62587000D01*
X61312000Y-62587000D01*
X61058000Y-62587000D01*
X59800000Y-62587000D01*
X55685000Y-62587000D01*
X55685000Y-61583000D01*
X59800000Y-61583000D01*
X59800000Y-62333000D01*
X61058000Y-62333000D01*
X61058000Y-60490344D01*
X61312000Y-60490344D01*
X61312000Y-62333000D01*
X62570000Y-62333000D01*
X62570000Y-62033000D01*
X69200000Y-62033000D01*
X69200000Y-62333000D01*
X70458000Y-62333000D01*
X70458000Y-60940344D01*
X70712000Y-60940344D01*
X70712000Y-62333000D01*
X71970000Y-62333000D01*
X71970000Y-62033000D01*
X71939145Y-61928760D01*
X79800000Y-61928760D01*
X79800000Y-62459856D01*
X80003242Y-62950525D01*
X80378783Y-63326066D01*
X80869452Y-63529308D01*
X81400548Y-63529308D01*
X81891217Y-63326066D01*
X82266758Y-62950525D01*
X82387560Y-62658884D01*
X82387560Y-64310000D01*
X82436843Y-64557765D01*
X82577191Y-64767809D01*
X82787235Y-64908157D01*
X83035000Y-64957440D01*
X84735000Y-64957440D01*
X84982765Y-64908157D01*
X85192809Y-64767809D01*
X85333157Y-64557765D01*
X85382440Y-64310000D01*
X85382440Y-62610000D01*
X85333157Y-62362235D01*
X85192809Y-62152191D01*
X84982765Y-62011843D01*
X84937381Y-62002816D01*
X84955625Y-61990625D01*
X85283839Y-61499418D01*
X85389146Y-60970000D01*
X88745908Y-60970000D01*
X88861161Y-61549418D01*
X89189375Y-62040625D01*
X89207619Y-62052816D01*
X89162235Y-62061843D01*
X88952191Y-62202191D01*
X88811843Y-62412235D01*
X88762560Y-62660000D01*
X88762560Y-64360000D01*
X88811843Y-64607765D01*
X88952191Y-64817809D01*
X89162235Y-64958157D01*
X89410000Y-65007440D01*
X91110000Y-65007440D01*
X91357765Y-64958157D01*
X91567809Y-64817809D01*
X91708157Y-64607765D01*
X91757440Y-64360000D01*
X91757440Y-62660000D01*
X91708157Y-62412235D01*
X91567809Y-62202191D01*
X91357765Y-62061843D01*
X91312381Y-62052816D01*
X91330625Y-62040625D01*
X91658839Y-61549418D01*
X91774092Y-60970000D01*
X91658839Y-60390582D01*
X91330625Y-59899375D01*
X90839418Y-59571161D01*
X90406256Y-59485000D01*
X90113744Y-59485000D01*
X89680582Y-59571161D01*
X89189375Y-59899375D01*
X88861161Y-60390582D01*
X88745908Y-60970000D01*
X85389146Y-60970000D01*
X85399092Y-60920000D01*
X85283839Y-60340582D01*
X84955625Y-59849375D01*
X84464418Y-59521161D01*
X84031256Y-59435000D01*
X83738744Y-59435000D01*
X83305582Y-59521161D01*
X82814375Y-59849375D01*
X82486161Y-60340582D01*
X82370908Y-60920000D01*
X82486161Y-61499418D01*
X82814375Y-61990625D01*
X82832619Y-62002816D01*
X82787235Y-62011843D01*
X82577191Y-62152191D01*
X82470000Y-62312612D01*
X82470000Y-61928760D01*
X82266758Y-61438091D01*
X81891217Y-61062550D01*
X81400548Y-60859308D01*
X80869452Y-60859308D01*
X80378783Y-61062550D01*
X80003242Y-61438091D01*
X79800000Y-61928760D01*
X71939145Y-61928760D01*
X71815972Y-61512651D01*
X71474540Y-61090855D01*
X70997684Y-60831827D01*
X70926185Y-60817682D01*
X70712000Y-60940344D01*
X70458000Y-60940344D01*
X70243815Y-60817682D01*
X70172316Y-60831827D01*
X69695460Y-61090855D01*
X69354028Y-61512651D01*
X69200000Y-62033000D01*
X62570000Y-62033000D01*
X62570000Y-61583000D01*
X62415972Y-61062651D01*
X62074540Y-60640855D01*
X61597684Y-60381827D01*
X61526185Y-60367682D01*
X61312000Y-60490344D01*
X61058000Y-60490344D01*
X60843815Y-60367682D01*
X60772316Y-60381827D01*
X60295460Y-60640855D01*
X59954028Y-61062651D01*
X59800000Y-61583000D01*
X55685000Y-61583000D01*
X55685000Y-59744452D01*
X71800000Y-59744452D01*
X71800000Y-60275548D01*
X72003242Y-60766217D01*
X72378783Y-61141758D01*
X72869452Y-61345000D01*
X73400548Y-61345000D01*
X73891217Y-61141758D01*
X74266758Y-60766217D01*
X74470000Y-60275548D01*
X74470000Y-59744452D01*
X74266758Y-59253783D01*
X73891217Y-58878242D01*
X73400548Y-58675000D01*
X72869452Y-58675000D01*
X72378783Y-58878242D01*
X72003242Y-59253783D01*
X71800000Y-59744452D01*
X55685000Y-59744452D01*
X55685000Y-58195275D01*
X56129331Y-58195275D01*
X56191169Y-58431042D01*
X56692122Y-58607419D01*
X57222440Y-58578664D01*
X57578831Y-58431042D01*
X57640669Y-58195275D01*
X56885000Y-57439605D01*
X56129331Y-58195275D01*
X55685000Y-58195275D01*
X55685000Y-57883920D01*
X55713958Y-57953831D01*
X55949725Y-58015669D01*
X56705395Y-57260000D01*
X57064605Y-57260000D01*
X57820275Y-58015669D01*
X58056042Y-57953831D01*
X58232419Y-57452878D01*
X58203664Y-56922560D01*
X58056042Y-56566169D01*
X57820275Y-56504331D01*
X57064605Y-57260000D01*
X56705395Y-57260000D01*
X55949725Y-56504331D01*
X55713958Y-56566169D01*
X55685000Y-56648417D01*
X55685000Y-56324725D01*
X56129331Y-56324725D01*
X56885000Y-57080395D01*
X57640669Y-56324725D01*
X57578831Y-56088958D01*
X57077878Y-55912581D01*
X56547560Y-55941336D01*
X56191169Y-56088958D01*
X56129331Y-56324725D01*
X55685000Y-56324725D01*
X55685000Y-55885091D01*
X64081831Y-55831608D01*
X64066711Y-55841711D01*
X63815854Y-56217145D01*
X63727765Y-56660000D01*
X63815854Y-57102855D01*
X64066711Y-57478289D01*
X64442145Y-57729146D01*
X64773217Y-57795000D01*
X66996783Y-57795000D01*
X67327855Y-57729146D01*
X67703289Y-57478289D01*
X67954146Y-57102855D01*
X68042235Y-56660000D01*
X67954146Y-56217145D01*
X67703289Y-55841711D01*
X67654116Y-55808855D01*
X87099324Y-55685000D01*
X94315000Y-55685000D01*
X94315001Y-118190583D01*
X94315001Y-118190583D01*
G37*
X94315001Y-118190583D02*
X94035957Y-118075000D01*
X93663991Y-118075000D01*
X93320339Y-118217345D01*
X93057319Y-118480365D01*
X92914974Y-118824017D01*
X92914974Y-119195983D01*
X92976995Y-119345715D01*
X92842345Y-119480365D01*
X92700000Y-119824017D01*
X92700000Y-120195983D01*
X92812018Y-120466419D01*
X92812018Y-121325000D01*
X92699017Y-121325000D01*
X92355365Y-121467345D01*
X92092345Y-121730365D01*
X91950000Y-122074017D01*
X91950000Y-122445983D01*
X92052624Y-122693740D01*
X92060363Y-123965828D01*
X91962941Y-124201027D01*
X91962941Y-124572993D01*
X92105286Y-124916645D01*
X92368306Y-125179665D01*
X92711958Y-125322010D01*
X93083924Y-125322010D01*
X93427576Y-125179665D01*
X93550001Y-125057240D01*
X93550001Y-130545682D01*
X93469699Y-130545682D01*
X93126047Y-130688027D01*
X92863027Y-130951047D01*
X92720682Y-131294699D01*
X92720682Y-131320682D01*
X92694699Y-131320682D01*
X92640452Y-131343152D01*
X92662959Y-131230000D01*
X92546650Y-130645275D01*
X92215430Y-130149570D01*
X91719725Y-129818350D01*
X91282598Y-129731400D01*
X90987402Y-129731400D01*
X90550275Y-129818350D01*
X90054570Y-130149570D01*
X89865000Y-130433281D01*
X89675430Y-130149570D01*
X89179725Y-129818350D01*
X88742598Y-129731400D01*
X88447402Y-129731400D01*
X88010275Y-129818350D01*
X87514570Y-130149570D01*
X87183350Y-130645275D01*
X87067041Y-131230000D01*
X87183350Y-131814725D01*
X87514570Y-132310430D01*
X87798281Y-132500000D01*
X87514570Y-132689570D01*
X87183350Y-133185275D01*
X87067041Y-133770000D01*
X87183350Y-134354725D01*
X87514570Y-134850430D01*
X87798281Y-135040000D01*
X87514570Y-135229570D01*
X87183350Y-135725275D01*
X87067041Y-136310000D01*
X87183350Y-136894725D01*
X87514570Y-137390430D01*
X87798281Y-137580000D01*
X87690708Y-137651878D01*
X87677655Y-137620365D01*
X87414635Y-137357345D01*
X87070983Y-137215000D01*
X86699017Y-137215000D01*
X86355365Y-137357345D01*
X86092345Y-137620365D01*
X85950000Y-137964017D01*
X85950000Y-138335983D01*
X86050001Y-138577407D01*
X86050000Y-139122594D01*
X85950000Y-139364017D01*
X85950000Y-139735983D01*
X86092345Y-140079635D01*
X86355365Y-140342655D01*
X86699017Y-140485000D01*
X87070983Y-140485000D01*
X87414635Y-140342655D01*
X87677655Y-140079635D01*
X87690708Y-140048122D01*
X87802826Y-140123037D01*
X87388179Y-140501510D01*
X87140032Y-141030973D01*
X87260531Y-141263000D01*
X88468000Y-141263000D01*
X88468000Y-141243000D01*
X88722000Y-141243000D01*
X88722000Y-141263000D01*
X91008000Y-141263000D01*
X91008000Y-141243000D01*
X91262000Y-141243000D01*
X91262000Y-141263000D01*
X92469469Y-141263000D01*
X92589968Y-141030973D01*
X92341821Y-140501510D01*
X91927174Y-140123037D01*
X92215430Y-139930430D01*
X92546650Y-139434725D01*
X92662959Y-138850000D01*
X92546650Y-138265275D01*
X92215430Y-137769570D01*
X91931719Y-137580000D01*
X92215430Y-137390430D01*
X92546650Y-136894725D01*
X92662959Y-136310000D01*
X92546650Y-135725275D01*
X92215430Y-135229570D01*
X91931719Y-135040000D01*
X92178090Y-134875380D01*
X92355365Y-135052655D01*
X92699017Y-135195000D01*
X93070983Y-135195000D01*
X93414635Y-135052655D01*
X93550001Y-134917289D01*
X93550000Y-144852710D01*
X93459725Y-144762435D01*
X93116073Y-144620090D01*
X92744107Y-144620090D01*
X92400455Y-144762435D01*
X92137435Y-145025455D01*
X92026374Y-145293582D01*
X91923848Y-145200000D01*
X92341821Y-144818490D01*
X92589968Y-144289027D01*
X92469469Y-144057000D01*
X91262000Y-144057000D01*
X91262000Y-146343000D01*
X91282000Y-146343000D01*
X91282000Y-146597000D01*
X91262000Y-146597000D01*
X91262000Y-146617000D01*
X91008000Y-146617000D01*
X91008000Y-146597000D01*
X88722000Y-146597000D01*
X88722000Y-146617000D01*
X88468000Y-146617000D01*
X88468000Y-146597000D01*
X87260531Y-146597000D01*
X87140032Y-146829027D01*
X87388179Y-147358490D01*
X87802826Y-147736963D01*
X87514570Y-147929570D01*
X87183350Y-148425275D01*
X87067041Y-149010000D01*
X87183350Y-149594725D01*
X87514570Y-150090430D01*
X88010275Y-150421650D01*
X88447402Y-150508600D01*
X88742598Y-150508600D01*
X89179725Y-150421650D01*
X89668068Y-150095349D01*
X89673243Y-150121365D01*
X89813591Y-150331409D01*
X90023635Y-150471757D01*
X90271400Y-150521040D01*
X91998600Y-150521040D01*
X92246365Y-150471757D01*
X92456409Y-150331409D01*
X92596757Y-150121365D01*
X92646040Y-149873600D01*
X92646040Y-148146400D01*
X92596757Y-147898635D01*
X92456409Y-147688591D01*
X92246365Y-147548243D01*
X92154050Y-147529881D01*
X92341821Y-147358490D01*
X92568648Y-146874516D01*
X92777385Y-147083253D01*
X92877385Y-147324675D01*
X93140405Y-147587695D01*
X93484057Y-147730040D01*
X93550000Y-147730040D01*
X93550000Y-152664132D01*
X93089131Y-153125001D01*
X81615563Y-153125001D01*
X81953527Y-152985012D01*
X82360012Y-152578527D01*
X82580000Y-152047428D01*
X82580000Y-151472572D01*
X82360012Y-150941473D01*
X81953527Y-150534988D01*
X81422428Y-150315000D01*
X80847572Y-150315000D01*
X80316473Y-150534988D01*
X79909988Y-150941473D01*
X79690000Y-151472572D01*
X79690000Y-152047428D01*
X79909988Y-152578527D01*
X80316473Y-152985012D01*
X80654437Y-153125001D01*
X77956835Y-153125001D01*
X72909554Y-148077721D01*
X72862968Y-148008000D01*
X72620981Y-147846309D01*
X72677655Y-147789635D01*
X72820000Y-147445983D01*
X72820000Y-147084018D01*
X73950000Y-147084018D01*
X73950000Y-147455984D01*
X74050001Y-147697408D01*
X74050000Y-148242595D01*
X73950000Y-148484018D01*
X73950000Y-148855984D01*
X74092345Y-149199636D01*
X74355365Y-149462656D01*
X74699017Y-149605001D01*
X75070983Y-149605001D01*
X75414635Y-149462656D01*
X75677655Y-149199636D01*
X75820000Y-148855984D01*
X75820000Y-148484018D01*
X75720000Y-148242596D01*
X75720000Y-147774988D01*
X77799617Y-147774988D01*
X77874980Y-148022144D01*
X78415834Y-148216916D01*
X78990055Y-148189886D01*
X79395020Y-148022144D01*
X79470383Y-147774988D01*
X78635000Y-146939605D01*
X77799617Y-147774988D01*
X75720000Y-147774988D01*
X75720000Y-147697406D01*
X75820000Y-147455984D01*
X75820000Y-147084018D01*
X75677655Y-146740366D01*
X75478123Y-146540834D01*
X77178084Y-146540834D01*
X77205114Y-147115055D01*
X77372856Y-147520020D01*
X77620012Y-147595383D01*
X78455395Y-146760000D01*
X78814605Y-146760000D01*
X79649988Y-147595383D01*
X79897144Y-147520020D01*
X80091916Y-146979166D01*
X80068070Y-146472572D01*
X82190000Y-146472572D01*
X82190000Y-147047428D01*
X82409988Y-147578527D01*
X82816473Y-147985012D01*
X83347572Y-148205000D01*
X83922428Y-148205000D01*
X84453527Y-147985012D01*
X84860012Y-147578527D01*
X85080000Y-147047428D01*
X85080000Y-146472572D01*
X84860012Y-145941473D01*
X84453527Y-145534988D01*
X83922428Y-145315000D01*
X83347572Y-145315000D01*
X82816473Y-145534988D01*
X82409988Y-145941473D01*
X82190000Y-146472572D01*
X80068070Y-146472572D01*
X80064886Y-146404945D01*
X79897144Y-145999980D01*
X79649988Y-145924617D01*
X78814605Y-146760000D01*
X78455395Y-146760000D01*
X77620012Y-145924617D01*
X77372856Y-145999980D01*
X77178084Y-146540834D01*
X75478123Y-146540834D01*
X75414635Y-146477346D01*
X75070983Y-146335001D01*
X74699017Y-146335001D01*
X74355365Y-146477346D01*
X74092345Y-146740366D01*
X73950000Y-147084018D01*
X72820000Y-147084018D01*
X72820000Y-147074017D01*
X72677655Y-146730365D01*
X72414635Y-146467345D01*
X72173212Y-146367345D01*
X71533587Y-145727720D01*
X71487001Y-145657999D01*
X71210801Y-145473448D01*
X70967237Y-145425000D01*
X70967233Y-145425000D01*
X70885000Y-145408643D01*
X70843057Y-145416986D01*
X70620983Y-145325000D01*
X70249017Y-145325000D01*
X69905365Y-145467345D01*
X69642345Y-145730365D01*
X69500000Y-146074017D01*
X69500000Y-146445983D01*
X69642345Y-146789635D01*
X69905365Y-147052655D01*
X70249017Y-147195000D01*
X70620983Y-147195000D01*
X70633817Y-147189684D01*
X70992345Y-147548212D01*
X71092345Y-147789635D01*
X71105095Y-147802385D01*
X70999198Y-147823449D01*
X70756292Y-147985754D01*
X70730330Y-147975000D01*
X70119670Y-147975000D01*
X69555493Y-148208690D01*
X69379139Y-148385044D01*
X69323327Y-148250301D01*
X69144698Y-148071673D01*
X68911309Y-147975000D01*
X68170750Y-147975000D01*
X68012000Y-148133750D01*
X68012000Y-149383000D01*
X68032000Y-149383000D01*
X68032000Y-149637000D01*
X68012000Y-149637000D01*
X68012000Y-150886250D01*
X68170750Y-151045000D01*
X68911309Y-151045000D01*
X69144698Y-150948327D01*
X69323327Y-150769699D01*
X69379139Y-150634956D01*
X69555493Y-150811310D01*
X70049988Y-151016137D01*
X70049988Y-151173840D01*
X70192333Y-151517492D01*
X70455353Y-151780512D01*
X70799005Y-151922857D01*
X71170971Y-151922857D01*
X71412393Y-151822857D01*
X71824910Y-151822857D01*
X71907143Y-151839214D01*
X71989376Y-151822857D01*
X71989380Y-151822857D01*
X72232944Y-151774409D01*
X72509144Y-151589858D01*
X72555730Y-151520137D01*
X73043195Y-151032673D01*
X73284617Y-150932673D01*
X73343694Y-150873596D01*
X76486761Y-154016663D01*
X55761680Y-153883810D01*
X55751658Y-149945000D01*
X56070983Y-149945000D01*
X56414635Y-149802655D01*
X56677655Y-149539635D01*
X56820000Y-149195983D01*
X56820000Y-148824017D01*
X56731352Y-148610000D01*
X59837560Y-148610000D01*
X59837560Y-150410000D01*
X59886843Y-150657765D01*
X60027191Y-150867809D01*
X60237235Y-151008157D01*
X60485000Y-151057440D01*
X62285000Y-151057440D01*
X62532765Y-151008157D01*
X62742809Y-150867809D01*
X62875058Y-150669886D01*
X62909890Y-150704718D01*
X63024447Y-150590161D01*
X63110852Y-150846643D01*
X63684336Y-151056458D01*
X64294460Y-151030839D01*
X64739148Y-150846643D01*
X64825554Y-150590159D01*
X63925000Y-149689605D01*
X63910858Y-149703748D01*
X63731253Y-149524143D01*
X63745395Y-149510000D01*
X64104605Y-149510000D01*
X65005159Y-150410554D01*
X65261643Y-150324148D01*
X65454962Y-149795750D01*
X66350000Y-149795750D01*
X66350000Y-150536310D01*
X66446673Y-150769699D01*
X66625302Y-150948327D01*
X66858691Y-151045000D01*
X67599250Y-151045000D01*
X67758000Y-150886250D01*
X67758000Y-149637000D01*
X66508750Y-149637000D01*
X66350000Y-149795750D01*
X65454962Y-149795750D01*
X65471458Y-149750664D01*
X65445839Y-149140540D01*
X65261643Y-148695852D01*
X65005159Y-148609446D01*
X64104605Y-149510000D01*
X63745395Y-149510000D01*
X63731253Y-149495858D01*
X63910858Y-149316253D01*
X63925000Y-149330395D01*
X64771705Y-148483690D01*
X66350000Y-148483690D01*
X66350000Y-149224250D01*
X66508750Y-149383000D01*
X67758000Y-149383000D01*
X67758000Y-148133750D01*
X67599250Y-147975000D01*
X66858691Y-147975000D01*
X66625302Y-148071673D01*
X66446673Y-148250301D01*
X66350000Y-148483690D01*
X64771705Y-148483690D01*
X64825554Y-148429841D01*
X64739148Y-148173357D01*
X64165664Y-147963542D01*
X63555540Y-147989161D01*
X63110852Y-148173357D01*
X63024447Y-148429839D01*
X62909890Y-148315282D01*
X62875058Y-148350114D01*
X62742809Y-148152191D01*
X62532765Y-148011843D01*
X62285000Y-147962560D01*
X60485000Y-147962560D01*
X60237235Y-148011843D01*
X60027191Y-148152191D01*
X59886843Y-148362235D01*
X59837560Y-148610000D01*
X56731352Y-148610000D01*
X56726816Y-148599051D01*
X56923212Y-148402655D01*
X57164635Y-148302655D01*
X57427655Y-148039635D01*
X57570000Y-147695983D01*
X57570000Y-147324017D01*
X57427655Y-146980365D01*
X57164635Y-146717345D01*
X56820983Y-146575000D01*
X56449017Y-146575000D01*
X56105365Y-146717345D01*
X55842345Y-146980365D01*
X55744714Y-147216069D01*
X55735921Y-143760000D01*
X63727765Y-143760000D01*
X63815854Y-144202855D01*
X64066711Y-144578289D01*
X64442145Y-144829146D01*
X64773217Y-144895000D01*
X66996783Y-144895000D01*
X67327855Y-144829146D01*
X67703289Y-144578289D01*
X67954146Y-144202855D01*
X68023978Y-143851786D01*
X68249017Y-143945000D01*
X68620983Y-143945000D01*
X68862405Y-143845000D01*
X71310832Y-143845000D01*
X71491214Y-144025382D01*
X71834866Y-144167727D01*
X71839298Y-144167727D01*
X71753242Y-144253783D01*
X71550000Y-144744452D01*
X71550000Y-145275548D01*
X71753242Y-145766217D01*
X72128783Y-146141758D01*
X72619452Y-146345000D01*
X73150548Y-146345000D01*
X73641217Y-146141758D01*
X74016758Y-145766217D01*
X74025541Y-145745012D01*
X77799617Y-145745012D01*
X78635000Y-146580395D01*
X79470383Y-145745012D01*
X79395020Y-145497856D01*
X78854166Y-145303084D01*
X78279945Y-145330114D01*
X77874980Y-145497856D01*
X77799617Y-145745012D01*
X74025541Y-145745012D01*
X74220000Y-145275548D01*
X74220000Y-144744452D01*
X74031357Y-144289027D01*
X87140032Y-144289027D01*
X87388179Y-144818490D01*
X87806152Y-145200000D01*
X87388179Y-145581510D01*
X87140032Y-146110973D01*
X87260531Y-146343000D01*
X88468000Y-146343000D01*
X88468000Y-144057000D01*
X88722000Y-144057000D01*
X88722000Y-146343000D01*
X91008000Y-146343000D01*
X91008000Y-144057000D01*
X88722000Y-144057000D01*
X88468000Y-144057000D01*
X87260531Y-144057000D01*
X87140032Y-144289027D01*
X74031357Y-144289027D01*
X74016758Y-144253783D01*
X73641217Y-143878242D01*
X73150548Y-143675000D01*
X72849690Y-143675000D01*
X72955849Y-143418710D01*
X72955849Y-143046744D01*
X72842874Y-142773997D01*
X77950000Y-142773997D01*
X77950000Y-143145963D01*
X78092345Y-143489615D01*
X78355365Y-143752635D01*
X78699017Y-143894980D01*
X79070983Y-143894980D01*
X79195046Y-143843592D01*
X79409989Y-143886347D01*
X79617853Y-143845000D01*
X81568311Y-143845000D01*
X81689017Y-143894998D01*
X82060983Y-143894998D01*
X82404635Y-143752653D01*
X82667655Y-143489633D01*
X82810000Y-143145981D01*
X82810000Y-142774015D01*
X82695286Y-142497070D01*
X82820000Y-142195983D01*
X82820000Y-141824017D01*
X82788939Y-141749027D01*
X87140032Y-141749027D01*
X87388179Y-142278490D01*
X87806152Y-142660000D01*
X87388179Y-143041510D01*
X87140032Y-143570973D01*
X87260531Y-143803000D01*
X88468000Y-143803000D01*
X88468000Y-141517000D01*
X88722000Y-141517000D01*
X88722000Y-143803000D01*
X91008000Y-143803000D01*
X91008000Y-141517000D01*
X91262000Y-141517000D01*
X91262000Y-143803000D01*
X92469469Y-143803000D01*
X92589968Y-143570973D01*
X92341821Y-143041510D01*
X91923848Y-142660000D01*
X92341821Y-142278490D01*
X92589968Y-141749027D01*
X92469469Y-141517000D01*
X91262000Y-141517000D01*
X91008000Y-141517000D01*
X88722000Y-141517000D01*
X88468000Y-141517000D01*
X87260531Y-141517000D01*
X87140032Y-141749027D01*
X82788939Y-141749027D01*
X82677655Y-141480365D01*
X82414635Y-141217345D01*
X82070983Y-141075000D01*
X81699017Y-141075000D01*
X81355365Y-141217345D01*
X81147624Y-141425086D01*
X80662393Y-141425086D01*
X80420971Y-141325086D01*
X80049005Y-141325086D01*
X79705353Y-141467431D01*
X79442333Y-141730451D01*
X79299988Y-142074103D01*
X79299988Y-142115583D01*
X79293051Y-142116963D01*
X79070983Y-142024980D01*
X78699017Y-142024980D01*
X78355365Y-142167325D01*
X78092345Y-142430345D01*
X77950000Y-142773997D01*
X72842874Y-142773997D01*
X72813504Y-142703092D01*
X72550484Y-142440072D01*
X72281176Y-142328521D01*
X72123923Y-142223448D01*
X71884505Y-142175825D01*
X71970000Y-141887000D01*
X71970000Y-141587000D01*
X70712000Y-141587000D01*
X70712000Y-141607000D01*
X70458000Y-141607000D01*
X70458000Y-141587000D01*
X69200000Y-141587000D01*
X69200000Y-141887000D01*
X69285251Y-142175000D01*
X68862405Y-142175000D01*
X68620983Y-142075000D01*
X68249017Y-142075000D01*
X67905365Y-142217345D01*
X67642345Y-142480365D01*
X67505885Y-142809810D01*
X67327855Y-142690854D01*
X66996783Y-142625000D01*
X64773217Y-142625000D01*
X64442145Y-142690854D01*
X64066711Y-142941711D01*
X63815854Y-143317145D01*
X63727765Y-143760000D01*
X55735921Y-143760000D01*
X55730391Y-141587000D01*
X59800000Y-141587000D01*
X59800000Y-142337000D01*
X59954028Y-142857349D01*
X60295460Y-143279145D01*
X60772316Y-143538173D01*
X60843815Y-143552318D01*
X61058000Y-143429656D01*
X61058000Y-141587000D01*
X61312000Y-141587000D01*
X61312000Y-143429656D01*
X61526185Y-143552318D01*
X61597684Y-143538173D01*
X62074540Y-143279145D01*
X62415972Y-142857349D01*
X62570000Y-142337000D01*
X62570000Y-141587000D01*
X61312000Y-141587000D01*
X61058000Y-141587000D01*
X59800000Y-141587000D01*
X55730391Y-141587000D01*
X55727836Y-140583000D01*
X59800000Y-140583000D01*
X59800000Y-141333000D01*
X61058000Y-141333000D01*
X61058000Y-139490344D01*
X61312000Y-139490344D01*
X61312000Y-141333000D01*
X62570000Y-141333000D01*
X62570000Y-141033000D01*
X69200000Y-141033000D01*
X69200000Y-141333000D01*
X70458000Y-141333000D01*
X70458000Y-141313000D01*
X70712000Y-141313000D01*
X70712000Y-141333000D01*
X71970000Y-141333000D01*
X71970000Y-141033000D01*
X71815972Y-140512651D01*
X71713444Y-140385991D01*
X71734913Y-140377098D01*
X72357607Y-140377098D01*
X72599029Y-140477098D01*
X72970995Y-140477098D01*
X73300001Y-140340820D01*
X73300000Y-141082594D01*
X73200000Y-141324017D01*
X73200000Y-141695983D01*
X73342345Y-142039635D01*
X73605365Y-142302655D01*
X73949017Y-142445000D01*
X74320983Y-142445000D01*
X74664635Y-142302655D01*
X74927655Y-142039635D01*
X75070000Y-141695983D01*
X75070000Y-141324017D01*
X74970000Y-141082595D01*
X74970000Y-139938321D01*
X74986358Y-139856084D01*
X74921552Y-139530283D01*
X74812905Y-139367682D01*
X74737001Y-139254083D01*
X74667282Y-139207499D01*
X73687515Y-138227732D01*
X73640929Y-138158011D01*
X73364729Y-137973460D01*
X73121165Y-137925012D01*
X73121161Y-137925012D01*
X73038928Y-137908655D01*
X72956695Y-137925012D01*
X71062405Y-137925012D01*
X70820983Y-137825012D01*
X70449017Y-137825012D01*
X70105365Y-137967357D01*
X69842345Y-138230377D01*
X69700000Y-138574029D01*
X69700000Y-138945995D01*
X69842345Y-139289647D01*
X70105365Y-139552667D01*
X70449017Y-139695012D01*
X70450000Y-139695012D01*
X70450000Y-139695983D01*
X70482730Y-139775000D01*
X70457998Y-139775000D01*
X70457998Y-139940343D01*
X70243815Y-139817682D01*
X70172316Y-139831827D01*
X69695460Y-140090855D01*
X69354028Y-140512651D01*
X69200000Y-141033000D01*
X62570000Y-141033000D01*
X62570000Y-140583000D01*
X62415972Y-140062651D01*
X62074540Y-139640855D01*
X61597684Y-139381827D01*
X61526185Y-139367682D01*
X61312000Y-139490344D01*
X61058000Y-139490344D01*
X60843815Y-139367682D01*
X60772316Y-139381827D01*
X60295460Y-139640855D01*
X59954028Y-140062651D01*
X59800000Y-140583000D01*
X55727836Y-140583000D01*
X55725576Y-139695000D01*
X56070983Y-139695000D01*
X56414635Y-139552655D01*
X56677655Y-139289635D01*
X56820000Y-138945983D01*
X56820000Y-138695000D01*
X57070983Y-138695000D01*
X57312405Y-138595000D01*
X57802767Y-138595000D01*
X57885000Y-138611357D01*
X57967233Y-138595000D01*
X57967237Y-138595000D01*
X58210801Y-138546552D01*
X58487001Y-138362001D01*
X58533587Y-138292280D01*
X58673211Y-138152656D01*
X58914635Y-138052655D01*
X59177655Y-137789635D01*
X59320000Y-137445983D01*
X59320000Y-137074017D01*
X59177655Y-136730365D01*
X58914635Y-136467345D01*
X58570983Y-136325000D01*
X58199017Y-136325000D01*
X57855365Y-136467345D01*
X57592345Y-136730365D01*
X57511725Y-136925000D01*
X57312405Y-136925000D01*
X57070983Y-136825000D01*
X56720000Y-136825000D01*
X56720000Y-135574025D01*
X61749969Y-135574025D01*
X61749969Y-135945991D01*
X61892314Y-136289643D01*
X62155334Y-136552663D01*
X62498986Y-136695008D01*
X62650001Y-136695008D01*
X62650001Y-136808754D01*
X62792346Y-137152406D01*
X63055366Y-137415426D01*
X63399018Y-137557771D01*
X63770984Y-137557771D01*
X64012406Y-137457771D01*
X64676330Y-137457771D01*
X64809200Y-137546552D01*
X65134999Y-137611357D01*
X65310724Y-137576404D01*
X65404215Y-137595000D01*
X65404218Y-137595000D01*
X65486451Y-137611357D01*
X65568684Y-137595000D01*
X66198848Y-137595000D01*
X66198872Y-137595010D01*
X66202682Y-137595010D01*
X66284865Y-137611357D01*
X66367048Y-137595010D01*
X66570838Y-137595010D01*
X66666600Y-137555344D01*
X66710801Y-137546552D01*
X66748272Y-137521514D01*
X66914490Y-137452665D01*
X67177510Y-137189645D01*
X67225404Y-137074017D01*
X73950000Y-137074017D01*
X73950000Y-137445983D01*
X74092345Y-137789635D01*
X74355365Y-138052655D01*
X74578575Y-138145111D01*
X74817208Y-138304561D01*
X75060772Y-138353009D01*
X75143009Y-138369367D01*
X75225246Y-138353009D01*
X78796289Y-138353009D01*
X79037711Y-138453009D01*
X79409677Y-138453009D01*
X79753329Y-138310664D01*
X80016349Y-138047644D01*
X80158694Y-137703992D01*
X80158694Y-137574017D01*
X82250000Y-137574017D01*
X82250000Y-137945983D01*
X82392345Y-138289635D01*
X82655365Y-138552655D01*
X82999017Y-138695000D01*
X83370983Y-138695000D01*
X83612405Y-138595000D01*
X83838769Y-138595000D01*
X83921002Y-138611357D01*
X84003235Y-138595000D01*
X84003239Y-138595000D01*
X84246803Y-138546552D01*
X84523003Y-138362001D01*
X84569589Y-138292280D01*
X85317295Y-137544576D01*
X85387010Y-137497994D01*
X85571561Y-137221794D01*
X85620009Y-136978230D01*
X85620009Y-136978227D01*
X85636366Y-136895994D01*
X85620009Y-136813761D01*
X85620009Y-134492241D01*
X85636366Y-134410008D01*
X85620009Y-134327775D01*
X85620009Y-134327772D01*
X85571561Y-134084208D01*
X85387010Y-133808008D01*
X85317289Y-133761422D01*
X85277656Y-133721789D01*
X85177655Y-133480365D01*
X84914635Y-133217345D01*
X84570983Y-133075000D01*
X84199017Y-133075000D01*
X83855365Y-133217345D01*
X83592345Y-133480365D01*
X83450000Y-133824017D01*
X83450000Y-133928123D01*
X83355365Y-133967322D01*
X83092345Y-134230342D01*
X82950000Y-134573994D01*
X82950000Y-134945960D01*
X83092345Y-135289612D01*
X83350000Y-135547267D01*
X83349999Y-135972711D01*
X83092345Y-136230365D01*
X82950000Y-136574017D01*
X82950000Y-136845303D01*
X82655365Y-136967345D01*
X82392345Y-137230365D01*
X82250000Y-137574017D01*
X80158694Y-137574017D01*
X80158694Y-137332026D01*
X80016349Y-136988374D01*
X79753329Y-136725354D01*
X79409677Y-136583009D01*
X79037711Y-136583009D01*
X78796289Y-136683009D01*
X75630299Y-136683009D01*
X75414635Y-136467345D01*
X75070983Y-136325000D01*
X74699017Y-136325000D01*
X74355365Y-136467345D01*
X74092345Y-136730365D01*
X73950000Y-137074017D01*
X67225404Y-137074017D01*
X67319855Y-136845993D01*
X67319855Y-136730737D01*
X67327855Y-136729146D01*
X67703289Y-136478289D01*
X67954146Y-136102855D01*
X68042235Y-135660000D01*
X67954146Y-135217145D01*
X67703289Y-134841711D01*
X67327855Y-134590854D01*
X66996783Y-134525000D01*
X64773217Y-134525000D01*
X64442145Y-134590854D01*
X64091721Y-134825000D01*
X62867214Y-134825000D01*
X62784977Y-134808642D01*
X62702740Y-134825000D01*
X62702700Y-134825008D01*
X62498986Y-134825008D01*
X62155334Y-134967353D01*
X61892314Y-135230373D01*
X61749969Y-135574025D01*
X56720000Y-135574025D01*
X56720000Y-129574017D01*
X62450000Y-129574017D01*
X62450000Y-129945983D01*
X62550000Y-130187405D01*
X62550001Y-132082593D01*
X62450000Y-132324017D01*
X62450000Y-132695983D01*
X62592345Y-133039635D01*
X62855365Y-133302655D01*
X63199017Y-133445000D01*
X63570983Y-133445000D01*
X63914635Y-133302655D01*
X64177655Y-133039635D01*
X64320000Y-132695983D01*
X64320000Y-132324017D01*
X64220000Y-132082595D01*
X64220000Y-130235294D01*
X65611273Y-130235294D01*
X65611273Y-130607260D01*
X65753618Y-130950912D01*
X66016638Y-131213932D01*
X66360290Y-131356277D01*
X66732256Y-131356277D01*
X67075908Y-131213932D01*
X67338928Y-130950912D01*
X67438928Y-130709489D01*
X67603417Y-130545001D01*
X67856511Y-130545001D01*
X67856511Y-130595994D01*
X67998856Y-130939646D01*
X68261876Y-131202666D01*
X68605528Y-131345011D01*
X68809319Y-131345011D01*
X68891500Y-131361358D01*
X68973681Y-131345011D01*
X68977494Y-131345011D01*
X68977521Y-131345000D01*
X69957595Y-131345000D01*
X70199017Y-131445000D01*
X70570983Y-131445000D01*
X70909238Y-131304890D01*
X70852720Y-131361409D01*
X70782999Y-131407995D01*
X70598448Y-131684196D01*
X70550000Y-131927760D01*
X70550000Y-131927763D01*
X70533643Y-132009996D01*
X70550000Y-132092230D01*
X70550001Y-133203483D01*
X70550000Y-133203487D01*
X70550000Y-133282582D01*
X70450000Y-133524004D01*
X70450000Y-133895970D01*
X70552047Y-134142335D01*
X70468945Y-134342962D01*
X70468945Y-134714928D01*
X70611290Y-135058580D01*
X70874310Y-135321600D01*
X71217962Y-135463945D01*
X71589928Y-135463945D01*
X71803653Y-135375418D01*
X71828209Y-135380302D01*
X71910442Y-135363945D01*
X71910446Y-135363945D01*
X72154010Y-135315497D01*
X72430210Y-135130946D01*
X72476796Y-135061226D01*
X72917285Y-134620738D01*
X72987001Y-134574155D01*
X73034785Y-134502642D01*
X73171552Y-134297955D01*
X73175945Y-134275870D01*
X73220000Y-134054391D01*
X73220000Y-134054388D01*
X73236357Y-133972155D01*
X73220000Y-133889922D01*
X73220000Y-132437405D01*
X73320000Y-132195983D01*
X73320000Y-131824017D01*
X73195014Y-131522272D01*
X73427651Y-131289635D01*
X73569996Y-130945983D01*
X73569996Y-130574017D01*
X73427651Y-130230365D01*
X73164631Y-129967345D01*
X72923208Y-129867345D01*
X72233584Y-129177721D01*
X72186998Y-129108000D01*
X71910798Y-128923449D01*
X71667234Y-128875001D01*
X71667230Y-128875001D01*
X71584997Y-128858644D01*
X71502764Y-128875001D01*
X67339781Y-128875001D01*
X67257548Y-128858644D01*
X67175315Y-128875001D01*
X67175312Y-128875001D01*
X66931748Y-128923449D01*
X66655548Y-129108000D01*
X66608963Y-129177719D01*
X66258061Y-129528622D01*
X66016638Y-129628622D01*
X65753618Y-129891642D01*
X65611273Y-130235294D01*
X64220000Y-130235294D01*
X64220000Y-130187405D01*
X64320000Y-129945983D01*
X64320000Y-129574017D01*
X64177655Y-129230365D01*
X63914635Y-128967345D01*
X63570983Y-128825000D01*
X63199017Y-128825000D01*
X62855365Y-128967345D01*
X62592345Y-129230365D01*
X62450000Y-129574017D01*
X56720000Y-129574017D01*
X56720000Y-126758325D01*
X59900000Y-126758325D01*
X59900000Y-127130291D01*
X60042345Y-127473943D01*
X60305365Y-127736963D01*
X60649017Y-127879308D01*
X61020983Y-127879308D01*
X61262405Y-127779308D01*
X65237021Y-127779308D01*
X65318014Y-127860301D01*
X65661666Y-128002646D01*
X66033632Y-128002646D01*
X66377284Y-127860301D01*
X66604595Y-127632990D01*
X66875007Y-127744998D01*
X67246973Y-127744998D01*
X67590625Y-127602653D01*
X67853645Y-127339633D01*
X67995990Y-126995981D01*
X67995990Y-126624015D01*
X67853645Y-126280363D01*
X67775438Y-126202156D01*
X68358610Y-126202156D01*
X68358610Y-126574122D01*
X68500955Y-126917774D01*
X68763975Y-127180794D01*
X69107627Y-127323139D01*
X69479593Y-127323139D01*
X69823245Y-127180794D01*
X70080899Y-126923140D01*
X70099580Y-126923140D01*
X70092345Y-126930375D01*
X69950000Y-127274027D01*
X69950000Y-127645993D01*
X70092345Y-127989645D01*
X70355365Y-128252665D01*
X70699017Y-128395010D01*
X71070983Y-128395010D01*
X71312405Y-128295010D01*
X72052767Y-128295010D01*
X72135000Y-128311367D01*
X72217233Y-128295010D01*
X72217237Y-128295010D01*
X72460801Y-128246562D01*
X72680961Y-128099456D01*
X72857470Y-128026343D01*
X73143957Y-128145010D01*
X73339143Y-128145010D01*
X73742345Y-128548212D01*
X73842345Y-128789635D01*
X74105365Y-129052655D01*
X74449017Y-129195000D01*
X74820983Y-129195000D01*
X75164635Y-129052655D01*
X75275276Y-128942014D01*
X75579941Y-128942014D01*
X75923593Y-128799669D01*
X76033094Y-128690168D01*
X79222240Y-128690168D01*
X79222240Y-129062134D01*
X79364585Y-129405786D01*
X79627605Y-129668806D01*
X79968211Y-129809889D01*
X79999596Y-129830860D01*
X80243160Y-129879308D01*
X80325397Y-129895666D01*
X80407634Y-129879308D01*
X84405514Y-129879308D01*
X84442637Y-129894685D01*
X84539070Y-129894685D01*
X84543997Y-129895665D01*
X84548924Y-129894685D01*
X84814603Y-129894685D01*
X85158255Y-129752340D01*
X85421275Y-129489320D01*
X85563620Y-129145668D01*
X85563620Y-128773702D01*
X85421275Y-128430050D01*
X85158255Y-128167030D01*
X84814603Y-128024685D01*
X84442637Y-128024685D01*
X84098985Y-128167030D01*
X84056707Y-128209308D01*
X80812687Y-128209308D01*
X80686875Y-128083496D01*
X80343223Y-127941151D01*
X79971257Y-127941151D01*
X79627605Y-128083496D01*
X79364585Y-128346516D01*
X79222240Y-128690168D01*
X76033094Y-128690168D01*
X76186613Y-128536649D01*
X76328958Y-128192997D01*
X76328958Y-127821031D01*
X76186613Y-127477379D01*
X75923593Y-127214359D01*
X75682171Y-127114359D01*
X74891829Y-126324017D01*
X83950000Y-126324017D01*
X83950000Y-126695983D01*
X84092345Y-127039635D01*
X84355365Y-127302655D01*
X84699017Y-127445000D01*
X85070983Y-127445000D01*
X85414635Y-127302655D01*
X85622290Y-127095000D01*
X86207595Y-127095000D01*
X86449017Y-127195000D01*
X86820983Y-127195000D01*
X87164635Y-127052655D01*
X87427655Y-126789635D01*
X87570000Y-126445983D01*
X87570000Y-126074017D01*
X87427655Y-125730365D01*
X87164635Y-125467345D01*
X86820983Y-125325000D01*
X86449017Y-125325000D01*
X86207595Y-125425000D01*
X85217232Y-125425000D01*
X85134999Y-125408643D01*
X85052766Y-125425000D01*
X85052763Y-125425000D01*
X84809199Y-125473448D01*
X84589039Y-125620554D01*
X84355365Y-125717345D01*
X84092345Y-125980365D01*
X83950000Y-126324017D01*
X74891829Y-126324017D01*
X74123671Y-125555860D01*
X74077085Y-125486139D01*
X73800885Y-125301588D01*
X73557321Y-125253140D01*
X73557317Y-125253140D01*
X73475084Y-125236783D01*
X73392851Y-125253140D01*
X69675846Y-125253140D01*
X69593609Y-125236782D01*
X69511372Y-125253140D01*
X69267808Y-125301588D01*
X68991608Y-125486139D01*
X68977698Y-125506957D01*
X68763975Y-125595484D01*
X68500955Y-125858504D01*
X68358610Y-126202156D01*
X67775438Y-126202156D01*
X67590625Y-126017343D01*
X67349202Y-125917343D01*
X67020869Y-125589010D01*
X66974283Y-125519289D01*
X66698083Y-125334738D01*
X66454519Y-125286290D01*
X66454515Y-125286290D01*
X66372282Y-125269933D01*
X66290049Y-125286290D01*
X64375791Y-125286290D01*
X64134369Y-125186290D01*
X63762403Y-125186290D01*
X63418751Y-125328635D01*
X63155731Y-125591655D01*
X63013386Y-125935307D01*
X63013386Y-126109308D01*
X61262405Y-126109308D01*
X61020983Y-126009308D01*
X60649017Y-126009308D01*
X60305365Y-126151653D01*
X60042345Y-126414673D01*
X59900000Y-126758325D01*
X56720000Y-126758325D01*
X56720000Y-125440740D01*
X56848295Y-125440740D01*
X57191947Y-125298395D01*
X57307149Y-125183193D01*
X57605707Y-125183193D01*
X57949359Y-125040848D01*
X58212379Y-124777828D01*
X58354724Y-124434176D01*
X58354724Y-124062210D01*
X58254724Y-123820788D01*
X58254724Y-123376956D01*
X58271081Y-123294723D01*
X58254724Y-123212488D01*
X58254724Y-123212487D01*
X58206276Y-122968923D01*
X58021725Y-122692723D01*
X57952007Y-122646139D01*
X57657680Y-122351813D01*
X57557680Y-122110390D01*
X57294660Y-121847370D01*
X56951008Y-121705025D01*
X56579042Y-121705025D01*
X56235390Y-121847370D01*
X55972370Y-122110390D01*
X55962712Y-122133706D01*
X55820983Y-122075000D01*
X55685000Y-122075000D01*
X55685000Y-120258325D01*
X58884304Y-120258325D01*
X58884304Y-120630291D01*
X59026649Y-120973943D01*
X59289669Y-121236963D01*
X59531092Y-121336964D01*
X60184291Y-121990163D01*
X60184292Y-124437803D01*
X60184291Y-124437808D01*
X60184291Y-124516903D01*
X60084291Y-124758325D01*
X60084291Y-125130291D01*
X60226636Y-125473943D01*
X60489656Y-125736963D01*
X60833308Y-125879308D01*
X61205274Y-125879308D01*
X61481967Y-125764698D01*
X61675887Y-125845022D01*
X62047853Y-125845022D01*
X62391505Y-125702677D01*
X62654525Y-125439657D01*
X62796870Y-125096005D01*
X62796870Y-124724039D01*
X62696870Y-124482617D01*
X62696870Y-121998538D01*
X63120461Y-122155908D01*
X63770460Y-122131856D01*
X64259264Y-121929387D01*
X64357927Y-121662532D01*
X63385000Y-120689605D01*
X63370858Y-120703748D01*
X63191253Y-120524143D01*
X63205395Y-120510000D01*
X63564605Y-120510000D01*
X64537532Y-121482927D01*
X64543486Y-121480725D01*
X64958847Y-121896086D01*
X65015730Y-121919648D01*
X64725435Y-122039892D01*
X64462415Y-122302912D01*
X64320070Y-122646564D01*
X64320070Y-123018530D01*
X64420070Y-123259953D01*
X64420071Y-124032928D01*
X64382379Y-124123924D01*
X64382379Y-124495890D01*
X64524724Y-124839542D01*
X64787744Y-125102562D01*
X65131396Y-125244907D01*
X65503362Y-125244907D01*
X65847014Y-125102562D01*
X66110034Y-124839542D01*
X66252379Y-124495890D01*
X66252379Y-124123924D01*
X66110034Y-123780272D01*
X66090070Y-123760308D01*
X66090070Y-123259952D01*
X66190070Y-123018530D01*
X66190070Y-122646564D01*
X66047725Y-122302912D01*
X65889813Y-122145000D01*
X66210222Y-122145000D01*
X66811153Y-121896086D01*
X67135000Y-121572239D01*
X67458847Y-121896086D01*
X68059778Y-122145000D01*
X68201687Y-122145000D01*
X68297245Y-122375700D01*
X68297246Y-122969112D01*
X68212289Y-123054069D01*
X67970865Y-123154070D01*
X67707845Y-123417090D01*
X67565500Y-123760742D01*
X67565500Y-124132708D01*
X67707845Y-124476360D01*
X67970865Y-124739380D01*
X68314517Y-124881725D01*
X68686483Y-124881725D01*
X69030135Y-124739380D01*
X69293155Y-124476360D01*
X69393156Y-124234936D01*
X69664525Y-123963567D01*
X69734246Y-123916981D01*
X69918797Y-123640781D01*
X69967245Y-123397217D01*
X69983603Y-123314980D01*
X69967245Y-123232743D01*
X69967245Y-123074017D01*
X70449978Y-123074017D01*
X70449978Y-123445983D01*
X70592323Y-123789635D01*
X70855343Y-124052655D01*
X71089017Y-124149446D01*
X71309177Y-124296552D01*
X71552741Y-124345000D01*
X71552744Y-124345000D01*
X71634977Y-124361357D01*
X71717210Y-124345000D01*
X72957595Y-124345000D01*
X73199017Y-124445000D01*
X73570983Y-124445000D01*
X73914635Y-124302655D01*
X74177655Y-124039635D01*
X74320000Y-123695983D01*
X74320000Y-123376433D01*
X75601703Y-123376433D01*
X75601703Y-123748399D01*
X75744048Y-124092051D01*
X76007068Y-124355071D01*
X76350720Y-124497416D01*
X76722686Y-124497416D01*
X76964108Y-124397416D01*
X77808517Y-124397416D01*
X77890750Y-124413773D01*
X77972983Y-124397416D01*
X77972987Y-124397416D01*
X78216551Y-124348968D01*
X78492751Y-124164417D01*
X78519080Y-124125012D01*
X78743331Y-124032125D01*
X79006351Y-123769105D01*
X79148696Y-123425453D01*
X79148696Y-123053487D01*
X79006351Y-122709835D01*
X78743331Y-122446815D01*
X78399679Y-122304470D01*
X78027713Y-122304470D01*
X77684061Y-122446815D01*
X77421041Y-122709835D01*
X77413759Y-122727416D01*
X76964108Y-122727416D01*
X76722686Y-122627416D01*
X76350720Y-122627416D01*
X76007068Y-122769761D01*
X75744048Y-123032781D01*
X75601703Y-123376433D01*
X74320000Y-123376433D01*
X74320000Y-123324017D01*
X74177655Y-122980365D01*
X73914635Y-122717345D01*
X73570983Y-122575000D01*
X73199017Y-122575000D01*
X72957595Y-122675000D01*
X72122268Y-122675000D01*
X71914613Y-122467345D01*
X71570961Y-122325000D01*
X71198995Y-122325000D01*
X70855343Y-122467345D01*
X70592323Y-122730365D01*
X70449978Y-123074017D01*
X69967245Y-123074017D01*
X69967245Y-122375699D01*
X70067245Y-122134277D01*
X70067245Y-121762311D01*
X69924900Y-121418659D01*
X69821261Y-121315020D01*
X70020000Y-120835222D01*
X70020000Y-120184778D01*
X69771086Y-119583847D01*
X69311153Y-119123914D01*
X68710222Y-118875000D01*
X68059778Y-118875000D01*
X67458847Y-119123914D01*
X67135000Y-119447761D01*
X66811153Y-119123914D01*
X66210222Y-118875000D01*
X65559778Y-118875000D01*
X64958847Y-119123914D01*
X64543486Y-119539275D01*
X64537532Y-119537073D01*
X63564605Y-120510000D01*
X63205395Y-120510000D01*
X62232468Y-119537073D01*
X61965613Y-119635736D01*
X61755951Y-120200082D01*
X60913337Y-119357468D01*
X62412073Y-119357468D01*
X63385000Y-120330395D01*
X64357927Y-119357468D01*
X64259264Y-119090613D01*
X63649539Y-118864092D01*
X62999540Y-118888144D01*
X62510736Y-119090613D01*
X62412073Y-119357468D01*
X60913337Y-119357468D01*
X60777656Y-119221788D01*
X60677655Y-118980365D01*
X60414635Y-118717345D01*
X60070983Y-118575000D01*
X59699017Y-118575000D01*
X59355365Y-118717345D01*
X59092345Y-118980365D01*
X58950000Y-119324017D01*
X58950000Y-119695983D01*
X59036503Y-119904819D01*
X59026649Y-119914673D01*
X58884304Y-120258325D01*
X55685000Y-120258325D01*
X55685000Y-118287989D01*
X70549988Y-118287989D01*
X70549988Y-118659955D01*
X70692333Y-119003607D01*
X70955353Y-119266627D01*
X71299005Y-119408972D01*
X71670971Y-119408972D01*
X71912393Y-119308972D01*
X72370620Y-119308972D01*
X72699017Y-119444998D01*
X73070983Y-119444998D01*
X73224744Y-119381308D01*
X73409988Y-119828527D01*
X73816473Y-120235012D01*
X74347572Y-120455000D01*
X74922428Y-120455000D01*
X75453527Y-120235012D01*
X75860012Y-119828527D01*
X75861880Y-119824017D01*
X79699994Y-119824017D01*
X79699994Y-120195983D01*
X79799994Y-120437405D01*
X79799994Y-120516500D01*
X79799995Y-120516505D01*
X79799994Y-123427761D01*
X79783637Y-123509994D01*
X79799994Y-123592227D01*
X79799994Y-123592230D01*
X79848442Y-123835794D01*
X80032993Y-124111995D01*
X80102714Y-124158581D01*
X80242345Y-124298212D01*
X80342345Y-124539635D01*
X80605365Y-124802655D01*
X80949017Y-124945000D01*
X81320983Y-124945000D01*
X81664635Y-124802655D01*
X81927655Y-124539635D01*
X82070000Y-124195983D01*
X82070000Y-124111082D01*
X82108825Y-124095000D01*
X82794862Y-124095000D01*
X82700000Y-124324017D01*
X82700000Y-124695983D01*
X82842345Y-125039635D01*
X83105365Y-125302655D01*
X83449017Y-125445000D01*
X83820983Y-125445000D01*
X84164635Y-125302655D01*
X84427655Y-125039635D01*
X84527656Y-124798211D01*
X84617281Y-124708586D01*
X84687002Y-124662000D01*
X84871553Y-124385800D01*
X84920001Y-124142236D01*
X84920001Y-124142235D01*
X84936359Y-124059999D01*
X84920001Y-123977762D01*
X84920001Y-123006231D01*
X84936358Y-122923998D01*
X84920001Y-122841765D01*
X84920001Y-122841762D01*
X84871553Y-122598198D01*
X84687002Y-122321998D01*
X84667662Y-122309075D01*
X85061153Y-122146086D01*
X85385000Y-121822239D01*
X85708847Y-122146086D01*
X86309778Y-122395000D01*
X86960222Y-122395000D01*
X87561153Y-122146086D01*
X87794707Y-121912532D01*
X88162073Y-121912532D01*
X88260736Y-122179387D01*
X88870461Y-122405908D01*
X89520460Y-122381856D01*
X90009264Y-122179387D01*
X90107927Y-121912532D01*
X89135000Y-120939605D01*
X88162073Y-121912532D01*
X87794707Y-121912532D01*
X87976514Y-121730725D01*
X87982468Y-121732927D01*
X88955395Y-120760000D01*
X89314605Y-120760000D01*
X90287532Y-121732927D01*
X90554387Y-121634264D01*
X90780908Y-121024539D01*
X90756856Y-120374540D01*
X90554387Y-119885736D01*
X90287532Y-119787073D01*
X89314605Y-120760000D01*
X88955395Y-120760000D01*
X87982468Y-119787073D01*
X87976514Y-119789275D01*
X87794707Y-119607468D01*
X88162073Y-119607468D01*
X89135000Y-120580395D01*
X90107927Y-119607468D01*
X90009264Y-119340613D01*
X89399539Y-119114092D01*
X88749540Y-119138144D01*
X88260736Y-119340613D01*
X88162073Y-119607468D01*
X87794707Y-119607468D01*
X87561153Y-119373914D01*
X86960222Y-119125000D01*
X86309778Y-119125000D01*
X85708847Y-119373914D01*
X85385000Y-119697761D01*
X85061153Y-119373914D01*
X84460222Y-119125000D01*
X83809778Y-119125000D01*
X83208847Y-119373914D01*
X82798077Y-119784684D01*
X82795976Y-119774123D01*
X82611425Y-119497923D01*
X82590607Y-119484013D01*
X82502080Y-119270290D01*
X82239060Y-119007270D01*
X81895408Y-118864925D01*
X81523442Y-118864925D01*
X81179790Y-119007270D01*
X81026804Y-119160256D01*
X80820977Y-119075000D01*
X80449011Y-119075000D01*
X80105359Y-119217345D01*
X79842339Y-119480365D01*
X79699994Y-119824017D01*
X75861880Y-119824017D01*
X76080000Y-119297428D01*
X76080000Y-118722572D01*
X75860012Y-118191473D01*
X75453527Y-117784988D01*
X74922428Y-117565000D01*
X74347572Y-117565000D01*
X73816473Y-117784988D01*
X73649377Y-117952085D01*
X73414635Y-117717343D01*
X73070983Y-117574998D01*
X72699017Y-117574998D01*
X72544570Y-117638972D01*
X71912393Y-117638972D01*
X71670971Y-117538972D01*
X71299005Y-117538972D01*
X70955353Y-117681317D01*
X70692333Y-117944337D01*
X70549988Y-118287989D01*
X55685000Y-118287989D01*
X55685000Y-115858009D01*
X77435634Y-115858009D01*
X77450000Y-115930232D01*
X77450000Y-115945983D01*
X77451992Y-115950792D01*
X77451991Y-116913774D01*
X77435634Y-116996008D01*
X77451991Y-117078241D01*
X77451991Y-117078244D01*
X77500439Y-117321808D01*
X77684990Y-117598009D01*
X77705808Y-117611919D01*
X77794335Y-117825642D01*
X78057355Y-118088662D01*
X78401007Y-118231007D01*
X78772973Y-118231007D01*
X79116625Y-118088662D01*
X79278781Y-117926506D01*
X79347572Y-117955000D01*
X79922428Y-117955000D01*
X80453527Y-117735012D01*
X80860012Y-117328527D01*
X81080000Y-116797428D01*
X81080000Y-116222572D01*
X80860012Y-115691473D01*
X80692920Y-115524381D01*
X80927665Y-115289635D01*
X81070010Y-114945983D01*
X81070010Y-114712842D01*
X81509778Y-114895000D01*
X82160222Y-114895000D01*
X82761153Y-114646086D01*
X83221086Y-114186153D01*
X83470000Y-113585222D01*
X83470000Y-112934778D01*
X89800000Y-112934778D01*
X89800000Y-113585222D01*
X90048914Y-114186153D01*
X90508847Y-114646086D01*
X91109778Y-114895000D01*
X91760222Y-114895000D01*
X92361153Y-114646086D01*
X92821086Y-114186153D01*
X93070000Y-113585222D01*
X93070000Y-112934778D01*
X92821086Y-112333847D01*
X92361153Y-111873914D01*
X91760222Y-111625000D01*
X91109778Y-111625000D01*
X90508847Y-111873914D01*
X90048914Y-112333847D01*
X89800000Y-112934778D01*
X83470000Y-112934778D01*
X83221086Y-112333847D01*
X82761153Y-111873914D01*
X82160222Y-111625000D01*
X81509778Y-111625000D01*
X80908847Y-111873914D01*
X80594477Y-112188284D01*
X80320983Y-112075000D01*
X79949017Y-112075000D01*
X79605365Y-112217345D01*
X79342345Y-112480365D01*
X79200000Y-112824017D01*
X79200000Y-113195983D01*
X79300000Y-113437406D01*
X79300001Y-114332617D01*
X79200010Y-114574017D01*
X79200010Y-114945983D01*
X79263699Y-115099741D01*
X79110492Y-115163202D01*
X78914635Y-114967345D01*
X78570983Y-114825000D01*
X78199017Y-114825000D01*
X77855365Y-114967345D01*
X77592345Y-115230365D01*
X77450000Y-115574017D01*
X77450000Y-115785786D01*
X77435634Y-115858009D01*
X55685000Y-115858009D01*
X55685000Y-112684778D01*
X59450000Y-112684778D01*
X59450000Y-113335222D01*
X59698914Y-113936153D01*
X60158847Y-114396086D01*
X60759778Y-114645000D01*
X61410222Y-114645000D01*
X62011153Y-114396086D01*
X62471086Y-113936153D01*
X62720000Y-113335222D01*
X62720000Y-112684778D01*
X69050000Y-112684778D01*
X69050000Y-113335222D01*
X69298914Y-113936153D01*
X69758847Y-114396086D01*
X70359778Y-114645000D01*
X71010222Y-114645000D01*
X71611153Y-114396086D01*
X72071086Y-113936153D01*
X72320000Y-113335222D01*
X72320000Y-112684778D01*
X72071086Y-112083847D01*
X71611153Y-111623914D01*
X71010222Y-111375000D01*
X70359778Y-111375000D01*
X69758847Y-111623914D01*
X69298914Y-112083847D01*
X69050000Y-112684778D01*
X62720000Y-112684778D01*
X62471086Y-112083847D01*
X62011153Y-111623914D01*
X61410222Y-111375000D01*
X60759778Y-111375000D01*
X60158847Y-111623914D01*
X59698914Y-112083847D01*
X59450000Y-112684778D01*
X55685000Y-112684778D01*
X55685000Y-108595055D01*
X66350677Y-108595055D01*
X66350677Y-108967021D01*
X66493022Y-109310673D01*
X66756042Y-109573693D01*
X67099694Y-109716038D01*
X67471660Y-109716038D01*
X67601948Y-109662071D01*
X69433091Y-109662071D01*
X69515324Y-109678428D01*
X69597557Y-109662071D01*
X69597561Y-109662071D01*
X69841125Y-109613623D01*
X70117325Y-109429072D01*
X70141338Y-109393134D01*
X70363625Y-109301060D01*
X70626645Y-109038040D01*
X70768990Y-108694388D01*
X70768990Y-108322422D01*
X70626645Y-107978770D01*
X70363625Y-107715750D01*
X70320000Y-107697680D01*
X70320000Y-107574017D01*
X70177655Y-107230365D01*
X69914635Y-106967345D01*
X69570983Y-106825000D01*
X69199017Y-106825000D01*
X68855365Y-106967345D01*
X68592345Y-107230365D01*
X68566786Y-107292070D01*
X68413082Y-107292070D01*
X68171660Y-107192070D01*
X67799694Y-107192070D01*
X67456042Y-107334415D01*
X67193022Y-107597435D01*
X67088050Y-107850861D01*
X66756042Y-107988383D01*
X66493022Y-108251403D01*
X66350677Y-108595055D01*
X55685000Y-108595055D01*
X55685000Y-104760000D01*
X63727765Y-104760000D01*
X63815854Y-105202855D01*
X64066711Y-105578289D01*
X64442145Y-105829146D01*
X64773217Y-105895000D01*
X66996783Y-105895000D01*
X67327855Y-105829146D01*
X67660064Y-105607171D01*
X72666845Y-105607171D01*
X72666845Y-105979137D01*
X72809190Y-106322789D01*
X73072210Y-106585809D01*
X73415862Y-106728154D01*
X73787828Y-106728154D01*
X74131480Y-106585809D01*
X74394500Y-106322789D01*
X74536845Y-105979137D01*
X74536845Y-105893510D01*
X74800000Y-105630355D01*
X74800001Y-109664131D01*
X74102720Y-110361413D01*
X74032999Y-110407999D01*
X73848448Y-110684200D01*
X73800000Y-110927764D01*
X73800000Y-110927767D01*
X73783643Y-111010000D01*
X73800000Y-111092233D01*
X73800001Y-112801460D01*
X73409988Y-113191473D01*
X73190000Y-113722572D01*
X73190000Y-114297428D01*
X73409988Y-114828527D01*
X73816473Y-115235012D01*
X74347572Y-115455000D01*
X74922428Y-115455000D01*
X75453527Y-115235012D01*
X75860012Y-114828527D01*
X76080000Y-114297428D01*
X76080000Y-113722572D01*
X75860012Y-113191473D01*
X75470000Y-112801461D01*
X75470000Y-111355867D01*
X75751850Y-111074017D01*
X83700000Y-111074017D01*
X83700000Y-111445983D01*
X83842345Y-111789635D01*
X84105365Y-112052655D01*
X84449017Y-112195000D01*
X84820983Y-112195000D01*
X85062405Y-112095000D01*
X85244147Y-112095000D01*
X85326380Y-112111357D01*
X85408613Y-112095000D01*
X85408617Y-112095000D01*
X85652181Y-112046552D01*
X85928381Y-111862001D01*
X85974967Y-111792280D01*
X87580119Y-110187129D01*
X87821541Y-110087129D01*
X88084561Y-109824109D01*
X88226906Y-109480457D01*
X88226906Y-109108491D01*
X88084561Y-108764839D01*
X87821541Y-108501819D01*
X87820006Y-108501183D01*
X87820006Y-108324017D01*
X87677661Y-107980365D01*
X87414641Y-107717345D01*
X87070989Y-107575000D01*
X86699023Y-107575000D01*
X86355371Y-107717345D01*
X86092351Y-107980365D01*
X85992362Y-108221761D01*
X85583798Y-108630326D01*
X85342375Y-108730326D01*
X85079355Y-108993346D01*
X84937010Y-109336998D01*
X84937010Y-109708964D01*
X85079355Y-110052616D01*
X85216126Y-110189387D01*
X85004498Y-110401014D01*
X84820983Y-110325000D01*
X84449017Y-110325000D01*
X84105365Y-110467345D01*
X83842345Y-110730365D01*
X83700000Y-111074017D01*
X75751850Y-111074017D01*
X76167282Y-110658585D01*
X76237001Y-110612001D01*
X76421552Y-110335801D01*
X76470000Y-110092237D01*
X76486358Y-110010000D01*
X76470000Y-109927763D01*
X76470000Y-105247292D01*
X76677657Y-105039635D01*
X76712714Y-104955000D01*
X77172428Y-104955000D01*
X77703527Y-104735012D01*
X77800001Y-104638538D01*
X77800000Y-106832595D01*
X77700000Y-107074017D01*
X77700000Y-107445983D01*
X77842345Y-107789635D01*
X78105365Y-108052655D01*
X78449017Y-108195000D01*
X78820983Y-108195000D01*
X79164635Y-108052655D01*
X79427655Y-107789635D01*
X79570000Y-107445983D01*
X79570000Y-107074017D01*
X79470000Y-106832595D01*
X79470000Y-106824017D01*
X81549989Y-106824017D01*
X81549989Y-107195983D01*
X81692334Y-107539635D01*
X81955354Y-107802655D01*
X82299006Y-107945000D01*
X82670972Y-107945000D01*
X82912394Y-107845000D01*
X83457595Y-107845000D01*
X83699017Y-107945000D01*
X84070983Y-107945000D01*
X84414635Y-107802655D01*
X84677655Y-107539635D01*
X84820000Y-107195983D01*
X84820000Y-106824017D01*
X84677655Y-106480365D01*
X84414635Y-106217345D01*
X84070983Y-106075000D01*
X83699017Y-106075000D01*
X83457595Y-106175000D01*
X82912394Y-106175000D01*
X82670972Y-106075000D01*
X82299006Y-106075000D01*
X81955354Y-106217345D01*
X81692334Y-106480365D01*
X81549989Y-106824017D01*
X79470000Y-106824017D01*
X79470000Y-104760000D01*
X84477765Y-104760000D01*
X84565854Y-105202855D01*
X84816711Y-105578289D01*
X85192145Y-105829146D01*
X85523217Y-105895000D01*
X87746783Y-105895000D01*
X88077855Y-105829146D01*
X88453289Y-105578289D01*
X88704146Y-105202855D01*
X88792235Y-104760000D01*
X88704146Y-104317145D01*
X88453289Y-103941711D01*
X88077855Y-103690854D01*
X87746783Y-103625000D01*
X85523217Y-103625000D01*
X85192145Y-103690854D01*
X84816711Y-103941711D01*
X84565854Y-104317145D01*
X84477765Y-104760000D01*
X79470000Y-104760000D01*
X79470000Y-104187405D01*
X79570000Y-103945983D01*
X79570000Y-103574017D01*
X79427655Y-103230365D01*
X79164635Y-102967345D01*
X78820983Y-102825000D01*
X78449017Y-102825000D01*
X78206867Y-102925302D01*
X78110012Y-102691473D01*
X78005539Y-102587000D01*
X80550000Y-102587000D01*
X80550000Y-103337000D01*
X80704028Y-103857349D01*
X81045460Y-104279145D01*
X81522316Y-104538173D01*
X81593815Y-104552318D01*
X81808000Y-104429656D01*
X81808000Y-102587000D01*
X82062000Y-102587000D01*
X82062000Y-104429656D01*
X82276185Y-104552318D01*
X82347684Y-104538173D01*
X82824540Y-104279145D01*
X83165972Y-103857349D01*
X83320000Y-103337000D01*
X83320000Y-102587000D01*
X89950000Y-102587000D01*
X89950000Y-102887000D01*
X90104028Y-103407349D01*
X90445460Y-103829145D01*
X90922316Y-104088173D01*
X90993815Y-104102318D01*
X91208000Y-103979656D01*
X91208000Y-102587000D01*
X91462000Y-102587000D01*
X91462000Y-103979656D01*
X91676185Y-104102318D01*
X91747684Y-104088173D01*
X92224540Y-103829145D01*
X92565972Y-103407349D01*
X92720000Y-102887000D01*
X92720000Y-102587000D01*
X91462000Y-102587000D01*
X91208000Y-102587000D01*
X89950000Y-102587000D01*
X83320000Y-102587000D01*
X82062000Y-102587000D01*
X81808000Y-102587000D01*
X80550000Y-102587000D01*
X78005539Y-102587000D01*
X77703527Y-102284988D01*
X77172428Y-102065000D01*
X76597572Y-102065000D01*
X76066473Y-102284988D01*
X75681231Y-102670230D01*
X75657251Y-102675000D01*
X75413687Y-102723448D01*
X75137487Y-102907999D01*
X75090903Y-102977717D01*
X73069565Y-104999056D01*
X72999844Y-105045642D01*
X72945026Y-105127683D01*
X72809190Y-105263519D01*
X72666845Y-105607171D01*
X67660064Y-105607171D01*
X67703289Y-105578289D01*
X67954146Y-105202855D01*
X68042235Y-104760000D01*
X67954146Y-104317145D01*
X67703289Y-103941711D01*
X67327855Y-103690854D01*
X66996783Y-103625000D01*
X64773217Y-103625000D01*
X64442145Y-103690854D01*
X64066711Y-103941711D01*
X63815854Y-104317145D01*
X63727765Y-104760000D01*
X55685000Y-104760000D01*
X55685000Y-102587000D01*
X59800000Y-102587000D01*
X59800000Y-103337000D01*
X59954028Y-103857349D01*
X60295460Y-104279145D01*
X60772316Y-104538173D01*
X60843815Y-104552318D01*
X61058000Y-104429656D01*
X61058000Y-102587000D01*
X61312000Y-102587000D01*
X61312000Y-104429656D01*
X61526185Y-104552318D01*
X61597684Y-104538173D01*
X62074540Y-104279145D01*
X62415972Y-103857349D01*
X62570000Y-103337000D01*
X62570000Y-102587000D01*
X69200000Y-102587000D01*
X69200000Y-102887000D01*
X69354028Y-103407349D01*
X69695460Y-103829145D01*
X70172316Y-104088173D01*
X70243815Y-104102318D01*
X70458000Y-103979656D01*
X70458000Y-102587000D01*
X70712000Y-102587000D01*
X70712000Y-103979656D01*
X70926185Y-104102318D01*
X70997684Y-104088173D01*
X71474540Y-103829145D01*
X71815972Y-103407349D01*
X71970000Y-102887000D01*
X71970000Y-102587000D01*
X70712000Y-102587000D01*
X70458000Y-102587000D01*
X69200000Y-102587000D01*
X62570000Y-102587000D01*
X61312000Y-102587000D01*
X61058000Y-102587000D01*
X59800000Y-102587000D01*
X55685000Y-102587000D01*
X55685000Y-101583000D01*
X59800000Y-101583000D01*
X59800000Y-102333000D01*
X61058000Y-102333000D01*
X61058000Y-100490344D01*
X61312000Y-100490344D01*
X61312000Y-102333000D01*
X62570000Y-102333000D01*
X62570000Y-102033000D01*
X69200000Y-102033000D01*
X69200000Y-102333000D01*
X70458000Y-102333000D01*
X70458000Y-100940344D01*
X70712000Y-100940344D01*
X70712000Y-102333000D01*
X71970000Y-102333000D01*
X71970000Y-102033000D01*
X71836796Y-101583000D01*
X80550000Y-101583000D01*
X80550000Y-102333000D01*
X81808000Y-102333000D01*
X81808000Y-100490344D01*
X82062000Y-100490344D01*
X82062000Y-102333000D01*
X83320000Y-102333000D01*
X83320000Y-102033000D01*
X89950000Y-102033000D01*
X89950000Y-102333000D01*
X91208000Y-102333000D01*
X91208000Y-100940344D01*
X91462000Y-100940344D01*
X91462000Y-102333000D01*
X92720000Y-102333000D01*
X92720000Y-102033000D01*
X92565972Y-101512651D01*
X92224540Y-101090855D01*
X91747684Y-100831827D01*
X91676185Y-100817682D01*
X91462000Y-100940344D01*
X91208000Y-100940344D01*
X90993815Y-100817682D01*
X90922316Y-100831827D01*
X90445460Y-101090855D01*
X90104028Y-101512651D01*
X89950000Y-102033000D01*
X83320000Y-102033000D01*
X83320000Y-101583000D01*
X83165972Y-101062651D01*
X82824540Y-100640855D01*
X82347684Y-100381827D01*
X82276185Y-100367682D01*
X82062000Y-100490344D01*
X81808000Y-100490344D01*
X81593815Y-100367682D01*
X81522316Y-100381827D01*
X81045460Y-100640855D01*
X80704028Y-101062651D01*
X80550000Y-101583000D01*
X71836796Y-101583000D01*
X71815972Y-101512651D01*
X71474540Y-101090855D01*
X70997684Y-100831827D01*
X70926185Y-100817682D01*
X70712000Y-100940344D01*
X70458000Y-100940344D01*
X70243815Y-100817682D01*
X70172316Y-100831827D01*
X69695460Y-101090855D01*
X69354028Y-101512651D01*
X69200000Y-102033000D01*
X62570000Y-102033000D01*
X62570000Y-101583000D01*
X62415972Y-101062651D01*
X62074540Y-100640855D01*
X61597684Y-100381827D01*
X61526185Y-100367682D01*
X61312000Y-100490344D01*
X61058000Y-100490344D01*
X60843815Y-100367682D01*
X60772316Y-100381827D01*
X60295460Y-100640855D01*
X59954028Y-101062651D01*
X59800000Y-101583000D01*
X55685000Y-101583000D01*
X55685000Y-98222572D01*
X72940000Y-98222572D01*
X72940000Y-98797428D01*
X73159988Y-99328527D01*
X73566473Y-99735012D01*
X74097572Y-99955000D01*
X74649132Y-99955000D01*
X74724941Y-100030809D01*
X74833387Y-100292622D01*
X75096407Y-100555642D01*
X75440059Y-100697987D01*
X75812025Y-100697987D01*
X76155677Y-100555642D01*
X76266319Y-100445000D01*
X76570983Y-100445000D01*
X76914635Y-100302655D01*
X77177655Y-100039635D01*
X77320000Y-99695983D01*
X77320000Y-99324017D01*
X77177655Y-98980365D01*
X76914635Y-98717345D01*
X76673212Y-98617345D01*
X76470000Y-98414133D01*
X76470000Y-98222572D01*
X77940000Y-98222572D01*
X77940000Y-98797428D01*
X78159988Y-99328527D01*
X78566473Y-99735012D01*
X79097572Y-99955000D01*
X79672428Y-99955000D01*
X80203527Y-99735012D01*
X80610012Y-99328527D01*
X80830000Y-98797428D01*
X80830000Y-98222572D01*
X80610012Y-97691473D01*
X80203527Y-97284988D01*
X79672428Y-97065000D01*
X79097572Y-97065000D01*
X78566473Y-97284988D01*
X78159988Y-97691473D01*
X77940000Y-98222572D01*
X76470000Y-98222572D01*
X76470000Y-96937405D01*
X76570000Y-96695983D01*
X76570000Y-96660000D01*
X84477765Y-96660000D01*
X84565854Y-97102855D01*
X84816711Y-97478289D01*
X85192145Y-97729146D01*
X85523217Y-97795000D01*
X87746783Y-97795000D01*
X88077855Y-97729146D01*
X88453289Y-97478289D01*
X88704146Y-97102855D01*
X88792235Y-96660000D01*
X88704146Y-96217145D01*
X88453289Y-95841711D01*
X88077855Y-95590854D01*
X87746783Y-95525000D01*
X85523217Y-95525000D01*
X85192145Y-95590854D01*
X84816711Y-95841711D01*
X84565854Y-96217145D01*
X84477765Y-96660000D01*
X76570000Y-96660000D01*
X76570000Y-96324017D01*
X76427655Y-95980365D01*
X76164635Y-95717345D01*
X75820983Y-95575000D01*
X75449017Y-95575000D01*
X75105365Y-95717345D01*
X74842345Y-95980365D01*
X74700000Y-96324017D01*
X74700000Y-96695983D01*
X74800000Y-96937405D01*
X74800000Y-97016500D01*
X74800001Y-97016505D01*
X74800001Y-97117842D01*
X74672428Y-97065000D01*
X74097572Y-97065000D01*
X73566473Y-97284988D01*
X73159988Y-97691473D01*
X72940000Y-98222572D01*
X55685000Y-98222572D01*
X55685000Y-96660000D01*
X63727765Y-96660000D01*
X63815854Y-97102855D01*
X64066711Y-97478289D01*
X64442145Y-97729146D01*
X64773217Y-97795000D01*
X66996783Y-97795000D01*
X67327855Y-97729146D01*
X67703289Y-97478289D01*
X67954146Y-97102855D01*
X68042235Y-96660000D01*
X67954146Y-96217145D01*
X67703289Y-95841711D01*
X67327855Y-95590854D01*
X66996783Y-95525000D01*
X64773217Y-95525000D01*
X64442145Y-95590854D01*
X64066711Y-95841711D01*
X63815854Y-96217145D01*
X63727765Y-96660000D01*
X55685000Y-96660000D01*
X55685000Y-94722572D01*
X56690000Y-94722572D01*
X56690000Y-95297428D01*
X56909988Y-95828527D01*
X57316473Y-96235012D01*
X57847572Y-96455000D01*
X58422428Y-96455000D01*
X58953527Y-96235012D01*
X59360012Y-95828527D01*
X59580000Y-95297428D01*
X59580000Y-94722572D01*
X59360012Y-94191473D01*
X58953527Y-93784988D01*
X58422428Y-93565000D01*
X57847572Y-93565000D01*
X57316473Y-93784988D01*
X56909988Y-94191473D01*
X56690000Y-94722572D01*
X55685000Y-94722572D01*
X55685000Y-92222572D01*
X61690000Y-92222572D01*
X61690000Y-92797428D01*
X61909988Y-93328527D01*
X62316473Y-93735012D01*
X62847572Y-93955000D01*
X63422428Y-93955000D01*
X63953527Y-93735012D01*
X64360012Y-93328527D01*
X64580000Y-92797428D01*
X64580000Y-92222572D01*
X64360012Y-91691473D01*
X63953527Y-91284988D01*
X63422428Y-91065000D01*
X62847572Y-91065000D01*
X62316473Y-91284988D01*
X61909988Y-91691473D01*
X61690000Y-92222572D01*
X55685000Y-92222572D01*
X55685000Y-89722572D01*
X56690000Y-89722572D01*
X56690000Y-90297428D01*
X56909988Y-90828527D01*
X57316473Y-91235012D01*
X57847572Y-91455000D01*
X58422428Y-91455000D01*
X58953527Y-91235012D01*
X59360012Y-90828527D01*
X59580000Y-90297428D01*
X59580000Y-89722572D01*
X59518467Y-89574017D01*
X71950000Y-89574017D01*
X71950000Y-89945983D01*
X72092345Y-90289635D01*
X72355365Y-90552655D01*
X72699017Y-90695000D01*
X73070983Y-90695000D01*
X73099745Y-90683087D01*
X73159988Y-90828527D01*
X73566473Y-91235012D01*
X74097572Y-91455000D01*
X74672428Y-91455000D01*
X74800001Y-91402158D01*
X74800001Y-92003495D01*
X74800000Y-92003500D01*
X74800000Y-92082595D01*
X74700000Y-92324017D01*
X74700000Y-92695983D01*
X74842345Y-93039635D01*
X75105365Y-93302655D01*
X75449017Y-93445000D01*
X75820983Y-93445000D01*
X76038799Y-93354778D01*
X76249023Y-93441855D01*
X76620989Y-93441855D01*
X76964641Y-93299510D01*
X77085184Y-93178967D01*
X77376574Y-93178967D01*
X77720226Y-93036622D01*
X77983246Y-92773602D01*
X78125591Y-92429950D01*
X78125591Y-92057984D01*
X78025591Y-91816562D01*
X78025591Y-88004063D01*
X78159988Y-88328527D01*
X78566473Y-88735012D01*
X79097572Y-88955000D01*
X79672428Y-88955000D01*
X80203527Y-88735012D01*
X80610012Y-88328527D01*
X80830000Y-87797428D01*
X80830000Y-87222572D01*
X80814346Y-87184778D01*
X82750000Y-87184778D01*
X82750000Y-87835222D01*
X82998914Y-88436153D01*
X83458847Y-88896086D01*
X84059778Y-89145000D01*
X84710222Y-89145000D01*
X85311153Y-88896086D01*
X85635000Y-88572239D01*
X85958847Y-88896086D01*
X86559778Y-89145000D01*
X87210222Y-89145000D01*
X87811153Y-88896086D01*
X88135000Y-88572239D01*
X88458847Y-88896086D01*
X89059778Y-89145000D01*
X89710222Y-89145000D01*
X90311153Y-88896086D01*
X90771086Y-88436153D01*
X90776620Y-88422792D01*
X91450001Y-88422792D01*
X91450001Y-88794758D01*
X91550001Y-89036181D01*
X91550002Y-89677764D01*
X91533644Y-89760001D01*
X91598449Y-90085801D01*
X91598450Y-90085802D01*
X91783001Y-90362002D01*
X91852719Y-90408586D01*
X91992345Y-90548212D01*
X92092345Y-90789635D01*
X92355365Y-91052655D01*
X92699017Y-91195000D01*
X93070983Y-91195000D01*
X93414635Y-91052655D01*
X93677655Y-90789635D01*
X93820000Y-90445983D01*
X93820000Y-90074017D01*
X93677655Y-89730365D01*
X93414635Y-89467345D01*
X93220001Y-89386725D01*
X93220001Y-89036180D01*
X93320001Y-88794758D01*
X93320001Y-88422792D01*
X93177656Y-88079140D01*
X92914636Y-87816120D01*
X92570984Y-87673775D01*
X92199018Y-87673775D01*
X91855366Y-87816120D01*
X91592346Y-88079140D01*
X91450001Y-88422792D01*
X90776620Y-88422792D01*
X91020000Y-87835222D01*
X91020000Y-87184778D01*
X90771086Y-86583847D01*
X90311153Y-86123914D01*
X89710222Y-85875000D01*
X89059778Y-85875000D01*
X88458847Y-86123914D01*
X88135000Y-86447761D01*
X87811153Y-86123914D01*
X87210222Y-85875000D01*
X86559778Y-85875000D01*
X85958847Y-86123914D01*
X85635000Y-86447761D01*
X85311153Y-86123914D01*
X84710222Y-85875000D01*
X84059778Y-85875000D01*
X83458847Y-86123914D01*
X82998914Y-86583847D01*
X82750000Y-87184778D01*
X80814346Y-87184778D01*
X80610012Y-86691473D01*
X80203527Y-86284988D01*
X79672428Y-86065000D01*
X79097572Y-86065000D01*
X78566473Y-86284988D01*
X78159988Y-86691473D01*
X78025591Y-87015937D01*
X78025591Y-86668888D01*
X79551588Y-85142892D01*
X79621306Y-85096308D01*
X79805857Y-84820108D01*
X79820012Y-84748945D01*
X79848939Y-84736963D01*
X80111959Y-84473943D01*
X80254304Y-84130291D01*
X80254304Y-83758325D01*
X80111959Y-83414673D01*
X79848939Y-83151653D01*
X79505287Y-83009308D01*
X79133321Y-83009308D01*
X78789669Y-83151653D01*
X78526649Y-83414673D01*
X78438122Y-83628396D01*
X78417304Y-83642306D01*
X78232753Y-83918506D01*
X78219168Y-83986802D01*
X78155855Y-83668508D01*
X78155855Y-83668506D01*
X77971304Y-83392306D01*
X77950486Y-83378396D01*
X77861959Y-83164673D01*
X77598939Y-82901653D01*
X77255287Y-82759308D01*
X76883321Y-82759308D01*
X76539669Y-82901653D01*
X76276649Y-83164673D01*
X76210242Y-83324994D01*
X76199017Y-83324994D01*
X75855365Y-83467339D01*
X75592345Y-83730359D01*
X75492345Y-83971782D01*
X75441333Y-84022794D01*
X75203527Y-83784988D01*
X74672428Y-83565000D01*
X74097572Y-83565000D01*
X73566473Y-83784988D01*
X73159988Y-84191473D01*
X73101816Y-84331914D01*
X72914444Y-84331914D01*
X72570792Y-84474259D01*
X72307772Y-84737279D01*
X72192269Y-85016128D01*
X72098448Y-85156541D01*
X72033643Y-85482341D01*
X72050001Y-85564579D01*
X72050000Y-89332595D01*
X71950000Y-89574017D01*
X59518467Y-89574017D01*
X59360012Y-89191473D01*
X58953527Y-88784988D01*
X58657892Y-88662532D01*
X62412073Y-88662532D01*
X62510736Y-88929387D01*
X63120461Y-89155908D01*
X63770460Y-89131856D01*
X64259264Y-88929387D01*
X64357927Y-88662532D01*
X63385000Y-87689605D01*
X62412073Y-88662532D01*
X58657892Y-88662532D01*
X58422428Y-88565000D01*
X57847572Y-88565000D01*
X57316473Y-88784988D01*
X56909988Y-89191473D01*
X56690000Y-89722572D01*
X55685000Y-89722572D01*
X55685000Y-87245461D01*
X61739092Y-87245461D01*
X61763144Y-87895460D01*
X61965613Y-88384264D01*
X62232468Y-88482927D01*
X63205395Y-87510000D01*
X63564605Y-87510000D01*
X64537532Y-88482927D01*
X64543486Y-88480725D01*
X64958847Y-88896086D01*
X65559778Y-89145000D01*
X66210222Y-89145000D01*
X66811153Y-88896086D01*
X67135000Y-88572239D01*
X67458847Y-88896086D01*
X68059778Y-89145000D01*
X68710222Y-89145000D01*
X69311153Y-88896086D01*
X69771086Y-88436153D01*
X70020000Y-87835222D01*
X70020000Y-87184778D01*
X69771086Y-86583847D01*
X69311153Y-86123914D01*
X68710222Y-85875000D01*
X68059778Y-85875000D01*
X67458847Y-86123914D01*
X67135000Y-86447761D01*
X66811153Y-86123914D01*
X66210222Y-85875000D01*
X65559778Y-85875000D01*
X64958847Y-86123914D01*
X64543486Y-86539275D01*
X64537532Y-86537073D01*
X63564605Y-87510000D01*
X63205395Y-87510000D01*
X62232468Y-86537073D01*
X61965613Y-86635736D01*
X61739092Y-87245461D01*
X55685000Y-87245461D01*
X55685000Y-86357468D01*
X62412073Y-86357468D01*
X63385000Y-87330395D01*
X64357927Y-86357468D01*
X64259264Y-86090613D01*
X63649539Y-85864092D01*
X62999540Y-85888144D01*
X62510736Y-86090613D01*
X62412073Y-86357468D01*
X55685000Y-86357468D01*
X55685000Y-79684778D01*
X59450000Y-79684778D01*
X59450000Y-80335222D01*
X59698914Y-80936153D01*
X60158847Y-81396086D01*
X60759778Y-81645000D01*
X61410222Y-81645000D01*
X62011153Y-81396086D01*
X62471086Y-80936153D01*
X62720000Y-80335222D01*
X62720000Y-79684778D01*
X62471086Y-79083847D01*
X62011153Y-78623914D01*
X61410222Y-78375000D01*
X60759778Y-78375000D01*
X60158847Y-78623914D01*
X59698914Y-79083847D01*
X59450000Y-79684778D01*
X55685000Y-79684778D01*
X55685000Y-77974028D01*
X68450000Y-77974028D01*
X68450000Y-78345994D01*
X68592345Y-78689646D01*
X68855365Y-78952666D01*
X69199017Y-79095011D01*
X69294290Y-79095011D01*
X69050000Y-79684778D01*
X69050000Y-80335222D01*
X69298914Y-80936153D01*
X69758847Y-81396086D01*
X70359778Y-81645000D01*
X71010222Y-81645000D01*
X71611153Y-81396086D01*
X71952221Y-81055018D01*
X72124363Y-81126322D01*
X72429028Y-81126322D01*
X72539669Y-81236963D01*
X72883321Y-81379308D01*
X73255287Y-81379308D01*
X73598939Y-81236963D01*
X73861959Y-80973943D01*
X74004304Y-80630291D01*
X74004304Y-80517780D01*
X74026958Y-80403891D01*
X74043316Y-80321654D01*
X74026958Y-80239417D01*
X74026958Y-78487289D01*
X74762467Y-78487289D01*
X74762467Y-78859255D01*
X74904812Y-79202907D01*
X75167832Y-79465927D01*
X75361020Y-79545948D01*
X75361020Y-79580618D01*
X75461243Y-79822578D01*
X75384304Y-80008325D01*
X75384304Y-80380291D01*
X75526649Y-80723943D01*
X75789669Y-80986963D01*
X76031093Y-81086964D01*
X76170717Y-81226588D01*
X76217303Y-81296309D01*
X76493503Y-81480860D01*
X76737067Y-81529308D01*
X76737070Y-81529308D01*
X76819303Y-81545665D01*
X76901536Y-81529308D01*
X79975053Y-81529308D01*
X80057286Y-81545665D01*
X80139519Y-81529308D01*
X80139523Y-81529308D01*
X80383087Y-81480860D01*
X80659287Y-81296309D01*
X80705461Y-81227205D01*
X80906636Y-81143875D01*
X81158847Y-81396086D01*
X81759778Y-81645000D01*
X82410222Y-81645000D01*
X83011153Y-81396086D01*
X83471086Y-80936153D01*
X83720000Y-80335222D01*
X83720000Y-79684778D01*
X83471086Y-79083847D01*
X83011153Y-78623914D01*
X82941348Y-78595000D01*
X83289110Y-78595000D01*
X84492345Y-79798237D01*
X84592345Y-80039658D01*
X84855365Y-80302678D01*
X85199017Y-80445023D01*
X85570983Y-80445023D01*
X85914635Y-80302678D01*
X86177655Y-80039658D01*
X86320000Y-79696006D01*
X86320000Y-79684778D01*
X90050000Y-79684778D01*
X90050000Y-80335222D01*
X90298914Y-80936153D01*
X90758847Y-81396086D01*
X91359778Y-81645000D01*
X91450000Y-81645000D01*
X91450000Y-81945983D01*
X91592345Y-82289635D01*
X91855365Y-82552655D01*
X92199017Y-82695000D01*
X92570983Y-82695000D01*
X92914635Y-82552655D01*
X93177655Y-82289635D01*
X93277655Y-82048212D01*
X93667282Y-81658586D01*
X93737001Y-81612001D01*
X93921552Y-81335801D01*
X93970000Y-81092237D01*
X93970000Y-81092234D01*
X93986357Y-81010001D01*
X93970000Y-80927768D01*
X93970000Y-74092237D01*
X93986358Y-74010000D01*
X93921552Y-73684199D01*
X93872920Y-73611416D01*
X93737001Y-73407999D01*
X93667280Y-73361413D01*
X93283586Y-72977719D01*
X93283584Y-72977716D01*
X92777655Y-72471788D01*
X92677655Y-72230365D01*
X92414635Y-71967345D01*
X92070983Y-71825000D01*
X91699017Y-71825000D01*
X91355365Y-71967345D01*
X91092345Y-72230365D01*
X90950000Y-72574017D01*
X90950000Y-72945983D01*
X91092345Y-73289635D01*
X91355365Y-73552655D01*
X91596788Y-73652655D01*
X92102716Y-74158584D01*
X92102719Y-74158586D01*
X92300000Y-74355867D01*
X92300001Y-78495030D01*
X92010222Y-78375000D01*
X91359778Y-78375000D01*
X90758847Y-78623914D01*
X90298914Y-79083847D01*
X90050000Y-79684778D01*
X86320000Y-79684778D01*
X86320000Y-79324040D01*
X86177655Y-78980388D01*
X85914635Y-78717368D01*
X85673214Y-78617368D01*
X84283564Y-77227720D01*
X84236978Y-77157999D01*
X83975147Y-76983049D01*
X85083063Y-76983049D01*
X85083063Y-77355015D01*
X85225408Y-77698667D01*
X85488428Y-77961687D01*
X85832080Y-78104032D01*
X86204046Y-78104032D01*
X86547698Y-77961687D01*
X86600624Y-77908761D01*
X86642757Y-77926213D01*
X87024233Y-78307689D01*
X87140087Y-78587385D01*
X87403107Y-78850405D01*
X87746759Y-78992750D01*
X88118725Y-78992750D01*
X88462377Y-78850405D01*
X88725397Y-78587385D01*
X88867742Y-78243733D01*
X88867742Y-77871767D01*
X88725397Y-77528115D01*
X88462377Y-77265095D01*
X88259228Y-77180948D01*
X88022785Y-76944505D01*
X88177655Y-76789635D01*
X88320000Y-76445983D01*
X88320000Y-76074017D01*
X88177655Y-75730365D01*
X87914635Y-75467345D01*
X87570983Y-75325000D01*
X87199017Y-75325000D01*
X86957595Y-75425000D01*
X86585063Y-75425000D01*
X86502830Y-75408643D01*
X86420597Y-75425000D01*
X86420594Y-75425000D01*
X86177030Y-75473448D01*
X85900830Y-75657999D01*
X85854245Y-75727718D01*
X85485781Y-76096183D01*
X85416063Y-76142767D01*
X85231511Y-76418967D01*
X85183063Y-76662531D01*
X85183063Y-76662535D01*
X85166706Y-76744768D01*
X85171590Y-76769324D01*
X85083063Y-76983049D01*
X83975147Y-76983049D01*
X83960778Y-76973448D01*
X83717214Y-76925000D01*
X83717210Y-76925000D01*
X83634977Y-76908643D01*
X83552744Y-76925000D01*
X82562405Y-76925000D01*
X82320983Y-76825000D01*
X81949017Y-76825000D01*
X81605365Y-76967345D01*
X81342345Y-77230365D01*
X81200000Y-77574017D01*
X81200000Y-77945983D01*
X81342345Y-78289635D01*
X81524971Y-78472261D01*
X81158847Y-78623914D01*
X80698914Y-79083847D01*
X80568086Y-79399694D01*
X80230917Y-79399694D01*
X79894725Y-79538949D01*
X80020396Y-79235552D01*
X80020396Y-78863586D01*
X79878051Y-78519934D01*
X79615031Y-78256914D01*
X79373608Y-78156913D01*
X79357686Y-78140992D01*
X79311100Y-78071271D01*
X79034900Y-77886720D01*
X78791336Y-77838272D01*
X78791332Y-77838272D01*
X78709099Y-77821915D01*
X78626866Y-77838272D01*
X76124872Y-77838272D01*
X75883450Y-77738272D01*
X75511484Y-77738272D01*
X75167832Y-77880617D01*
X74904812Y-78143637D01*
X74762467Y-78487289D01*
X74026958Y-78487289D01*
X74026958Y-77683110D01*
X74126958Y-77441688D01*
X74126958Y-77069722D01*
X73984613Y-76726070D01*
X73721593Y-76463050D01*
X73377941Y-76320705D01*
X73221947Y-76320705D01*
X73006199Y-76104957D01*
X72662547Y-75962612D01*
X72290581Y-75962612D01*
X71946929Y-76104957D01*
X71683909Y-76367977D01*
X71541564Y-76711629D01*
X71541564Y-77083595D01*
X71641564Y-77325017D01*
X71641565Y-78654326D01*
X71611153Y-78623914D01*
X71010222Y-78375000D01*
X70359778Y-78375000D01*
X70316599Y-78392885D01*
X70421552Y-78235812D01*
X70470000Y-77992248D01*
X70470000Y-77992245D01*
X70486357Y-77910012D01*
X70470000Y-77827779D01*
X70470000Y-77187405D01*
X70570000Y-76945983D01*
X70570000Y-76574017D01*
X70427655Y-76230365D01*
X70164635Y-75967345D01*
X69820983Y-75825000D01*
X69449017Y-75825000D01*
X69105365Y-75967345D01*
X68842345Y-76230365D01*
X68700000Y-76574017D01*
X68700000Y-76945983D01*
X68800000Y-77187406D01*
X68800001Y-77422720D01*
X68592345Y-77630376D01*
X68450000Y-77974028D01*
X55685000Y-77974028D01*
X55685000Y-74774017D01*
X65984456Y-74774017D01*
X65984456Y-75145983D01*
X66126801Y-75489635D01*
X66389821Y-75752655D01*
X66733473Y-75895000D01*
X67105439Y-75895000D01*
X67346861Y-75795000D01*
X69552767Y-75795000D01*
X69635000Y-75811357D01*
X69717233Y-75795000D01*
X69717237Y-75795000D01*
X69960801Y-75746552D01*
X70237001Y-75562001D01*
X70283587Y-75492281D01*
X70451851Y-75324017D01*
X81200000Y-75324017D01*
X81200000Y-75695983D01*
X81342345Y-76039635D01*
X81605365Y-76302655D01*
X81949017Y-76445000D01*
X82320983Y-76445000D01*
X82664635Y-76302655D01*
X82871531Y-76095759D01*
X83472617Y-76095759D01*
X83714039Y-76195759D01*
X84086005Y-76195759D01*
X84429657Y-76053414D01*
X84692677Y-75790394D01*
X84835022Y-75446742D01*
X84835022Y-75074776D01*
X84692677Y-74731124D01*
X84429657Y-74468104D01*
X84086005Y-74325759D01*
X83714039Y-74325759D01*
X83472617Y-74425759D01*
X82466473Y-74425759D01*
X82384240Y-74409402D01*
X82302007Y-74425759D01*
X82302004Y-74425759D01*
X82058440Y-74474207D01*
X81840031Y-74620144D01*
X81605365Y-74717345D01*
X81342345Y-74980365D01*
X81200000Y-75324017D01*
X70451851Y-75324017D01*
X70623213Y-75152655D01*
X70864635Y-75052655D01*
X71127655Y-74789635D01*
X71270000Y-74445983D01*
X71270000Y-74197290D01*
X71427655Y-74039635D01*
X71570000Y-73695983D01*
X71570000Y-73324017D01*
X71466447Y-73074017D01*
X72700000Y-73074017D01*
X72700000Y-73445983D01*
X72842345Y-73789635D01*
X73105365Y-74052655D01*
X73449017Y-74195000D01*
X73820983Y-74195000D01*
X74035002Y-74106351D01*
X74249020Y-74195000D01*
X74620986Y-74195000D01*
X74964638Y-74052655D01*
X75227658Y-73789635D01*
X75327659Y-73548211D01*
X75388276Y-73487594D01*
X75457997Y-73441008D01*
X75642548Y-73164808D01*
X75690996Y-72921244D01*
X75690996Y-72921241D01*
X75707353Y-72839008D01*
X75690996Y-72756775D01*
X75690996Y-71052760D01*
X75849999Y-71052760D01*
X75849999Y-73222711D01*
X75592345Y-73480365D01*
X75450000Y-73824017D01*
X75450000Y-74195983D01*
X75592345Y-74539635D01*
X75855365Y-74802655D01*
X76199017Y-74945000D01*
X76570983Y-74945000D01*
X76914635Y-74802655D01*
X77177655Y-74539635D01*
X77266182Y-74325912D01*
X77287000Y-74312002D01*
X77471551Y-74035802D01*
X77519999Y-73792238D01*
X77519999Y-73792237D01*
X77536357Y-73710001D01*
X77519999Y-73627764D01*
X77519999Y-73074017D01*
X79450001Y-73074017D01*
X79450001Y-73445983D01*
X79592346Y-73789635D01*
X79855366Y-74052655D01*
X80199018Y-74195000D01*
X80570984Y-74195000D01*
X80812406Y-74095000D01*
X86207595Y-74095000D01*
X86449017Y-74195000D01*
X86820983Y-74195000D01*
X87164635Y-74052655D01*
X87427655Y-73789635D01*
X87570000Y-73445983D01*
X87570000Y-73074017D01*
X87427655Y-72730365D01*
X87164635Y-72467345D01*
X86820983Y-72325000D01*
X86449017Y-72325000D01*
X86207595Y-72425000D01*
X80812406Y-72425000D01*
X80570984Y-72325000D01*
X80199018Y-72325000D01*
X79855366Y-72467345D01*
X79592346Y-72730365D01*
X79450001Y-73074017D01*
X77519999Y-73074017D01*
X77519999Y-68945000D01*
X77570983Y-68945000D01*
X77914635Y-68802655D01*
X78177655Y-68539635D01*
X78320000Y-68195983D01*
X78320000Y-67824017D01*
X78177655Y-67480365D01*
X77914635Y-67217345D01*
X77673211Y-67117344D01*
X77290105Y-66734238D01*
X77243519Y-66664517D01*
X76967319Y-66479966D01*
X76723755Y-66431518D01*
X76723751Y-66431518D01*
X76641518Y-66415161D01*
X76559285Y-66431518D01*
X75786450Y-66431518D01*
X75704217Y-66415161D01*
X75621984Y-66431518D01*
X75621981Y-66431518D01*
X75378417Y-66479966D01*
X75102217Y-66664517D01*
X75055632Y-66734236D01*
X74993581Y-66796287D01*
X74914635Y-66717341D01*
X74570983Y-66574996D01*
X74199017Y-66574996D01*
X73855365Y-66717341D01*
X73592345Y-66980361D01*
X73492345Y-67221784D01*
X73102718Y-67611411D01*
X73033000Y-67657995D01*
X72986416Y-67727713D01*
X72848448Y-67934196D01*
X72783643Y-68259996D01*
X72800001Y-68342234D01*
X72800000Y-72832595D01*
X72700000Y-73074017D01*
X71466447Y-73074017D01*
X71427655Y-72980365D01*
X71164635Y-72717345D01*
X70820983Y-72575000D01*
X70449017Y-72575000D01*
X70207595Y-72675000D01*
X69717237Y-72675000D01*
X69635000Y-72658642D01*
X69552763Y-72675000D01*
X69309199Y-72723448D01*
X69032999Y-72907999D01*
X68986413Y-72977720D01*
X68789133Y-73175000D01*
X67967232Y-73175000D01*
X67884999Y-73158643D01*
X67802766Y-73175000D01*
X67802763Y-73175000D01*
X67559199Y-73223448D01*
X67339039Y-73370554D01*
X67105365Y-73467345D01*
X66842345Y-73730365D01*
X66717576Y-74031585D01*
X66389821Y-74167345D01*
X66126801Y-74430365D01*
X65984456Y-74774017D01*
X55685000Y-74774017D01*
X55685000Y-69074017D01*
X67062500Y-69074017D01*
X67062500Y-69445983D01*
X67204845Y-69789635D01*
X67467865Y-70052655D01*
X67709288Y-70152655D01*
X68848916Y-71292285D01*
X68895499Y-71362001D01*
X69171699Y-71546552D01*
X69415263Y-71595000D01*
X69415266Y-71595000D01*
X69497499Y-71611357D01*
X69579732Y-71595000D01*
X69957595Y-71595000D01*
X70199017Y-71695000D01*
X70570983Y-71695000D01*
X70914635Y-71552655D01*
X71177655Y-71289635D01*
X71320000Y-70945983D01*
X71320000Y-70574017D01*
X71177655Y-70230365D01*
X70914635Y-69967345D01*
X70570983Y-69825000D01*
X70199017Y-69825000D01*
X69957595Y-69925000D01*
X69843369Y-69925000D01*
X68890155Y-68971788D01*
X68790155Y-68730365D01*
X68718576Y-68658786D01*
X69648346Y-68658786D01*
X69648346Y-69030752D01*
X69790691Y-69374404D01*
X70053711Y-69637424D01*
X70397363Y-69779769D01*
X70769329Y-69779769D01*
X71112981Y-69637424D01*
X71376001Y-69374404D01*
X71518346Y-69030752D01*
X71518346Y-68658786D01*
X71418346Y-68417364D01*
X71418346Y-68157522D01*
X71923214Y-67652655D01*
X72164635Y-67552655D01*
X72427655Y-67289635D01*
X72570000Y-66945983D01*
X72570000Y-66574017D01*
X72427655Y-66230365D01*
X72164635Y-65967345D01*
X71820983Y-65825000D01*
X71449011Y-65825000D01*
X71105359Y-65967345D01*
X70842339Y-66230365D01*
X70742335Y-66471797D01*
X70051066Y-67163067D01*
X69981345Y-67209653D01*
X69796794Y-67485854D01*
X69748346Y-67729418D01*
X69748346Y-67729421D01*
X69731989Y-67811654D01*
X69748346Y-67893887D01*
X69748346Y-68417364D01*
X69648346Y-68658786D01*
X68718576Y-68658786D01*
X68527135Y-68467345D01*
X68183483Y-68325000D01*
X67811517Y-68325000D01*
X67467865Y-68467345D01*
X67204845Y-68730365D01*
X67062500Y-69074017D01*
X55685000Y-69074017D01*
X55685000Y-64760000D01*
X63727765Y-64760000D01*
X63815854Y-65202855D01*
X64066711Y-65578289D01*
X64442145Y-65829146D01*
X64773217Y-65895000D01*
X66996783Y-65895000D01*
X67327855Y-65829146D01*
X67703289Y-65578289D01*
X67954146Y-65202855D01*
X68042235Y-64760000D01*
X67954146Y-64317145D01*
X67703289Y-63941711D01*
X67327855Y-63690854D01*
X66996783Y-63625000D01*
X64773217Y-63625000D01*
X64442145Y-63690854D01*
X64066711Y-63941711D01*
X63815854Y-64317145D01*
X63727765Y-64760000D01*
X55685000Y-64760000D01*
X55685000Y-62587000D01*
X59800000Y-62587000D01*
X59800000Y-63337000D01*
X59954028Y-63857349D01*
X60295460Y-64279145D01*
X60772316Y-64538173D01*
X60843815Y-64552318D01*
X61058000Y-64429656D01*
X61058000Y-62587000D01*
X61312000Y-62587000D01*
X61312000Y-64429656D01*
X61526185Y-64552318D01*
X61597684Y-64538173D01*
X62074540Y-64279145D01*
X62415972Y-63857349D01*
X62570000Y-63337000D01*
X62570000Y-62587000D01*
X69200000Y-62587000D01*
X69200000Y-62887000D01*
X69354028Y-63407349D01*
X69695460Y-63829145D01*
X70172316Y-64088173D01*
X70243815Y-64102318D01*
X70458000Y-63979656D01*
X70458000Y-62587000D01*
X70712000Y-62587000D01*
X70712000Y-63979656D01*
X70926185Y-64102318D01*
X70997684Y-64088173D01*
X71474540Y-63829145D01*
X71815972Y-63407349D01*
X71970000Y-62887000D01*
X71970000Y-62587000D01*
X70712000Y-62587000D01*
X70458000Y-62587000D01*
X69200000Y-62587000D01*
X62570000Y-62587000D01*
X61312000Y-62587000D01*
X61058000Y-62587000D01*
X59800000Y-62587000D01*
X55685000Y-62587000D01*
X55685000Y-61583000D01*
X59800000Y-61583000D01*
X59800000Y-62333000D01*
X61058000Y-62333000D01*
X61058000Y-60490344D01*
X61312000Y-60490344D01*
X61312000Y-62333000D01*
X62570000Y-62333000D01*
X62570000Y-62033000D01*
X69200000Y-62033000D01*
X69200000Y-62333000D01*
X70458000Y-62333000D01*
X70458000Y-60940344D01*
X70712000Y-60940344D01*
X70712000Y-62333000D01*
X71970000Y-62333000D01*
X71970000Y-62033000D01*
X71939145Y-61928760D01*
X79800000Y-61928760D01*
X79800000Y-62459856D01*
X80003242Y-62950525D01*
X80378783Y-63326066D01*
X80869452Y-63529308D01*
X81400548Y-63529308D01*
X81891217Y-63326066D01*
X82266758Y-62950525D01*
X82387560Y-62658884D01*
X82387560Y-64310000D01*
X82436843Y-64557765D01*
X82577191Y-64767809D01*
X82787235Y-64908157D01*
X83035000Y-64957440D01*
X84735000Y-64957440D01*
X84982765Y-64908157D01*
X85192809Y-64767809D01*
X85333157Y-64557765D01*
X85382440Y-64310000D01*
X85382440Y-62610000D01*
X85333157Y-62362235D01*
X85192809Y-62152191D01*
X84982765Y-62011843D01*
X84937381Y-62002816D01*
X84955625Y-61990625D01*
X85283839Y-61499418D01*
X85389146Y-60970000D01*
X88745908Y-60970000D01*
X88861161Y-61549418D01*
X89189375Y-62040625D01*
X89207619Y-62052816D01*
X89162235Y-62061843D01*
X88952191Y-62202191D01*
X88811843Y-62412235D01*
X88762560Y-62660000D01*
X88762560Y-64360000D01*
X88811843Y-64607765D01*
X88952191Y-64817809D01*
X89162235Y-64958157D01*
X89410000Y-65007440D01*
X91110000Y-65007440D01*
X91357765Y-64958157D01*
X91567809Y-64817809D01*
X91708157Y-64607765D01*
X91757440Y-64360000D01*
X91757440Y-62660000D01*
X91708157Y-62412235D01*
X91567809Y-62202191D01*
X91357765Y-62061843D01*
X91312381Y-62052816D01*
X91330625Y-62040625D01*
X91658839Y-61549418D01*
X91774092Y-60970000D01*
X91658839Y-60390582D01*
X91330625Y-59899375D01*
X90839418Y-59571161D01*
X90406256Y-59485000D01*
X90113744Y-59485000D01*
X89680582Y-59571161D01*
X89189375Y-59899375D01*
X88861161Y-60390582D01*
X88745908Y-60970000D01*
X85389146Y-60970000D01*
X85399092Y-60920000D01*
X85283839Y-60340582D01*
X84955625Y-59849375D01*
X84464418Y-59521161D01*
X84031256Y-59435000D01*
X83738744Y-59435000D01*
X83305582Y-59521161D01*
X82814375Y-59849375D01*
X82486161Y-60340582D01*
X82370908Y-60920000D01*
X82486161Y-61499418D01*
X82814375Y-61990625D01*
X82832619Y-62002816D01*
X82787235Y-62011843D01*
X82577191Y-62152191D01*
X82470000Y-62312612D01*
X82470000Y-61928760D01*
X82266758Y-61438091D01*
X81891217Y-61062550D01*
X81400548Y-60859308D01*
X80869452Y-60859308D01*
X80378783Y-61062550D01*
X80003242Y-61438091D01*
X79800000Y-61928760D01*
X71939145Y-61928760D01*
X71815972Y-61512651D01*
X71474540Y-61090855D01*
X70997684Y-60831827D01*
X70926185Y-60817682D01*
X70712000Y-60940344D01*
X70458000Y-60940344D01*
X70243815Y-60817682D01*
X70172316Y-60831827D01*
X69695460Y-61090855D01*
X69354028Y-61512651D01*
X69200000Y-62033000D01*
X62570000Y-62033000D01*
X62570000Y-61583000D01*
X62415972Y-61062651D01*
X62074540Y-60640855D01*
X61597684Y-60381827D01*
X61526185Y-60367682D01*
X61312000Y-60490344D01*
X61058000Y-60490344D01*
X60843815Y-60367682D01*
X60772316Y-60381827D01*
X60295460Y-60640855D01*
X59954028Y-61062651D01*
X59800000Y-61583000D01*
X55685000Y-61583000D01*
X55685000Y-59744452D01*
X71800000Y-59744452D01*
X71800000Y-60275548D01*
X72003242Y-60766217D01*
X72378783Y-61141758D01*
X72869452Y-61345000D01*
X73400548Y-61345000D01*
X73891217Y-61141758D01*
X74266758Y-60766217D01*
X74470000Y-60275548D01*
X74470000Y-59744452D01*
X74266758Y-59253783D01*
X73891217Y-58878242D01*
X73400548Y-58675000D01*
X72869452Y-58675000D01*
X72378783Y-58878242D01*
X72003242Y-59253783D01*
X71800000Y-59744452D01*
X55685000Y-59744452D01*
X55685000Y-58195275D01*
X56129331Y-58195275D01*
X56191169Y-58431042D01*
X56692122Y-58607419D01*
X57222440Y-58578664D01*
X57578831Y-58431042D01*
X57640669Y-58195275D01*
X56885000Y-57439605D01*
X56129331Y-58195275D01*
X55685000Y-58195275D01*
X55685000Y-57883920D01*
X55713958Y-57953831D01*
X55949725Y-58015669D01*
X56705395Y-57260000D01*
X57064605Y-57260000D01*
X57820275Y-58015669D01*
X58056042Y-57953831D01*
X58232419Y-57452878D01*
X58203664Y-56922560D01*
X58056042Y-56566169D01*
X57820275Y-56504331D01*
X57064605Y-57260000D01*
X56705395Y-57260000D01*
X55949725Y-56504331D01*
X55713958Y-56566169D01*
X55685000Y-56648417D01*
X55685000Y-56324725D01*
X56129331Y-56324725D01*
X56885000Y-57080395D01*
X57640669Y-56324725D01*
X57578831Y-56088958D01*
X57077878Y-55912581D01*
X56547560Y-55941336D01*
X56191169Y-56088958D01*
X56129331Y-56324725D01*
X55685000Y-56324725D01*
X55685000Y-55885091D01*
X64081831Y-55831608D01*
X64066711Y-55841711D01*
X63815854Y-56217145D01*
X63727765Y-56660000D01*
X63815854Y-57102855D01*
X64066711Y-57478289D01*
X64442145Y-57729146D01*
X64773217Y-57795000D01*
X66996783Y-57795000D01*
X67327855Y-57729146D01*
X67703289Y-57478289D01*
X67954146Y-57102855D01*
X68042235Y-56660000D01*
X67954146Y-56217145D01*
X67703289Y-55841711D01*
X67654116Y-55808855D01*
X87099324Y-55685000D01*
X94315000Y-55685000D01*
X94315001Y-118190583D01*
M02*
