%TF.GenerationSoftware,KiCad,Pcbnew,(5.0.0)*%
%TF.CreationDate,2018-12-09T22:39:23+01:00*%
%TF.ProjectId,formant_vco,666F726D616E745F76636F2E6B696361,rev?*%
%TF.SameCoordinates,Original*%
%TF.FileFunction,Legend,Bot*%
%TF.FilePolarity,Positive*%
%FSLAX46Y46*%
G04 Gerber Fmt 4.6, Leading zero omitted, Abs format (unit mm)*
G04 Created by KiCad (PCBNEW (5.0.0)) date 12/09/18 22:39:23*
%MOMM*%
%LPD*%
G01*
G04 APERTURE LIST*
%ADD10C,0.100000*%
%ADD11C,0.300000*%
G04 APERTURE END LIST*
D10*
X55000000Y-155000000D02*
X95000000Y-155000000D01*
X95000000Y-55000000D02*
X95000000Y-155000000D01*
X55000000Y-55000000D02*
X95000000Y-55000000D01*
X55000000Y-155000000D02*
X55000000Y-55000000D01*
D11*
X58492142Y-106331428D02*
X58563571Y-106474285D01*
X58563571Y-106760000D01*
X58492142Y-106902857D01*
X58349285Y-106974285D01*
X58277857Y-106974285D01*
X58135000Y-106902857D01*
X58063571Y-106760000D01*
X58063571Y-106545714D01*
X57992142Y-106402857D01*
X57849285Y-106331428D01*
X57777857Y-106331428D01*
X57635000Y-106402857D01*
X57563571Y-106545714D01*
X57563571Y-106760000D01*
X57635000Y-106902857D01*
X58492142Y-108188571D02*
X58563571Y-108045714D01*
X58563571Y-107760000D01*
X58492142Y-107617142D01*
X58349285Y-107545714D01*
X57777857Y-107545714D01*
X57635000Y-107617142D01*
X57563571Y-107760000D01*
X57563571Y-108045714D01*
X57635000Y-108188571D01*
X57777857Y-108260000D01*
X57920714Y-108260000D01*
X58063571Y-107545714D01*
X58563571Y-108902857D02*
X57063571Y-108902857D01*
X57635000Y-108902857D02*
X57563571Y-109045714D01*
X57563571Y-109331428D01*
X57635000Y-109474285D01*
X57706428Y-109545714D01*
X57849285Y-109617142D01*
X58277857Y-109617142D01*
X58420714Y-109545714D01*
X58492142Y-109474285D01*
X58563571Y-109331428D01*
X58563571Y-109045714D01*
X58492142Y-108902857D01*
X58563571Y-110260000D02*
X57063571Y-110260000D01*
X58563571Y-110902857D02*
X57777857Y-110902857D01*
X57635000Y-110831428D01*
X57563571Y-110688571D01*
X57563571Y-110474285D01*
X57635000Y-110331428D01*
X57706428Y-110260000D01*
X58563571Y-111831428D02*
X58492142Y-111688571D01*
X58420714Y-111617142D01*
X58277857Y-111545714D01*
X57849285Y-111545714D01*
X57706428Y-111617142D01*
X57635000Y-111688571D01*
X57563571Y-111831428D01*
X57563571Y-112045714D01*
X57635000Y-112188571D01*
X57706428Y-112260000D01*
X57849285Y-112331428D01*
X58277857Y-112331428D01*
X58420714Y-112260000D01*
X58492142Y-112188571D01*
X58563571Y-112045714D01*
X58563571Y-111831428D01*
X58563571Y-113188571D02*
X58492142Y-113045714D01*
X58349285Y-112974285D01*
X57063571Y-112974285D01*
X57563571Y-113617142D02*
X57563571Y-114402857D01*
X58563571Y-113617142D01*
X58563571Y-114402857D01*
X58563571Y-115617142D02*
X57777857Y-115617142D01*
X57635000Y-115545714D01*
X57563571Y-115402857D01*
X57563571Y-115117142D01*
X57635000Y-114974285D01*
X58492142Y-115617142D02*
X58563571Y-115474285D01*
X58563571Y-115117142D01*
X58492142Y-114974285D01*
X58349285Y-114902857D01*
X58206428Y-114902857D01*
X58063571Y-114974285D01*
X57992142Y-115117142D01*
X57992142Y-115474285D01*
X57920714Y-115617142D01*
X57563571Y-116331428D02*
X59063571Y-116331428D01*
X57635000Y-116331428D02*
X57563571Y-116474285D01*
X57563571Y-116760000D01*
X57635000Y-116902857D01*
X57706428Y-116974285D01*
X57849285Y-117045714D01*
X58277857Y-117045714D01*
X58420714Y-116974285D01*
X58492142Y-116902857D01*
X58563571Y-116760000D01*
X58563571Y-116474285D01*
X58492142Y-116331428D01*
X57563571Y-117474285D02*
X57563571Y-118045714D01*
X58563571Y-117688571D02*
X57277857Y-117688571D01*
X57135000Y-117760000D01*
X57063571Y-117902857D01*
X57063571Y-118045714D01*
X58492142Y-119117142D02*
X58563571Y-118974285D01*
X58563571Y-118688571D01*
X58492142Y-118545714D01*
X58349285Y-118474285D01*
X57777857Y-118474285D01*
X57635000Y-118545714D01*
X57563571Y-118688571D01*
X57563571Y-118974285D01*
X57635000Y-119117142D01*
X57777857Y-119188571D01*
X57920714Y-119188571D01*
X58063571Y-118474285D01*
X58563571Y-120045714D02*
X58492142Y-119902857D01*
X58349285Y-119831428D01*
X57063571Y-119831428D01*
X58420714Y-120617142D02*
X58492142Y-120688571D01*
X58563571Y-120617142D01*
X58492142Y-120545714D01*
X58420714Y-120617142D01*
X58563571Y-120617142D01*
X58492142Y-121974285D02*
X58563571Y-121831428D01*
X58563571Y-121545714D01*
X58492142Y-121402857D01*
X58420714Y-121331428D01*
X58277857Y-121260000D01*
X57849285Y-121260000D01*
X57706428Y-121331428D01*
X57635000Y-121402857D01*
X57563571Y-121545714D01*
X57563571Y-121831428D01*
X57635000Y-121974285D01*
X58563571Y-122831428D02*
X58492142Y-122688571D01*
X58420714Y-122617142D01*
X58277857Y-122545714D01*
X57849285Y-122545714D01*
X57706428Y-122617142D01*
X57635000Y-122688571D01*
X57563571Y-122831428D01*
X57563571Y-123045714D01*
X57635000Y-123188571D01*
X57706428Y-123260000D01*
X57849285Y-123331428D01*
X58277857Y-123331428D01*
X58420714Y-123260000D01*
X58492142Y-123188571D01*
X58563571Y-123045714D01*
X58563571Y-122831428D01*
X58563571Y-123974285D02*
X57563571Y-123974285D01*
X57706428Y-123974285D02*
X57635000Y-124045714D01*
X57563571Y-124188571D01*
X57563571Y-124402857D01*
X57635000Y-124545714D01*
X57777857Y-124617142D01*
X58563571Y-124617142D01*
X57777857Y-124617142D02*
X57635000Y-124688571D01*
X57563571Y-124831428D01*
X57563571Y-125045714D01*
X57635000Y-125188571D01*
X57777857Y-125260000D01*
X58563571Y-125260000D01*
X57206428Y-127045714D02*
X57135000Y-127117142D01*
X57063571Y-127260000D01*
X57063571Y-127617142D01*
X57135000Y-127760000D01*
X57206428Y-127831428D01*
X57349285Y-127902857D01*
X57492142Y-127902857D01*
X57706428Y-127831428D01*
X58563571Y-126974285D01*
X58563571Y-127902857D01*
X57063571Y-128831428D02*
X57063571Y-128974285D01*
X57135000Y-129117142D01*
X57206428Y-129188571D01*
X57349285Y-129260000D01*
X57635000Y-129331428D01*
X57992142Y-129331428D01*
X58277857Y-129260000D01*
X58420714Y-129188571D01*
X58492142Y-129117142D01*
X58563571Y-128974285D01*
X58563571Y-128831428D01*
X58492142Y-128688571D01*
X58420714Y-128617142D01*
X58277857Y-128545714D01*
X57992142Y-128474285D01*
X57635000Y-128474285D01*
X57349285Y-128545714D01*
X57206428Y-128617142D01*
X57135000Y-128688571D01*
X57063571Y-128831428D01*
X58563571Y-130760000D02*
X58563571Y-129902857D01*
X58563571Y-130331428D02*
X57063571Y-130331428D01*
X57277857Y-130188571D01*
X57420714Y-130045714D01*
X57492142Y-129902857D01*
X57063571Y-131260000D02*
X57063571Y-132260000D01*
X58563571Y-131617142D01*
X57992142Y-133974285D02*
X57992142Y-135117142D01*
X58563571Y-136974285D02*
X57063571Y-136974285D01*
X58420714Y-138545714D02*
X58492142Y-138474285D01*
X58563571Y-138260000D01*
X58563571Y-138117142D01*
X58492142Y-137902857D01*
X58349285Y-137760000D01*
X58206428Y-137688571D01*
X57920714Y-137617142D01*
X57706428Y-137617142D01*
X57420714Y-137688571D01*
X57277857Y-137760000D01*
X57135000Y-137902857D01*
X57063571Y-138117142D01*
X57063571Y-138260000D01*
X57135000Y-138474285D01*
X57206428Y-138545714D01*
X58563571Y-139188571D02*
X57063571Y-139188571D01*
X58563571Y-141045714D02*
X57063571Y-141045714D01*
X58135000Y-141545714D01*
X57063571Y-142045714D01*
X58563571Y-142045714D01*
X58563571Y-142974285D02*
X58492142Y-142831428D01*
X58420714Y-142760000D01*
X58277857Y-142688571D01*
X57849285Y-142688571D01*
X57706428Y-142760000D01*
X57635000Y-142831428D01*
X57563571Y-142974285D01*
X57563571Y-143188571D01*
X57635000Y-143331428D01*
X57706428Y-143402857D01*
X57849285Y-143474285D01*
X58277857Y-143474285D01*
X58420714Y-143402857D01*
X58492142Y-143331428D01*
X58563571Y-143188571D01*
X58563571Y-142974285D01*
X58563571Y-144760000D02*
X57063571Y-144760000D01*
X58492142Y-144760000D02*
X58563571Y-144617142D01*
X58563571Y-144331428D01*
X58492142Y-144188571D01*
X58420714Y-144117142D01*
X58277857Y-144045714D01*
X57849285Y-144045714D01*
X57706428Y-144117142D01*
X57635000Y-144188571D01*
X57563571Y-144331428D01*
X57563571Y-144617142D01*
X57635000Y-144760000D01*
X57206428Y-146545714D02*
X57135000Y-146617142D01*
X57063571Y-146760000D01*
X57063571Y-147117142D01*
X57135000Y-147260000D01*
X57206428Y-147331428D01*
X57349285Y-147402857D01*
X57492142Y-147402857D01*
X57706428Y-147331428D01*
X58563571Y-146474285D01*
X58563571Y-147402857D01*
X57063571Y-148331428D02*
X57063571Y-148474285D01*
X57135000Y-148617142D01*
X57206428Y-148688571D01*
X57349285Y-148760000D01*
X57635000Y-148831428D01*
X57992142Y-148831428D01*
X58277857Y-148760000D01*
X58420714Y-148688571D01*
X58492142Y-148617142D01*
X58563571Y-148474285D01*
X58563571Y-148331428D01*
X58492142Y-148188571D01*
X58420714Y-148117142D01*
X58277857Y-148045714D01*
X57992142Y-147974285D01*
X57635000Y-147974285D01*
X57349285Y-148045714D01*
X57206428Y-148117142D01*
X57135000Y-148188571D01*
X57063571Y-148331428D01*
X58563571Y-150260000D02*
X58563571Y-149402857D01*
X58563571Y-149831428D02*
X57063571Y-149831428D01*
X57277857Y-149688571D01*
X57420714Y-149545714D01*
X57492142Y-149402857D01*
X57706428Y-151117142D02*
X57635000Y-150974285D01*
X57563571Y-150902857D01*
X57420714Y-150831428D01*
X57349285Y-150831428D01*
X57206428Y-150902857D01*
X57135000Y-150974285D01*
X57063571Y-151117142D01*
X57063571Y-151402857D01*
X57135000Y-151545714D01*
X57206428Y-151617142D01*
X57349285Y-151688571D01*
X57420714Y-151688571D01*
X57563571Y-151617142D01*
X57635000Y-151545714D01*
X57706428Y-151402857D01*
X57706428Y-151117142D01*
X57777857Y-150974285D01*
X57849285Y-150902857D01*
X57992142Y-150831428D01*
X58277857Y-150831428D01*
X58420714Y-150902857D01*
X58492142Y-150974285D01*
X58563571Y-151117142D01*
X58563571Y-151402857D01*
X58492142Y-151545714D01*
X58420714Y-151617142D01*
X58277857Y-151688571D01*
X57992142Y-151688571D01*
X57849285Y-151617142D01*
X57777857Y-151545714D01*
X57706428Y-151402857D01*
D10*
X57551666Y-175260000D02*
G75*
G03X57551666Y-175260000I-1666666J0D01*
G01*
X53385000Y-175260000D02*
X58385000Y-175260000D01*
X55885000Y-172760000D02*
X55885000Y-177760000D01*
M02*
