M48
;DRILL file {KiCad (5.0.0)} date 12/09/18 22:40:29
;FORMAT={-:-/ absolute / metric / decimal}
FMAT,2
METRIC,TZ
T1C0.400
T2C0.500
T3C0.700
T4C0.900
T5C1.000
T6C1.016
T7C1.400
%
G90
G05
M71
T1
X55.635Y-123.01
X55.635Y-123.81
X55.885Y-138.76
X55.885Y-149.01
X56.635Y-147.51
X56.662Y-124.506
X56.765Y-122.64
X56.885Y-137.76
X57.335Y-127.25
X57.42Y-124.248
X58.385Y-137.26
X59.135Y-136.01
X59.819Y-120.444
X59.885Y-119.51
X60.835Y-126.944
X60.835Y-127.76
X61.019Y-124.944
X61.862Y-124.91
X62.685Y-135.76
X63.385Y-129.76
X63.385Y-132.51
X63.585Y-136.623
X63.948Y-126.121
X65.255Y-122.833
X65.317Y-124.31
X65.848Y-127.068
X66.385Y-136.66
X66.385Y-128.76
X66.546Y-130.421
X66.919Y-74.96
X67.061Y-126.81
X67.286Y-108.781
X67.635Y-74.26
X67.986Y-108.127
X67.998Y-69.26
X68.435Y-143.01
X68.501Y-123.947
X68.792Y-130.41
X69.132Y-121.948
X69.294Y-126.388
X69.385Y-78.16
X69.385Y-107.76
X69.635Y-76.76
X69.834Y-108.508
X69.835Y-134.597
X70.335Y-74.26
X70.385Y-70.76
X70.385Y-130.51
X70.435Y-146.26
X70.583Y-68.845
X70.635Y-73.51
X70.635Y-138.76
X70.673Y-133.058
X70.885Y-127.46
X70.985Y-150.988
X71.385Y-123.26
X71.385Y-133.71
X71.385Y-139.51
X71.404Y-134.529
X71.485Y-118.474
X71.635Y-66.76
X71.635Y-66.76
X71.885Y-147.26
X71.885Y-152.26
X72.021Y-143.233
X72.31Y-80.191
X72.385Y-127.21
X72.385Y-132.01
X72.477Y-76.898
X72.635Y-130.76
X72.635Y-121.01
X72.755Y-150.14
X72.785Y-139.542
X72.885Y-89.76
X72.885Y-118.51
X73.069Y-80.444
X73.1Y-85.267
X73.192Y-77.256
X73.33Y-127.21
X73.385Y-123.51
X73.602Y-105.793
X73.635Y-73.26
X74.135Y-141.51
X74.385Y-67.51
X74.435Y-73.26
X74.635Y-128.26
X74.885Y-137.26
X74.885Y-147.27
X74.885Y-148.67
X75.394Y-128.007
X75.626Y-99.763
X75.635Y-92.51
X75.635Y-96.51
X75.697Y-78.673
X75.726Y-70.118
X75.774Y-68.718
X75.885Y-104.51
X76.135Y-59.26
X76.296Y-79.395
X76.319Y-80.194
X76.335Y-68.013
X76.385Y-74.01
X76.385Y-84.26
X76.385Y-99.51
X76.435Y-92.507
X76.537Y-123.562
X76.635Y-107.26
X77.069Y-83.694
X77.191Y-92.244
X77.385Y-68.01
X78.214Y-123.239
X78.385Y-115.76
X78.587Y-117.296
X78.635Y-103.76
X78.635Y-107.26
X78.635Y-120.01
X78.825Y-79.994
X78.885Y-142.96
X79.085Y-79.05
X79.224Y-137.518
X79.319Y-83.944
X80.135Y-113.01
X80.135Y-114.76
X80.157Y-128.876
X80.235Y-142.26
X80.385Y-73.26
X80.417Y-80.335
X80.635Y-120.01
X81.135Y-124.01
X81.376Y-75.257
X81.635Y-126.76
X81.709Y-119.8
X81.719Y-123.244
X81.875Y-142.96
X81.885Y-142.01
X82.135Y-75.51
X82.135Y-77.76
X82.485Y-107.01
X83.185Y-137.76
X83.385Y-68.26
X83.385Y-123.26
X83.635Y-124.51
X83.885Y-107.01
X83.885Y-134.76
X83.885Y-136.76
X83.9Y-75.261
X84.385Y-134.01
X84.629Y-128.96
X84.635Y-111.26
X84.885Y-126.51
X85.385Y-79.51
X85.872Y-109.523
X86.018Y-77.169
X86.635Y-73.26
X86.635Y-126.26
X86.885Y-138.15
X86.885Y-139.55
X86.885Y-108.51
X86.931Y-77.034
X87.292Y-109.294
X87.385Y-76.26
X87.933Y-78.058
X91.885Y-72.76
X92.085Y-71.96
X92.385Y-81.76
X92.385Y-88.609
X92.881Y-132.256
X92.885Y-90.26
X92.885Y-122.26
X92.885Y-134.26
X92.898Y-124.387
X92.93Y-145.555
X93.635Y-120.01
X93.635Y-133.51
X93.647Y-124.106
X93.656Y-131.481
X93.67Y-146.795
X93.85Y-119.01
T3
X81.135Y-62.194
X73.135Y-60.01
X72.885Y-145.01
X56.885Y-57.26
T4
X67.885Y-149.51
X70.425Y-149.51
X74.385Y-98.51
X76.885Y-103.51
X79.385Y-98.51
X61.385Y-149.51
X63.925Y-149.51
X74.385Y-85.01
X74.385Y-90.01
X79.385Y-87.51
X74.635Y-114.01
X74.635Y-119.01
X79.635Y-116.51
X58.135Y-90.01
X58.135Y-95.01
X63.135Y-92.51
X78.635Y-146.76
X81.135Y-151.76
X83.635Y-146.76
T5
X83.885Y-60.92
X83.885Y-63.46
X63.385Y-87.51
X65.885Y-87.51
X68.385Y-87.51
X63.385Y-120.51
X65.885Y-120.51
X68.385Y-120.51
X84.135Y-120.76
X86.635Y-120.76
X89.135Y-120.76
X84.385Y-87.51
X86.885Y-87.51
X89.385Y-87.51
X90.26Y-60.97
X90.26Y-63.51
T6
X88.595Y-131.23
X88.595Y-133.77
X88.595Y-136.31
X88.595Y-138.85
X88.595Y-141.39
X88.595Y-143.93
X88.595Y-146.47
X88.595Y-149.01
X91.135Y-131.23
X91.135Y-133.77
X91.135Y-136.31
X91.135Y-138.85
X91.135Y-141.39
X91.135Y-143.93
X91.135Y-146.47
X91.135Y-149.01
T7
X61.085Y-80.01
X70.685Y-80.01
X61.085Y-113.01
X70.685Y-113.01
X81.835Y-113.26
X91.435Y-113.26
X82.085Y-80.01
X91.685Y-80.01
T2
X64.885Y-56.66G85X66.885Y-56.66
G05
X64.885Y-64.76G85X66.885Y-64.76
G05
X85.635Y-96.66G85X87.635Y-96.66
G05
X85.635Y-104.76G85X87.635Y-104.76
G05
X64.885Y-135.66G85X66.885Y-135.66
G05
X64.885Y-143.76G85X66.885Y-143.76
G05
X64.885Y-96.66G85X66.885Y-96.66
G05
X64.885Y-104.76G85X66.885Y-104.76
G05
T5
X61.185Y-140.71G85X61.185Y-142.21
G05
X70.585Y-141.16G85X70.585Y-141.76
G05
X61.185Y-101.71G85X61.185Y-103.21
G05
X70.585Y-102.16G85X70.585Y-102.76
G05
X61.185Y-61.71G85X61.185Y-63.21
G05
X70.585Y-62.16G85X70.585Y-62.76
G05
X81.935Y-101.71G85X81.935Y-103.21
G05
X91.335Y-102.16G85X91.335Y-102.76
G05
T0
M30
