%TF.GenerationSoftware,KiCad,Pcbnew,(5.0.0)*%
%TF.CreationDate,2018-12-09T22:39:23+01:00*%
%TF.ProjectId,formant_vco,666F726D616E745F76636F2E6B696361,rev?*%
%TF.SameCoordinates,Original*%
%TF.FileFunction,Legend,Top*%
%TF.FilePolarity,Positive*%
%FSLAX46Y46*%
G04 Gerber Fmt 4.6, Leading zero omitted, Abs format (unit mm)*
G04 Created by KiCad (PCBNEW (5.0.0)) date 12/09/18 22:39:23*
%MOMM*%
%LPD*%
G01*
G04 APERTURE LIST*
%ADD10C,0.150000*%
%ADD11C,0.100000*%
%ADD12C,0.375000*%
%ADD13C,0.120000*%
%ADD14C,0.125000*%
G04 APERTURE END LIST*
D10*
X78855018Y-60515736D02*
X79616923Y-60515736D01*
X79235970Y-60896688D02*
X79235970Y-60134784D01*
X80616923Y-60896688D02*
X80045494Y-60896688D01*
X80331208Y-60896688D02*
X80331208Y-59896688D01*
X80235970Y-60039546D01*
X80140732Y-60134784D01*
X80045494Y-60182403D01*
X81521684Y-59896688D02*
X81045494Y-59896688D01*
X80997875Y-60372879D01*
X81045494Y-60325260D01*
X81140732Y-60277641D01*
X81378827Y-60277641D01*
X81474065Y-60325260D01*
X81521684Y-60372879D01*
X81569304Y-60468117D01*
X81569304Y-60706212D01*
X81521684Y-60801450D01*
X81474065Y-60849069D01*
X81378827Y-60896688D01*
X81140732Y-60896688D01*
X81045494Y-60849069D01*
X80997875Y-60801450D01*
X81902637Y-60230022D02*
X82140732Y-60896688D01*
X82378827Y-60230022D01*
X68355018Y-60015736D02*
X69116923Y-60015736D01*
X70116923Y-60396688D02*
X69545494Y-60396688D01*
X69831208Y-60396688D02*
X69831208Y-59396688D01*
X69735970Y-59539546D01*
X69640732Y-59634784D01*
X69545494Y-59682403D01*
X71021684Y-59396688D02*
X70545494Y-59396688D01*
X70497875Y-59872879D01*
X70545494Y-59825260D01*
X70640732Y-59777641D01*
X70878827Y-59777641D01*
X70974065Y-59825260D01*
X71021684Y-59872879D01*
X71069304Y-59968117D01*
X71069304Y-60206212D01*
X71021684Y-60301450D01*
X70974065Y-60349069D01*
X70878827Y-60396688D01*
X70640732Y-60396688D01*
X70545494Y-60349069D01*
X70497875Y-60301450D01*
X71402637Y-59730022D02*
X71640732Y-60396688D01*
X71878827Y-59730022D01*
X72628827Y-146471688D02*
X72152637Y-146471688D01*
X72105018Y-146947879D01*
X72152637Y-146900260D01*
X72247875Y-146852641D01*
X72485970Y-146852641D01*
X72581208Y-146900260D01*
X72628827Y-146947879D01*
X72676446Y-147043117D01*
X72676446Y-147281212D01*
X72628827Y-147376450D01*
X72581208Y-147424069D01*
X72485970Y-147471688D01*
X72247875Y-147471688D01*
X72152637Y-147424069D01*
X72105018Y-147376450D01*
X72962161Y-146471688D02*
X73295494Y-147471688D01*
X73628827Y-146471688D01*
X56807399Y-59944308D02*
X56712161Y-59896688D01*
X56569304Y-59896688D01*
X56426446Y-59944308D01*
X56331208Y-60039546D01*
X56283589Y-60134784D01*
X56235970Y-60325260D01*
X56235970Y-60468117D01*
X56283589Y-60658593D01*
X56331208Y-60753831D01*
X56426446Y-60849069D01*
X56569304Y-60896688D01*
X56664542Y-60896688D01*
X56807399Y-60849069D01*
X56855018Y-60801450D01*
X56855018Y-60468117D01*
X56664542Y-60468117D01*
X57283589Y-60896688D02*
X57283589Y-59896688D01*
X57855018Y-60896688D01*
X57855018Y-59896688D01*
X58331208Y-60896688D02*
X58331208Y-59896688D01*
X58569304Y-59896688D01*
X58712161Y-59944308D01*
X58807399Y-60039546D01*
X58855018Y-60134784D01*
X58902637Y-60325260D01*
X58902637Y-60468117D01*
X58855018Y-60658593D01*
X58807399Y-60753831D01*
X58712161Y-60849069D01*
X58569304Y-60896688D01*
X58331208Y-60896688D01*
D11*
X55000000Y-155000000D02*
X95000000Y-155000000D01*
X95000000Y-55000000D02*
X95000000Y-155000000D01*
X55000000Y-55000000D02*
X95000000Y-55000000D01*
X55000000Y-155000000D02*
X55000000Y-55000000D01*
D12*
X56776406Y-70197500D02*
X57585930Y-70197500D01*
X56560930Y-70626071D02*
X57315096Y-69126071D01*
X57694263Y-70626071D01*
X58925811Y-69840357D02*
X58359144Y-69840357D01*
X58260930Y-70626071D02*
X58448430Y-69126071D01*
X59257953Y-69126071D01*
X60957953Y-69126071D02*
X61337120Y-70626071D01*
X62091287Y-69126071D01*
X63459739Y-70483214D02*
X63369858Y-70554642D01*
X63118072Y-70626071D01*
X62956168Y-70626071D01*
X62722239Y-70554642D01*
X62578191Y-70411785D01*
X62515096Y-70268928D01*
X62469858Y-69983214D01*
X62496644Y-69768928D01*
X62613311Y-69483214D01*
X62712120Y-69340357D01*
X62891882Y-69197500D01*
X63143668Y-69126071D01*
X63305572Y-69126071D01*
X63539501Y-69197500D01*
X63611525Y-69268928D01*
X64681763Y-69126071D02*
X65005572Y-69126071D01*
X65158549Y-69197500D01*
X65302596Y-69340357D01*
X65347834Y-69626071D01*
X65285334Y-70126071D01*
X65168668Y-70411785D01*
X64988906Y-70554642D01*
X64818072Y-70626071D01*
X64494263Y-70626071D01*
X64341287Y-70554642D01*
X64197239Y-70411785D01*
X64152001Y-70126071D01*
X64214501Y-69626071D01*
X64331168Y-69340357D01*
X64510930Y-69197500D01*
X64681763Y-69126071D01*
X57289501Y-73251071D02*
X56812120Y-72536785D01*
X56318072Y-73251071D02*
X56505572Y-71751071D01*
X57153191Y-71751071D01*
X57306168Y-71822500D01*
X57378191Y-71893928D01*
X57441287Y-72036785D01*
X57414501Y-72251071D01*
X57315691Y-72393928D01*
X57225811Y-72465357D01*
X57054977Y-72536785D01*
X56407358Y-72536785D01*
X58116287Y-72465357D02*
X58682953Y-72465357D01*
X58827596Y-73251071D02*
X58018072Y-73251071D01*
X58205572Y-71751071D01*
X59015096Y-71751071D01*
X59500811Y-71751071D02*
X59879977Y-73251071D01*
X60634144Y-71751071D01*
X61031168Y-73108214D02*
X61103191Y-73179642D01*
X61013311Y-73251071D01*
X60941287Y-73179642D01*
X61031168Y-73108214D01*
X61013311Y-73251071D01*
X64008549Y-73251071D02*
X63037120Y-73251071D01*
X63522834Y-73251071D02*
X63710334Y-71751071D01*
X63521644Y-71965357D01*
X63341882Y-72108214D01*
X63171049Y-72179642D01*
X65402001Y-72465357D02*
X65635930Y-72536785D01*
X65707953Y-72608214D01*
X65771049Y-72751071D01*
X65744263Y-72965357D01*
X65645453Y-73108214D01*
X65555572Y-73179642D01*
X65384739Y-73251071D01*
X64737120Y-73251071D01*
X64924620Y-71751071D01*
X65491287Y-71751071D01*
X65644263Y-71822500D01*
X65716287Y-71893928D01*
X65779382Y-72036785D01*
X65761525Y-72179642D01*
X65662715Y-72322500D01*
X65572834Y-72393928D01*
X65402001Y-72465357D01*
X64835334Y-72465357D01*
D11*
X57551666Y-175260000D02*
G75*
G03X57551666Y-175260000I-1666666J0D01*
G01*
X53385000Y-175260000D02*
X58385000Y-175260000D01*
X55885000Y-172760000D02*
X55885000Y-177760000D01*
D13*
X85065000Y-154340000D02*
X85065000Y-125900000D01*
X85065000Y-125900000D02*
X94665000Y-125900000D01*
X94665000Y-125900000D02*
X94665000Y-154340000D01*
X94665000Y-154340000D02*
X85065000Y-154340000D01*
X77191863Y-119780075D02*
G75*
G02X75650000Y-119424000I-56863J3270075D01*
G01*
X74221613Y-117995202D02*
G75*
G02X74221000Y-115026000I2913387J1485202D01*
G01*
X75651032Y-113596171D02*
G75*
G02X80227000Y-115446000I1483968J-2913829D01*
G01*
X80226846Y-117574608D02*
G75*
G02X77135000Y-119780000I-3091846J1064608D01*
G01*
X60691863Y-95780075D02*
G75*
G02X59150000Y-95424000I-56863J3270075D01*
G01*
X57721613Y-93995202D02*
G75*
G02X57721000Y-91026000I2913387J1485202D01*
G01*
X59151032Y-89596171D02*
G75*
G02X63727000Y-91446000I1483968J-2913829D01*
G01*
X63726846Y-93574608D02*
G75*
G02X60635000Y-95780000I-3091846J1064608D01*
G01*
D10*
X91535000Y-96360000D02*
X88335000Y-96360000D01*
X81735000Y-96360000D02*
X84885000Y-96360000D01*
X91535000Y-96360000D02*
X91535000Y-101110000D01*
X81735000Y-96360000D02*
X81735000Y-100710000D01*
X91535000Y-107260000D02*
X91535000Y-103810000D01*
X81735000Y-107260000D02*
X81735000Y-104210000D01*
X81735000Y-107260000D02*
X91535000Y-107260000D01*
X88435000Y-102060000D02*
G75*
G03X88435000Y-102060000I-1800000J0D01*
G01*
X64485000Y-110410000D02*
X68785000Y-113510000D01*
X68885000Y-113010000D02*
G75*
G03X68885000Y-113010000I-3000000J0D01*
G01*
X69385000Y-113010000D02*
G75*
G03X69385000Y-113010000I-3500000J0D01*
G01*
X70635000Y-119510000D02*
X69285000Y-119510000D01*
X61135000Y-119510000D02*
X62485000Y-119510000D01*
X70635000Y-119510000D02*
X70635000Y-114260000D01*
X61135000Y-119510000D02*
X61135000Y-114260000D01*
X70635000Y-108160000D02*
X70635000Y-111760000D01*
X61135000Y-108160000D02*
X61135000Y-111760000D01*
X61135000Y-108160000D02*
X70635000Y-108160000D01*
X79660000Y-58185000D02*
X79660000Y-56785000D01*
X74560000Y-58185000D02*
X74560000Y-62335000D01*
X79710000Y-58185000D02*
X79710000Y-62335000D01*
X74560000Y-58185000D02*
X74705000Y-58185000D01*
X74560000Y-62335000D02*
X74705000Y-62335000D01*
X79710000Y-62335000D02*
X79565000Y-62335000D01*
X79710000Y-58185000D02*
X79660000Y-58185000D01*
X79710000Y-67185000D02*
X79660000Y-67185000D01*
X79710000Y-71335000D02*
X79565000Y-71335000D01*
X74560000Y-71335000D02*
X74705000Y-71335000D01*
X74560000Y-67185000D02*
X74705000Y-67185000D01*
X79710000Y-67185000D02*
X79710000Y-71335000D01*
X74560000Y-67185000D02*
X74560000Y-71335000D01*
X79660000Y-67185000D02*
X79660000Y-65785000D01*
X80160000Y-125435000D02*
X80160000Y-124035000D01*
X75060000Y-125435000D02*
X75060000Y-129585000D01*
X80210000Y-125435000D02*
X80210000Y-129585000D01*
X75060000Y-125435000D02*
X75205000Y-125435000D01*
X75060000Y-129585000D02*
X75205000Y-129585000D01*
X80210000Y-129585000D02*
X80065000Y-129585000D01*
X80210000Y-125435000D02*
X80160000Y-125435000D01*
X61460000Y-134710000D02*
X61460000Y-134685000D01*
X57310000Y-134710000D02*
X57310000Y-134595000D01*
X57310000Y-125810000D02*
X57310000Y-125925000D01*
X61460000Y-125810000D02*
X61460000Y-125925000D01*
X61460000Y-134710000D02*
X57310000Y-134710000D01*
X61460000Y-125810000D02*
X57310000Y-125810000D01*
X61460000Y-134685000D02*
X62835000Y-134685000D01*
X87910000Y-67185000D02*
X87910000Y-65785000D01*
X82810000Y-67185000D02*
X82810000Y-71335000D01*
X87960000Y-67185000D02*
X87960000Y-71335000D01*
X82810000Y-67185000D02*
X82955000Y-67185000D01*
X82810000Y-71335000D02*
X82955000Y-71335000D01*
X87960000Y-71335000D02*
X87815000Y-71335000D01*
X87960000Y-67185000D02*
X87910000Y-67185000D01*
X79410000Y-106435000D02*
X79410000Y-105035000D01*
X74310000Y-106435000D02*
X74310000Y-110585000D01*
X79460000Y-106435000D02*
X79460000Y-110585000D01*
X74310000Y-106435000D02*
X74455000Y-106435000D01*
X74310000Y-110585000D02*
X74455000Y-110585000D01*
X79460000Y-110585000D02*
X79315000Y-110585000D01*
X79460000Y-106435000D02*
X79410000Y-106435000D01*
D13*
X71185000Y-125160000D02*
X69585000Y-125160000D01*
X69585000Y-125160000D02*
X69585000Y-127760000D01*
X71185000Y-125160000D02*
X71185000Y-127760000D01*
X71185000Y-128910000D02*
X69585000Y-128910000D01*
X69585000Y-128910000D02*
X69585000Y-131510000D01*
X71185000Y-128910000D02*
X71185000Y-131510000D01*
X91375000Y-120680000D02*
X91375000Y-121610000D01*
X91375000Y-123840000D02*
X91375000Y-122910000D01*
X91375000Y-123840000D02*
X93535000Y-123840000D01*
X91375000Y-120680000D02*
X92835000Y-120680000D01*
X66055000Y-129520000D02*
X66985000Y-129520000D01*
X69215000Y-129520000D02*
X68285000Y-129520000D01*
X69215000Y-129520000D02*
X69215000Y-127360000D01*
X66055000Y-129520000D02*
X66055000Y-128060000D01*
X62055000Y-124520000D02*
X62985000Y-124520000D01*
X65215000Y-124520000D02*
X64285000Y-124520000D01*
X65215000Y-124520000D02*
X65215000Y-122360000D01*
X62055000Y-124520000D02*
X62055000Y-123060000D01*
X68965000Y-123934308D02*
X68035000Y-123934308D01*
X65805000Y-123934308D02*
X66735000Y-123934308D01*
X65805000Y-123934308D02*
X65805000Y-126094308D01*
X68965000Y-123934308D02*
X68965000Y-125394308D01*
X77395000Y-137090000D02*
X77395000Y-136160000D01*
X77395000Y-133930000D02*
X77395000Y-134860000D01*
X77395000Y-133930000D02*
X75235000Y-133930000D01*
X77395000Y-137090000D02*
X75935000Y-137090000D01*
X85215000Y-64790000D02*
X85215000Y-59590000D01*
X85155000Y-64790000D02*
X85215000Y-64790000D01*
X82555000Y-59590000D02*
X85215000Y-59590000D01*
X85155000Y-64790000D02*
X85155000Y-62190000D01*
X85155000Y-62190000D02*
X82555000Y-62190000D01*
X82555000Y-62190000D02*
X82555000Y-59590000D01*
X83885000Y-64790000D02*
X82555000Y-64790000D01*
X82555000Y-64790000D02*
X82555000Y-63460000D01*
X91590000Y-64840000D02*
X91590000Y-59640000D01*
X91530000Y-64840000D02*
X91590000Y-64840000D01*
X88930000Y-59640000D02*
X91590000Y-59640000D01*
X91530000Y-64840000D02*
X91530000Y-62240000D01*
X91530000Y-62240000D02*
X88930000Y-62240000D01*
X88930000Y-62240000D02*
X88930000Y-59640000D01*
X90260000Y-64840000D02*
X88930000Y-64840000D01*
X88930000Y-64840000D02*
X88930000Y-63510000D01*
D10*
X74185000Y-143585000D02*
X74210000Y-143585000D01*
X74185000Y-139435000D02*
X74300000Y-139435000D01*
X83085000Y-139435000D02*
X82970000Y-139435000D01*
X83085000Y-143585000D02*
X82970000Y-143585000D01*
X74185000Y-143585000D02*
X74185000Y-139435000D01*
X83085000Y-143585000D02*
X83085000Y-139435000D01*
X74210000Y-143585000D02*
X74210000Y-144960000D01*
D13*
X72145000Y-149510462D02*
G75*
G03X66595000Y-147965170I-2990000J462D01*
G01*
X72145000Y-149509538D02*
G75*
G02X66595000Y-151054830I-2990000J-462D01*
G01*
X71655000Y-149510000D02*
G75*
G03X71655000Y-149510000I-2500000J0D01*
G01*
X66595000Y-147965000D02*
X66595000Y-151055000D01*
X65645000Y-149510462D02*
G75*
G03X60095000Y-147965170I-2990000J462D01*
G01*
X65645000Y-149509538D02*
G75*
G02X60095000Y-151054830I-2990000J-462D01*
G01*
X65155000Y-149510000D02*
G75*
G03X65155000Y-149510000I-2500000J0D01*
G01*
X60095000Y-147965000D02*
X60095000Y-151055000D01*
D10*
X85485000Y-77410000D02*
X89785000Y-80510000D01*
X89885000Y-80010000D02*
G75*
G03X89885000Y-80010000I-3000000J0D01*
G01*
X90385000Y-80010000D02*
G75*
G03X90385000Y-80010000I-3500000J0D01*
G01*
X91635000Y-86510000D02*
X90285000Y-86510000D01*
X82135000Y-86510000D02*
X83485000Y-86510000D01*
X91635000Y-86510000D02*
X91635000Y-81260000D01*
X82135000Y-86510000D02*
X82135000Y-81260000D01*
X91635000Y-75160000D02*
X91635000Y-78760000D01*
X82135000Y-75160000D02*
X82135000Y-78760000D01*
X82135000Y-75160000D02*
X91635000Y-75160000D01*
X64485000Y-77410000D02*
X68785000Y-80510000D01*
X68885000Y-80010000D02*
G75*
G03X68885000Y-80010000I-3000000J0D01*
G01*
X69385000Y-80010000D02*
G75*
G03X69385000Y-80010000I-3500000J0D01*
G01*
X70635000Y-86510000D02*
X69285000Y-86510000D01*
X61135000Y-86510000D02*
X62485000Y-86510000D01*
X70635000Y-86510000D02*
X70635000Y-81260000D01*
X61135000Y-86510000D02*
X61135000Y-81260000D01*
X70635000Y-75160000D02*
X70635000Y-78760000D01*
X61135000Y-75160000D02*
X61135000Y-78760000D01*
X61135000Y-75160000D02*
X70635000Y-75160000D01*
X85235000Y-110660000D02*
X89535000Y-113760000D01*
X89635000Y-113260000D02*
G75*
G03X89635000Y-113260000I-3000000J0D01*
G01*
X90135000Y-113260000D02*
G75*
G03X90135000Y-113260000I-3500000J0D01*
G01*
X91385000Y-119760000D02*
X90035000Y-119760000D01*
X81885000Y-119760000D02*
X83235000Y-119760000D01*
X91385000Y-119760000D02*
X91385000Y-114510000D01*
X81885000Y-119760000D02*
X81885000Y-114510000D01*
X91385000Y-108410000D02*
X91385000Y-112010000D01*
X81885000Y-108410000D02*
X81885000Y-112010000D01*
X81885000Y-108410000D02*
X91385000Y-108410000D01*
X70785000Y-56360000D02*
X67585000Y-56360000D01*
X60985000Y-56360000D02*
X64135000Y-56360000D01*
X70785000Y-56360000D02*
X70785000Y-61110000D01*
X60985000Y-56360000D02*
X60985000Y-60710000D01*
X70785000Y-67260000D02*
X70785000Y-63810000D01*
X60985000Y-67260000D02*
X60985000Y-64210000D01*
X60985000Y-67260000D02*
X70785000Y-67260000D01*
X67685000Y-62060000D02*
G75*
G03X67685000Y-62060000I-1800000J0D01*
G01*
X70785000Y-96360000D02*
X67585000Y-96360000D01*
X60985000Y-96360000D02*
X64135000Y-96360000D01*
X70785000Y-96360000D02*
X70785000Y-101110000D01*
X60985000Y-96360000D02*
X60985000Y-100710000D01*
X70785000Y-107260000D02*
X70785000Y-103810000D01*
X60985000Y-107260000D02*
X60985000Y-104210000D01*
X60985000Y-107260000D02*
X70785000Y-107260000D01*
X67685000Y-102060000D02*
G75*
G03X67685000Y-102060000I-1800000J0D01*
G01*
D13*
X80070392Y-152351846D02*
G75*
G02X77865000Y-149260000I1064608J3091846D01*
G01*
X84048829Y-147776032D02*
G75*
G02X82199000Y-152352000I-2913829J-1483968D01*
G01*
X79649798Y-146346613D02*
G75*
G02X82619000Y-146346000I1485202J-2913387D01*
G01*
X77864925Y-149316863D02*
G75*
G02X78221000Y-147775000I3270075J56863D01*
G01*
X76941863Y-90780075D02*
G75*
G02X75400000Y-90424000I-56863J3270075D01*
G01*
X73971613Y-88995202D02*
G75*
G02X73971000Y-86026000I2913387J1485202D01*
G01*
X75401032Y-84596171D02*
G75*
G02X79977000Y-86446000I1483968J-2913829D01*
G01*
X79976846Y-88574608D02*
G75*
G02X76885000Y-90780000I-3091846J1064608D01*
G01*
X75820392Y-104101846D02*
G75*
G02X73615000Y-101010000I1064608J3091846D01*
G01*
X79798829Y-99526032D02*
G75*
G02X77949000Y-104102000I-2913829J-1483968D01*
G01*
X75399798Y-98096613D02*
G75*
G02X78369000Y-98096000I1485202J-2913387D01*
G01*
X73614925Y-101066863D02*
G75*
G02X73971000Y-99525000I3270075J56863D01*
G01*
X90626422Y-71070000D02*
X91143578Y-71070000D01*
X90626422Y-69650000D02*
X91143578Y-69650000D01*
X80675000Y-73456078D02*
X80675000Y-72938922D01*
X82095000Y-73456078D02*
X82095000Y-72938922D01*
X80425000Y-65581078D02*
X80425000Y-65063922D01*
X81845000Y-65581078D02*
X81845000Y-65063922D01*
X80675000Y-128751422D02*
X80675000Y-129268578D01*
X82095000Y-128751422D02*
X82095000Y-129268578D01*
X80376422Y-120550000D02*
X80893578Y-120550000D01*
X80376422Y-121970000D02*
X80893578Y-121970000D01*
X82206078Y-89800000D02*
X81688922Y-89800000D01*
X82206078Y-91220000D02*
X81688922Y-91220000D01*
X90626422Y-67250000D02*
X91143578Y-67250000D01*
X90626422Y-68670000D02*
X91143578Y-68670000D01*
X69393578Y-132550000D02*
X68876422Y-132550000D01*
X69393578Y-133970000D02*
X68876422Y-133970000D01*
X74143578Y-152050000D02*
X73626422Y-152050000D01*
X74143578Y-153470000D02*
X73626422Y-153470000D01*
X72425000Y-109688922D02*
X72425000Y-110206078D01*
X73845000Y-109688922D02*
X73845000Y-110206078D01*
X73595000Y-120688922D02*
X73595000Y-121206078D01*
X72175000Y-120688922D02*
X72175000Y-121206078D01*
X81688922Y-95720000D02*
X82206078Y-95720000D01*
X81688922Y-94300000D02*
X82206078Y-94300000D01*
X71925000Y-63831078D02*
X71925000Y-63313922D01*
X73345000Y-63831078D02*
X73345000Y-63313922D01*
X71675000Y-87313922D02*
X71675000Y-87831078D01*
X73095000Y-87313922D02*
X73095000Y-87831078D01*
X71095000Y-123001422D02*
X71095000Y-123518578D01*
X69675000Y-123001422D02*
X69675000Y-123518578D01*
X76438922Y-133470000D02*
X76956078Y-133470000D01*
X76438922Y-132050000D02*
X76956078Y-132050000D01*
X79925000Y-110331078D02*
X79925000Y-109813922D01*
X81345000Y-110331078D02*
X81345000Y-109813922D01*
X80275000Y-69001422D02*
X80275000Y-69518578D01*
X81695000Y-69001422D02*
X81695000Y-69518578D01*
X73470000Y-68251422D02*
X73470000Y-68768578D01*
X72050000Y-68251422D02*
X72050000Y-68768578D01*
X77095000Y-150251422D02*
X77095000Y-150768578D01*
X75675000Y-150251422D02*
X75675000Y-150768578D01*
X78956078Y-75720000D02*
X78438922Y-75720000D01*
X78956078Y-74300000D02*
X78438922Y-74300000D01*
X67095000Y-132768578D02*
X67095000Y-132251422D01*
X65675000Y-132768578D02*
X65675000Y-132251422D01*
X58925000Y-123501422D02*
X58925000Y-124018578D01*
X60345000Y-123501422D02*
X60345000Y-124018578D01*
X63675000Y-132768578D02*
X63675000Y-132251422D01*
X65095000Y-132768578D02*
X65095000Y-132251422D01*
X76876422Y-121970000D02*
X77393578Y-121970000D01*
X76876422Y-120550000D02*
X77393578Y-120550000D01*
X63925000Y-128501422D02*
X63925000Y-129018578D01*
X65345000Y-128501422D02*
X65345000Y-129018578D01*
X90626422Y-90970000D02*
X91143578Y-90970000D01*
X90626422Y-89550000D02*
X91143578Y-89550000D01*
X90688922Y-73300000D02*
X91206078Y-73300000D01*
X90688922Y-74720000D02*
X91206078Y-74720000D01*
X78563922Y-76300000D02*
X79081078Y-76300000D01*
X78563922Y-77720000D02*
X79081078Y-77720000D01*
X73143578Y-71300000D02*
X72626422Y-71300000D01*
X73143578Y-72720000D02*
X72626422Y-72720000D01*
X68018578Y-69800000D02*
X67501422Y-69800000D01*
X68018578Y-71220000D02*
X67501422Y-71220000D01*
X84438922Y-74720000D02*
X84956078Y-74720000D01*
X84438922Y-73300000D02*
X84956078Y-73300000D01*
X81895000Y-57685730D02*
X81895000Y-58202886D01*
X80475000Y-57685730D02*
X80475000Y-58202886D01*
X79143578Y-80800000D02*
X78626422Y-80800000D01*
X79143578Y-82220000D02*
X78626422Y-82220000D01*
X57425000Y-99251422D02*
X57425000Y-99768578D01*
X58845000Y-99251422D02*
X58845000Y-99768578D01*
X78563922Y-79970000D02*
X79081078Y-79970000D01*
X78563922Y-78550000D02*
X79081078Y-78550000D01*
X57425000Y-104018578D02*
X57425000Y-103501422D01*
X58845000Y-104018578D02*
X58845000Y-103501422D01*
X84429304Y-128773230D02*
X84429304Y-129290386D01*
X83009304Y-128773230D02*
X83009304Y-129290386D01*
X80456078Y-132800000D02*
X79938922Y-132800000D01*
X80456078Y-134220000D02*
X79938922Y-134220000D01*
X81345000Y-106188922D02*
X81345000Y-106706078D01*
X79925000Y-106188922D02*
X79925000Y-106706078D01*
X79938922Y-135550000D02*
X80456078Y-135550000D01*
X79938922Y-136970000D02*
X80456078Y-136970000D01*
X59393578Y-88220000D02*
X58876422Y-88220000D01*
X59393578Y-86800000D02*
X58876422Y-86800000D01*
X82206078Y-93470000D02*
X81688922Y-93470000D01*
X82206078Y-92050000D02*
X81688922Y-92050000D01*
X88295000Y-59001422D02*
X88295000Y-59518578D01*
X86875000Y-59001422D02*
X86875000Y-59518578D01*
X74345000Y-135831078D02*
X74345000Y-135313922D01*
X72925000Y-135831078D02*
X72925000Y-135313922D01*
X73845000Y-141313922D02*
X73845000Y-141831078D01*
X72425000Y-141313922D02*
X72425000Y-141831078D01*
X74345000Y-125831078D02*
X74345000Y-125313922D01*
X72925000Y-125831078D02*
X72925000Y-125313922D01*
X90095000Y-123563922D02*
X90095000Y-124081078D01*
X88675000Y-123563922D02*
X88675000Y-124081078D01*
X86175000Y-123501422D02*
X86175000Y-124018578D01*
X87595000Y-123501422D02*
X87595000Y-124018578D01*
X57643578Y-136720000D02*
X57126422Y-136720000D01*
X57643578Y-135300000D02*
X57126422Y-135300000D01*
X80185000Y-61244308D02*
X80185000Y-63144308D01*
X80185000Y-63144308D02*
X82035000Y-63144308D01*
X82035000Y-63144308D02*
X82035000Y-61294308D01*
X82035000Y-61294308D02*
X82035000Y-61244308D01*
X82035000Y-61244308D02*
X80185000Y-61244308D01*
X71935000Y-144060000D02*
X71935000Y-145960000D01*
X71935000Y-145960000D02*
X73785000Y-145960000D01*
X73785000Y-145960000D02*
X73785000Y-144110000D01*
X73785000Y-144110000D02*
X73785000Y-144060000D01*
X73785000Y-144060000D02*
X71935000Y-144060000D01*
X57785000Y-56310000D02*
X55935000Y-56310000D01*
X57785000Y-56360000D02*
X57785000Y-56310000D01*
X57785000Y-58210000D02*
X57785000Y-56360000D01*
X55935000Y-58210000D02*
X57785000Y-58210000D01*
X55935000Y-56310000D02*
X55935000Y-58210000D01*
X74035000Y-59060000D02*
X72185000Y-59060000D01*
X74035000Y-59110000D02*
X74035000Y-59060000D01*
X74035000Y-60960000D02*
X74035000Y-59110000D01*
X72185000Y-60960000D02*
X74035000Y-60960000D01*
X72185000Y-59060000D02*
X72185000Y-60960000D01*
D10*
X70785000Y-135360000D02*
X67585000Y-135360000D01*
X60985000Y-135360000D02*
X64135000Y-135360000D01*
X70785000Y-135360000D02*
X70785000Y-140110000D01*
X60985000Y-135360000D02*
X60985000Y-139710000D01*
X70785000Y-146260000D02*
X70785000Y-142810000D01*
X60985000Y-146260000D02*
X60985000Y-143210000D01*
X60985000Y-146260000D02*
X70785000Y-146260000D01*
X67685000Y-141060000D02*
G75*
G03X67685000Y-141060000I-1800000J0D01*
G01*
D14*
X84111190Y-153760000D02*
X84468333Y-153760000D01*
X84539761Y-153795714D01*
X84587380Y-153867142D01*
X84611190Y-153974285D01*
X84611190Y-154045714D01*
X84611190Y-153010000D02*
X84611190Y-153438571D01*
X84611190Y-153224285D02*
X84111190Y-153224285D01*
X84182619Y-153295714D01*
X84230238Y-153367142D01*
X84254047Y-153438571D01*
D13*
X93307380Y-148704285D02*
X93307380Y-149275714D01*
X93307380Y-148990000D02*
X92307380Y-148990000D01*
X92450238Y-149085238D01*
X92545476Y-149180476D01*
X92593095Y-149275714D01*
D10*
X76539761Y-112402380D02*
X76206428Y-111926190D01*
X75968333Y-112402380D02*
X75968333Y-111402380D01*
X76349285Y-111402380D01*
X76444523Y-111450000D01*
X76492142Y-111497619D01*
X76539761Y-111592857D01*
X76539761Y-111735714D01*
X76492142Y-111830952D01*
X76444523Y-111878571D01*
X76349285Y-111926190D01*
X75968333Y-111926190D01*
X76825476Y-111402380D02*
X77158809Y-112402380D01*
X77492142Y-111402380D01*
X78301666Y-111402380D02*
X77825476Y-111402380D01*
X77777857Y-111878571D01*
X77825476Y-111830952D01*
X77920714Y-111783333D01*
X78158809Y-111783333D01*
X78254047Y-111830952D01*
X78301666Y-111878571D01*
X78349285Y-111973809D01*
X78349285Y-112211904D01*
X78301666Y-112307142D01*
X78254047Y-112354761D01*
X78158809Y-112402380D01*
X77920714Y-112402380D01*
X77825476Y-112354761D01*
X77777857Y-112307142D01*
X57539761Y-97462380D02*
X57206428Y-96986190D01*
X56968333Y-97462380D02*
X56968333Y-96462380D01*
X57349285Y-96462380D01*
X57444523Y-96510000D01*
X57492142Y-96557619D01*
X57539761Y-96652857D01*
X57539761Y-96795714D01*
X57492142Y-96890952D01*
X57444523Y-96938571D01*
X57349285Y-96986190D01*
X56968333Y-96986190D01*
X57825476Y-96462380D02*
X58158809Y-97462380D01*
X58492142Y-96462380D01*
X59254047Y-96462380D02*
X59063571Y-96462380D01*
X58968333Y-96510000D01*
X58920714Y-96557619D01*
X58825476Y-96700476D01*
X58777857Y-96890952D01*
X58777857Y-97271904D01*
X58825476Y-97367142D01*
X58873095Y-97414761D01*
X58968333Y-97462380D01*
X59158809Y-97462380D01*
X59254047Y-97414761D01*
X59301666Y-97367142D01*
X59349285Y-97271904D01*
X59349285Y-97033809D01*
X59301666Y-96938571D01*
X59254047Y-96890952D01*
X59158809Y-96843333D01*
X58968333Y-96843333D01*
X58873095Y-96890952D01*
X58825476Y-96938571D01*
X58777857Y-97033809D01*
D14*
X88527857Y-95236190D02*
X88527857Y-95593333D01*
X88492142Y-95664761D01*
X88420714Y-95712380D01*
X88313571Y-95736190D01*
X88242142Y-95736190D01*
X89206428Y-95402857D02*
X89206428Y-95736190D01*
X89027857Y-95212380D02*
X88849285Y-95569523D01*
X89313571Y-95569523D01*
X89849285Y-95474285D02*
X89599285Y-95474285D01*
X89599285Y-95736190D02*
X89599285Y-95236190D01*
X89956428Y-95236190D01*
X90242142Y-95736190D02*
X90242142Y-95236190D01*
X90492142Y-95593333D01*
X90742142Y-95236190D01*
X90742142Y-95736190D01*
X91492142Y-95736190D02*
X91063571Y-95736190D01*
X91277857Y-95736190D02*
X91277857Y-95236190D01*
X91206428Y-95307619D01*
X91135000Y-95355238D01*
X91063571Y-95379047D01*
X71511190Y-117756428D02*
X71273095Y-118006428D01*
X71511190Y-118185000D02*
X71011190Y-118185000D01*
X71011190Y-117899285D01*
X71035000Y-117827857D01*
X71058809Y-117792142D01*
X71106428Y-117756428D01*
X71177857Y-117756428D01*
X71225476Y-117792142D01*
X71249285Y-117827857D01*
X71273095Y-117899285D01*
X71273095Y-118185000D01*
X71011190Y-117542142D02*
X71511190Y-117292142D01*
X71011190Y-117042142D01*
X71511190Y-116756428D02*
X71511190Y-116613571D01*
X71487380Y-116542142D01*
X71463571Y-116506428D01*
X71392142Y-116435000D01*
X71296904Y-116399285D01*
X71106428Y-116399285D01*
X71058809Y-116435000D01*
X71035000Y-116470714D01*
X71011190Y-116542142D01*
X71011190Y-116685000D01*
X71035000Y-116756428D01*
X71058809Y-116792142D01*
X71106428Y-116827857D01*
X71225476Y-116827857D01*
X71273095Y-116792142D01*
X71296904Y-116756428D01*
X71320714Y-116685000D01*
X71320714Y-116542142D01*
X71296904Y-116470714D01*
X71273095Y-116435000D01*
X71225476Y-116399285D01*
D10*
X72337380Y-58271904D02*
X73146904Y-58271904D01*
X73242142Y-58224285D01*
X73289761Y-58176666D01*
X73337380Y-58081428D01*
X73337380Y-57890952D01*
X73289761Y-57795714D01*
X73242142Y-57748095D01*
X73146904Y-57700476D01*
X72337380Y-57700476D01*
X72337380Y-57319523D02*
X72337380Y-56652857D01*
X73337380Y-57081428D01*
X71873095Y-65462380D02*
X71873095Y-66271904D01*
X71920714Y-66367142D01*
X71968333Y-66414761D01*
X72063571Y-66462380D01*
X72254047Y-66462380D01*
X72349285Y-66414761D01*
X72396904Y-66367142D01*
X72444523Y-66271904D01*
X72444523Y-65462380D01*
X72873095Y-65557619D02*
X72920714Y-65510000D01*
X73015952Y-65462380D01*
X73254047Y-65462380D01*
X73349285Y-65510000D01*
X73396904Y-65557619D01*
X73444523Y-65652857D01*
X73444523Y-65748095D01*
X73396904Y-65890952D01*
X72825476Y-66462380D01*
X73444523Y-66462380D01*
X80587380Y-128271904D02*
X81396904Y-128271904D01*
X81492142Y-128224285D01*
X81539761Y-128176666D01*
X81587380Y-128081428D01*
X81587380Y-127890952D01*
X81539761Y-127795714D01*
X81492142Y-127748095D01*
X81396904Y-127700476D01*
X80587380Y-127700476D01*
X80920714Y-126795714D02*
X81587380Y-126795714D01*
X80539761Y-127033809D02*
X81254047Y-127271904D01*
X81254047Y-126652857D01*
D14*
X56313571Y-124736190D02*
X56313571Y-125140952D01*
X56349285Y-125188571D01*
X56385000Y-125212380D01*
X56456428Y-125236190D01*
X56599285Y-125236190D01*
X56670714Y-125212380D01*
X56706428Y-125188571D01*
X56742142Y-125140952D01*
X56742142Y-124736190D01*
X57027857Y-124736190D02*
X57492142Y-124736190D01*
X57242142Y-124926666D01*
X57349285Y-124926666D01*
X57420714Y-124950476D01*
X57456428Y-124974285D01*
X57492142Y-125021904D01*
X57492142Y-125140952D01*
X57456428Y-125188571D01*
X57420714Y-125212380D01*
X57349285Y-125236190D01*
X57135000Y-125236190D01*
X57063571Y-125212380D01*
X57027857Y-125188571D01*
D10*
X88523095Y-65612380D02*
X88523095Y-66421904D01*
X88570714Y-66517142D01*
X88618333Y-66564761D01*
X88713571Y-66612380D01*
X88904047Y-66612380D01*
X88999285Y-66564761D01*
X89046904Y-66517142D01*
X89094523Y-66421904D01*
X89094523Y-65612380D01*
X90094523Y-66612380D02*
X89523095Y-66612380D01*
X89808809Y-66612380D02*
X89808809Y-65612380D01*
X89713571Y-65755238D01*
X89618333Y-65850476D01*
X89523095Y-65898095D01*
X79837380Y-109271904D02*
X80646904Y-109271904D01*
X80742142Y-109224285D01*
X80789761Y-109176666D01*
X80837380Y-109081428D01*
X80837380Y-108890952D01*
X80789761Y-108795714D01*
X80742142Y-108748095D01*
X80646904Y-108700476D01*
X79837380Y-108700476D01*
X79837380Y-107795714D02*
X79837380Y-107986190D01*
X79885000Y-108081428D01*
X79932619Y-108129047D01*
X80075476Y-108224285D01*
X80265952Y-108271904D01*
X80646904Y-108271904D01*
X80742142Y-108224285D01*
X80789761Y-108176666D01*
X80837380Y-108081428D01*
X80837380Y-107890952D01*
X80789761Y-107795714D01*
X80742142Y-107748095D01*
X80646904Y-107700476D01*
X80408809Y-107700476D01*
X80313571Y-107748095D01*
X80265952Y-107795714D01*
X80218333Y-107890952D01*
X80218333Y-108081428D01*
X80265952Y-108176666D01*
X80313571Y-108224285D01*
X80408809Y-108271904D01*
D14*
X69311190Y-127263571D02*
X68811190Y-127263571D01*
X68811190Y-127085000D01*
X68835000Y-126977857D01*
X68882619Y-126906428D01*
X68930238Y-126870714D01*
X69025476Y-126835000D01*
X69096904Y-126835000D01*
X69192142Y-126870714D01*
X69239761Y-126906428D01*
X69287380Y-126977857D01*
X69311190Y-127085000D01*
X69311190Y-127263571D01*
X68811190Y-126585000D02*
X68811190Y-126120714D01*
X69001666Y-126370714D01*
X69001666Y-126263571D01*
X69025476Y-126192142D01*
X69049285Y-126156428D01*
X69096904Y-126120714D01*
X69215952Y-126120714D01*
X69263571Y-126156428D01*
X69287380Y-126192142D01*
X69311190Y-126263571D01*
X69311190Y-126477857D01*
X69287380Y-126549285D01*
X69263571Y-126585000D01*
X69031428Y-132886190D02*
X69031428Y-132386190D01*
X69210000Y-132386190D01*
X69317142Y-132410000D01*
X69388571Y-132457619D01*
X69424285Y-132505238D01*
X69460000Y-132600476D01*
X69460000Y-132671904D01*
X69424285Y-132767142D01*
X69388571Y-132814761D01*
X69317142Y-132862380D01*
X69210000Y-132886190D01*
X69031428Y-132886190D01*
X70102857Y-132552857D02*
X70102857Y-132886190D01*
X69924285Y-132362380D02*
X69745714Y-132719523D01*
X70210000Y-132719523D01*
X92863571Y-120233809D02*
X92792142Y-120210000D01*
X92720714Y-120162380D01*
X92613571Y-120090952D01*
X92542142Y-120067142D01*
X92470714Y-120067142D01*
X92506428Y-120186190D02*
X92435000Y-120162380D01*
X92363571Y-120114761D01*
X92327857Y-120019523D01*
X92327857Y-119852857D01*
X92363571Y-119757619D01*
X92435000Y-119710000D01*
X92506428Y-119686190D01*
X92649285Y-119686190D01*
X92720714Y-119710000D01*
X92792142Y-119757619D01*
X92827857Y-119852857D01*
X92827857Y-120019523D01*
X92792142Y-120114761D01*
X92720714Y-120162380D01*
X92649285Y-120186190D01*
X92506428Y-120186190D01*
X93506428Y-119686190D02*
X93149285Y-119686190D01*
X93113571Y-119924285D01*
X93149285Y-119900476D01*
X93220714Y-119876666D01*
X93399285Y-119876666D01*
X93470714Y-119900476D01*
X93506428Y-119924285D01*
X93542142Y-119971904D01*
X93542142Y-120090952D01*
X93506428Y-120138571D01*
X93470714Y-120162380D01*
X93399285Y-120186190D01*
X93220714Y-120186190D01*
X93149285Y-120162380D01*
X93113571Y-120138571D01*
X70008809Y-128631428D02*
X69985000Y-128702857D01*
X69937380Y-128774285D01*
X69865952Y-128881428D01*
X69842142Y-128952857D01*
X69842142Y-129024285D01*
X69961190Y-128988571D02*
X69937380Y-129060000D01*
X69889761Y-129131428D01*
X69794523Y-129167142D01*
X69627857Y-129167142D01*
X69532619Y-129131428D01*
X69485000Y-129060000D01*
X69461190Y-128988571D01*
X69461190Y-128845714D01*
X69485000Y-128774285D01*
X69532619Y-128702857D01*
X69627857Y-128667142D01*
X69794523Y-128667142D01*
X69889761Y-128702857D01*
X69937380Y-128774285D01*
X69961190Y-128845714D01*
X69961190Y-128988571D01*
X69961190Y-127952857D02*
X69961190Y-128381428D01*
X69961190Y-128167142D02*
X69461190Y-128167142D01*
X69532619Y-128238571D01*
X69580238Y-128310000D01*
X69604047Y-128381428D01*
X61608809Y-121831428D02*
X61585000Y-121902857D01*
X61537380Y-121974285D01*
X61465952Y-122081428D01*
X61442142Y-122152857D01*
X61442142Y-122224285D01*
X61561190Y-122188571D02*
X61537380Y-122260000D01*
X61489761Y-122331428D01*
X61394523Y-122367142D01*
X61227857Y-122367142D01*
X61132619Y-122331428D01*
X61085000Y-122260000D01*
X61061190Y-122188571D01*
X61061190Y-122045714D01*
X61085000Y-121974285D01*
X61132619Y-121902857D01*
X61227857Y-121867142D01*
X61394523Y-121867142D01*
X61489761Y-121902857D01*
X61537380Y-121974285D01*
X61561190Y-122045714D01*
X61561190Y-122188571D01*
X61108809Y-121581428D02*
X61085000Y-121545714D01*
X61061190Y-121474285D01*
X61061190Y-121295714D01*
X61085000Y-121224285D01*
X61108809Y-121188571D01*
X61156428Y-121152857D01*
X61204047Y-121152857D01*
X61275476Y-121188571D01*
X61561190Y-121617142D01*
X61561190Y-121152857D01*
X65358809Y-124965736D02*
X65335000Y-125037165D01*
X65287380Y-125108593D01*
X65215952Y-125215736D01*
X65192142Y-125287165D01*
X65192142Y-125358593D01*
X65311190Y-125322879D02*
X65287380Y-125394308D01*
X65239761Y-125465736D01*
X65144523Y-125501450D01*
X64977857Y-125501450D01*
X64882619Y-125465736D01*
X64835000Y-125394308D01*
X64811190Y-125322879D01*
X64811190Y-125180022D01*
X64835000Y-125108593D01*
X64882619Y-125037165D01*
X64977857Y-125001450D01*
X65144523Y-125001450D01*
X65239761Y-125037165D01*
X65287380Y-125108593D01*
X65311190Y-125180022D01*
X65311190Y-125322879D01*
X64811190Y-124751450D02*
X64811190Y-124287165D01*
X65001666Y-124537165D01*
X65001666Y-124430022D01*
X65025476Y-124358593D01*
X65049285Y-124322879D01*
X65096904Y-124287165D01*
X65215952Y-124287165D01*
X65263571Y-124322879D01*
X65287380Y-124358593D01*
X65311190Y-124430022D01*
X65311190Y-124644308D01*
X65287380Y-124715736D01*
X65263571Y-124751450D01*
X78313571Y-133533809D02*
X78242142Y-133510000D01*
X78170714Y-133462380D01*
X78063571Y-133390952D01*
X77992142Y-133367142D01*
X77920714Y-133367142D01*
X77956428Y-133486190D02*
X77885000Y-133462380D01*
X77813571Y-133414761D01*
X77777857Y-133319523D01*
X77777857Y-133152857D01*
X77813571Y-133057619D01*
X77885000Y-133010000D01*
X77956428Y-132986190D01*
X78099285Y-132986190D01*
X78170714Y-133010000D01*
X78242142Y-133057619D01*
X78277857Y-133152857D01*
X78277857Y-133319523D01*
X78242142Y-133414761D01*
X78170714Y-133462380D01*
X78099285Y-133486190D01*
X77956428Y-133486190D01*
X78920714Y-133152857D02*
X78920714Y-133486190D01*
X78742142Y-132962380D02*
X78563571Y-133319523D01*
X79027857Y-133319523D01*
X86337380Y-64742142D02*
X86361190Y-64635000D01*
X86361190Y-64456428D01*
X86337380Y-64385000D01*
X86313571Y-64349285D01*
X86265952Y-64313571D01*
X86218333Y-64313571D01*
X86170714Y-64349285D01*
X86146904Y-64385000D01*
X86123095Y-64456428D01*
X86099285Y-64599285D01*
X86075476Y-64670714D01*
X86051666Y-64706428D01*
X86004047Y-64742142D01*
X85956428Y-64742142D01*
X85908809Y-64706428D01*
X85885000Y-64670714D01*
X85861190Y-64599285D01*
X85861190Y-64420714D01*
X85885000Y-64313571D01*
X85861190Y-64063571D02*
X86361190Y-63885000D01*
X86004047Y-63742142D01*
X86361190Y-63599285D01*
X85861190Y-63420714D01*
X86361190Y-62742142D02*
X86361190Y-63170714D01*
X86361190Y-62956428D02*
X85861190Y-62956428D01*
X85932619Y-63027857D01*
X85980238Y-63099285D01*
X86004047Y-63170714D01*
X86170714Y-62420714D02*
X86170714Y-61849285D01*
X86361190Y-61135000D02*
X86361190Y-61492142D01*
X85861190Y-61492142D01*
X86099285Y-60635000D02*
X86099285Y-60885000D01*
X86361190Y-60885000D02*
X85861190Y-60885000D01*
X85861190Y-60527857D01*
X85861190Y-60099285D02*
X85861190Y-59956428D01*
X85885000Y-59885000D01*
X85932619Y-59813571D01*
X86027857Y-59777857D01*
X86194523Y-59777857D01*
X86289761Y-59813571D01*
X86337380Y-59885000D01*
X86361190Y-59956428D01*
X86361190Y-60099285D01*
X86337380Y-60170714D01*
X86289761Y-60242142D01*
X86194523Y-60277857D01*
X86027857Y-60277857D01*
X85932619Y-60242142D01*
X85885000Y-60170714D01*
X85861190Y-60099285D01*
X92837380Y-63420714D02*
X92861190Y-63313571D01*
X92861190Y-63135000D01*
X92837380Y-63063571D01*
X92813571Y-63027857D01*
X92765952Y-62992142D01*
X92718333Y-62992142D01*
X92670714Y-63027857D01*
X92646904Y-63063571D01*
X92623095Y-63135000D01*
X92599285Y-63277857D01*
X92575476Y-63349285D01*
X92551666Y-63385000D01*
X92504047Y-63420714D01*
X92456428Y-63420714D01*
X92408809Y-63385000D01*
X92385000Y-63349285D01*
X92361190Y-63277857D01*
X92361190Y-63099285D01*
X92385000Y-62992142D01*
X92361190Y-62742142D02*
X92861190Y-62563571D01*
X92504047Y-62420714D01*
X92861190Y-62277857D01*
X92361190Y-62099285D01*
X92408809Y-61849285D02*
X92385000Y-61813571D01*
X92361190Y-61742142D01*
X92361190Y-61563571D01*
X92385000Y-61492142D01*
X92408809Y-61456428D01*
X92456428Y-61420714D01*
X92504047Y-61420714D01*
X92575476Y-61456428D01*
X92861190Y-61885000D01*
X92861190Y-61420714D01*
X92670714Y-61099285D02*
X92670714Y-60527857D01*
X92813571Y-59742142D02*
X92837380Y-59777857D01*
X92861190Y-59885000D01*
X92861190Y-59956428D01*
X92837380Y-60063571D01*
X92789761Y-60135000D01*
X92742142Y-60170714D01*
X92646904Y-60206428D01*
X92575476Y-60206428D01*
X92480238Y-60170714D01*
X92432619Y-60135000D01*
X92385000Y-60063571D01*
X92361190Y-59956428D01*
X92361190Y-59885000D01*
X92385000Y-59777857D01*
X92408809Y-59742142D01*
X92361190Y-59527857D02*
X92861190Y-59277857D01*
X92361190Y-59027857D01*
X83361190Y-142081428D02*
X83765952Y-142081428D01*
X83813571Y-142045714D01*
X83837380Y-142010000D01*
X83861190Y-141938571D01*
X83861190Y-141795714D01*
X83837380Y-141724285D01*
X83813571Y-141688571D01*
X83765952Y-141652857D01*
X83361190Y-141652857D01*
X83361190Y-140938571D02*
X83361190Y-141295714D01*
X83599285Y-141331428D01*
X83575476Y-141295714D01*
X83551666Y-141224285D01*
X83551666Y-141045714D01*
X83575476Y-140974285D01*
X83599285Y-140938571D01*
X83646904Y-140902857D01*
X83765952Y-140902857D01*
X83813571Y-140938571D01*
X83837380Y-140974285D01*
X83861190Y-141045714D01*
X83861190Y-141224285D01*
X83837380Y-141295714D01*
X83813571Y-141331428D01*
X73011190Y-150163571D02*
X72511190Y-150163571D01*
X72511190Y-149985000D01*
X72535000Y-149877857D01*
X72582619Y-149806428D01*
X72630238Y-149770714D01*
X72725476Y-149735000D01*
X72796904Y-149735000D01*
X72892142Y-149770714D01*
X72939761Y-149806428D01*
X72987380Y-149877857D01*
X73011190Y-149985000D01*
X73011190Y-150163571D01*
X73011190Y-149020714D02*
X73011190Y-149449285D01*
X73011190Y-149235000D02*
X72511190Y-149235000D01*
X72582619Y-149306428D01*
X72630238Y-149377857D01*
X72654047Y-149449285D01*
X59611190Y-150063571D02*
X59111190Y-150063571D01*
X59111190Y-149885000D01*
X59135000Y-149777857D01*
X59182619Y-149706428D01*
X59230238Y-149670714D01*
X59325476Y-149635000D01*
X59396904Y-149635000D01*
X59492142Y-149670714D01*
X59539761Y-149706428D01*
X59587380Y-149777857D01*
X59611190Y-149885000D01*
X59611190Y-150063571D01*
X59158809Y-149349285D02*
X59135000Y-149313571D01*
X59111190Y-149242142D01*
X59111190Y-149063571D01*
X59135000Y-148992142D01*
X59158809Y-148956428D01*
X59206428Y-148920714D01*
X59254047Y-148920714D01*
X59325476Y-148956428D01*
X59611190Y-149385000D01*
X59611190Y-148920714D01*
X81861190Y-83456428D02*
X81623095Y-83706428D01*
X81861190Y-83885000D02*
X81361190Y-83885000D01*
X81361190Y-83599285D01*
X81385000Y-83527857D01*
X81408809Y-83492142D01*
X81456428Y-83456428D01*
X81527857Y-83456428D01*
X81575476Y-83492142D01*
X81599285Y-83527857D01*
X81623095Y-83599285D01*
X81623095Y-83885000D01*
X81361190Y-83242142D02*
X81861190Y-82992142D01*
X81361190Y-82742142D01*
X81361190Y-82563571D02*
X81361190Y-82099285D01*
X81551666Y-82349285D01*
X81551666Y-82242142D01*
X81575476Y-82170714D01*
X81599285Y-82135000D01*
X81646904Y-82099285D01*
X81765952Y-82099285D01*
X81813571Y-82135000D01*
X81837380Y-82170714D01*
X81861190Y-82242142D01*
X81861190Y-82456428D01*
X81837380Y-82527857D01*
X81813571Y-82563571D01*
X59486190Y-79956428D02*
X59248095Y-80206428D01*
X59486190Y-80385000D02*
X58986190Y-80385000D01*
X58986190Y-80099285D01*
X59010000Y-80027857D01*
X59033809Y-79992142D01*
X59081428Y-79956428D01*
X59152857Y-79956428D01*
X59200476Y-79992142D01*
X59224285Y-80027857D01*
X59248095Y-80099285D01*
X59248095Y-80385000D01*
X58986190Y-79742142D02*
X59486190Y-79492142D01*
X58986190Y-79242142D01*
X59152857Y-78670714D02*
X59486190Y-78670714D01*
X58962380Y-78849285D02*
X59319523Y-79027857D01*
X59319523Y-78563571D01*
X92236190Y-118206428D02*
X91998095Y-118456428D01*
X92236190Y-118635000D02*
X91736190Y-118635000D01*
X91736190Y-118349285D01*
X91760000Y-118277857D01*
X91783809Y-118242142D01*
X91831428Y-118206428D01*
X91902857Y-118206428D01*
X91950476Y-118242142D01*
X91974285Y-118277857D01*
X91998095Y-118349285D01*
X91998095Y-118635000D01*
X91736190Y-117992142D02*
X92236190Y-117742142D01*
X91736190Y-117492142D01*
X91736190Y-117313571D02*
X91736190Y-116813571D01*
X92236190Y-117135000D01*
X68206428Y-55486190D02*
X68206428Y-55843333D01*
X68170714Y-55914761D01*
X68099285Y-55962380D01*
X67992142Y-55986190D01*
X67920714Y-55986190D01*
X68492142Y-55486190D02*
X68956428Y-55486190D01*
X68706428Y-55676666D01*
X68813571Y-55676666D01*
X68885000Y-55700476D01*
X68920714Y-55724285D01*
X68956428Y-55771904D01*
X68956428Y-55890952D01*
X68920714Y-55938571D01*
X68885000Y-55962380D01*
X68813571Y-55986190D01*
X68599285Y-55986190D01*
X68527857Y-55962380D01*
X68492142Y-55938571D01*
X69706428Y-55938571D02*
X69670714Y-55962380D01*
X69563571Y-55986190D01*
X69492142Y-55986190D01*
X69385000Y-55962380D01*
X69313571Y-55914761D01*
X69277857Y-55867142D01*
X69242142Y-55771904D01*
X69242142Y-55700476D01*
X69277857Y-55605238D01*
X69313571Y-55557619D01*
X69385000Y-55510000D01*
X69492142Y-55486190D01*
X69563571Y-55486190D01*
X69670714Y-55510000D01*
X69706428Y-55533809D01*
X69920714Y-55486190D02*
X70170714Y-55986190D01*
X70420714Y-55486190D01*
X71063571Y-55986190D02*
X70635000Y-55986190D01*
X70849285Y-55986190D02*
X70849285Y-55486190D01*
X70777857Y-55557619D01*
X70706428Y-55605238D01*
X70635000Y-55629047D01*
X66974285Y-95486190D02*
X66974285Y-95843333D01*
X66938571Y-95914761D01*
X66867142Y-95962380D01*
X66760000Y-95986190D01*
X66688571Y-95986190D01*
X67688571Y-95486190D02*
X67331428Y-95486190D01*
X67295714Y-95724285D01*
X67331428Y-95700476D01*
X67402857Y-95676666D01*
X67581428Y-95676666D01*
X67652857Y-95700476D01*
X67688571Y-95724285D01*
X67724285Y-95771904D01*
X67724285Y-95890952D01*
X67688571Y-95938571D01*
X67652857Y-95962380D01*
X67581428Y-95986190D01*
X67402857Y-95986190D01*
X67331428Y-95962380D01*
X67295714Y-95938571D01*
X68010000Y-95962380D02*
X68117142Y-95986190D01*
X68295714Y-95986190D01*
X68367142Y-95962380D01*
X68402857Y-95938571D01*
X68438571Y-95890952D01*
X68438571Y-95843333D01*
X68402857Y-95795714D01*
X68367142Y-95771904D01*
X68295714Y-95748095D01*
X68152857Y-95724285D01*
X68081428Y-95700476D01*
X68045714Y-95676666D01*
X68010000Y-95629047D01*
X68010000Y-95581428D01*
X68045714Y-95533809D01*
X68081428Y-95510000D01*
X68152857Y-95486190D01*
X68331428Y-95486190D01*
X68438571Y-95510000D01*
X68688571Y-95652857D02*
X68867142Y-95986190D01*
X69045714Y-95652857D02*
X68867142Y-95986190D01*
X68795714Y-96105238D01*
X68760000Y-96129047D01*
X68688571Y-96152857D01*
X69331428Y-95652857D02*
X69331428Y-95986190D01*
X69331428Y-95700476D02*
X69367142Y-95676666D01*
X69438571Y-95652857D01*
X69545714Y-95652857D01*
X69617142Y-95676666D01*
X69652857Y-95724285D01*
X69652857Y-95986190D01*
X70331428Y-95962380D02*
X70260000Y-95986190D01*
X70117142Y-95986190D01*
X70045714Y-95962380D01*
X70010000Y-95938571D01*
X69974285Y-95890952D01*
X69974285Y-95748095D01*
X70010000Y-95700476D01*
X70045714Y-95676666D01*
X70117142Y-95652857D01*
X70260000Y-95652857D01*
X70331428Y-95676666D01*
X71045714Y-95986190D02*
X70617142Y-95986190D01*
X70831428Y-95986190D02*
X70831428Y-95486190D01*
X70760000Y-95557619D01*
X70688571Y-95605238D01*
X70617142Y-95629047D01*
D10*
X86147380Y-149855238D02*
X85671190Y-150188571D01*
X86147380Y-150426666D02*
X85147380Y-150426666D01*
X85147380Y-150045714D01*
X85195000Y-149950476D01*
X85242619Y-149902857D01*
X85337857Y-149855238D01*
X85480714Y-149855238D01*
X85575952Y-149902857D01*
X85623571Y-149950476D01*
X85671190Y-150045714D01*
X85671190Y-150426666D01*
X85147380Y-149569523D02*
X86147380Y-149236190D01*
X85147380Y-148902857D01*
X86147380Y-148045714D02*
X86147380Y-148617142D01*
X86147380Y-148331428D02*
X85147380Y-148331428D01*
X85290238Y-148426666D01*
X85385476Y-148521904D01*
X85433095Y-148617142D01*
X81087380Y-90855238D02*
X80611190Y-91188571D01*
X81087380Y-91426666D02*
X80087380Y-91426666D01*
X80087380Y-91045714D01*
X80135000Y-90950476D01*
X80182619Y-90902857D01*
X80277857Y-90855238D01*
X80420714Y-90855238D01*
X80515952Y-90902857D01*
X80563571Y-90950476D01*
X80611190Y-91045714D01*
X80611190Y-91426666D01*
X80087380Y-90569523D02*
X81087380Y-90236190D01*
X80087380Y-89902857D01*
X80182619Y-89617142D02*
X80135000Y-89569523D01*
X80087380Y-89474285D01*
X80087380Y-89236190D01*
X80135000Y-89140952D01*
X80182619Y-89093333D01*
X80277857Y-89045714D01*
X80373095Y-89045714D01*
X80515952Y-89093333D01*
X81087380Y-89664761D01*
X81087380Y-89045714D01*
X73289761Y-97212380D02*
X72956428Y-96736190D01*
X72718333Y-97212380D02*
X72718333Y-96212380D01*
X73099285Y-96212380D01*
X73194523Y-96260000D01*
X73242142Y-96307619D01*
X73289761Y-96402857D01*
X73289761Y-96545714D01*
X73242142Y-96640952D01*
X73194523Y-96688571D01*
X73099285Y-96736190D01*
X72718333Y-96736190D01*
X73575476Y-96212380D02*
X73908809Y-97212380D01*
X74242142Y-96212380D01*
X74718333Y-96640952D02*
X74623095Y-96593333D01*
X74575476Y-96545714D01*
X74527857Y-96450476D01*
X74527857Y-96402857D01*
X74575476Y-96307619D01*
X74623095Y-96260000D01*
X74718333Y-96212380D01*
X74908809Y-96212380D01*
X75004047Y-96260000D01*
X75051666Y-96307619D01*
X75099285Y-96402857D01*
X75099285Y-96450476D01*
X75051666Y-96545714D01*
X75004047Y-96593333D01*
X74908809Y-96640952D01*
X74718333Y-96640952D01*
X74623095Y-96688571D01*
X74575476Y-96736190D01*
X74527857Y-96831428D01*
X74527857Y-97021904D01*
X74575476Y-97117142D01*
X74623095Y-97164761D01*
X74718333Y-97212380D01*
X74908809Y-97212380D01*
X75004047Y-97164761D01*
X75051666Y-97117142D01*
X75099285Y-97021904D01*
X75099285Y-96831428D01*
X75051666Y-96736190D01*
X75004047Y-96688571D01*
X74908809Y-96640952D01*
X93468333Y-72117142D02*
X93420714Y-72164761D01*
X93277857Y-72212380D01*
X93182619Y-72212380D01*
X93039761Y-72164761D01*
X92944523Y-72069523D01*
X92896904Y-71974285D01*
X92849285Y-71783809D01*
X92849285Y-71640952D01*
X92896904Y-71450476D01*
X92944523Y-71355238D01*
X93039761Y-71260000D01*
X93182619Y-71212380D01*
X93277857Y-71212380D01*
X93420714Y-71260000D01*
X93468333Y-71307619D01*
X94420714Y-72212380D02*
X93849285Y-72212380D01*
X94135000Y-72212380D02*
X94135000Y-71212380D01*
X94039761Y-71355238D01*
X93944523Y-71450476D01*
X93849285Y-71498095D01*
X80092142Y-74426666D02*
X80139761Y-74474285D01*
X80187380Y-74617142D01*
X80187380Y-74712380D01*
X80139761Y-74855238D01*
X80044523Y-74950476D01*
X79949285Y-74998095D01*
X79758809Y-75045714D01*
X79615952Y-75045714D01*
X79425476Y-74998095D01*
X79330238Y-74950476D01*
X79235000Y-74855238D01*
X79187380Y-74712380D01*
X79187380Y-74617142D01*
X79235000Y-74474285D01*
X79282619Y-74426666D01*
X79282619Y-74045714D02*
X79235000Y-73998095D01*
X79187380Y-73902857D01*
X79187380Y-73664761D01*
X79235000Y-73569523D01*
X79282619Y-73521904D01*
X79377857Y-73474285D01*
X79473095Y-73474285D01*
X79615952Y-73521904D01*
X80187380Y-74093333D01*
X80187380Y-73474285D01*
X80242142Y-64926666D02*
X80289761Y-64974285D01*
X80337380Y-65117142D01*
X80337380Y-65212380D01*
X80289761Y-65355238D01*
X80194523Y-65450476D01*
X80099285Y-65498095D01*
X79908809Y-65545714D01*
X79765952Y-65545714D01*
X79575476Y-65498095D01*
X79480238Y-65450476D01*
X79385000Y-65355238D01*
X79337380Y-65212380D01*
X79337380Y-65117142D01*
X79385000Y-64974285D01*
X79432619Y-64926666D01*
X79337380Y-64593333D02*
X79337380Y-63974285D01*
X79718333Y-64307619D01*
X79718333Y-64164761D01*
X79765952Y-64069523D01*
X79813571Y-64021904D01*
X79908809Y-63974285D01*
X80146904Y-63974285D01*
X80242142Y-64021904D01*
X80289761Y-64069523D01*
X80337380Y-64164761D01*
X80337380Y-64450476D01*
X80289761Y-64545714D01*
X80242142Y-64593333D01*
X83392142Y-129176666D02*
X83439761Y-129224285D01*
X83487380Y-129367142D01*
X83487380Y-129462380D01*
X83439761Y-129605238D01*
X83344523Y-129700476D01*
X83249285Y-129748095D01*
X83058809Y-129795714D01*
X82915952Y-129795714D01*
X82725476Y-129748095D01*
X82630238Y-129700476D01*
X82535000Y-129605238D01*
X82487380Y-129462380D01*
X82487380Y-129367142D01*
X82535000Y-129224285D01*
X82582619Y-129176666D01*
X82820714Y-128319523D02*
X83487380Y-128319523D01*
X82439761Y-128557619D02*
X83154047Y-128795714D01*
X83154047Y-128176666D01*
X80468333Y-119967142D02*
X80420714Y-120014761D01*
X80277857Y-120062380D01*
X80182619Y-120062380D01*
X80039761Y-120014761D01*
X79944523Y-119919523D01*
X79896904Y-119824285D01*
X79849285Y-119633809D01*
X79849285Y-119490952D01*
X79896904Y-119300476D01*
X79944523Y-119205238D01*
X80039761Y-119110000D01*
X80182619Y-119062380D01*
X80277857Y-119062380D01*
X80420714Y-119110000D01*
X80468333Y-119157619D01*
X81373095Y-119062380D02*
X80896904Y-119062380D01*
X80849285Y-119538571D01*
X80896904Y-119490952D01*
X80992142Y-119443333D01*
X81230238Y-119443333D01*
X81325476Y-119490952D01*
X81373095Y-119538571D01*
X81420714Y-119633809D01*
X81420714Y-119871904D01*
X81373095Y-119967142D01*
X81325476Y-120014761D01*
X81230238Y-120062380D01*
X80992142Y-120062380D01*
X80896904Y-120014761D01*
X80849285Y-119967142D01*
X84468333Y-91117142D02*
X84420714Y-91164761D01*
X84277857Y-91212380D01*
X84182619Y-91212380D01*
X84039761Y-91164761D01*
X83944523Y-91069523D01*
X83896904Y-90974285D01*
X83849285Y-90783809D01*
X83849285Y-90640952D01*
X83896904Y-90450476D01*
X83944523Y-90355238D01*
X84039761Y-90260000D01*
X84182619Y-90212380D01*
X84277857Y-90212380D01*
X84420714Y-90260000D01*
X84468333Y-90307619D01*
X85325476Y-90212380D02*
X85135000Y-90212380D01*
X85039761Y-90260000D01*
X84992142Y-90307619D01*
X84896904Y-90450476D01*
X84849285Y-90640952D01*
X84849285Y-91021904D01*
X84896904Y-91117142D01*
X84944523Y-91164761D01*
X85039761Y-91212380D01*
X85230238Y-91212380D01*
X85325476Y-91164761D01*
X85373095Y-91117142D01*
X85420714Y-91021904D01*
X85420714Y-90783809D01*
X85373095Y-90688571D01*
X85325476Y-90640952D01*
X85230238Y-90593333D01*
X85039761Y-90593333D01*
X84944523Y-90640952D01*
X84896904Y-90688571D01*
X84849285Y-90783809D01*
X93468333Y-68367142D02*
X93420714Y-68414761D01*
X93277857Y-68462380D01*
X93182619Y-68462380D01*
X93039761Y-68414761D01*
X92944523Y-68319523D01*
X92896904Y-68224285D01*
X92849285Y-68033809D01*
X92849285Y-67890952D01*
X92896904Y-67700476D01*
X92944523Y-67605238D01*
X93039761Y-67510000D01*
X93182619Y-67462380D01*
X93277857Y-67462380D01*
X93420714Y-67510000D01*
X93468333Y-67557619D01*
X93801666Y-67462380D02*
X94468333Y-67462380D01*
X94039761Y-68462380D01*
X71718333Y-133617142D02*
X71670714Y-133664761D01*
X71527857Y-133712380D01*
X71432619Y-133712380D01*
X71289761Y-133664761D01*
X71194523Y-133569523D01*
X71146904Y-133474285D01*
X71099285Y-133283809D01*
X71099285Y-133140952D01*
X71146904Y-132950476D01*
X71194523Y-132855238D01*
X71289761Y-132760000D01*
X71432619Y-132712380D01*
X71527857Y-132712380D01*
X71670714Y-132760000D01*
X71718333Y-132807619D01*
X72289761Y-133140952D02*
X72194523Y-133093333D01*
X72146904Y-133045714D01*
X72099285Y-132950476D01*
X72099285Y-132902857D01*
X72146904Y-132807619D01*
X72194523Y-132760000D01*
X72289761Y-132712380D01*
X72480238Y-132712380D01*
X72575476Y-132760000D01*
X72623095Y-132807619D01*
X72670714Y-132902857D01*
X72670714Y-132950476D01*
X72623095Y-133045714D01*
X72575476Y-133093333D01*
X72480238Y-133140952D01*
X72289761Y-133140952D01*
X72194523Y-133188571D01*
X72146904Y-133236190D01*
X72099285Y-133331428D01*
X72099285Y-133521904D01*
X72146904Y-133617142D01*
X72194523Y-133664761D01*
X72289761Y-133712380D01*
X72480238Y-133712380D01*
X72575476Y-133664761D01*
X72623095Y-133617142D01*
X72670714Y-133521904D01*
X72670714Y-133331428D01*
X72623095Y-133236190D01*
X72575476Y-133188571D01*
X72480238Y-133140952D01*
X73242142Y-154767142D02*
X73194523Y-154814761D01*
X73051666Y-154862380D01*
X72956428Y-154862380D01*
X72813571Y-154814761D01*
X72718333Y-154719523D01*
X72670714Y-154624285D01*
X72623095Y-154433809D01*
X72623095Y-154290952D01*
X72670714Y-154100476D01*
X72718333Y-154005238D01*
X72813571Y-153910000D01*
X72956428Y-153862380D01*
X73051666Y-153862380D01*
X73194523Y-153910000D01*
X73242142Y-153957619D01*
X74194523Y-154862380D02*
X73623095Y-154862380D01*
X73908809Y-154862380D02*
X73908809Y-153862380D01*
X73813571Y-154005238D01*
X73718333Y-154100476D01*
X73623095Y-154148095D01*
X74813571Y-153862380D02*
X74908809Y-153862380D01*
X75004047Y-153910000D01*
X75051666Y-153957619D01*
X75099285Y-154052857D01*
X75146904Y-154243333D01*
X75146904Y-154481428D01*
X75099285Y-154671904D01*
X75051666Y-154767142D01*
X75004047Y-154814761D01*
X74908809Y-154862380D01*
X74813571Y-154862380D01*
X74718333Y-154814761D01*
X74670714Y-154767142D01*
X74623095Y-154671904D01*
X74575476Y-154481428D01*
X74575476Y-154243333D01*
X74623095Y-154052857D01*
X74670714Y-153957619D01*
X74718333Y-153910000D01*
X74813571Y-153862380D01*
X75142142Y-110590357D02*
X75189761Y-110637976D01*
X75237380Y-110780833D01*
X75237380Y-110876071D01*
X75189761Y-111018928D01*
X75094523Y-111114166D01*
X74999285Y-111161785D01*
X74808809Y-111209404D01*
X74665952Y-111209404D01*
X74475476Y-111161785D01*
X74380238Y-111114166D01*
X74285000Y-111018928D01*
X74237380Y-110876071D01*
X74237380Y-110780833D01*
X74285000Y-110637976D01*
X74332619Y-110590357D01*
X75237380Y-109637976D02*
X75237380Y-110209404D01*
X75237380Y-109923690D02*
X74237380Y-109923690D01*
X74380238Y-110018928D01*
X74475476Y-110114166D01*
X74523095Y-110209404D01*
X75237380Y-108685595D02*
X75237380Y-109257023D01*
X75237380Y-108971309D02*
X74237380Y-108971309D01*
X74380238Y-109066547D01*
X74475476Y-109161785D01*
X74523095Y-109257023D01*
X74892142Y-121590357D02*
X74939761Y-121637976D01*
X74987380Y-121780833D01*
X74987380Y-121876071D01*
X74939761Y-122018928D01*
X74844523Y-122114166D01*
X74749285Y-122161785D01*
X74558809Y-122209404D01*
X74415952Y-122209404D01*
X74225476Y-122161785D01*
X74130238Y-122114166D01*
X74035000Y-122018928D01*
X73987380Y-121876071D01*
X73987380Y-121780833D01*
X74035000Y-121637976D01*
X74082619Y-121590357D01*
X74987380Y-120637976D02*
X74987380Y-121209404D01*
X74987380Y-120923690D02*
X73987380Y-120923690D01*
X74130238Y-121018928D01*
X74225476Y-121114166D01*
X74273095Y-121209404D01*
X74082619Y-120257023D02*
X74035000Y-120209404D01*
X73987380Y-120114166D01*
X73987380Y-119876071D01*
X74035000Y-119780833D01*
X74082619Y-119733214D01*
X74177857Y-119685595D01*
X74273095Y-119685595D01*
X74415952Y-119733214D01*
X74987380Y-120304642D01*
X74987380Y-119685595D01*
X84617142Y-95367142D02*
X84569523Y-95414761D01*
X84426666Y-95462380D01*
X84331428Y-95462380D01*
X84188571Y-95414761D01*
X84093333Y-95319523D01*
X84045714Y-95224285D01*
X83998095Y-95033809D01*
X83998095Y-94890952D01*
X84045714Y-94700476D01*
X84093333Y-94605238D01*
X84188571Y-94510000D01*
X84331428Y-94462380D01*
X84426666Y-94462380D01*
X84569523Y-94510000D01*
X84617142Y-94557619D01*
X85569523Y-95462380D02*
X84998095Y-95462380D01*
X85283809Y-95462380D02*
X85283809Y-94462380D01*
X85188571Y-94605238D01*
X85093333Y-94700476D01*
X84998095Y-94748095D01*
X85902857Y-94462380D02*
X86521904Y-94462380D01*
X86188571Y-94843333D01*
X86331428Y-94843333D01*
X86426666Y-94890952D01*
X86474285Y-94938571D01*
X86521904Y-95033809D01*
X86521904Y-95271904D01*
X86474285Y-95367142D01*
X86426666Y-95414761D01*
X86331428Y-95462380D01*
X86045714Y-95462380D01*
X85950476Y-95414761D01*
X85902857Y-95367142D01*
X71176446Y-65837165D02*
X71224065Y-65884784D01*
X71271684Y-66027641D01*
X71271684Y-66122879D01*
X71224065Y-66265736D01*
X71128827Y-66360974D01*
X71033589Y-66408593D01*
X70843113Y-66456212D01*
X70700256Y-66456212D01*
X70509780Y-66408593D01*
X70414542Y-66360974D01*
X70319304Y-66265736D01*
X70271684Y-66122879D01*
X70271684Y-66027641D01*
X70319304Y-65884784D01*
X70366923Y-65837165D01*
X71271684Y-64884784D02*
X71271684Y-65456212D01*
X71271684Y-65170498D02*
X70271684Y-65170498D01*
X70414542Y-65265736D01*
X70509780Y-65360974D01*
X70557399Y-65456212D01*
X70605018Y-64027641D02*
X71271684Y-64027641D01*
X70224065Y-64265736D02*
X70938351Y-64503831D01*
X70938351Y-63884784D01*
X72992142Y-84965357D02*
X73039761Y-85012976D01*
X73087380Y-85155833D01*
X73087380Y-85251071D01*
X73039761Y-85393928D01*
X72944523Y-85489166D01*
X72849285Y-85536785D01*
X72658809Y-85584404D01*
X72515952Y-85584404D01*
X72325476Y-85536785D01*
X72230238Y-85489166D01*
X72135000Y-85393928D01*
X72087380Y-85251071D01*
X72087380Y-85155833D01*
X72135000Y-85012976D01*
X72182619Y-84965357D01*
X73087380Y-84012976D02*
X73087380Y-84584404D01*
X73087380Y-84298690D02*
X72087380Y-84298690D01*
X72230238Y-84393928D01*
X72325476Y-84489166D01*
X72373095Y-84584404D01*
X72087380Y-83108214D02*
X72087380Y-83584404D01*
X72563571Y-83632023D01*
X72515952Y-83584404D01*
X72468333Y-83489166D01*
X72468333Y-83251071D01*
X72515952Y-83155833D01*
X72563571Y-83108214D01*
X72658809Y-83060595D01*
X72896904Y-83060595D01*
X72992142Y-83108214D01*
X73039761Y-83155833D01*
X73087380Y-83251071D01*
X73087380Y-83489166D01*
X73039761Y-83584404D01*
X72992142Y-83632023D01*
X72392142Y-123902857D02*
X72439761Y-123950476D01*
X72487380Y-124093333D01*
X72487380Y-124188571D01*
X72439761Y-124331428D01*
X72344523Y-124426666D01*
X72249285Y-124474285D01*
X72058809Y-124521904D01*
X71915952Y-124521904D01*
X71725476Y-124474285D01*
X71630238Y-124426666D01*
X71535000Y-124331428D01*
X71487380Y-124188571D01*
X71487380Y-124093333D01*
X71535000Y-123950476D01*
X71582619Y-123902857D01*
X72487380Y-122950476D02*
X72487380Y-123521904D01*
X72487380Y-123236190D02*
X71487380Y-123236190D01*
X71630238Y-123331428D01*
X71725476Y-123426666D01*
X71773095Y-123521904D01*
X71487380Y-122093333D02*
X71487380Y-122283809D01*
X71535000Y-122379047D01*
X71582619Y-122426666D01*
X71725476Y-122521904D01*
X71915952Y-122569523D01*
X72296904Y-122569523D01*
X72392142Y-122521904D01*
X72439761Y-122474285D01*
X72487380Y-122379047D01*
X72487380Y-122188571D01*
X72439761Y-122093333D01*
X72392142Y-122045714D01*
X72296904Y-121998095D01*
X72058809Y-121998095D01*
X71963571Y-122045714D01*
X71915952Y-122093333D01*
X71868333Y-122188571D01*
X71868333Y-122379047D01*
X71915952Y-122474285D01*
X71963571Y-122521904D01*
X72058809Y-122569523D01*
D11*
X76054642Y-131688571D02*
X76007023Y-131712380D01*
X75864166Y-131736190D01*
X75768928Y-131736190D01*
X75626071Y-131712380D01*
X75530833Y-131664761D01*
X75483214Y-131617142D01*
X75435595Y-131521904D01*
X75435595Y-131450476D01*
X75483214Y-131355238D01*
X75530833Y-131307619D01*
X75626071Y-131260000D01*
X75768928Y-131236190D01*
X75864166Y-131236190D01*
X76007023Y-131260000D01*
X76054642Y-131283809D01*
X77007023Y-131736190D02*
X76435595Y-131736190D01*
X76721309Y-131736190D02*
X76721309Y-131236190D01*
X76626071Y-131307619D01*
X76530833Y-131355238D01*
X76435595Y-131379047D01*
X77340357Y-131236190D02*
X78007023Y-131236190D01*
X77578452Y-131736190D01*
D10*
X80992142Y-107215357D02*
X81039761Y-107262976D01*
X81087380Y-107405833D01*
X81087380Y-107501071D01*
X81039761Y-107643928D01*
X80944523Y-107739166D01*
X80849285Y-107786785D01*
X80658809Y-107834404D01*
X80515952Y-107834404D01*
X80325476Y-107786785D01*
X80230238Y-107739166D01*
X80135000Y-107643928D01*
X80087380Y-107501071D01*
X80087380Y-107405833D01*
X80135000Y-107262976D01*
X80182619Y-107215357D01*
X81087380Y-106262976D02*
X81087380Y-106834404D01*
X81087380Y-106548690D02*
X80087380Y-106548690D01*
X80230238Y-106643928D01*
X80325476Y-106739166D01*
X80373095Y-106834404D01*
X80515952Y-105691547D02*
X80468333Y-105786785D01*
X80420714Y-105834404D01*
X80325476Y-105882023D01*
X80277857Y-105882023D01*
X80182619Y-105834404D01*
X80135000Y-105786785D01*
X80087380Y-105691547D01*
X80087380Y-105501071D01*
X80135000Y-105405833D01*
X80182619Y-105358214D01*
X80277857Y-105310595D01*
X80325476Y-105310595D01*
X80420714Y-105358214D01*
X80468333Y-105405833D01*
X80515952Y-105501071D01*
X80515952Y-105691547D01*
X80563571Y-105786785D01*
X80611190Y-105834404D01*
X80706428Y-105882023D01*
X80896904Y-105882023D01*
X80992142Y-105834404D01*
X81039761Y-105786785D01*
X81087380Y-105691547D01*
X81087380Y-105501071D01*
X81039761Y-105405833D01*
X80992142Y-105358214D01*
X80896904Y-105310595D01*
X80706428Y-105310595D01*
X80611190Y-105358214D01*
X80563571Y-105405833D01*
X80515952Y-105501071D01*
X82587380Y-67926666D02*
X82111190Y-68260000D01*
X82587380Y-68498095D02*
X81587380Y-68498095D01*
X81587380Y-68117142D01*
X81635000Y-68021904D01*
X81682619Y-67974285D01*
X81777857Y-67926666D01*
X81920714Y-67926666D01*
X82015952Y-67974285D01*
X82063571Y-68021904D01*
X82111190Y-68117142D01*
X82111190Y-68498095D01*
X82587380Y-66974285D02*
X82587380Y-67545714D01*
X82587380Y-67260000D02*
X81587380Y-67260000D01*
X81730238Y-67355238D01*
X81825476Y-67450476D01*
X81873095Y-67545714D01*
X71587380Y-68926666D02*
X71111190Y-69260000D01*
X71587380Y-69498095D02*
X70587380Y-69498095D01*
X70587380Y-69117142D01*
X70635000Y-69021904D01*
X70682619Y-68974285D01*
X70777857Y-68926666D01*
X70920714Y-68926666D01*
X71015952Y-68974285D01*
X71063571Y-69021904D01*
X71111190Y-69117142D01*
X71111190Y-69498095D01*
X70682619Y-68545714D02*
X70635000Y-68498095D01*
X70587380Y-68402857D01*
X70587380Y-68164761D01*
X70635000Y-68069523D01*
X70682619Y-68021904D01*
X70777857Y-67974285D01*
X70873095Y-67974285D01*
X71015952Y-68021904D01*
X71587380Y-68593333D01*
X71587380Y-67974285D01*
X78487380Y-150676666D02*
X78011190Y-151010000D01*
X78487380Y-151248095D02*
X77487380Y-151248095D01*
X77487380Y-150867142D01*
X77535000Y-150771904D01*
X77582619Y-150724285D01*
X77677857Y-150676666D01*
X77820714Y-150676666D01*
X77915952Y-150724285D01*
X77963571Y-150771904D01*
X78011190Y-150867142D01*
X78011190Y-151248095D01*
X77487380Y-150343333D02*
X77487380Y-149724285D01*
X77868333Y-150057619D01*
X77868333Y-149914761D01*
X77915952Y-149819523D01*
X77963571Y-149771904D01*
X78058809Y-149724285D01*
X78296904Y-149724285D01*
X78392142Y-149771904D01*
X78439761Y-149819523D01*
X78487380Y-149914761D01*
X78487380Y-150200476D01*
X78439761Y-150295714D01*
X78392142Y-150343333D01*
X78530833Y-77112380D02*
X78197500Y-76636190D01*
X77959404Y-77112380D02*
X77959404Y-76112380D01*
X78340357Y-76112380D01*
X78435595Y-76160000D01*
X78483214Y-76207619D01*
X78530833Y-76302857D01*
X78530833Y-76445714D01*
X78483214Y-76540952D01*
X78435595Y-76588571D01*
X78340357Y-76636190D01*
X77959404Y-76636190D01*
X79387976Y-76445714D02*
X79387976Y-77112380D01*
X79149880Y-76064761D02*
X78911785Y-76779047D01*
X79530833Y-76779047D01*
X65187380Y-132676666D02*
X64711190Y-133010000D01*
X65187380Y-133248095D02*
X64187380Y-133248095D01*
X64187380Y-132867142D01*
X64235000Y-132771904D01*
X64282619Y-132724285D01*
X64377857Y-132676666D01*
X64520714Y-132676666D01*
X64615952Y-132724285D01*
X64663571Y-132771904D01*
X64711190Y-132867142D01*
X64711190Y-133248095D01*
X64187380Y-131771904D02*
X64187380Y-132248095D01*
X64663571Y-132295714D01*
X64615952Y-132248095D01*
X64568333Y-132152857D01*
X64568333Y-131914761D01*
X64615952Y-131819523D01*
X64663571Y-131771904D01*
X64758809Y-131724285D01*
X64996904Y-131724285D01*
X65092142Y-131771904D01*
X65139761Y-131819523D01*
X65187380Y-131914761D01*
X65187380Y-132152857D01*
X65139761Y-132248095D01*
X65092142Y-132295714D01*
X58337380Y-123176666D02*
X57861190Y-123510000D01*
X58337380Y-123748095D02*
X57337380Y-123748095D01*
X57337380Y-123367142D01*
X57385000Y-123271904D01*
X57432619Y-123224285D01*
X57527857Y-123176666D01*
X57670714Y-123176666D01*
X57765952Y-123224285D01*
X57813571Y-123271904D01*
X57861190Y-123367142D01*
X57861190Y-123748095D01*
X57337380Y-122319523D02*
X57337380Y-122510000D01*
X57385000Y-122605238D01*
X57432619Y-122652857D01*
X57575476Y-122748095D01*
X57765952Y-122795714D01*
X58146904Y-122795714D01*
X58242142Y-122748095D01*
X58289761Y-122700476D01*
X58337380Y-122605238D01*
X58337380Y-122414761D01*
X58289761Y-122319523D01*
X58242142Y-122271904D01*
X58146904Y-122224285D01*
X57908809Y-122224285D01*
X57813571Y-122271904D01*
X57765952Y-122319523D01*
X57718333Y-122414761D01*
X57718333Y-122605238D01*
X57765952Y-122700476D01*
X57813571Y-122748095D01*
X57908809Y-122795714D01*
X63187380Y-132676666D02*
X62711190Y-133010000D01*
X63187380Y-133248095D02*
X62187380Y-133248095D01*
X62187380Y-132867142D01*
X62235000Y-132771904D01*
X62282619Y-132724285D01*
X62377857Y-132676666D01*
X62520714Y-132676666D01*
X62615952Y-132724285D01*
X62663571Y-132771904D01*
X62711190Y-132867142D01*
X62711190Y-133248095D01*
X62187380Y-132343333D02*
X62187380Y-131676666D01*
X63187380Y-132105238D01*
X76968333Y-120062380D02*
X76635000Y-119586190D01*
X76396904Y-120062380D02*
X76396904Y-119062380D01*
X76777857Y-119062380D01*
X76873095Y-119110000D01*
X76920714Y-119157619D01*
X76968333Y-119252857D01*
X76968333Y-119395714D01*
X76920714Y-119490952D01*
X76873095Y-119538571D01*
X76777857Y-119586190D01*
X76396904Y-119586190D01*
X77539761Y-119490952D02*
X77444523Y-119443333D01*
X77396904Y-119395714D01*
X77349285Y-119300476D01*
X77349285Y-119252857D01*
X77396904Y-119157619D01*
X77444523Y-119110000D01*
X77539761Y-119062380D01*
X77730238Y-119062380D01*
X77825476Y-119110000D01*
X77873095Y-119157619D01*
X77920714Y-119252857D01*
X77920714Y-119300476D01*
X77873095Y-119395714D01*
X77825476Y-119443333D01*
X77730238Y-119490952D01*
X77539761Y-119490952D01*
X77444523Y-119538571D01*
X77396904Y-119586190D01*
X77349285Y-119681428D01*
X77349285Y-119871904D01*
X77396904Y-119967142D01*
X77444523Y-120014761D01*
X77539761Y-120062380D01*
X77730238Y-120062380D01*
X77825476Y-120014761D01*
X77873095Y-119967142D01*
X77920714Y-119871904D01*
X77920714Y-119681428D01*
X77873095Y-119586190D01*
X77825476Y-119538571D01*
X77730238Y-119490952D01*
X66737380Y-128926666D02*
X66261190Y-129260000D01*
X66737380Y-129498095D02*
X65737380Y-129498095D01*
X65737380Y-129117142D01*
X65785000Y-129021904D01*
X65832619Y-128974285D01*
X65927857Y-128926666D01*
X66070714Y-128926666D01*
X66165952Y-128974285D01*
X66213571Y-129021904D01*
X66261190Y-129117142D01*
X66261190Y-129498095D01*
X66737380Y-128450476D02*
X66737380Y-128260000D01*
X66689761Y-128164761D01*
X66642142Y-128117142D01*
X66499285Y-128021904D01*
X66308809Y-127974285D01*
X65927857Y-127974285D01*
X65832619Y-128021904D01*
X65785000Y-128069523D01*
X65737380Y-128164761D01*
X65737380Y-128355238D01*
X65785000Y-128450476D01*
X65832619Y-128498095D01*
X65927857Y-128545714D01*
X66165952Y-128545714D01*
X66261190Y-128498095D01*
X66308809Y-128450476D01*
X66356428Y-128355238D01*
X66356428Y-128164761D01*
X66308809Y-128069523D01*
X66261190Y-128021904D01*
X66165952Y-127974285D01*
X90242142Y-89062380D02*
X89908809Y-88586190D01*
X89670714Y-89062380D02*
X89670714Y-88062380D01*
X90051666Y-88062380D01*
X90146904Y-88110000D01*
X90194523Y-88157619D01*
X90242142Y-88252857D01*
X90242142Y-88395714D01*
X90194523Y-88490952D01*
X90146904Y-88538571D01*
X90051666Y-88586190D01*
X89670714Y-88586190D01*
X91194523Y-89062380D02*
X90623095Y-89062380D01*
X90908809Y-89062380D02*
X90908809Y-88062380D01*
X90813571Y-88205238D01*
X90718333Y-88300476D01*
X90623095Y-88348095D01*
X91813571Y-88062380D02*
X91908809Y-88062380D01*
X92004047Y-88110000D01*
X92051666Y-88157619D01*
X92099285Y-88252857D01*
X92146904Y-88443333D01*
X92146904Y-88681428D01*
X92099285Y-88871904D01*
X92051666Y-88967142D01*
X92004047Y-89014761D01*
X91908809Y-89062380D01*
X91813571Y-89062380D01*
X91718333Y-89014761D01*
X91670714Y-88967142D01*
X91623095Y-88871904D01*
X91575476Y-88681428D01*
X91575476Y-88443333D01*
X91623095Y-88252857D01*
X91670714Y-88157619D01*
X91718333Y-88110000D01*
X91813571Y-88062380D01*
X88899880Y-74402857D02*
X88423690Y-74736190D01*
X88899880Y-74974285D02*
X87899880Y-74974285D01*
X87899880Y-74593333D01*
X87947500Y-74498095D01*
X87995119Y-74450476D01*
X88090357Y-74402857D01*
X88233214Y-74402857D01*
X88328452Y-74450476D01*
X88376071Y-74498095D01*
X88423690Y-74593333D01*
X88423690Y-74974285D01*
X88899880Y-73450476D02*
X88899880Y-74021904D01*
X88899880Y-73736190D02*
X87899880Y-73736190D01*
X88042738Y-73831428D01*
X88137976Y-73926666D01*
X88185595Y-74021904D01*
X88899880Y-72498095D02*
X88899880Y-73069523D01*
X88899880Y-72783809D02*
X87899880Y-72783809D01*
X88042738Y-72879047D01*
X88137976Y-72974285D01*
X88185595Y-73069523D01*
X78179642Y-75812380D02*
X77846309Y-75336190D01*
X77608214Y-75812380D02*
X77608214Y-74812380D01*
X77989166Y-74812380D01*
X78084404Y-74860000D01*
X78132023Y-74907619D01*
X78179642Y-75002857D01*
X78179642Y-75145714D01*
X78132023Y-75240952D01*
X78084404Y-75288571D01*
X77989166Y-75336190D01*
X77608214Y-75336190D01*
X79132023Y-75812380D02*
X78560595Y-75812380D01*
X78846309Y-75812380D02*
X78846309Y-74812380D01*
X78751071Y-74955238D01*
X78655833Y-75050476D01*
X78560595Y-75098095D01*
X79512976Y-74907619D02*
X79560595Y-74860000D01*
X79655833Y-74812380D01*
X79893928Y-74812380D01*
X79989166Y-74860000D01*
X80036785Y-74907619D01*
X80084404Y-75002857D01*
X80084404Y-75098095D01*
X80036785Y-75240952D01*
X79465357Y-75812380D01*
X80084404Y-75812380D01*
X72242142Y-74112380D02*
X71908809Y-73636190D01*
X71670714Y-74112380D02*
X71670714Y-73112380D01*
X72051666Y-73112380D01*
X72146904Y-73160000D01*
X72194523Y-73207619D01*
X72242142Y-73302857D01*
X72242142Y-73445714D01*
X72194523Y-73540952D01*
X72146904Y-73588571D01*
X72051666Y-73636190D01*
X71670714Y-73636190D01*
X73194523Y-74112380D02*
X72623095Y-74112380D01*
X72908809Y-74112380D02*
X72908809Y-73112380D01*
X72813571Y-73255238D01*
X72718333Y-73350476D01*
X72623095Y-73398095D01*
X73527857Y-73112380D02*
X74146904Y-73112380D01*
X73813571Y-73493333D01*
X73956428Y-73493333D01*
X74051666Y-73540952D01*
X74099285Y-73588571D01*
X74146904Y-73683809D01*
X74146904Y-73921904D01*
X74099285Y-74017142D01*
X74051666Y-74064761D01*
X73956428Y-74112380D01*
X73670714Y-74112380D01*
X73575476Y-74064761D01*
X73527857Y-74017142D01*
X67117142Y-72612380D02*
X66783809Y-72136190D01*
X66545714Y-72612380D02*
X66545714Y-71612380D01*
X66926666Y-71612380D01*
X67021904Y-71660000D01*
X67069523Y-71707619D01*
X67117142Y-71802857D01*
X67117142Y-71945714D01*
X67069523Y-72040952D01*
X67021904Y-72088571D01*
X66926666Y-72136190D01*
X66545714Y-72136190D01*
X68069523Y-72612380D02*
X67498095Y-72612380D01*
X67783809Y-72612380D02*
X67783809Y-71612380D01*
X67688571Y-71755238D01*
X67593333Y-71850476D01*
X67498095Y-71898095D01*
X68926666Y-71945714D02*
X68926666Y-72612380D01*
X68688571Y-71564761D02*
X68450476Y-72279047D01*
X69069523Y-72279047D01*
X87649880Y-73902857D02*
X87173690Y-74236190D01*
X87649880Y-74474285D02*
X86649880Y-74474285D01*
X86649880Y-74093333D01*
X86697500Y-73998095D01*
X86745119Y-73950476D01*
X86840357Y-73902857D01*
X86983214Y-73902857D01*
X87078452Y-73950476D01*
X87126071Y-73998095D01*
X87173690Y-74093333D01*
X87173690Y-74474285D01*
X87649880Y-72950476D02*
X87649880Y-73521904D01*
X87649880Y-73236190D02*
X86649880Y-73236190D01*
X86792738Y-73331428D01*
X86887976Y-73426666D01*
X86935595Y-73521904D01*
X86649880Y-72045714D02*
X86649880Y-72521904D01*
X87126071Y-72569523D01*
X87078452Y-72521904D01*
X87030833Y-72426666D01*
X87030833Y-72188571D01*
X87078452Y-72093333D01*
X87126071Y-72045714D01*
X87221309Y-71998095D01*
X87459404Y-71998095D01*
X87554642Y-72045714D01*
X87602261Y-72093333D01*
X87649880Y-72188571D01*
X87649880Y-72426666D01*
X87602261Y-72521904D01*
X87554642Y-72569523D01*
X83337380Y-57137165D02*
X82861190Y-57470498D01*
X83337380Y-57708593D02*
X82337380Y-57708593D01*
X82337380Y-57327641D01*
X82385000Y-57232403D01*
X82432619Y-57184784D01*
X82527857Y-57137165D01*
X82670714Y-57137165D01*
X82765952Y-57184784D01*
X82813571Y-57232403D01*
X82861190Y-57327641D01*
X82861190Y-57708593D01*
X83337380Y-56184784D02*
X83337380Y-56756212D01*
X83337380Y-56470498D02*
X82337380Y-56470498D01*
X82480238Y-56565736D01*
X82575476Y-56660974D01*
X82623095Y-56756212D01*
X82337380Y-55327641D02*
X82337380Y-55518117D01*
X82385000Y-55613355D01*
X82432619Y-55660974D01*
X82575476Y-55756212D01*
X82765952Y-55803831D01*
X83146904Y-55803831D01*
X83242142Y-55756212D01*
X83289761Y-55708593D01*
X83337380Y-55613355D01*
X83337380Y-55422879D01*
X83289761Y-55327641D01*
X83242142Y-55280022D01*
X83146904Y-55232403D01*
X82908809Y-55232403D01*
X82813571Y-55280022D01*
X82765952Y-55327641D01*
X82718333Y-55422879D01*
X82718333Y-55613355D01*
X82765952Y-55708593D01*
X82813571Y-55756212D01*
X82908809Y-55803831D01*
X78242142Y-83612380D02*
X77908809Y-83136190D01*
X77670714Y-83612380D02*
X77670714Y-82612380D01*
X78051666Y-82612380D01*
X78146904Y-82660000D01*
X78194523Y-82707619D01*
X78242142Y-82802857D01*
X78242142Y-82945714D01*
X78194523Y-83040952D01*
X78146904Y-83088571D01*
X78051666Y-83136190D01*
X77670714Y-83136190D01*
X79194523Y-83612380D02*
X78623095Y-83612380D01*
X78908809Y-83612380D02*
X78908809Y-82612380D01*
X78813571Y-82755238D01*
X78718333Y-82850476D01*
X78623095Y-82898095D01*
X79527857Y-82612380D02*
X80194523Y-82612380D01*
X79765952Y-83612380D01*
X60237380Y-100152857D02*
X59761190Y-100486190D01*
X60237380Y-100724285D02*
X59237380Y-100724285D01*
X59237380Y-100343333D01*
X59285000Y-100248095D01*
X59332619Y-100200476D01*
X59427857Y-100152857D01*
X59570714Y-100152857D01*
X59665952Y-100200476D01*
X59713571Y-100248095D01*
X59761190Y-100343333D01*
X59761190Y-100724285D01*
X60237380Y-99200476D02*
X60237380Y-99771904D01*
X60237380Y-99486190D02*
X59237380Y-99486190D01*
X59380238Y-99581428D01*
X59475476Y-99676666D01*
X59523095Y-99771904D01*
X59665952Y-98629047D02*
X59618333Y-98724285D01*
X59570714Y-98771904D01*
X59475476Y-98819523D01*
X59427857Y-98819523D01*
X59332619Y-98771904D01*
X59285000Y-98724285D01*
X59237380Y-98629047D01*
X59237380Y-98438571D01*
X59285000Y-98343333D01*
X59332619Y-98295714D01*
X59427857Y-98248095D01*
X59475476Y-98248095D01*
X59570714Y-98295714D01*
X59618333Y-98343333D01*
X59665952Y-98438571D01*
X59665952Y-98629047D01*
X59713571Y-98724285D01*
X59761190Y-98771904D01*
X59856428Y-98819523D01*
X60046904Y-98819523D01*
X60142142Y-98771904D01*
X60189761Y-98724285D01*
X60237380Y-98629047D01*
X60237380Y-98438571D01*
X60189761Y-98343333D01*
X60142142Y-98295714D01*
X60046904Y-98248095D01*
X59856428Y-98248095D01*
X59761190Y-98295714D01*
X59713571Y-98343333D01*
X59665952Y-98438571D01*
X78179642Y-78062380D02*
X77846309Y-77586190D01*
X77608214Y-78062380D02*
X77608214Y-77062380D01*
X77989166Y-77062380D01*
X78084404Y-77110000D01*
X78132023Y-77157619D01*
X78179642Y-77252857D01*
X78179642Y-77395714D01*
X78132023Y-77490952D01*
X78084404Y-77538571D01*
X77989166Y-77586190D01*
X77608214Y-77586190D01*
X79132023Y-78062380D02*
X78560595Y-78062380D01*
X78846309Y-78062380D02*
X78846309Y-77062380D01*
X78751071Y-77205238D01*
X78655833Y-77300476D01*
X78560595Y-77348095D01*
X79608214Y-78062380D02*
X79798690Y-78062380D01*
X79893928Y-78014761D01*
X79941547Y-77967142D01*
X80036785Y-77824285D01*
X80084404Y-77633809D01*
X80084404Y-77252857D01*
X80036785Y-77157619D01*
X79989166Y-77110000D01*
X79893928Y-77062380D01*
X79703452Y-77062380D01*
X79608214Y-77110000D01*
X79560595Y-77157619D01*
X79512976Y-77252857D01*
X79512976Y-77490952D01*
X79560595Y-77586190D01*
X79608214Y-77633809D01*
X79703452Y-77681428D01*
X79893928Y-77681428D01*
X79989166Y-77633809D01*
X80036785Y-77586190D01*
X80084404Y-77490952D01*
X56937380Y-104402857D02*
X56461190Y-104736190D01*
X56937380Y-104974285D02*
X55937380Y-104974285D01*
X55937380Y-104593333D01*
X55985000Y-104498095D01*
X56032619Y-104450476D01*
X56127857Y-104402857D01*
X56270714Y-104402857D01*
X56365952Y-104450476D01*
X56413571Y-104498095D01*
X56461190Y-104593333D01*
X56461190Y-104974285D01*
X56032619Y-104021904D02*
X55985000Y-103974285D01*
X55937380Y-103879047D01*
X55937380Y-103640952D01*
X55985000Y-103545714D01*
X56032619Y-103498095D01*
X56127857Y-103450476D01*
X56223095Y-103450476D01*
X56365952Y-103498095D01*
X56937380Y-104069523D01*
X56937380Y-103450476D01*
X55937380Y-102831428D02*
X55937380Y-102736190D01*
X55985000Y-102640952D01*
X56032619Y-102593333D01*
X56127857Y-102545714D01*
X56318333Y-102498095D01*
X56556428Y-102498095D01*
X56746904Y-102545714D01*
X56842142Y-102593333D01*
X56889761Y-102640952D01*
X56937380Y-102736190D01*
X56937380Y-102831428D01*
X56889761Y-102926666D01*
X56842142Y-102974285D01*
X56746904Y-103021904D01*
X56556428Y-103069523D01*
X56318333Y-103069523D01*
X56127857Y-103021904D01*
X56032619Y-102974285D01*
X55985000Y-102926666D01*
X55937380Y-102831428D01*
X85821684Y-129674665D02*
X85345494Y-130007998D01*
X85821684Y-130246093D02*
X84821684Y-130246093D01*
X84821684Y-129865141D01*
X84869304Y-129769903D01*
X84916923Y-129722284D01*
X85012161Y-129674665D01*
X85155018Y-129674665D01*
X85250256Y-129722284D01*
X85297875Y-129769903D01*
X85345494Y-129865141D01*
X85345494Y-130246093D01*
X84916923Y-129293712D02*
X84869304Y-129246093D01*
X84821684Y-129150855D01*
X84821684Y-128912760D01*
X84869304Y-128817522D01*
X84916923Y-128769903D01*
X85012161Y-128722284D01*
X85107399Y-128722284D01*
X85250256Y-128769903D01*
X85821684Y-129341331D01*
X85821684Y-128722284D01*
X85821684Y-127769903D02*
X85821684Y-128341331D01*
X85821684Y-128055617D02*
X84821684Y-128055617D01*
X84964542Y-128150855D01*
X85059780Y-128246093D01*
X85107399Y-128341331D01*
X81554642Y-132462380D02*
X81221309Y-131986190D01*
X80983214Y-132462380D02*
X80983214Y-131462380D01*
X81364166Y-131462380D01*
X81459404Y-131510000D01*
X81507023Y-131557619D01*
X81554642Y-131652857D01*
X81554642Y-131795714D01*
X81507023Y-131890952D01*
X81459404Y-131938571D01*
X81364166Y-131986190D01*
X80983214Y-131986190D01*
X81935595Y-131557619D02*
X81983214Y-131510000D01*
X82078452Y-131462380D01*
X82316547Y-131462380D01*
X82411785Y-131510000D01*
X82459404Y-131557619D01*
X82507023Y-131652857D01*
X82507023Y-131748095D01*
X82459404Y-131890952D01*
X81887976Y-132462380D01*
X82507023Y-132462380D01*
X82887976Y-131557619D02*
X82935595Y-131510000D01*
X83030833Y-131462380D01*
X83268928Y-131462380D01*
X83364166Y-131510000D01*
X83411785Y-131557619D01*
X83459404Y-131652857D01*
X83459404Y-131748095D01*
X83411785Y-131890952D01*
X82840357Y-132462380D01*
X83459404Y-132462380D01*
X82737380Y-107090357D02*
X82261190Y-107423690D01*
X82737380Y-107661785D02*
X81737380Y-107661785D01*
X81737380Y-107280833D01*
X81785000Y-107185595D01*
X81832619Y-107137976D01*
X81927857Y-107090357D01*
X82070714Y-107090357D01*
X82165952Y-107137976D01*
X82213571Y-107185595D01*
X82261190Y-107280833D01*
X82261190Y-107661785D01*
X81832619Y-106709404D02*
X81785000Y-106661785D01*
X81737380Y-106566547D01*
X81737380Y-106328452D01*
X81785000Y-106233214D01*
X81832619Y-106185595D01*
X81927857Y-106137976D01*
X82023095Y-106137976D01*
X82165952Y-106185595D01*
X82737380Y-106757023D01*
X82737380Y-106137976D01*
X81737380Y-105804642D02*
X81737380Y-105185595D01*
X82118333Y-105518928D01*
X82118333Y-105376071D01*
X82165952Y-105280833D01*
X82213571Y-105233214D01*
X82308809Y-105185595D01*
X82546904Y-105185595D01*
X82642142Y-105233214D01*
X82689761Y-105280833D01*
X82737380Y-105376071D01*
X82737380Y-105661785D01*
X82689761Y-105757023D01*
X82642142Y-105804642D01*
X82804642Y-137212380D02*
X82471309Y-136736190D01*
X82233214Y-137212380D02*
X82233214Y-136212380D01*
X82614166Y-136212380D01*
X82709404Y-136260000D01*
X82757023Y-136307619D01*
X82804642Y-136402857D01*
X82804642Y-136545714D01*
X82757023Y-136640952D01*
X82709404Y-136688571D01*
X82614166Y-136736190D01*
X82233214Y-136736190D01*
X83185595Y-136307619D02*
X83233214Y-136260000D01*
X83328452Y-136212380D01*
X83566547Y-136212380D01*
X83661785Y-136260000D01*
X83709404Y-136307619D01*
X83757023Y-136402857D01*
X83757023Y-136498095D01*
X83709404Y-136640952D01*
X83137976Y-137212380D01*
X83757023Y-137212380D01*
X84614166Y-136545714D02*
X84614166Y-137212380D01*
X84376071Y-136164761D02*
X84137976Y-136879047D01*
X84757023Y-136879047D01*
X58492142Y-89612380D02*
X58158809Y-89136190D01*
X57920714Y-89612380D02*
X57920714Y-88612380D01*
X58301666Y-88612380D01*
X58396904Y-88660000D01*
X58444523Y-88707619D01*
X58492142Y-88802857D01*
X58492142Y-88945714D01*
X58444523Y-89040952D01*
X58396904Y-89088571D01*
X58301666Y-89136190D01*
X57920714Y-89136190D01*
X58873095Y-88707619D02*
X58920714Y-88660000D01*
X59015952Y-88612380D01*
X59254047Y-88612380D01*
X59349285Y-88660000D01*
X59396904Y-88707619D01*
X59444523Y-88802857D01*
X59444523Y-88898095D01*
X59396904Y-89040952D01*
X58825476Y-89612380D01*
X59444523Y-89612380D01*
X60349285Y-88612380D02*
X59873095Y-88612380D01*
X59825476Y-89088571D01*
X59873095Y-89040952D01*
X59968333Y-88993333D01*
X60206428Y-88993333D01*
X60301666Y-89040952D01*
X60349285Y-89088571D01*
X60396904Y-89183809D01*
X60396904Y-89421904D01*
X60349285Y-89517142D01*
X60301666Y-89564761D01*
X60206428Y-89612380D01*
X59968333Y-89612380D01*
X59873095Y-89564761D01*
X59825476Y-89517142D01*
X84492142Y-93212380D02*
X84158809Y-92736190D01*
X83920714Y-93212380D02*
X83920714Y-92212380D01*
X84301666Y-92212380D01*
X84396904Y-92260000D01*
X84444523Y-92307619D01*
X84492142Y-92402857D01*
X84492142Y-92545714D01*
X84444523Y-92640952D01*
X84396904Y-92688571D01*
X84301666Y-92736190D01*
X83920714Y-92736190D01*
X84873095Y-92307619D02*
X84920714Y-92260000D01*
X85015952Y-92212380D01*
X85254047Y-92212380D01*
X85349285Y-92260000D01*
X85396904Y-92307619D01*
X85444523Y-92402857D01*
X85444523Y-92498095D01*
X85396904Y-92640952D01*
X84825476Y-93212380D01*
X85444523Y-93212380D01*
X86301666Y-92212380D02*
X86111190Y-92212380D01*
X86015952Y-92260000D01*
X85968333Y-92307619D01*
X85873095Y-92450476D01*
X85825476Y-92640952D01*
X85825476Y-93021904D01*
X85873095Y-93117142D01*
X85920714Y-93164761D01*
X86015952Y-93212380D01*
X86206428Y-93212380D01*
X86301666Y-93164761D01*
X86349285Y-93117142D01*
X86396904Y-93021904D01*
X86396904Y-92783809D01*
X86349285Y-92688571D01*
X86301666Y-92640952D01*
X86206428Y-92593333D01*
X86015952Y-92593333D01*
X85920714Y-92640952D01*
X85873095Y-92688571D01*
X85825476Y-92783809D01*
X89687380Y-58402857D02*
X89211190Y-58736190D01*
X89687380Y-58974285D02*
X88687380Y-58974285D01*
X88687380Y-58593333D01*
X88735000Y-58498095D01*
X88782619Y-58450476D01*
X88877857Y-58402857D01*
X89020714Y-58402857D01*
X89115952Y-58450476D01*
X89163571Y-58498095D01*
X89211190Y-58593333D01*
X89211190Y-58974285D01*
X88782619Y-58021904D02*
X88735000Y-57974285D01*
X88687380Y-57879047D01*
X88687380Y-57640952D01*
X88735000Y-57545714D01*
X88782619Y-57498095D01*
X88877857Y-57450476D01*
X88973095Y-57450476D01*
X89115952Y-57498095D01*
X89687380Y-58069523D01*
X89687380Y-57450476D01*
X88687380Y-57117142D02*
X88687380Y-56450476D01*
X89687380Y-56879047D01*
X72437380Y-136215357D02*
X71961190Y-136548690D01*
X72437380Y-136786785D02*
X71437380Y-136786785D01*
X71437380Y-136405833D01*
X71485000Y-136310595D01*
X71532619Y-136262976D01*
X71627857Y-136215357D01*
X71770714Y-136215357D01*
X71865952Y-136262976D01*
X71913571Y-136310595D01*
X71961190Y-136405833D01*
X71961190Y-136786785D01*
X71532619Y-135834404D02*
X71485000Y-135786785D01*
X71437380Y-135691547D01*
X71437380Y-135453452D01*
X71485000Y-135358214D01*
X71532619Y-135310595D01*
X71627857Y-135262976D01*
X71723095Y-135262976D01*
X71865952Y-135310595D01*
X72437380Y-135882023D01*
X72437380Y-135262976D01*
X71865952Y-134691547D02*
X71818333Y-134786785D01*
X71770714Y-134834404D01*
X71675476Y-134882023D01*
X71627857Y-134882023D01*
X71532619Y-134834404D01*
X71485000Y-134786785D01*
X71437380Y-134691547D01*
X71437380Y-134501071D01*
X71485000Y-134405833D01*
X71532619Y-134358214D01*
X71627857Y-134310595D01*
X71675476Y-134310595D01*
X71770714Y-134358214D01*
X71818333Y-134405833D01*
X71865952Y-134501071D01*
X71865952Y-134691547D01*
X71913571Y-134786785D01*
X71961190Y-134834404D01*
X72056428Y-134882023D01*
X72246904Y-134882023D01*
X72342142Y-134834404D01*
X72389761Y-134786785D01*
X72437380Y-134691547D01*
X72437380Y-134501071D01*
X72389761Y-134405833D01*
X72342142Y-134358214D01*
X72246904Y-134310595D01*
X72056428Y-134310595D01*
X71961190Y-134358214D01*
X71913571Y-134405833D01*
X71865952Y-134501071D01*
X75237380Y-142215357D02*
X74761190Y-142548690D01*
X75237380Y-142786785D02*
X74237380Y-142786785D01*
X74237380Y-142405833D01*
X74285000Y-142310595D01*
X74332619Y-142262976D01*
X74427857Y-142215357D01*
X74570714Y-142215357D01*
X74665952Y-142262976D01*
X74713571Y-142310595D01*
X74761190Y-142405833D01*
X74761190Y-142786785D01*
X74332619Y-141834404D02*
X74285000Y-141786785D01*
X74237380Y-141691547D01*
X74237380Y-141453452D01*
X74285000Y-141358214D01*
X74332619Y-141310595D01*
X74427857Y-141262976D01*
X74523095Y-141262976D01*
X74665952Y-141310595D01*
X75237380Y-141882023D01*
X75237380Y-141262976D01*
X75237380Y-140786785D02*
X75237380Y-140596309D01*
X75189761Y-140501071D01*
X75142142Y-140453452D01*
X74999285Y-140358214D01*
X74808809Y-140310595D01*
X74427857Y-140310595D01*
X74332619Y-140358214D01*
X74285000Y-140405833D01*
X74237380Y-140501071D01*
X74237380Y-140691547D01*
X74285000Y-140786785D01*
X74332619Y-140834404D01*
X74427857Y-140882023D01*
X74665952Y-140882023D01*
X74761190Y-140834404D01*
X74808809Y-140786785D01*
X74856428Y-140691547D01*
X74856428Y-140501071D01*
X74808809Y-140405833D01*
X74761190Y-140358214D01*
X74665952Y-140310595D01*
X74087380Y-129715357D02*
X73611190Y-130048690D01*
X74087380Y-130286785D02*
X73087380Y-130286785D01*
X73087380Y-129905833D01*
X73135000Y-129810595D01*
X73182619Y-129762976D01*
X73277857Y-129715357D01*
X73420714Y-129715357D01*
X73515952Y-129762976D01*
X73563571Y-129810595D01*
X73611190Y-129905833D01*
X73611190Y-130286785D01*
X73087380Y-129382023D02*
X73087380Y-128762976D01*
X73468333Y-129096309D01*
X73468333Y-128953452D01*
X73515952Y-128858214D01*
X73563571Y-128810595D01*
X73658809Y-128762976D01*
X73896904Y-128762976D01*
X73992142Y-128810595D01*
X74039761Y-128858214D01*
X74087380Y-128953452D01*
X74087380Y-129239166D01*
X74039761Y-129334404D01*
X73992142Y-129382023D01*
X73087380Y-128143928D02*
X73087380Y-128048690D01*
X73135000Y-127953452D01*
X73182619Y-127905833D01*
X73277857Y-127858214D01*
X73468333Y-127810595D01*
X73706428Y-127810595D01*
X73896904Y-127858214D01*
X73992142Y-127905833D01*
X74039761Y-127953452D01*
X74087380Y-128048690D01*
X74087380Y-128143928D01*
X74039761Y-128239166D01*
X73992142Y-128286785D01*
X73896904Y-128334404D01*
X73706428Y-128382023D01*
X73468333Y-128382023D01*
X73277857Y-128334404D01*
X73182619Y-128286785D01*
X73135000Y-128239166D01*
X73087380Y-128143928D01*
X91487380Y-124465357D02*
X91011190Y-124798690D01*
X91487380Y-125036785D02*
X90487380Y-125036785D01*
X90487380Y-124655833D01*
X90535000Y-124560595D01*
X90582619Y-124512976D01*
X90677857Y-124465357D01*
X90820714Y-124465357D01*
X90915952Y-124512976D01*
X90963571Y-124560595D01*
X91011190Y-124655833D01*
X91011190Y-125036785D01*
X90487380Y-124132023D02*
X90487380Y-123512976D01*
X90868333Y-123846309D01*
X90868333Y-123703452D01*
X90915952Y-123608214D01*
X90963571Y-123560595D01*
X91058809Y-123512976D01*
X91296904Y-123512976D01*
X91392142Y-123560595D01*
X91439761Y-123608214D01*
X91487380Y-123703452D01*
X91487380Y-123989166D01*
X91439761Y-124084404D01*
X91392142Y-124132023D01*
X91487380Y-122560595D02*
X91487380Y-123132023D01*
X91487380Y-122846309D02*
X90487380Y-122846309D01*
X90630238Y-122941547D01*
X90725476Y-123036785D01*
X90773095Y-123132023D01*
X88987380Y-124402857D02*
X88511190Y-124736190D01*
X88987380Y-124974285D02*
X87987380Y-124974285D01*
X87987380Y-124593333D01*
X88035000Y-124498095D01*
X88082619Y-124450476D01*
X88177857Y-124402857D01*
X88320714Y-124402857D01*
X88415952Y-124450476D01*
X88463571Y-124498095D01*
X88511190Y-124593333D01*
X88511190Y-124974285D01*
X87987380Y-124069523D02*
X87987380Y-123450476D01*
X88368333Y-123783809D01*
X88368333Y-123640952D01*
X88415952Y-123545714D01*
X88463571Y-123498095D01*
X88558809Y-123450476D01*
X88796904Y-123450476D01*
X88892142Y-123498095D01*
X88939761Y-123545714D01*
X88987380Y-123640952D01*
X88987380Y-123926666D01*
X88939761Y-124021904D01*
X88892142Y-124069523D01*
X88082619Y-123069523D02*
X88035000Y-123021904D01*
X87987380Y-122926666D01*
X87987380Y-122688571D01*
X88035000Y-122593333D01*
X88082619Y-122545714D01*
X88177857Y-122498095D01*
X88273095Y-122498095D01*
X88415952Y-122545714D01*
X88987380Y-123117142D01*
X88987380Y-122498095D01*
X57218333Y-138017142D02*
X57170714Y-138064761D01*
X57027857Y-138112380D01*
X56932619Y-138112380D01*
X56789761Y-138064761D01*
X56694523Y-137969523D01*
X56646904Y-137874285D01*
X56599285Y-137683809D01*
X56599285Y-137540952D01*
X56646904Y-137350476D01*
X56694523Y-137255238D01*
X56789761Y-137160000D01*
X56932619Y-137112380D01*
X57027857Y-137112380D01*
X57170714Y-137160000D01*
X57218333Y-137207619D01*
X57694523Y-138112380D02*
X57885000Y-138112380D01*
X57980238Y-138064761D01*
X58027857Y-138017142D01*
X58123095Y-137874285D01*
X58170714Y-137683809D01*
X58170714Y-137302857D01*
X58123095Y-137207619D01*
X58075476Y-137160000D01*
X57980238Y-137112380D01*
X57789761Y-137112380D01*
X57694523Y-137160000D01*
X57646904Y-137207619D01*
X57599285Y-137302857D01*
X57599285Y-137540952D01*
X57646904Y-137636190D01*
X57694523Y-137683809D01*
X57789761Y-137731428D01*
X57980238Y-137731428D01*
X58075476Y-137683809D01*
X58123095Y-137636190D01*
X58170714Y-137540952D01*
X77485970Y-59896688D02*
X77485970Y-60610974D01*
X77438351Y-60753831D01*
X77343113Y-60849069D01*
X77200256Y-60896688D01*
X77105018Y-60896688D01*
X77914542Y-59991927D02*
X77962161Y-59944308D01*
X78057399Y-59896688D01*
X78295494Y-59896688D01*
X78390732Y-59944308D01*
X78438351Y-59991927D01*
X78485970Y-60087165D01*
X78485970Y-60182403D01*
X78438351Y-60325260D01*
X77866923Y-60896688D01*
X78485970Y-60896688D01*
X74235970Y-145396688D02*
X74235970Y-146110974D01*
X74188351Y-146253831D01*
X74093113Y-146349069D01*
X73950256Y-146396688D01*
X73855018Y-146396688D01*
X74616923Y-145396688D02*
X75235970Y-145396688D01*
X74902637Y-145777641D01*
X75045494Y-145777641D01*
X75140732Y-145825260D01*
X75188351Y-145872879D01*
X75235970Y-145968117D01*
X75235970Y-146206212D01*
X75188351Y-146301450D01*
X75140732Y-146349069D01*
X75045494Y-146396688D01*
X74759780Y-146396688D01*
X74664542Y-146349069D01*
X74616923Y-146301450D01*
X56551666Y-58512380D02*
X56551666Y-59226666D01*
X56504047Y-59369523D01*
X56408809Y-59464761D01*
X56265952Y-59512380D01*
X56170714Y-59512380D01*
X57456428Y-58845714D02*
X57456428Y-59512380D01*
X57218333Y-58464761D02*
X56980238Y-59179047D01*
X57599285Y-59179047D01*
X72801666Y-61262380D02*
X72801666Y-61976666D01*
X72754047Y-62119523D01*
X72658809Y-62214761D01*
X72515952Y-62262380D01*
X72420714Y-62262380D01*
X73754047Y-61262380D02*
X73277857Y-61262380D01*
X73230238Y-61738571D01*
X73277857Y-61690952D01*
X73373095Y-61643333D01*
X73611190Y-61643333D01*
X73706428Y-61690952D01*
X73754047Y-61738571D01*
X73801666Y-61833809D01*
X73801666Y-62071904D01*
X73754047Y-62167142D01*
X73706428Y-62214761D01*
X73611190Y-62262380D01*
X73373095Y-62262380D01*
X73277857Y-62214761D01*
X73230238Y-62167142D01*
X63763571Y-133362380D02*
X63763571Y-134076666D01*
X63715952Y-134219523D01*
X63620714Y-134314761D01*
X63477857Y-134362380D01*
X63382619Y-134362380D01*
X64192142Y-133457619D02*
X64239761Y-133410000D01*
X64335000Y-133362380D01*
X64573095Y-133362380D01*
X64668333Y-133410000D01*
X64715952Y-133457619D01*
X64763571Y-133552857D01*
X64763571Y-133648095D01*
X64715952Y-133790952D01*
X64144523Y-134362380D01*
X64763571Y-134362380D01*
X65382619Y-133362380D02*
X65573095Y-133362380D01*
X65668333Y-133410000D01*
X65763571Y-133505238D01*
X65811190Y-133695714D01*
X65811190Y-134029047D01*
X65763571Y-134219523D01*
X65668333Y-134314761D01*
X65573095Y-134362380D01*
X65382619Y-134362380D01*
X65287380Y-134314761D01*
X65192142Y-134219523D01*
X65144523Y-134029047D01*
X65144523Y-133695714D01*
X65192142Y-133505238D01*
X65287380Y-133410000D01*
X65382619Y-133362380D01*
X66668333Y-133695714D02*
X66668333Y-134362380D01*
X66239761Y-133695714D02*
X66239761Y-134219523D01*
X66287380Y-134314761D01*
X66382619Y-134362380D01*
X66525476Y-134362380D01*
X66620714Y-134314761D01*
X66668333Y-134267142D01*
X67001666Y-133695714D02*
X67382619Y-133695714D01*
X67144523Y-133362380D02*
X67144523Y-134219523D01*
X67192142Y-134314761D01*
X67287380Y-134362380D01*
X67382619Y-134362380D01*
X68239761Y-134362380D02*
X67668333Y-134362380D01*
X67954047Y-134362380D02*
X67954047Y-133362380D01*
X67858809Y-133505238D01*
X67763571Y-133600476D01*
X67668333Y-133648095D01*
M02*
